<svg xmlns="http://www.w3.org/2000/svg" viewBox="0 0 162.79 251.12"><defs><style>.a,.d{fill:#fefefe;}.a{stroke:#c5c6c8;stroke-miterlimit:10;}.b{fill:#1d1d14;}.c{fill:#c1c2c4;}</style></defs><path class="a" d="M80.35,250.57c-22.84,0-45.68,0-68.51.05-4.4,0-7.16-2.2-9.43-5.48a11.45,11.45,0,0,1-1.82-6.59Q.52,232.27.58,226C1,181.31.7,136.65.79,92c0-19.13.11-38.27-.08-57.4C.63,26.52.81,18.45.51,10.4.34,5.8,2.74,3.29,6.59,1.53a12.09,12.09,0,0,1,5.12-1c15.17,0,30.34-.12,45.51,0,31.46.35,62.92,0,94.37.17a10.68,10.68,0,0,1,9.86,6,9.41,9.41,0,0,1,.76,5.37c-.07.84-.14,1.67-.14,2.5q0,49.38-.09,98.76c0,2.87-.19,5.74-.15,8.61.44,30,.07,60,.2,90,0,8.39,0,16.78,0,25.17a13.28,13.28,0,0,1-9,12.91,9.41,9.41,0,0,1-3.17.46H80.35Z"/><path class="b" d="M114.24,192.46a5.14,5.14,0,0,0,0-2.92c-1.18-2.82-1.16-6-3-8.63a1,1,0,0,1,0-1.23c.24-.33.68-.13,1-.05a18.68,18.68,0,0,0,7,.09c1.06-.16,1.06.22.84.88a26.56,26.56,0,0,1-1.24,3.09,19.34,19.34,0,0,0-2.07,7.43c0,.39-.15.94.29,1s.48-.51.63-.82a13.25,13.25,0,0,1,3.94-4.9c1.41-1,3.28-.88,5-.59a8,8,0,0,1,5.69,4.51,9.41,9.41,0,0,1,0,8.77c-1.55,3.45-4.47,4.21-7.79,4.47-1.3.11-2.22-.76-3.34-1.13-.24-.09-.49-.6-.77-.09-.19.34.1.57.34.8a11,11,0,0,1,3.78,6.18c.54,3-1.09,7.93-5.34,9.17a11.25,11.25,0,0,1-8.83-.58,7.88,7.88,0,0,1-4-7.55c.08-.64.08-1.28.12-1.91a3.11,3.11,0,0,1,1.24-2.56c1-.77,1.5-2.15,2.61-2.92.17-.12.36-.4.16-.62s-.54-.05-.76.07a8.43,8.43,0,0,1-6.27.57c-2.83-.7-4.3-2.82-5.18-5.34a9.07,9.07,0,0,1,1.73-9c2-2.51,6-3.77,9-2.51a6.3,6.3,0,0,1,2.88,2.58C112.53,189.93,113.34,191.09,114.24,192.46Z"/><path class="b" d="M79.41,168.38a6.35,6.35,0,0,0-.11-3.74c-.85-2.49-1.52-5-2.61-7.43-.47-1,0-1.12.84-1.14,1.4,0,2.75.48,4.16.33.91-.1,1.81-.21,2.72-.3s1.2.29.83,1.17c-.65,1.58-1.24,3.18-1.89,4.76a10.94,10.94,0,0,0-1.1,5.79c0,.19,0,.41.32.56.76-1.21,1.48-2.47,2.34-3.64,2.31-3.16,6-3.09,8.71-1.94,3.6,1.52,5.21,5.9,5,8.79A10.62,10.62,0,0,1,96.81,177a6.71,6.71,0,0,1-5.92,2.89,36.31,36.31,0,0,1-5.15-.78A14.55,14.55,0,0,1,89.36,184c1.64,3.93-.34,9.67-4.73,10.84a12.5,12.5,0,0,1-5.4.66c-6.3-1.16-9.48-6.79-6.63-12.27a19.84,19.84,0,0,1,2.47-3.37c.26-.32.68-.56.73-1-.33-.22-.61,0-.89.07-3.29,1.3-6.47,1.56-9.2-1.2s-3.31-6.32-1.95-10.06A8.23,8.23,0,0,1,70.53,162a6.2,6.2,0,0,1,6,2.32C77.5,165.58,78.36,166.9,79.41,168.38Z"/><path class="b" d="M52,48.6c.37.24.69.06,1-.07,3-1.2,6-1.28,8.56.94a8.76,8.76,0,0,1,2.8,8.9c-.86,4.19-4,7-7.87,7.13-3.36.07-5.48-1.82-7-4.58a6.5,6.5,0,0,0-1.35-2.08,6.11,6.11,0,0,0,0,3.09,37.29,37.29,0,0,0,2.65,7.79,8,8,0,0,1,.38,1c.24.78,0,1-.84.84a18.78,18.78,0,0,0-6.85-.11c-.4.07-.92.32-1.2-.07s0-.84.17-1.25a34.1,34.1,0,0,0,2.06-5.82c.38-1.43,1.24-2.74,1.12-4.3,0-.35.15-.84-.28-.95s-.58.36-.68.68a9.36,9.36,0,0,1-3.92,4.81c-1.76,1.24-3.8,1-5.75.46-3.62-1.05-5.91-4.5-5.9-8.73A8.4,8.4,0,0,1,34.84,48a7.35,7.35,0,0,1,5.37.35c.14.06.28.14.43.19.33.1.71.41,1,0s-.12-.75-.42-1a9.29,9.29,0,0,1-2.54-3.42,8.21,8.21,0,0,1,1.23-9.38A8.59,8.59,0,0,1,45.11,32a9.76,9.76,0,0,1,7.69,1.77,8.06,8.06,0,0,1,2.31,10.48,16.29,16.29,0,0,1-2.25,3.09C52.53,47.74,52.07,48,52,48.6Z"/><path class="b" d="M121.77,49.12c1.12-.32,2.09-.68,3.09-.86,7-1.24,10.15,5.17,9.3,10.07a9.08,9.08,0,0,1-6.37,7.38c-2.62.93-6.41-.79-8-3.59a11.38,11.38,0,0,0-2.05-3,21.53,21.53,0,0,0,1.53,7.93c.49,1.34,1.38,2.52,1.64,4,.15.85,0,1-.89.81a24.15,24.15,0,0,0-7.35,0c-.73.1-.75-.13-.66-.64a7.67,7.67,0,0,1,.78-2.11,18.2,18.2,0,0,0,2.32-9.52A25.94,25.94,0,0,1,112,63.65a7.39,7.39,0,0,1-11.18-1c-2.34-3.34-2.78-6.79-.86-10.46a7.72,7.72,0,0,1,9.81-3.61,3,3,0,0,0,1.95.39c-.77-1-1.54-1.84-2.25-2.78a8.91,8.91,0,0,1-.55-10.28,7.52,7.52,0,0,1,3.34-2.66c4-1.85,9.58-1.11,12.18,2.86,2.33,3.57,1.6,8.35-1.86,11.61A1.89,1.89,0,0,0,121.77,49.12Z"/><path class="b" d="M47.57,145.1a4.13,4.13,0,0,0,1-1.49c1.54-3.43,4.53-5.37,7.87-5.1a8.13,8.13,0,0,1,7.12,6.32,9.73,9.73,0,0,1-1,7.72,8,8,0,0,1-9.85,3,2.11,2.11,0,0,0-1.57-.36,3.83,3.83,0,0,0,1.22,1.66c3,3,3.72,7.11,1.9,10.54-1.4,2.65-3.81,3.79-6.64,4.33a9.4,9.4,0,0,1-7.36-1.63c-4.2-2.95-4.45-8.31-1.25-12.29a13.23,13.23,0,0,0,2-2.6,1.91,1.91,0,0,0-1.44.2c-5.24,2-10.07-.81-11-6.34a9.14,9.14,0,0,1,6-10.44c2.74-.93,5.05,0,7.09,1.85,1,.93,1.51,2.24,2.55,3.14.25.23-.28,1.25.53,1,.58-.15-.22-.91-.1-1.14.73-1.51-.22-2.66-.67-3.93-.73-2.06-1.47-4.12-2.07-6.23-.24-.83.06-1,.78-1a30.92,30.92,0,0,0,7,0c.94-.12,1.16.27.8,1.18a46.61,46.61,0,0,0-2.65,7.4C47.54,142.31,47.07,143.61,47.57,145.1Z"/><path class="b" d="M83.17,83a12.82,12.82,0,0,0,.69,6.26,40.64,40.64,0,0,0,1.94,4.62c.14.3.53.6.23,1s-.71.26-1.11.22c-1.06-.12-2.13-.29-3.2-.33-1.62-.07-3.23.43-5,.21.81-2,1.64-4,2.39-6a17.16,17.16,0,0,0,1.22-6.41A5.66,5.66,0,0,0,78.47,85a9.25,9.25,0,0,1-3.78,3.53C72.13,90,67.15,88.1,65.78,86c-2-3.08-2.62-6.17-1.32-9.64a7,7,0,0,1,6.26-4.88,10.3,10.3,0,0,1,5.75,1c.14-.63-.37-.92-.67-1.28-1.33-1.59-2.7-3.15-3.12-5.29-1.06-5.31,2.3-9.65,7.91-10.15a9.5,9.5,0,0,1,8.08,2.77,8.29,8.29,0,0,1,.15,11c-.46.55-.95,1.08-1.38,1.65-.19.26-.61.54-.27.92s.59,0,.89-.06a9.85,9.85,0,0,1,4-.64,8.12,8.12,0,0,1,7.19,6.91,10.1,10.1,0,0,1-2.22,8c-2.58,3.19-8.61,4.46-11.92-.41Z"/><path class="b" d="M39.71,202.24a12.37,12.37,0,0,1-4,.76,7.26,7.26,0,0,1-7-5.12,9.58,9.58,0,0,1,2.73-10.76,7.22,7.22,0,0,1,10.8,1.39c.71,1,1.3,2,2.09,3.21.56-4.59-1.83-8.24-3-12.38a39.89,39.89,0,0,0,9.39-.09L49,183.1a22.57,22.57,0,0,0-2,7.47c0,.42-.23,1.07.17,1.19s.69-.52.85-.94a8,8,0,0,1,6.72-5.35,6.39,6.39,0,0,1,2.72.24c3.24.86,5.94,4.46,6.11,8.07.19,4.05-2,7.69-5.35,8.92a8.77,8.77,0,0,1-6.08-.2c-.4-.14-.76-.45-1.33-.3.67.89,1.27,1.77,1.94,2.59a8.6,8.6,0,0,1,1.79,8.15c-.81,2.88-3,4.51-5.73,5.49a12.51,12.51,0,0,1-4.83.34,7.93,7.93,0,0,1-7.29-7.17,9.85,9.85,0,0,1,3.91-9.13C40.57,201.43,40,202.49,39.71,202.24Z"/><path class="b" d="M47.76,105.9c-.43,4.65,2,8.3,3.21,12.37-3.13-.15-6.14-.3-9.38-.21,1.64-2.54,1.83-5.45,3.07-8a7,7,0,0,0,.63-3.85c0-.22,0-.51-.29-.57s-.26.25-.4.37a4.31,4.31,0,0,0-.92,1.52,7.55,7.55,0,0,1-6.18,4.69c-3.07.32-5.39-1.07-7.11-3.54-2.37-3.41-2.31-6.91-.27-10.42a7.32,7.32,0,0,1,8.43-3.45c.58.14,1.14.36,1.71.53.36.11.79.58,1.06.16s-.29-.72-.56-1a11.48,11.48,0,0,1-3-4.94c-1.23-4.59.82-8.44,5.31-10,5.36-1.9,10.62.3,12.2,5.13,1.22,3.73,0,6.79-2.61,9.47-.4.42-1.26.84-1,1.35s1-.1,1.58-.26c2.92-.92,5.73-.85,8.07,1.33a8.79,8.79,0,0,1,2.83,8.33c-.74,4.18-4.27,7.23-7.64,7.45-3.12.21-5.22-1.27-6.88-3.7A13.82,13.82,0,0,0,47.76,105.9Z"/><path class="b" d="M117.77,108.19a1.71,1.71,0,0,0-.16,1.38,25.27,25.27,0,0,0,2.78,7.71c.25.43.51.93.29,1.33-.11.19-.76.19-1.13.11a22.82,22.82,0,0,0-7.33,0,4,4,0,0,1-.6,0c.89-4.24,3.57-8,3.33-12.71a3.07,3.07,0,0,0-1.25,1.73,7.78,7.78,0,0,1-8.51,4.76,7.23,7.23,0,0,1-4.48-2.69A9.32,9.32,0,0,1,99,100.62a7.78,7.78,0,0,1,11-4.9,1.69,1.69,0,0,0,1.29.19c-.07-.67-.59-1-1-1.41-2.16-2.21-3.47-4.8-3-8,.88-5.57,6.52-8.65,12.25-6.76,6.43,2.12,8,9.23,3.19,14.31A5.83,5.83,0,0,0,121.32,96c1.09-.27,2.08-.61,3.1-.77,4.82-.71,8,1.45,9.24,6.16a9.13,9.13,0,0,1-3.46,9.75c-3.91,2.82-8,1.9-10.68-1.89-.3-.41-.43-1-1-1.16s-.22-1.12-.86-1.36C117.35,107.26,118,107.7,117.77,108.19Z"/><path class="b" d="M111.18,155.47c-.89-.33-1.59.28-2.33.55a7.59,7.59,0,0,1-8.18-1.74c-2.52-2.37-3-5.54-2.18-8.83s2.78-5.64,6.17-6.5a7.8,7.8,0,0,1,8.68,4.59,3.85,3.85,0,0,0,1.21,1.81,3.07,3.07,0,0,0,.2-2.2,40.06,40.06,0,0,0-2.81-8.73c-.7-1.56-.62-1.62,1.06-1.58,2.48.07,5,.52,7.68-.35-1.46,4.4-3.84,8.34-3.57,13.19a6.31,6.31,0,0,0,1.52-2.35c1.36-3.1,5.42-5.18,8.63-4.33,3.45.92,5.26,3.48,6.14,6.72,1.46,5.41-2.57,10.93-7.85,10.84a8.33,8.33,0,0,1-3.25-.7,2.67,2.67,0,0,0-1.38-.34c0,.75.58,1.12,1,1.56,3.1,3.13,3.86,7.16,2,10.72-1.5,2.88-4.13,3.93-7.14,4.35a10.05,10.05,0,0,1-7.36-2.09c-3.07-2.13-3.54-7.7-1.59-10.74a32.16,32.16,0,0,1,3.33-3.85Z"/><path class="b" d="M146.29,196.54a6.17,6.17,0,0,0-.89-3.11,1.06,1.06,0,0,1-.09-1.12c.26-.45.62-.17.95-.11s.48.07.71.08c2,.08,1.94.07,1.23,2a3.63,3.63,0,0,0-.4,2.55c1.42-1.73,3-2.93,5.13-1.49,1.57,1.05,2,2,1.41,4.76-.54,2.35-2.69,2-4.45,2.25-.17.51.23.77.41,1.08a3.61,3.61,0,0,1-.18,4.29,4.29,4.29,0,0,1-5.35.76,3.65,3.65,0,0,1-1.63-4.44,1.66,1.66,0,0,1,.15-.33c.77-1.39.77-1.39-.82-1.45-2.27-.07-4-3.34-2.87-5.34,1.52-2.58,4.11-3.06,5.86-.88C145.64,196.27,145.8,196.61,146.29,196.54Z"/><path class="b" d="M16.54,53.83c-.06,1.2.64,2.19.92,3.3.15.62.19,1-.65.92s-2.09.37-2.65-.25.51-1.46.62-2.29A13.12,13.12,0,0,1,15.11,54c-.14-.21-.29-.15-.43,0-1.24,1-2.39,1.93-4.19,1.19-2.18-.9-2.44-2.79-2.22-4.37a3.66,3.66,0,0,1,3.55-3c1.25-.07,1.27-.09.65-1.25A3.75,3.75,0,0,1,13,42.15a4.71,4.71,0,0,1,5.25-.35A3.57,3.57,0,0,1,19.57,46c-.17.56-.83,1.07-.52,1.63s1.1.17,1.67.28A3.84,3.84,0,0,1,23,53.6c-1.53,2.62-4.48,2.58-6.22-.07C16.7,53.65,16.45,53.63,16.54,53.83Z"/><path class="b" d="M13.23,25.53c0-2.43,0-4.86,0-7.3,0-4.65,2.13-6.08,6.62-5.62,2.91.29,4.34,2.39,4.3,5.75,0,5-.12,9.94-.14,14.91,0,2.2-.67,4-2.73,5a5.9,5.9,0,0,1-6.43-.44c-1.45-1-1.78-2.58-1.79-4.22,0-2.71,0-5.42,0-8.13Z"/><path class="b" d="M149.14,225.64c-.24,2.21.06,4.92,0,7.63,0,4.2-2.61,5.9-6.81,5.26-2.72-.41-4-2-4.05-4.81q0-8.06,0-16.13a5.19,5.19,0,0,1,4-5.3,5.87,5.87,0,0,1,6.64,2.85,2.35,2.35,0,0,1,.2,1.27Z"/><path class="b" d="M10.9,25.48c0,3.95,0,7.89,0,11.84,0,.84-.19,1.37-1.18,1.4s-1.16-.59-1.15-1.39c0-5.44.06-10.89.11-16.34,0-2.43-.17-4.86,0-7.29.05-.69.12-1.27,1-1.41s1.37,0,1.35,1.09c-.05,4,0,8.07,0,12.1Z"/><path class="b" d="M151.35,226.27c0-3.09.07-5.45,0-7.79-.07-1.72.18-3.42.14-5.13,0-.77.52-1,1.19-1s1.13.43,1.12,1.21c0,3-.07,6-.08,9.08,0,4.91,0,9.81,0,14.72,0,.52,0,1.07-.44,1.41a1.22,1.22,0,0,1-1.9-1,28.41,28.41,0,0,1,0-3.69C151.51,231.25,151.07,228.38,151.35,226.27Z"/><path class="c" d="M117.77,108.19c-.7-.57-.58-1.31-.41-2.12,1,.31,1.08,1.19,1.18,2Z"/><path class="c" d="M39.71,202.24a1.16,1.16,0,0,1,.75-.53c.22,0,.51-.08.6.22s-.1.51-.43.54Z"/><path class="c" d="M14.68,54c.09-.26.07-.71.41-.66s.16.43,0,.67Z"/><path class="d" d="M111.18,155.47l-.18-.1a.35.35,0,0,0,0-.06l.17.16Z"/><path class="d" d="M146.41,196.79l-.08.08a1,1,0,0,1-.07-.15s.05-.05.07-.08Z"/><path class="d" d="M16.54,53.83a.22.22,0,0,1-.08-.35s.18,0,.27.05Z"/><path class="d" d="M21.64,24.67c0,3.72,0,6.28,0,8.83a3.1,3.1,0,0,1-4.36,3A2.49,2.49,0,0,1,15.42,34c0-5.27,0-10.53.06-15.8,0-2.86,1.72-4,4.32-3.28a2.41,2.41,0,0,1,1.89,2.31C21.9,20.1,21.56,23,21.64,24.67Z"/><path class="d" d="M146.9,225.18c0,2.43,0,4.86,0,7.29a10,10,0,0,1-.11,1.55,2.47,2.47,0,0,1-2.84,2.41c-2,0-3-.66-3.29-2.37a36,36,0,0,1-.13-6c0-3.23.09-6.45.15-9.68a13.87,13.87,0,0,1,.06-1.44c.25-1.76,1.42-2.6,3.45-2.47,1.83.12,2.72,1,2.74,2.78,0,2.63,0,5.26,0,7.9Z"/></svg>