<svg xmlns="http://www.w3.org/2000/svg" xmlns:xlink="http://www.w3.org/1999/xlink" viewBox="0 0 162.79 251.12"><defs><style>.a{fill:#1d1d14;}.b,.d{fill:#fefefe;}.b{stroke:#c5c6c8;stroke-miterlimit:10;}.c{fill:#010101;}</style><symbol id="a" viewBox="0 0 36.15 39.55"><path class="a" d="M16.43,26.84a17.37,17.37,0,0,1-3.45,5c-2.53,2.46-6.58,1.91-8.66.6A9.45,9.45,0,0,1,1.7,19.09c2.41-3.3,6.05-4.21,10.12-2.52l.54.26c.22.08.49.18.62-.08,0-.11-.09-.37-.21-.51-.66-.79-1.4-1.54-2-2.36A8.38,8.38,0,0,1,12.4,1.64,9.09,9.09,0,0,1,17.06.06,10.11,10.11,0,0,1,24.27,2a8.17,8.17,0,0,1,2.35,9.9,10.71,10.71,0,0,1-2.29,3.33,4.56,4.56,0,0,0-1.25,1.59c.57.31,1-.07,1.44-.26a8.28,8.28,0,0,1,9.58,2.16c4.61,5.88.73,13.54-4.74,14.6-2.58.5-4.94.11-6.83-2.05a10.62,10.62,0,0,1-2.05-3A1.86,1.86,0,0,0,19.24,27a17.87,17.87,0,0,0,1.49,7.4c.53,1.29,1.11,2.55,1.66,3.82.42,1,.16,1.4-.85,1.25a25.42,25.42,0,0,0-7.13,0c-1.08.14-1.2-.08-.8-1.13.94-2.44,2.32-4.71,2.78-7.33A10.62,10.62,0,0,0,16.43,26.84Z"/></symbol></defs><path class="b" d="M80.35,250.57c-22.84,0-45.68,0-68.51.05-4.4,0-7.16-2.2-9.43-5.48a11.45,11.45,0,0,1-1.82-6.59Q.52,232.27.58,226C1,181.31.7,136.65.79,92c0-19.13.11-38.27-.08-57.4C.63,26.52.81,18.45.51,10.4.34,5.8,2.74,3.29,6.59,1.53a12.09,12.09,0,0,1,5.12-1c15.17,0,30.34-.12,45.51,0,31.46.35,62.92,0,94.37.17a10.68,10.68,0,0,1,9.86,6,9.41,9.41,0,0,1,.76,5.37c-.07.84-.14,1.67-.14,2.5q0,49.38-.09,98.76c0,2.87-.19,5.74-.15,8.61.44,30,.07,60,.2,90,0,8.39,0,16.78,0,25.17a13.28,13.28,0,0,1-9,12.91,9.41,9.41,0,0,1-3.17.46H80.35Z"/><path class="c" d="M69.94,72.68c0-10-.1-20,0-30,.14-11.8,7-18,19.6-18s19.57,6.49,19.6,18.11q.07,28.89-.15,57.77c-.09,10.4-6.07,16.86-16.54,18.4s-19.41-3.23-22-11.79a21,21,0,0,1-.74-5.88c-.07-9.56,0-19.12,0-28.67Z"/><path class="c" d="M61.24,71.13c0,14.41-.1,28.82.08,43.23,0,3.06-1.1,3.45-3.68,3.42s-4.08-.12-4.06-3.54q.22-42.81,0-85.61c0-3.24,1-4.66,4.34-4.73s3.33,2,3.32,4.42C61.2,42.59,61.24,56.86,61.24,71.13Z"/><path class="d" d="M78.22,71.57c0-9-.09-17.95,0-26.93.14-9.88,5.94-14,15.54-11.56,5.59,1.46,7.47,5.65,7.46,10.6q-.07,28.64-.73,57.25c-.15,6.55-4.65,10.22-11.32,10.17-7.13,0-11-3.27-11.18-10.08C77.77,91.21,78,81.39,78,71.57Z"/><use width="36.15" height="39.55" transform="translate(45.56 148.05) scale(1.98)" xlink:href="#a"/></svg>