<svg xmlns="http://www.w3.org/2000/svg" viewBox="0 0 162.74 251.08"><defs><style>.a,.c{fill:#fefefe;}.a{stroke:#c5c6c8;stroke-miterlimit:10;}.b{fill:#cf2101;}</style></defs><path class="a" d="M.78,138.52V55C.77,48,.9,41.12.71,34.21.5,26.27.8,18.32.51,10.38.34,5.81,2.66,3.32,6.62,1.51a11.89,11.89,0,0,1,5-1C26.8.54,42,.43,57.15.58,88.57.89,120,.63,151.41.71a11.4,11.4,0,0,1,9,4.3c1.82,2.12,2,4.72,1.82,7.36,0,.55-.11,1.11-.11,1.67q0,37.39-.05,74.79c0,8.11.06,16.22-.06,24.33-.05,3.39-.17,6.78-.13,10.17.39,29.52,0,59,.18,88.56,0,8.35,0,16.7,0,25.05a13.52,13.52,0,0,1-6.45,12,10.59,10.59,0,0,1-6,1.61L52,250.58l-41.09,0a8.05,8.05,0,0,1-5-1.67A12.65,12.65,0,0,1,.57,238.08c0-4,0-7.92,0-11.87C1,193.77.62,161.34.78,138.52Z"/><path class="b" d="M64.22,77.63a2.16,2.16,0,0,1,.67-1.36c5.2-6.06,9.86-12.55,15-18.68.88-1.05,1.3-1.11,2.16-.07q7.8,9.4,15.56,18.83a1.48,1.48,0,0,1,0,2.13q-7.74,9.67-15.43,19.39c-.54.68-1,.79-1.62.13-2.48-2.45-4.42-5.34-6.65-8-3-3.55-5.89-7.14-8.84-10.72A2.42,2.42,0,0,1,64.22,77.63Z"/><path class="b" d="M33.1,197.93a1.65,1.65,0,0,1,.48-1.18q7.68-9.57,15.36-19.13c.76-.94,1.13-.92,1.86,0L65.92,196c1.34,1.63,1.36,1.7,0,3.33-3.34,4.11-6.52,8.35-9.88,12.44-1.78,2.17-3.47,4.42-5.17,6.66-.57.75-.92.36-1.33,0a22.3,22.3,0,0,1-2.78-3.22c-4.2-5.38-8.68-10.52-13-15.82A2.08,2.08,0,0,1,33.1,197.93Z"/><path class="b" d="M130.17,101.36a1.8,1.8,0,0,1-.53,1c-2.75,3.51-5.46,7-8.25,10.52-2.35,2.93-4.59,6-7,8.86-.69.84-1.18.76-1.76,0-2.62-3.46-5.54-6.68-8.26-10.06-2.45-3-4.92-6.06-7.45-9a2,2,0,0,1,.22-2.73c2.48-3.08,5-6.13,7.45-9.21,2.6-3.24,5.17-6.49,7.76-9.73.67-.85,1.19-.87,1.79-.1,4.91,6.29,10,12.38,15.13,18.54A2.75,2.75,0,0,1,130.17,101.36Z"/><path class="b" d="M48.68,33c.54.12.82.58,1.15,1q4.85,5.85,9.68,11.71c1.78,2.15,3.57,4.29,5.34,6.46,1.26,1.54,1.24,1.8,0,3.35L50.67,73.35c-1.57,2-1.57,2-3.16.06L33,55.89c-1.46-1.76-1.46-1.84,0-3.64L48,33.56A1.57,1.57,0,0,1,48.68,33Z"/><path class="b" d="M114.08,176l11.59,14.13c1.49,1.82,3,3.64,4.47,5.47,1.1,1.35,1.12,1.54.07,2.88q-3.32,4.23-6.66,8.46-4.15,5.24-8.33,10.47c-.87,1.08-1.1,1-2,0L98.5,199.45c-.3-.37-.65-.69-1-1a1.39,1.39,0,0,1-.1-2c5.66-6.56,10.76-13.56,16.35-20.17A1.62,1.62,0,0,1,114.08,176Z"/><path class="b" d="M32.31,102.18a1.8,1.8,0,0,1,.49-1.32q7.8-9.7,15.59-19.41c.42-.54.72-.47,1.13-.08A22.1,22.1,0,0,1,51.13,83q7,8.5,13.94,17c1.25,1.53,1.23,2,0,3.54L50.48,121.94c-1,1.21-1.11,1.21-2.13,0L32.87,103.19C32.59,102.85,32.29,102.53,32.31,102.18Z"/><path class="b" d="M130.34,149.05a5.28,5.28,0,0,1-1.39,2.81c-2.82,3.16-5.26,6.61-7.9,9.91-2.11,2.61-4.17,5.27-6.22,7.92-.64.83-1,.77-1.73,0-1.35-1.47-2.49-3.09-3.79-4.59-1.7-2-3.37-4-5-6-2.06-2.53-4.08-5.09-6.16-7.6-1.7-2.05-1.66-2.17,0-4.21,3.94-5,8.06-9.8,11.81-14.92,1-1.34,2.24-2.48,3.21-3.85.41-.57.79-.33,1.13.14,2,2.77,4.41,5.2,6.49,7.91,2.71,3.54,5.65,6.89,8.48,10.34A4,4,0,0,1,130.34,149.05Z"/><path class="b" d="M98.74,173.36a3.15,3.15,0,0,1-.75,1.49c-3.3,4.16-6.67,8.26-9.86,12.5-1.71,2.25-3.74,4.24-5.22,6.66-.36.59-.79,1.05-1.46.22q-7.65-9.34-15.34-18.67c-1.55-1.88-1.57-1.89,0-3.82l14.61-18.22c.89-1.11,1.21-1.12,2.11,0q4.33,5.26,8.68,10.53c2.2,2.67,4.41,5.32,6.61,8A2.38,2.38,0,0,1,98.74,173.36Z"/><path class="b" d="M49.87,170.76a1.51,1.51,0,0,1-1-.69Q41,160.51,33.08,151a1.46,1.46,0,0,1,0-2.12c5.15-6.35,10.29-12.73,15.43-19.08.86-1.05,1.11-1,2,0l14.87,18c1.46,1.78,1.46,1.88.06,3.65q-7.17,9.08-14.35,18.12C50.77,170.05,50.46,170.59,49.87,170.76Z"/><path class="b" d="M113.27,74.5a1.19,1.19,0,0,1-.86-.59q-7.87-9.64-15.77-19.28a1.65,1.65,0,0,1,0-2.42q6.06-7.5,12.06-15c1-1.21,1.85-2.47,2.88-3.64,1.19-1.35,1.31-1.43,2.49,0,2.19,2.64,4.36,5.3,6.54,8,2.89,3.51,5.76,7,8.69,10.52a1.53,1.53,0,0,1,0,2.29q-7.78,9.8-15.52,19.63C113.66,74.17,113.49,74.46,113.27,74.5Z"/><path class="b" d="M152,224.52c0,2.79,0,5.58,0,8.37a4.84,4.84,0,0,1-3.5,4.88,7.2,7.2,0,0,1-4.57-.05,4.46,4.46,0,0,1-2.76-3.51,26.79,26.79,0,0,1-.15-4.65c.18-4.47-.06-8.93-.08-13.39a4.64,4.64,0,0,1,3.61-4.56,8,8,0,0,1,3.08-.16,4.49,4.49,0,0,1,4.16,4.7c0,2.79,0,5.58,0,8.37Z"/><path class="b" d="M10.85,26.31c0-2.64.05-5.27,0-7.91-.07-3.58,2-4.65,4.7-5.14a5.74,5.74,0,0,1,6.09,3.22A5.94,5.94,0,0,1,21.87,19c0,5.3.06,10.6,0,15.9a5,5,0,0,1-3.84,4.89,5.84,5.84,0,0,1-6.33-2,5.8,5.8,0,0,1-.83-3.19c0-1.4,0-2.8,0-4.2S10.85,27.67,10.85,26.31Z"/><path class="b" d="M13.88,42.59l6.47,7.78a1.08,1.08,0,0,1-.06,1.52q-2.92,3.63-5.83,7.28c-.35.45-.56.4-.9,0-2-2.39-4-4.77-6-7.15a1.12,1.12,0,0,1-.06-1.53C9.62,47.87,11.72,45.28,13.88,42.59Z"/><path class="b" d="M148.72,191.65a1.39,1.39,0,0,1,.85.61c1.77,2.16,3.54,4.32,5.34,6.46a1.42,1.42,0,0,1,0,2q-2.81,3.5-5.59,7c-.4.52-.62.51-1,0-1.85-2.3-3.74-4.57-5.63-6.84a1.45,1.45,0,0,1,0-2.12c1.77-2.16,3.49-4.36,5.23-6.54A1.51,1.51,0,0,1,148.72,191.65Z"/><path class="b" d="M153.94,224.66c0-3.95,0-7.9,0-11.85,0-.72.14-1.27,1-1.35a1.15,1.15,0,0,1,1.39,1.24c.06,1.32.1,2.64.1,4q.06,9.89.09,19.76c0,.76,0,1.48-1,1.56s-1.35-.34-1.35-1.33c0-4,0-8,0-12Z"/><path class="b" d="M6.28,26.42V14.57c0-.57,0-1.19.73-1.31s1.55,0,1.57,1.07c0,1.72.08,3.43.07,5.15,0,6.33.42,12.65.24,19,0,.76-.18,1.4-1,1.46a1.21,1.21,0,0,1-1.38-1.18,7.91,7.91,0,0,1-.06-.84V26.42Z"/><path class="c" d="M149.37,220.61c-.06,3.67.34,7.64.21,11.63-.08,2.61-1.37,3.71-3.92,3.24a2.36,2.36,0,0,1-2.18-2.55c-.08-5.38-.16-10.77-.14-16.15a3.08,3.08,0,0,1,4.45-2.85,2.32,2.32,0,0,1,1.58,2.3Z"/><path class="c" d="M19.48,26.79c0,2.55,0,5.1,0,7.65a2.75,2.75,0,0,1-3,3.09c-2,.07-3.11-.78-3.15-2.75-.1-5.54-.1-11.08-.06-16.61,0-1.6,1-2.42,2.61-2.53,1.95-.14,3.08.57,3.42,2.19a23.83,23.83,0,0,1,.16,4.05C19.52,23.52,19.48,25.15,19.48,26.79Z"/></svg>