<svg xmlns="http://www.w3.org/2000/svg" xmlns:xlink="http://www.w3.org/1999/xlink" viewBox="0 0 162.74 251.08"><defs><style>.a{fill:#cf2101;}.b,.c{fill:#fefefe;}.b{stroke:#c5c6c8;stroke-miterlimit:10;}</style><symbol id="a" viewBox="0 0 40.83 50.32"><path class="a" d="M0,25.26A1.85,1.85,0,0,1,.57,24L19.32.8c.87-1.07,1.17-1.06,2,0L40,23.46c1.16,1.42,1.18,1.61,0,3.07Q30.91,37.91,21.84,49.29c-1.11,1.38-1.36,1.38-2.52,0Q10,38,.68,26.62A2.15,2.15,0,0,1,0,25.26Z"/></symbol></defs><path class="b" d="M.78,138.52V55C.77,48,.9,41.12.71,34.21.5,26.27.8,18.32.51,10.38.34,5.81,2.66,3.32,6.62,1.51a11.89,11.89,0,0,1,5-1C26.8.54,42,.43,57.15.58,88.57.89,120,.63,151.41.71a11.4,11.4,0,0,1,9,4.3c1.82,2.12,2,4.72,1.82,7.36,0,.55-.11,1.11-.11,1.67q0,37.39-.05,74.79c0,8.11.06,16.22-.06,24.33-.05,3.39-.17,6.78-.13,10.17.39,29.52,0,59,.18,88.56,0,8.35,0,16.7,0,25.05a13.52,13.52,0,0,1-6.45,12,10.59,10.59,0,0,1-6,1.61L52,250.58l-41.09,0a8.05,8.05,0,0,1-5-1.67A12.65,12.65,0,0,1,.57,238.08c0-4,0-7.92,0-11.87C1,193.77.62,161.34.78,138.52Z"/><path class="a" d="M69.92,72.93c0-10-.09-20,0-29.94.14-11.81,7-18,19.6-18s19.56,6.48,19.6,18.11q.07,28.88-.15,57.77c-.09,10.39-6.07,16.86-16.54,18.4s-19.41-3.23-22-11.79a21.13,21.13,0,0,1-.74-5.88c-.07-9.56,0-19.12,0-28.68Z"/><path class="a" d="M61.23,71.38c0,14.41-.11,28.82.08,43.23,0,3.06-1.1,3.45-3.68,3.42s-4.08-.11-4.06-3.54q.23-42.79,0-85.61c0-3.24,1-4.66,4.34-4.73s3.33,2,3.32,4.43C61.19,42.84,61.23,57.11,61.23,71.38Z"/><path class="c" d="M78.21,71.83c0-9-.1-18,0-26.94.14-9.88,5.94-14,15.54-11.55,5.58,1.45,7.47,5.64,7.46,10.6q-.08,28.62-.73,57.25c-.15,6.55-4.65,10.22-11.32,10.17-7.13-.06-11-3.28-11.18-10.08-.25-9.81-.07-19.64-.07-29.45Z"/><use width="40.83" height="50.32" transform="translate(49.56 148.27) scale(1.56)" xlink:href="#a"/></svg>