<svg xmlns="http://www.w3.org/2000/svg" viewBox="0 0 162.77 251.16"><defs><style>.a,.c{fill:#fefefe;}.a{stroke:#c5c6c8;stroke-miterlimit:10;}.b{fill:#cf2101;}</style></defs><path class="a" d="M80.29,250.57c-22.91,0-45.84-.12-68.75.09-5.15,0-10.32-5.28-10.72-9.82a117.82,117.82,0,0,1-.07-16.38c0-.32,0-.64,0-1q0-84.43,0-168.88C.78,47.79.93,41,.72,34.13.48,26.18.81,18.24.51,10.3c-.17-4.57,2.29-7,6-8.72a12.09,12.09,0,0,1,5.23-1C26.83.55,42,.42,57.1.59c31.5.34,63,0,94.49.17a10.75,10.75,0,0,1,9.87,6,8.68,8.68,0,0,1,.77,4.79c-.37,6.14-.15,12.29-.16,18.43-.06,27.65,0,55.3-.09,83,0,3.1-.18,6.22-.15,9.33.42,38.22.08,76.45.19,114.68a13.49,13.49,0,0,1-8.61,13,10,10,0,0,1-3.76.57H80.29Z"/><path class="b" d="M115.64,88c.54-.73,1-1.45,1.56-2.12a9.19,9.19,0,0,1,10.07-3.27c3.45.87,4.77,3.64,5.28,6.85a16.54,16.54,0,0,1-2.37,11c-3.79,6.62-8.74,12.37-13.9,17.94-.32.34-.67.83-1.25.18-5.79-6.5-11.65-13-15.16-21.08a13.64,13.64,0,0,1-.28-10.62c2.07-5.39,9.7-6.42,13.82-1.9C114.23,85.91,114.88,87,115.64,88Z"/><path class="b" d="M99,40.55a10.23,10.23,0,0,1,1.08-4.13c2.26-4.56,8.64-5.56,12.84-2a9,9,0,0,1,1.89,2.14c1,1.61,1,1.62,2.19,0a9.36,9.36,0,0,1,10.14-3.95,6.5,6.5,0,0,1,5,4.34c1.59,4.12.91,8.07-.88,11.93-2.31,5-5.78,9.15-9.2,13.36-1.63,2-3.4,3.9-5.1,5.86-.68.78-1.38,1-2.11.12-5-5.77-10.08-11.53-13.69-18.37A16.82,16.82,0,0,1,99,40.55Z"/><path class="b" d="M81.73,62.92c.43-.6.81-1.16,1.2-1.69,2.56-3.46,6-4.59,10.13-3.76,3.36.67,5.42,3.6,5.74,7.75.35,4.67-1.47,8.65-3.88,12.44A122.44,122.44,0,0,1,82.75,93c-.59.67-1.28.93-1.93.18-5.47-6.24-11-12.46-14.58-20a14.76,14.76,0,0,1-.69-11.06c1.74-5.63,9.64-6.36,13.31-2.77A32.74,32.74,0,0,1,81.73,62.92Z"/><path class="b" d="M81.38,188.09c-.5.71-.88,1.26-1.28,1.81a9.51,9.51,0,0,1-10.22,3.77c-3.32-.82-5.28-3.58-5.61-7.74a18.15,18.15,0,0,1,2.87-10.79c3.69-6.31,8.44-11.79,13.35-17.16.5-.55,1-.78,1.61-.13,5.73,6.29,11.3,12.71,14.86,20.55a13.71,13.71,0,0,1,.9,9.23c-1.6,6.29-8.3,8.5-13.4,4.43A14.26,14.26,0,0,1,81.38,188.09Z"/><path class="b" d="M39.85,82a8.54,8.54,0,0,1,6.95,4.71c.67,1.18,1.08,1,1.67,0a9.46,9.46,0,0,1,10.84-4.31c3.27,1,4.7,3.5,5.21,6.66.65,4.09-.48,7.82-2.48,11.34-3.39,6-7.81,11.18-12.36,16.27-.24.27-.5.51-.72.8-1.13,1.49-1.39,1.44-2.71.09a101.58,101.58,0,0,1-10.39-13c-2.34-3.33-4.45-6.83-5-11a13.25,13.25,0,0,1,.75-6.94C32.92,83.46,35.22,82,39.85,82Z"/><path class="b" d="M30.38,158.38c0-4.2,1.78-7.81,4-11.21A118.7,118.7,0,0,1,46.55,132c.63-.68,1.12-.9,1.89,0,5.18,6,10.47,11.84,14,19a15.14,15.14,0,0,1,1.6,10.31c-.68,3-2,5.46-5.29,6.29A8.72,8.72,0,0,1,49.61,165,12.13,12.13,0,0,1,48,162.78c-.41-.72-.64-.73-1.09,0a10.09,10.09,0,0,1-6.39,4.86c-5.81,1.28-9.91-2.11-10.16-8.39C30.37,158.94,30.38,158.66,30.38,158.38Z"/><path class="b" d="M47.21,213a22,22,0,0,1-2.59,3.24,9.14,9.14,0,0,1-9.22,2.11c-3.33-.93-4.57-3.6-5.13-6.72-.69-3.85.44-7.36,2.22-10.68,3.06-5.71,7.27-10.57,11.44-15.46.81-.94,1.65-1.85,2.48-2.76.47-.52,1.05-.71,1.54-.13,5.82,6.77,12,13.32,15.34,21.81a13.52,13.52,0,0,1,.47,8.13c-.7,3.06-2.39,5.33-5.6,6a8.88,8.88,0,0,1-9.15-3A26.71,26.71,0,0,1,47.21,213Z"/><path class="b" d="M132.36,158.62a10.4,10.4,0,0,1-.45,3.46c-1,3.63-3.12,5.64-6.32,6a9.13,9.13,0,0,1-9.09-4.27c-.93-1.65-1-1.64-2-.12a9.56,9.56,0,0,1-9.24,4.37c-3.58-.31-6.15-3.18-6.69-7.06A17.12,17.12,0,0,1,101,149.78a99.06,99.06,0,0,1,13.68-17.64c.35-.38.75-1,1.44-.26,5.21,5.78,10.34,11.63,14,18.57A15.87,15.87,0,0,1,132.36,158.62Z"/><path class="b" d="M47.9,37.88c1.6-2.68,3.56-4.77,6.62-5.45,6.15-1.37,10.27,2.1,10.45,8.69.11,3.8-1.39,7.08-3.25,10.22A100.51,100.51,0,0,1,48.8,67.91c-.59.64-1.18,1-1.89.19-5.21-5.94-10.41-11.88-14-19A15,15,0,0,1,31.25,38.6c.69-2.93,2-5.41,5.26-6.19,3.56-.85,6.74-.22,9.25,2.62C46.52,35.89,47.15,36.87,47.9,37.88Z"/><path class="b" d="M132.12,209.8a9.33,9.33,0,0,1-.32,3c-1,3.93-3,5.77-6.88,6.29a9.06,9.06,0,0,1-8.75-4.49c-.72-1.32-1.11-1.2-1.86-.08a9.25,9.25,0,0,1-10.22,4.28c-3.26-.65-5.17-2.9-5.78-6.76-.74-4.61.74-8.67,3.13-12.47a119.49,119.49,0,0,1,12.78-16.27c.49-.54,1-1.11,1.77-.3,5.61,6.24,11.17,12.52,14.77,20.22A14.15,14.15,0,0,1,132.12,209.8Z"/><path class="b" d="M23.83,46.08a8.08,8.08,0,0,1-1.2,4.08,45.27,45.27,0,0,1-6.25,8.14c-.25.27-.44.48-.75.13-3.15-3.5-6.51-6.86-7.5-11.72-.36-1.81.6-4,1.9-4.57a4.2,4.2,0,0,1,5.1,1.11c.62.73.91.87,1.63.06A4.2,4.2,0,0,1,22,42.21C23.21,42.85,23.83,44.13,23.83,46.08Z"/><path class="b" d="M154.65,205.05c0,1.95-.36,3.51-2.21,4.29A4.12,4.12,0,0,1,147.6,208c-.57-.63-.9-.54-1.4,0a6.9,6.9,0,0,1-1.12.9,3.92,3.92,0,0,1-4.08.39,3.84,3.84,0,0,1-2-3.48,8.15,8.15,0,0,1,1.14-4.69,45.42,45.42,0,0,1,5.71-7.52c.6-.66,1.19-.9,1.89-.1a40.25,40.25,0,0,1,6.1,8.4A6.64,6.64,0,0,1,154.65,205.05Z"/><path class="b" d="M13.25,25.51c0-2.76,0-5.52,0-8.27,0-3.19,1.7-4.91,4.93-5.08,3.54-.18,5.82,1.42,5.89,4.61.12,5.86.07,11.74-.09,17.6-.07,2.8-2.68,4.49-6.12,4.32A4.77,4.77,0,0,1,13.22,34c0-2.83,0-5.67,0-8.5Z"/><path class="b" d="M149.86,225.81c0,2.76,0,5.52,0,8.27,0,3.08-1.93,4.92-5.19,5s-5.55-1.72-5.6-4.72q-.13-8.38,0-16.78c.06-3.3,2.28-5.21,5.54-5.1,3.53.12,5.23,1.88,5.24,5.41v7.9Z"/><path class="b" d="M152.17,225.91v-11.6c0-.79-.15-1.64,1.13-1.64s1.19.81,1.19,1.63c0,7.9-.06,15.8-.07,23.69,0,.87-.4,1.27-1.22,1.27s-1.21-.33-1.21-1.15v-12.2Z"/><path class="b" d="M11,25.17c0,3.86,0,7.73,0,11.6,0,.54.34,1.46-.6,1.52s-1.54-.57-1.54-1.58c0-7.85,0-15.69,0-23.53,0-.83.34-1.29,1.21-1.26s1.08.64,1.08,1.4c0,3.95,0,7.9,0,11.85Z"/><path class="c" d="M15.61,25.47c0-2.67,0-5.35,0-8,0-2.11.85-2.91,2.9-3s3.19.86,3.2,2.85c0,5.38,0,10.77-.07,16.16a3.11,3.11,0,0,1-3.17,3,2.74,2.74,0,0,1-2.87-3.07Z"/><path class="c" d="M147.46,225.89c0,2.55,0,5.1,0,7.65,0,2.38-.83,3.16-3.07,3.13s-3-.92-3.07-3.2c-.16-5.14,0-10.28.09-15.42a3.16,3.16,0,0,1,4.83-2.8,2.48,2.48,0,0,1,1.3,2.38c0,2.75,0,5.5,0,8.26Z"/></svg>