<svg xmlns="http://www.w3.org/2000/svg" xmlns:xlink="http://www.w3.org/1999/xlink" viewBox="0 0 162.77 251.16"><defs><style>.a{fill:#cb3329;}.b,.d{fill:#fefefe;}.b{stroke:#c5c6c8;stroke-miterlimit:10;}.c{fill:#cf2101;}</style><symbol id="a" viewBox="0 0 41.85 45.12"><path class="a" d="M0,11.37c.12-3,.81-6,3.08-8.33,3.86-4,10-4.06,14.31-.1A12.51,12.51,0,0,1,19.83,6c.24.41.38,1,.91,1s.7-.59.93-1A11.11,11.11,0,0,1,29.16.37c6.11-1.19,11.17.93,12.41,8.14a18.54,18.54,0,0,1-1.22,10.43C37.86,25,34,30.05,30,35.12c-2.48,3.17-5.14,6.21-7.83,9.21-.92,1-1.24,1.05-2.11.1C14.33,38.2,8.78,31.81,4.31,24.58,2,20.85.1,17,0,12.44Z"/></symbol></defs><path class="b" d="M80.29,250.57c-22.91,0-45.84-.12-68.75.09-5.15,0-10.32-5.28-10.72-9.82a117.82,117.82,0,0,1-.07-16.38c0-.32,0-.64,0-1q0-84.43,0-168.88C.78,47.79.93,41,.72,34.13.48,26.18.81,18.24.51,10.3c-.17-4.57,2.29-7,6-8.72a12.09,12.09,0,0,1,5.23-1C26.83.55,42,.42,57.1.59c31.5.34,63,0,94.49.17a10.75,10.75,0,0,1,9.87,6,8.68,8.68,0,0,1,.77,4.79c-.37,6.14-.15,12.29-.16,18.43-.06,27.65,0,55.3-.09,83,0,3.1-.18,6.22-.15,9.33.42,38.22.08,76.45.19,114.68a13.49,13.49,0,0,1-8.61,13,10,10,0,0,1-3.76.57H80.29Z"/><use width="41.85" height="45.12" transform="translate(45.64 149.39) scale(1.71)" xlink:href="#a"/><path class="c" d="M71,71.15c0-10-.1-20,0-29.95.14-11.8,7-18.05,19.6-18s19.57,6.48,19.6,18.1q.08,28.89-.15,57.77C110,109.49,104,116,93.51,117.49S74.1,114.26,71.46,105.7a20.66,20.66,0,0,1-.73-5.88c-.08-9.56,0-19.11,0-28.67Z"/><path class="c" d="M62.28,69.6c0,14.41-.1,28.82.08,43.23,0,3.06-1.1,3.45-3.67,3.42s-4.09-.12-4.07-3.54q.23-42.81,0-85.61c0-3.24,1-4.66,4.33-4.73s3.33,2,3.32,4.42C62.24,41.06,62.28,55.33,62.28,69.6Z"/><path class="d" d="M79.27,70c0-9-.1-18,0-26.93.14-9.88,5.94-14,15.54-11.56,5.59,1.46,7.47,5.65,7.46,10.6q-.08,28.64-.73,57.25c-.15,6.55-4.65,10.22-11.32,10.17-7.13,0-11-3.27-11.18-10.08C78.81,89.68,79,79.86,79,70Z"/></svg>