<svg xmlns="http://www.w3.org/2000/svg" viewBox="0 0 161.77 250.07"><defs><style>.a{fill:#fefefe;}.b{fill:#010101;}</style></defs><path class="a" d="M.26,128.41C.26,97,.34,65.61.2,34.22.17,26,.27,17.85,0,9.67c-.12-3.73,1.6-6.13,4.56-7.91A12,12,0,0,1,10.83.05C26.21.05,41.58-.08,57,.09c31.33.35,62.67,0,94,.16a10.79,10.79,0,0,1,10,6,8.73,8.73,0,0,1,.79,4.78c-.39,6.19-.16,12.37-.17,18.56-.06,27.72,0,55.45-.09,83.17,0,3.51-.18,7-.14,10.53.42,37.7.07,75.41.18,113.11,0,6-3.47,11.28-8.56,13a11.36,11.36,0,0,1-3.75.59H11.46A11.24,11.24,0,0,1,.53,241.48a15,15,0,0,1-.46-3.78C.44,201.27.19,164.84.26,128.41Z"/><path class="b" d="M44.34,132.34h3.33a11.07,11.07,0,0,1-1,3.13,24.7,24.7,0,0,0-1.31,6.9c0,.33-.21.82.2,1s.58-.43.8-.71c.37-.47.68-1,1-1.47,1.8-2.59,4.17-3.94,7.38-3.21s5,3,5.62,6.12a11.21,11.21,0,0,1-2.35,9.76Q51.44,162,44.87,170.27c-.69.85-1.16.86-1.82,0-4.41-5.72-8.95-11.35-13.22-17.16a10.83,10.83,0,0,1-1.28-11,6.93,6.93,0,0,1,12.18-1.46c.47.64.86,1.34,1.33,2,.18.25.24.78.74.59s.24-.54.25-.84a24.23,24.23,0,0,0-1.61-8.17c-.68-2-.69-1.95,1.35-1.95h1.55Z"/><path class="b" d="M46.47,56.53c-.62,2.7,0,5,.66,7.29.32,1.14.69,2.28,1.06,3.41.17.51.07.71-.51.7-1.8,0-3.59,0-5.39,0-.77,0-.82-.18-.6-.87a47.43,47.43,0,0,0,2.07-7.6,11.41,11.41,0,0,0,.06-2.93,3.56,3.56,0,0,0-1.5,1.65C40,61.84,37.54,63,34.09,62.11s-5.37-3.85-5.55-7.8a12.56,12.56,0,0,1,3.07-8.69c4.31-5.34,8.64-10.67,12.93-16,.55-.7.85-.68,1.37,0,4.4,5.68,8.88,11.29,13.2,17a11.67,11.67,0,0,1,1.8,10.8A7,7,0,0,1,55,62.47c-2.74.49-4.79-.74-6.38-2.87C47.91,58.68,47.29,57.71,46.47,56.53Z"/><path class="b" d="M42.29,194.08c.53-4.17-.83-7.6-2-11.1h7a46.42,46.42,0,0,0-2.1,7c-.18,1.14-.24,2.3-.34,3.45,0,.23,0,.49.27.58s.43-.15.56-.34c.38-.56.73-1.14,1.12-1.69,2.06-3,4.41-4,7.56-3.28,2.94.65,4.91,2.88,5.55,6.19a11.51,11.51,0,0,1-2.41,9.66c-4.51,5.69-9.1,11.32-13.65,17-.35.45-.52.68-1,.05C38.67,216,34.4,210.51,30.14,205a12.27,12.27,0,0,1-2.54-10.89,7,7,0,0,1,5.49-5.56,6.8,6.8,0,0,1,7.29,3C40.93,192.27,41.5,193,42.29,194.08Z"/><path class="b" d="M114.28,57.29c-.71,1-1.21,1.79-1.76,2.52-1.78,2.38-4,3.76-7.11,3.06a7.13,7.13,0,0,1-5.66-6A11.17,11.17,0,0,1,102,47.12c4.53-5.62,8.94-11.35,13.39-17,.48-.62.74-.8,1.32,0,4.34,5.68,8.76,11.29,13.06,17a11.4,11.4,0,0,1,1.67,11.64,6.85,6.85,0,0,1-11.92,1.71c-.72-.93-1.31-2-2-3.05-.87,2.37-.17,4.48.36,6.59A33.3,33.3,0,0,0,119,67.68c.32.85,0,.91-.71.9-1.68,0-3.35-.06-5,0-.83,0-1-.13-.69-1a21.51,21.51,0,0,0,1.81-9.43C114.32,58,114.31,57.82,114.28,57.29Z"/><path class="b" d="M113.11,194.58a15.44,15.44,0,0,0-.6-6.8,25.22,25.22,0,0,0-1.09-3.28c-.38-.9-.06-1,.72-1,1.68,0,3.36.08,5,0,1.12-.06,1,.34.71,1.14a20.69,20.69,0,0,0-1.83,8.7,1.59,1.59,0,0,0,.28,1.18c.63-.89,1.21-1.78,1.85-2.63a6.31,6.31,0,0,1,6.69-2.68,6.81,6.81,0,0,1,5.51,5,11.17,11.17,0,0,1-1.74,10.45c-4.49,5.81-9.15,11.49-13.71,17.24-.54.69-.82.57-1.3-.05-4.22-5.51-8.47-11-12.69-16.5a11.78,11.78,0,0,1-2.19-11.36,7,7,0,0,1,5.71-5c2.78-.49,5,.69,6.65,2.89C111.73,192.75,112.34,193.57,113.11,194.58Z"/><path class="b" d="M116.68,143.94c.85-1.18,1.53-2.22,2.3-3.17,3.67-4.5,10.08-2.19,11.6,2,1.42,4,1.22,7.76-1.47,11.18-4.55,5.78-9.12,11.53-13.64,17.31-.52.68-.8.5-1.2,0-1.8-2.29-3.61-4.57-5.4-6.87-2.5-3.21-5-6.42-7.46-9.66-2.62-3.46-3.57-7.3-2.16-11.49a6.78,6.78,0,0,1,5.63-4.93,6.71,6.71,0,0,1,6.88,3.14c.34.49.64,1,1,1.48s.36,1.1.9.91.21-.86.2-1.3a25.81,25.81,0,0,0-1.93-8.71c-.3-.77-.32-1.12.69-1.07,1.71.07,3.44.06,5.15,0,1,0,1,.25.63,1a24.28,24.28,0,0,0-1.82,6.54A11.06,11.06,0,0,0,116.68,143.94Z"/><path class="b" d="M46,108.43c-1,4.22,1.1,7.67,1.85,11.4a28.86,28.86,0,0,0-6.09-.1c-.82.08-.87-.09-.61-.81a30.25,30.25,0,0,0,2.09-7.58c.1-.92.61-2.28-.17-2.65s-1.05,1.14-1.52,1.81C39.38,113.61,37,114.74,34,114c-3.48-.87-5.49-3.33-5.86-7.25a11,11,0,0,1,2.35-8.28q6.87-8.53,13.63-17.15c.45-.57.71-.68,1.2,0,4.53,5.87,9.22,11.63,13.59,17.62a10.52,10.52,0,0,1,.58,12.06,6.59,6.59,0,0,1-11,1C47.66,110.9,47,109.77,46,108.43Z"/><path class="b" d="M81.93,83.06a7.12,7.12,0,0,0-.06,5c.44,1.74,1,3.45,1.5,5.16.25.78.08,1-.75,1-1.68-.06-3.36-.07-5,0-.9,0-.87-.28-.62-.94A33.59,33.59,0,0,0,79.15,83a2.07,2.07,0,0,0-1.42,1.19c-2.3,3.71-4.78,5-8.12,4.21S64.17,85,63.82,80.82a11,11,0,0,1,2.4-7.94c4.48-5.67,9-11.26,13.54-16.92.69-.88,1-.71,1.59.08,4.08,5.37,8.23,10.68,12.34,16,2.59,3.37,3.78,7.05,2.51,11.3a7,7,0,0,1-5.82,5.33c-3,.53-5.19-.77-6.85-3.15C83,84.8,82.54,84,81.93,83.06Z"/><path class="b" d="M77.85,169.65a8,8,0,0,0-.09-5.25c-.44-1.7-.94-3.38-1.45-5.05-.2-.64-.06-.84.62-.82,1.76,0,3.51,0,5.27,0,.84,0,.79.27.55.9a28.47,28.47,0,0,0-2.18,8.9c0,.41-.34,1.07.29,1.25s.58-.54.84-.85a11.43,11.43,0,0,0,.65-1c1.89-2.93,4.33-4.15,7.2-3.61a7.21,7.21,0,0,1,6.07,6.23,10.92,10.92,0,0,1-2.18,9.34q-6.82,8.58-13.6,17.18c-.48.61-.73.62-1.2,0-4.53-5.88-9.16-11.68-13.58-17.64a11.17,11.17,0,0,1-1.55-10.16,7,7,0,0,1,5.95-5.22c2.8-.46,4.94.86,6.56,3.08C76.62,167.77,77.17,168.64,77.85,169.65Z"/><path class="b" d="M116.84,109c-.82,2.48,0,4.62.53,6.77a38,38,0,0,0,1.14,3.77c.23.63.15.85-.56.84-1.75,0-3.51,0-5.27,0-.76,0-.85-.2-.64-.89q1-3.31,1.92-6.66a4.89,4.89,0,0,0-.19-3.65c-.77,1.08-1.41,2.14-2.2,3.07a6.82,6.82,0,0,1-11.79-2c-1.43-3.86-1.16-7.6,1.51-11,4.55-5.71,9.13-11.4,13.64-17.14.72-.91,1.08-.42,1.51.14,4.43,5.75,8.89,11.48,13.26,17.28a10.87,10.87,0,0,1,2.11,6.25c.17,4.53-2,7.93-5.71,8.87a6.54,6.54,0,0,1-7.39-2.86C118.1,111,117.54,110,116.84,109Z"/><path class="b" d="M10.63,26.88c0-2.8,0-5.59,0-8.38,0-3.31,2-5.05,5.49-5s5.47,1.82,5.48,5.07q0,8.09,0,16.17c0,2.91-1.7,4.71-4.63,5.15s-5.43-.91-6.17-3.3a5.74,5.74,0,0,1-.2-1.65c0-2.67,0-5.35,0-8Z"/><path class="b" d="M148.55,225.79c0,2.75,0,5.5,0,8.26,0,3.41-1.81,5-5.4,5s-5.46-1.67-5.45-5q0-8.19.16-16.39c.06-3.27,2.2-5.12,5.67-5,3.32.07,5.07,1.85,5.1,5.14,0,1.36.07,2.71.08,4.07s0,2.63,0,3.94Z"/><path class="b" d="M13.57,54.21c-.53,1-.07,1.92.09,2.84.06.35.34.9-.15,1.05a3.66,3.66,0,0,1-1.88.13c-.48-.12-.08-.7-.05-1,.1-1,.3-1.92.5-3.1l-.83.64c-1.68,1.34-3.08,1.53-4.32.61a4.18,4.18,0,0,1-1-4.92c1.87-3.1,4.36-5.77,6.59-8.63.39-.49.53,0,.68.23,1.94,2.58,3.94,5.11,5.76,7.77s.51,6-2.27,6.2C15.23,56.08,14.45,55.1,13.57,54.21Z"/><path class="b" d="M145.61,197.76a7.68,7.68,0,0,0-.28-3.42c-.05-.27-.31-.72.15-.8a6.19,6.19,0,0,1,2-.08c.33.06.12.57.07.86-.17,1-.36,2-.59,3.29.7-.53,1.17-1,1.69-1.27a2.85,2.85,0,0,1,4.56,2.06,5,5,0,0,1-.91,4.06c-1.85,2.4-3.71,4.8-5.53,7.22-.39.52-.58.41-.92,0-1.76-2.36-3.55-4.71-5.32-7.07a6,6,0,0,1-1-4.33A2.64,2.64,0,0,1,141.4,196a2.79,2.79,0,0,1,3.11.53A12.21,12.21,0,0,1,145.61,197.76Z"/><path class="b" d="M153,226.22c0,4.08,0,8.15,0,12.23,0,.58,0,1-.79.89-.59-.11-1.29.24-1.28-.94q.07-12.17,0-24.33c0-1.36.93-.91,1.51-1,.89-.19.54.61.54,1C153,218.07,153,222.15,153,226.22Z"/><path class="b" d="M8.19,26.44c0,4,0,8.07,0,12.1,0,.86-.31,1-1,1s-1.14,0-1.14-1q.06-12,0-24c0-.91.28-1.3,1.21-1.32s.94.55.93,1.24C8.18,18.46,8.19,22.45,8.19,26.44Z"/><path class="a" d="M13,26.57c0-2.51,0-5,0-7.54,0-2.76,1.67-3.93,4.35-3.23a2.71,2.71,0,0,1,2.09,3q0,8-.2,16A2.83,2.83,0,0,1,16,37.63c-2,0-3.08-.92-3.13-2.82-.07-2.75,0-5.5,0-8.24Z"/><path class="a" d="M140.09,226c0-2.55,0-5.11,0-7.66s1-3.42,3.32-3.41c1.88,0,3,.94,3,2.82,0,5.54-.11,11.08-.24,16.61,0,1.79-1.09,2.56-3.07,2.53s-3.09-1-3.12-2.86c0-2.68,0-5.35,0-8Z"/></svg>