<svg xmlns="http://www.w3.org/2000/svg" xmlns:xlink="http://www.w3.org/1999/xlink" viewBox="0 0 161.77 250.07"><defs><style>.a{fill:#010101;}.b{fill:#fefefe;}</style><symbol id="a" viewBox="0 0 32.96 38.86"><path class="a" d="M17.94,27.45c-.62,2.7,0,5,.66,7.29.32,1.15.69,2.28,1.06,3.42.17.5.07.7-.51.69-1.8,0-3.59,0-5.39,0-.77,0-.82-.18-.6-.87a47.6,47.6,0,0,0,2.07-7.59,12,12,0,0,0,.07-2.94,3.58,3.58,0,0,0-1.51,1.65C11.48,32.76,9,34,5.56,33S.19,29.18,0,25.23a12.56,12.56,0,0,1,3.07-8.69C7.39,11.2,11.72,5.88,16,.52c.55-.7.85-.68,1.37,0,4.4,5.68,8.88,11.29,13.2,17a11.67,11.67,0,0,1,1.8,10.8,7,7,0,0,1-5.93,5.06c-2.74.49-4.79-.74-6.38-2.87C19.38,29.6,18.76,28.63,17.94,27.45Z"/></symbol></defs><path class="b" d="M.26,128.41C.26,97,.34,65.61.2,34.22.17,26,.27,17.85,0,9.67c-.12-3.73,1.6-6.13,4.56-7.91A12,12,0,0,1,10.83.05C26.21.05,41.58-.08,57,.09c31.33.35,62.67,0,94,.16a10.79,10.79,0,0,1,10,6,8.73,8.73,0,0,1,.79,4.78c-.39,6.19-.16,12.37-.17,18.56-.06,27.72,0,55.45-.09,83.17,0,3.51-.18,7-.14,10.53.42,37.7.07,75.41.18,113.11,0,6-3.47,11.28-8.56,13a11.36,11.36,0,0,1-3.75.59H11.46A11.24,11.24,0,0,1,.53,241.48a15,15,0,0,1-.46-3.78C.44,201.27.19,164.84.26,128.41Z"/><path class="a" d="M69.44,71.5c0-10-.1-20,0-29.95.14-11.8,7-18,19.6-18s19.57,6.48,19.6,18.1q.07,28.89-.15,57.77c-.09,10.4-6.07,16.86-16.54,18.4s-19.41-3.23-22-11.79a20.66,20.66,0,0,1-.73-5.88c-.08-9.56,0-19.11,0-28.67Z"/><path class="a" d="M60.74,70c0,14.41-.1,28.82.08,43.23,0,3.06-1.1,3.45-3.67,3.42s-4.09-.12-4.07-3.54q.22-42.81,0-85.61c0-3.24,1-4.66,4.33-4.73s3.33,2,3.32,4.42C60.7,41.41,60.74,55.68,60.74,70Z"/><path class="b" d="M77.73,70.39c0-9-.1-18,0-26.93.14-9.88,5.94-14,15.54-11.56,5.59,1.46,7.47,5.65,7.46,10.6q-.07,28.64-.73,57.25c-.15,6.55-4.65,10.22-11.32,10.17-7.13,0-11-3.27-11.18-10.08-.25-9.81-.06-19.63-.06-29.45Z"/><use width="32.96" height="38.86" transform="translate(46.57 145.65) scale(2.08)" xlink:href="#a"/></svg>