<svg xmlns="http://www.w3.org/2000/svg" viewBox="0 0 162.77 251.04"><defs><style>.a,.c{fill:#fefefe;}.a{stroke:#c5c6c8;stroke-miterlimit:10;}.b{fill:#040404;}</style></defs><path class="a" d="M.77,139.48c0-42,.08-73.41-.06-104.81,0-8.14.1-16.29-.2-24.43C.34,5.68,2.92,3.17,6.6,1.5a12.33,12.33,0,0,1,5.24-1c4.75,0,9.51,0,14.26,0,41.76.24,83.52.18,125.28.19a10.78,10.78,0,0,1,10,6,9.6,9.6,0,0,1,.79,5.6c-.05.6-.12,1.19-.12,1.79q0,49.62-.09,99.24c0,3.39-.2,6.78-.14,10.17.43,25.8.06,51.6.18,77.41.06,12.1,0,24.21,0,36.31A13.44,13.44,0,0,1,153.39,250a9.34,9.34,0,0,1-3.52.55q-69.6,0-139.2,0c-3.07,0-5.21-1.76-7.11-3.89a12.31,12.31,0,0,1-3-8.6c0-4,0-8,0-12C1.05,193.67.6,161.27.77,139.48Z"/><path class="b" d="M74.74,208c-1.88.53-3.74,1.15-5.75.72a8.57,8.57,0,0,1-6-11.3A9.34,9.34,0,0,1,67.49,192a7.09,7.09,0,0,1,8.22,1.24,22.41,22.41,0,0,1,3.11,4.45,7.47,7.47,0,0,0-.38-5.18c-.65-1.51-.69-3.25-1.94-4.55-.45-.48-.17-1.44-.48-2.15-.15-.35.18-.47.49-.47a6.74,6.74,0,0,1,1.19,0,18.45,18.45,0,0,0,6.29,0c1.18-.2,1.07.45.79,1.14-.55,1.36-1.2,2.69-1.74,4a18.61,18.61,0,0,0-1.55,6.36c0,.32-.12.7.23.84s.61-.3.75-.57a14.67,14.67,0,0,1,1.85-3.06,6.82,6.82,0,0,1,7.49-2.36c3.72,1,5.48,3.58,6.14,7.07a8.77,8.77,0,0,1-2.7,8.39c-2.07,1.95-4.63,2.17-7.28,1.54a5.54,5.54,0,0,1-2.25-.74c-.18-.13-.4-.16-.53,0s0,.34.18.49c.59.65,1.18,1.3,1.74,2a8.8,8.8,0,0,1,1.22,9.93c-1.5,2.83-5.28,4.69-8.85,4.35-4.42-.42-7.62-3-8.36-6.78A8.89,8.89,0,0,1,73,210.79c.64-.86,1.33-1.69,2-2.54C75,208.06,74.93,208,74.74,208Z"/><path class="b" d="M83,54.12c-.48,4.75,2,8.57,3.29,12.76A30.3,30.3,0,0,0,78,66.66c-.87.11-1.06-.35-.57-1.32A41.43,41.43,0,0,0,80,58.9,10.23,10.23,0,0,0,80.6,55c0-.25.1-.65-.28-.7s-.47.27-.6.52c-.34.63-.63,1.29-1,1.89C75.36,62,68.83,62,65.46,56.7c-2.86-4.48-1.36-10.86,3.08-12.92a8.22,8.22,0,0,1,7.07,0c.42.19,1,.7,1.27.29s-.4-.83-.72-1.16a11.08,11.08,0,0,1-3.32-6.6,8.13,8.13,0,0,1,7.24-8.78c2.45-.23,4.87-.23,7,1a7.92,7.92,0,0,1,4,6.56A8.48,8.48,0,0,1,89,41.31c-.72.89-1.46,1.78-2.37,2.89,1.28-.26,2.24-.7,3.26-.87,4.85-.8,8.48,1.66,9.47,6.5,1.1,5.37-2,10.08-7.18,11a6.21,6.21,0,0,1-5.14-1.42,8.79,8.79,0,0,1-3.16-4.23A1.5,1.5,0,0,0,83,54.12Z"/><path class="b" d="M13,48.19c-1-2.12-2-4.1.15-5.9a4.44,4.44,0,0,1,5-.19c1.63,1.08,1.71,2,.54,6,3,.22,4.32,1.11,4.77,3.32.23,1.13-.89,3.2-2.1,3.91-1.44.84-2.64.44-4.9-1.71-.33,1.17.23,2.11.57,3.08.49,1.4.46,1.44-1,1.44-2.29,0-2.28,0-1.58-2.19.21-.69.91-1.72.42-2-.78-.5-1.08.74-1.66,1.15a2.67,2.67,0,0,1-1,.55,3.58,3.58,0,0,1-4-3.19c-.34-2.27.9-4.08,2.93-4.26C11.66,48.15,12.21,48.19,13,48.19Z"/><path class="b" d="M147.58,197c1.79-1.08,3.48-2.52,5.45-.67a3.81,3.81,0,0,1,1.07,4.26c-.74,2.2-2.56,2.49-4.69,2.45,1.22,2.12,2,4.18-.32,5.94a4.34,4.34,0,0,1-4.94-.05c-2.29-1.72-1-3.77-.43-5.8-.65-.14-1.27-.24-1.87-.41a3.32,3.32,0,0,1-2.77-3.41,4.07,4.07,0,0,1,2.68-3.75c1.4-.48,2.35.22,3.3,1.1.28.26.49.93,1,.62s0-.83-.08-1.23c-.27-.95-.61-1.88-1-3,1.08,0,2,0,3,0s.42.63.32.94A7.83,7.83,0,0,0,147.58,197Z"/><path class="b" d="M16,38.18c-2.08,0-4.11,0-6.15,0-1.14,0-1.55-.48-1.56-1.58,0-3.72,1.67-6.56,4.38-8.92a21,21,0,0,1,4.85-3A5.9,5.9,0,0,0,20.69,21c.72-2.24.3-4.21-1.15-5.37a5.49,5.49,0,0,0-6.07-.32A4.94,4.94,0,0,0,11.06,19c-.18,1.05-.73,1.38-1.69,1.12A.87.87,0,0,1,8.66,19a7.69,7.69,0,0,1,10-6.38c3.64,1.41,4.9,3.75,4.47,7.6-.39,3.58-2.57,5.43-5.56,6.92s-5.84,3.62-6.82,7.26c-.29,1.07,0,1.51,1.1,1.53,2.59.05,5.18,0,7.78.08.79,0,1.07-.36,1.06-1.08s0-1.2,0-1.8.22-1.19.95-1.21,1.41.23,1.44,1.09c0,1.51,0,3,0,4.55,0,.66-.43.54-.8.55A50.81,50.81,0,0,1,16,38.18Z"/><path class="b" d="M147.22,212.7c1.92,0,3.82.25,5.74.1,1.29-.09,1.61.33,1.65,1.6.13,4.2-2,7.18-5.12,9.64a20.07,20.07,0,0,1-3.88,2.33A6.25,6.25,0,0,0,142,232.9a4.42,4.42,0,0,0,3.51,3.5,5.18,5.18,0,0,0,5.47-2.05,5.62,5.62,0,0,0,1-2.53c.12-1,.75-1,1.47-.91s.88.6.75,1.3a7.43,7.43,0,0,1-5.12,6.2,7.58,7.58,0,0,1-7.94-2,5.67,5.67,0,0,1-1.48-4,8.94,8.94,0,0,1,1.37-5.18,8.6,8.6,0,0,1,3.4-2.81,21.24,21.24,0,0,0,5.38-3.73,9.59,9.59,0,0,0,2.38-4.23c.31-1.17.1-1.46-1.1-1.47-2.48,0-5,0-7.43-.06-1,0-1.49.38-1.43,1.4,0,.4,0,.8,0,1.2.07,1-.5,1.25-1.33,1.24-.6,0-.93-.17-.89-.89.06-1.2,0-2.4,0-3.6,0-1.54.11-1.65,1.61-1.66Z"/><path class="c" d="M74.74,208a.25.25,0,0,1,.39-.1c.19.15,0,.23-.11.33Z"/></svg>