<svg xmlns="http://www.w3.org/2000/svg" xmlns:xlink="http://www.w3.org/1999/xlink" viewBox="0 0 162.77 251.04"><defs><style>.a{fill:#1d1d14;}.b{fill:#fefefe;stroke:#c5c6c8;stroke-miterlimit:10;}.c{fill:#020202;}</style><symbol id="a" viewBox="0 0 36.15 39.55"><path class="a" d="M16.43,26.84a17.37,17.37,0,0,1-3.45,5c-2.53,2.46-6.58,1.91-8.66.6A9.45,9.45,0,0,1,1.7,19.09c2.41-3.3,6.05-4.21,10.12-2.52l.54.26c.22.08.49.18.62-.08,0-.11-.09-.37-.21-.51-.66-.79-1.4-1.54-2-2.36A8.38,8.38,0,0,1,12.4,1.64,9.09,9.09,0,0,1,17.06.06,10.11,10.11,0,0,1,24.27,2a8.17,8.17,0,0,1,2.35,9.9,10.71,10.71,0,0,1-2.29,3.33,4.56,4.56,0,0,0-1.25,1.59c.57.31,1-.07,1.44-.26a8.28,8.28,0,0,1,9.58,2.16c4.61,5.88.73,13.54-4.74,14.6-2.58.5-4.94.11-6.83-2.05a10.62,10.62,0,0,1-2.05-3A1.86,1.86,0,0,0,19.24,27a17.87,17.87,0,0,0,1.49,7.4c.53,1.29,1.11,2.55,1.66,3.82.42,1,.16,1.4-.85,1.25a25.42,25.42,0,0,0-7.13,0c-1.08.14-1.2-.08-.8-1.13.94-2.44,2.32-4.71,2.78-7.33A10.62,10.62,0,0,0,16.43,26.84Z"/></symbol></defs><path class="b" d="M.77,139.48c0-42,.08-73.41-.06-104.81,0-8.14.1-16.29-.2-24.43C.34,5.68,2.92,3.17,6.6,1.5a12.33,12.33,0,0,1,5.24-1c4.75,0,9.51,0,14.26,0,41.76.24,83.52.18,125.28.19a10.78,10.78,0,0,1,10,6,9.6,9.6,0,0,1,.79,5.6c-.05.6-.12,1.19-.12,1.79q0,49.62-.09,99.24c0,3.39-.2,6.78-.14,10.17.43,25.8.06,51.6.18,77.41.06,12.1,0,24.21,0,36.31A13.44,13.44,0,0,1,153.39,250a9.34,9.34,0,0,1-3.52.55q-69.6,0-139.2,0c-3.07,0-5.21-1.76-7.11-3.89a12.31,12.31,0,0,1-3-8.6c0-4,0-8,0-12C1.05,193.67.6,161.27.77,139.48Z"/><path class="c" d="M80.75,118.33c-7,0-14.1-.27-21.12.11-3.7.2-4.6-1.29-4.86-4.46-1.07-13.13,4.68-23.35,13.65-32.14A65.61,65.61,0,0,1,85.84,70.09c6.33-3.11,11-7.63,13-14.66,2.66-9.54-.6-17.45-8.73-20.81-8.84-3.65-19-.3-23.45,7.85A23.48,23.48,0,0,0,64,49.25c-.69,3.76-3,4-5.94,3.48-3.66-.69-1.67-3.55-1.5-5.12,1.69-15.32,15.92-25.19,31.56-22.12,15.41,3,23.11,16.18,18.68,31.94A28.77,28.77,0,0,1,92.35,75.82,109.64,109.64,0,0,0,72.69,89.71a29.09,29.09,0,0,0-8.91,14.41c-1,3.59-.05,4.94,3.38,5.43a113.18,113.18,0,0,0,29.19.17c1.57-.18,2.3-.69,2.38-2.32.11-2.14.76-4.31.57-6.42-.36-4.07,1.48-4.65,5-4.37,2.49.2,3,.77,2.86,3.21-.34,5-.46,10.05-.31,15.07.09,2.94-1,3.57-3.7,3.5C95.71,118.21,88.23,118.33,80.75,118.33Z"/><use width="36.15" height="39.55" transform="translate(45.56 148.01) scale(1.98)" xlink:href="#a"/></svg>