<svg xmlns="http://www.w3.org/2000/svg" viewBox="0 0 162.74 251.06"><defs><style>.a{fill:#fefefe;stroke:#c5c6c8;stroke-miterlimit:10;}.b{fill:#cf2101;}</style></defs><path class="a" d="M80.22,250.56H11.94a11.36,11.36,0,0,1-10.87-8.41,14.65,14.65,0,0,1-.49-3.79c0-4,0-8.07,0-12.1C1,181.52.71,136.78.79,92,.82,72.9.87,53.77.7,34.63.63,26.56.79,18.49.51,10.43.35,6,2.58,3.41,6.24,1.66A12.19,12.19,0,0,1,11.47.53c15.25,0,30.5-.1,45.75,0C88.6.89,120,.63,151.36.71a11.43,11.43,0,0,1,9,4.27c1.82,2.11,2,4.7,1.86,7.35,0,.59-.12,1.19-.12,1.78q0,38.42-.05,76.83c0,7.43.06,14.86-.06,22.29-.05,3-.17,6.07-.13,9.1.39,29.83,0,59.67.18,89.51,0,8.35,0,16.7,0,25a13.56,13.56,0,0,1-6.82,12.25,10.27,10.27,0,0,1-5.62,1.39H80.22Z"/><path class="b" d="M64.73,53.45a1.88,1.88,0,0,1,.62-1.18L80.88,33.58c1-1.17,1.2-1.16,2.16,0L98.1,52.21c1.11,1.37,1.12,1.6,0,3q-7.56,9.2-15.15,18.38c-1.05,1.28-1.26,1.27-2.33,0L65.43,55A2.25,2.25,0,0,1,64.73,53.45Z"/><path class="b" d="M81.32,218.41a1.18,1.18,0,0,1-.89-.58q-7.89-9.71-15.8-19.39c-.73-.9-.44-1.54.19-2.29q7-8.37,13.92-16.75c.56-.67,1.12-1.35,1.7-2,.86-1,1.18-.95,2,.1l6.8,8.34c2.8,3.44,5.56,6.9,8.39,10.3a1.79,1.79,0,0,1,0,2.7c-5,6-9.91,12.09-14.87,18.14A4.11,4.11,0,0,1,81.32,218.41Z"/><path class="b" d="M14.31,38.44c-1.87,0-3.75,0-5.62,0-1.46,0-1.73-.27-1.79-1.75a10.49,10.49,0,0,1,3.66-8.25,22.34,22.34,0,0,1,5.64-3.77,5.67,5.67,0,0,0,3.37-5.59,4.14,4.14,0,0,0-2.9-4.1,5.33,5.33,0,0,0-5.78,1.51,6.27,6.27,0,0,0-1.31,2.78A1.2,1.2,0,0,1,8,20.36c-1-.21-.81-.9-.71-1.58.52-3.75,3.61-6.21,7.62-6.43,2.7-.16,6.36,2.12,7,4.6a8.45,8.45,0,0,1-4.76,10,14,14,0,0,0-6.93,6,7,7,0,0,0-.66,1.79c-.2.82.14,1.32,1,1.32l7.53.09c1,0,1.48-.44,1.45-1.44,0-.52,0-1,0-1.56-.08-.74.21-.89.93-1,1.09-.1,1.47.18,1.38,1.32a31.75,31.75,0,0,0,.09,3.23c0,1.48-.33,1.82-1.81,1.81-1.92,0-3.83,0-5.75,0Z"/><path class="b" d="M148.35,212.69c2,0,3.91,0,5.86,0,1.11,0,1.58.47,1.62,1.57.16,3.74-1.54,6.59-4.22,9a19.59,19.59,0,0,1-4.48,2.94,6.53,6.53,0,0,0-3.58,3.66c-.93,2.56-.28,4.81,1.76,5.94a5.3,5.3,0,0,0,6.76-1.41,5.63,5.63,0,0,0,1.06-2.52c.16-1.09.93-1,1.71-.94s.77.76.66,1.37a8,8,0,0,1-10.77,6,6.91,6.91,0,0,1-4-6,8.51,8.51,0,0,1,2.83-6.77,9,9,0,0,1,2.73-1.66,13.24,13.24,0,0,0,6-5.12,6.47,6.47,0,0,0,.86-2c.29-1.23,0-1.66-1.25-1.68-2.44-.05-4.87,0-7.31,0-1,0-1.26.62-1.17,1.4a7.73,7.73,0,0,1-.08,1.53c-.05.88-.66,1-1.36,1s-1-.43-1-1.08c0-1.28,0-2.55,0-3.83,0-1,.42-1.38,1.38-1.37C144.36,212.7,146.35,212.69,148.35,212.69Z"/><path class="b" d="M155.32,200.61a1.33,1.33,0,0,1-.46.94c-1.92,2.34-3.86,4.66-5.76,7-.43.53-.61.49-1,0-2-2.35-3.74-5-6-7.11-.6-.56-.48-1.21.11-1.88,1.84-2.08,3.64-4.2,5.38-6.37.87-1.07,1.2-1.15,2.08-.06,1.73,2.13,3.45,4.28,5.16,6.42A1.83,1.83,0,0,1,155.32,200.61Z"/><path class="b" d="M7.46,50.2A1.77,1.77,0,0,1,8,49c1.69-2,3.36-4.06,5-6.09.82-1,1.32-1,2.11-.06,1.85,2.2,3.52,4.54,5.5,6.63a1.05,1.05,0,0,1,0,1.59c-2,2-3.68,4.3-5.44,6.52-.76,1-1.57,1-2.23,0-1.49-2.18-3.3-4.1-4.94-6.16A1.83,1.83,0,0,1,7.46,50.2Z"/></svg>