<svg xmlns="http://www.w3.org/2000/svg" xmlns:xlink="http://www.w3.org/1999/xlink" viewBox="0 0 162.74 251.06"><defs><style>.a{fill:#cf2101;}.b{fill:#fefefe;stroke:#c5c6c8;stroke-miterlimit:10;}</style><symbol id="a" viewBox="0 0 40.83 50.32"><path class="a" d="M0,25.26A1.85,1.85,0,0,1,.57,24L19.32.8c.87-1.07,1.17-1.06,2,0L40,23.46c1.16,1.42,1.18,1.61,0,3.07Q30.91,37.91,21.84,49.29c-1.11,1.38-1.36,1.38-2.52,0Q10,38,.68,26.62A2.15,2.15,0,0,1,0,25.26Z"/></symbol></defs><path class="b" d="M80.22,250.56H11.94a11.36,11.36,0,0,1-10.87-8.41,14.65,14.65,0,0,1-.49-3.79c0-4,0-8.07,0-12.1C1,181.52.71,136.78.79,92,.82,72.9.87,53.77.7,34.63.63,26.56.79,18.49.51,10.43.35,6,2.58,3.41,6.24,1.66A12.19,12.19,0,0,1,11.47.53c15.25,0,30.5-.1,45.75,0C88.6.89,120,.63,151.36.71a11.43,11.43,0,0,1,9,4.27c1.82,2.11,2,4.7,1.86,7.35,0,.59-.12,1.19-.12,1.78q0,38.42-.05,76.83c0,7.43.06,14.86-.06,22.29-.05,3-.17,6.07-.13,9.1.39,29.83,0,59.67.18,89.51,0,8.35,0,16.7,0,25a13.56,13.56,0,0,1-6.82,12.25,10.27,10.27,0,0,1-5.62,1.39H80.22Z"/><path class="a" d="M80.78,118.62c-7,0-14.1-.27-21.13.11-3.69.2-4.59-1.29-4.85-4.46-1.07-13.14,4.68-23.35,13.65-32.14A65.45,65.45,0,0,1,85.87,70.38c6.33-3.11,11-7.63,13-14.66,2.66-9.54-.6-17.45-8.73-20.81-8.85-3.65-19-.3-23.45,7.85A23.48,23.48,0,0,0,64,49.54c-.69,3.76-3,4-5.94,3.48-3.66-.69-1.67-3.55-1.5-5.12,1.69-15.32,15.92-25.19,31.56-22.12,15.41,3,23.11,16.18,18.68,31.94C104.54,65.83,99.91,72,92.38,76.11A109.28,109.28,0,0,0,72.72,90a29,29,0,0,0-8.91,14.41c-1,3.59-.06,4.94,3.38,5.43a113.18,113.18,0,0,0,29.19.17c1.57-.18,2.3-.69,2.38-2.32.11-2.15.76-4.31.57-6.42-.37-4.07,1.48-4.65,5-4.37,2.49.19,3,.77,2.86,3.21-.35,5-.46,10-.31,15.07.09,2.94-1,3.57-3.7,3.5C95.73,118.5,88.26,118.62,80.78,118.62Z"/><use width="40.83" height="50.32" transform="translate(49.56 148.27) scale(1.56)" xlink:href="#a"/></svg>