<svg xmlns="http://www.w3.org/2000/svg" viewBox="0 0 162.71 251.16"><defs><style>.a{fill:#fefefe;stroke:#c5c6c8;stroke-miterlimit:10;}.b{fill:#cb332a;}</style></defs><path class="a" d="M.72,129c0-31.4.07-62.8,0-94.2Q.64,22.9.54,11C.49,5.19,3.46,1.74,9.24.76A14.87,14.87,0,0,1,11.73.54c15.18,0,30.35-.11,45.52,0,31.34.31,62.68.05,94,.12a11.55,11.55,0,0,1,8.94,4.13c1.9,2.12,2.1,4.74,2,7.43,0,.67-.12,1.35-.12,2Q162,63.66,162,113q0,44.2,0,88.42,0,17.81,0,35.6c0,6.23-4,11.85-9.41,13.12a13.37,13.37,0,0,1-3,.34q-56.18,0-112.35,0c-8.5,0-17-.28-25.51.08-5.59.24-10.62-5.6-11-9.84a140.18,140.18,0,0,1-.09-16.27q0-.66,0-1.32Z"/><path class="b" d="M65.66,38.65A10.05,10.05,0,0,1,66,35.58c.79-3.2,2.4-5.64,5.92-6.28a9,9,0,0,1,9.75,4c1.17,1.69,1.15,1.7,2.36,0a9.64,9.64,0,0,1,11.74-3.17c3.35,1.59,4.08,4.66,4.28,8a15.87,15.87,0,0,1-2.3,8.79c-3.84,6.89-9,12.73-14.43,18.4a1,1,0,0,1-1.62,0c-5.29-6-10.53-12-14.17-19.19A15.2,15.2,0,0,1,65.66,38.65Z"/><path class="b" d="M97.89,212.56c-.08.83-.1,1.67-.25,2.49-.59,3.46-2.27,6.1-5.9,6.86a9,9,0,0,1-9.39-3.36c-.56-.69-.77-2-1.65-2s-1,1.28-1.62,1.94a9.65,9.65,0,0,1-10.86,2.79c-3.36-1.33-4.34-4.24-4.67-7.48a16.17,16.17,0,0,1,2.25-9.51c3.52-6.38,8.31-11.79,13.19-17.12,2.31-2.52,2-2.26,4,0a94.22,94.22,0,0,1,12.5,16.9A16.48,16.48,0,0,1,97.89,212.56Z"/><path class="b" d="M11.65,40.67A4.25,4.25,0,0,1,15,42.26c.67.81,1.13.68,1.78,0a4.3,4.3,0,0,1,4.8-1.16c1.93.81,2.78,3.23,2,5.76A20,20,0,0,1,19.23,54c-.87,1-1.84,2-2.76,3-.48.52-.88.62-1.47,0A31.91,31.91,0,0,1,8.51,48a5.7,5.7,0,0,1-.12-5.31A3.47,3.47,0,0,1,11.65,40.67Z"/><path class="b" d="M154.85,205.39c-.08,1.68-.28,3.3-2.19,4a4.19,4.19,0,0,1-4.95-1.31c-.53-.61-.78-.74-1.41-.05a4.45,4.45,0,0,1-5.43,1.12c-1.47-.83-2.22-3-1.7-5.1.71-2.88,2.51-5.14,4.32-7.37.9-1.12,1.89-2.17,2.83-3.25.48-.53,1-.7,1.51-.09,2.48,2.83,4.94,5.66,6.48,9.15A6.21,6.21,0,0,1,154.85,205.39Z"/><path class="b" d="M147,213.28c2,0,4,0,6,0,1.23,0,1.71.54,1.71,1.74a11,11,0,0,1-3.77,8.23,18.32,18.32,0,0,1-5,3.41,6.41,6.41,0,0,0-3.63,3.61c-1,2.74-.11,5.23,2.3,6.21a5.17,5.17,0,0,0,6.79-2.71,6.61,6.61,0,0,0,.4-1.38c.18-1,.82-1.15,1.67-1s.81.83.71,1.47a7.11,7.11,0,0,1-5.17,6,7.33,7.33,0,0,1-7.88-1.71c-3.06-3-1.7-8.78,1.22-11.07a24.39,24.39,0,0,1,4-2.35,10.91,10.91,0,0,0,5.73-6.57c.33-1,.06-1.43-1-1.44-2.55,0-5.1-.08-7.66-.1-1.4,0-1.12,1.06-1.14,1.89,0,1.09,0,2.13-1.57,2.07-.7,0-1-.34-1-.93s.1-1.36.11-2c0-3.3,0-3.3,3.34-3.3Z"/><path class="b" d="M16,37.92c-2,0-4.07,0-6.1,0-1.09,0-1.58-.47-1.59-1.59-.05-3.63,1.6-6.42,4.23-8.75a21.66,21.66,0,0,1,5.23-3.32,5.79,5.79,0,0,0,3.48-5.54,4,4,0,0,0-3-4.14,5.48,5.48,0,0,0-5.87,1.59,5.6,5.6,0,0,0-1.16,2.59,1.2,1.2,0,0,1-1.63,1.1c-1-.2-.82-.87-.72-1.57a7.65,7.65,0,0,1,11.26-5.42,7.36,7.36,0,0,1,1.54,11.46c-1.39,1.48-3.16,2.21-4.82,3.18C14.22,29.06,12,30.89,11,34c-.34,1.11,0,1.63,1.1,1.66,2.52.06,5,.08,7.54.14A1.15,1.15,0,0,0,21,34.56a13.13,13.13,0,0,1,.11-1.67c.08-.4-.4-1.2.51-1.14.75.06,1.72,0,1.72,1.21,0,1.43,0,2.87,0,4.3,0,.82-.69.86-1.31.86H16Z"/></svg>