<svg xmlns="http://www.w3.org/2000/svg" xmlns:xlink="http://www.w3.org/1999/xlink" viewBox="0 0 162.71 251.16"><defs><style>.a{fill:#cb3329;}.b{fill:#fefefe;stroke:#c5c6c8;stroke-miterlimit:10;}.c{fill:#cf2101;}</style><symbol id="a" viewBox="0 0 41.85 45.12"><path class="a" d="M0,11.37c.12-3,.81-6,3.08-8.33,3.86-4,10-4.06,14.31-.1A12.51,12.51,0,0,1,19.83,6c.24.41.38,1,.91,1s.7-.59.93-1A11.11,11.11,0,0,1,29.16.37c6.11-1.19,11.17.93,12.41,8.14a18.54,18.54,0,0,1-1.22,10.43C37.86,25,34,30.05,30,35.12c-2.48,3.17-5.14,6.21-7.83,9.21-.92,1-1.24,1.05-2.11.1C14.33,38.2,8.78,31.81,4.31,24.58,2,20.85.1,17,0,12.44Z"/></symbol></defs><path class="b" d="M.72,129c0-31.4.07-62.8,0-94.2Q.64,22.9.54,11C.49,5.19,3.46,1.74,9.24.76A14.87,14.87,0,0,1,11.73.54c15.18,0,30.35-.11,45.52,0,31.34.31,62.68.05,94,.12a11.55,11.55,0,0,1,8.94,4.13c1.9,2.12,2.1,4.74,2,7.43,0,.67-.12,1.35-.12,2Q162,63.66,162,113q0,44.2,0,88.42,0,17.81,0,35.6c0,6.23-4,11.85-9.41,13.12a13.37,13.37,0,0,1-3,.34q-56.18,0-112.35,0c-8.5,0-17-.28-25.51.08-5.59.24-10.62-5.6-11-9.84a140.18,140.18,0,0,1-.09-16.27q0-.66,0-1.32Z"/><use width="41.85" height="45.12" transform="translate(45.61 149.39) scale(1.71)" xlink:href="#a"/><path class="c" d="M82,116.84c-7,0-14.1-.27-21.12.11-3.7.2-4.6-1.3-4.86-4.47C55,99.35,60.7,89.14,69.67,80.34A66.25,66.25,0,0,1,87.09,68.59c6.33-3.1,11-7.63,13-14.65,2.66-9.55-.6-17.45-8.73-20.81-8.84-3.65-19-.3-23.45,7.84a23.63,23.63,0,0,0-2.61,6.79c-.69,3.76-3,4-6,3.47-3.66-.68-1.67-3.55-1.5-5.11C59.5,30.79,73.73,20.92,89.37,24c15.41,3,23.11,16.17,18.68,31.94A28.79,28.79,0,0,1,93.6,74.33,109.14,109.14,0,0,0,73.94,88.22,29.06,29.06,0,0,0,65,102.62c-1,3.59,0,4.95,3.38,5.44a113.26,113.26,0,0,0,29.2.17c1.56-.19,2.29-.7,2.37-2.32.11-2.15.76-4.32.57-6.42-.36-4.07,1.48-4.65,5-4.37,2.49.19,3,.77,2.86,3.21-.34,5-.46,10-.31,15.07.09,2.93-1,3.56-3.7,3.5C97,116.72,89.48,116.84,82,116.84Z"/></svg>