<svg xmlns="http://www.w3.org/2000/svg" viewBox="0 0 162.71 251.06"><defs><style>.a{fill:#fefefe;stroke:#c5c6c8;stroke-miterlimit:10;}.b{fill:#020202;}.c{fill:#c1c2c4;}</style></defs><path class="a" d="M.79,139.86C.79,97.59.88,66.15.74,34.71c0-8,.17-16.06-.23-24.07C.24,5.16,4,2.25,8.1,1A13.83,13.83,0,0,1,12,.53c14.93,0,29.87-.11,44.8,0C88.41.93,120,.63,151.65.75,156.4.77,161,4.07,162,8.17a24.14,24.14,0,0,1,.16,5.82q-.06,37.39-.05,74.79c0,8.23.07,16.46-.06,24.69,0,3-.17,5.9-.14,8.85.42,38.15.07,76.29.19,114.44a13.66,13.66,0,0,1-6.7,12.31,9.69,9.69,0,0,1-5.34,1.46q-69.72,0-139.43,0c-4.09,0-6.49-2.84-8.48-6a11.08,11.08,0,0,1-1.48-5.84c-.05-4.2-.07-8.39,0-12.59C1.07,193.74.63,161.38.79,139.86Z"/><path class="b" d="M80.08,193.54a9.47,9.47,0,0,0-.23-5.76c-.49-1.8-1.07-3.58-1.6-5.33H84.5c.8,0,.38.52.29.81a36.84,36.84,0,0,0-1.68,6.47,9.93,9.93,0,0,0,.18,3.73c.64-1,1.18-1.85,1.79-2.68a6.27,6.27,0,0,1,6.14-2.92,6.71,6.71,0,0,1,6,4.66c1.3,3.78,1,7.39-1.44,10.66-4.4,5.77-8.86,11.5-13.23,17.3-.8,1.06-1.19.71-1.8-.07-3-3.85-6-7.68-9-11.53-1.36-1.77-2.75-3.52-4.06-5.33a11.28,11.28,0,0,1-1.21-11.76,6.71,6.71,0,0,1,11.43-1.36C78.65,191.4,79.31,192.43,80.08,193.54Z"/><path class="b" d="M83.35,56.05c-.75,2.06-.24,3.91.22,5.74A34.21,34.21,0,0,0,84.85,66c.49,1.21,0,1.28-1,1.22a36.65,36.65,0,0,0-4.19-.06c-1.1.06-1.36-.17-1-1.27A24.68,24.68,0,0,0,80.62,56c-1.13.53-1.45,1.65-2.07,2.5C77,60.66,75,62.06,72.2,61.72a6.88,6.88,0,0,1-5.92-4.57A10.33,10.33,0,0,1,65.57,52a13.36,13.36,0,0,1,2.67-6.57c4.13-5.33,8.31-10.62,12.4-16,.93-1.22,1.52-1.07,2.36,0,4.11,5.34,8.28,10.64,12.38,16A11.89,11.89,0,0,1,97.6,56.17,7,7,0,0,1,92,61.64c-3,.6-5.19-.68-6.89-3C84.55,57.79,84,57,83.35,56.05Z"/><path class="b" d="M148.47,213.61c-1.28,0-2.56.07-3.83,0-.85-.06-1.12.25-1.12,1,0,.51-.15,1-.14,1.54,0,1-.36,1.17-1.28,1.13s-.74-.68-.73-1.21a31.26,31.26,0,0,0,.06-3.35c-.09-1,.42-1.18,1.23-1.25a79.17,79.17,0,0,1,11.83-.05c.94.06,1.23.44,1.3,1.26.3,3.57-1.37,6.3-3.74,8.7a17.79,17.79,0,0,1-4.92,3.35,6.26,6.26,0,0,0-3.63,4.32c-.61,2.67.32,4.71,2.6,5.58a5.09,5.09,0,0,0,6.4-2.21,7.89,7.89,0,0,0,.84-2.1c.19-1,.82-.94,1.5-.85.86.11.59.79.55,1.31A6.89,6.89,0,0,1,150,237a7.31,7.31,0,0,1-7.65-2.38,7.79,7.79,0,0,1,0-8.67,9,9,0,0,1,3.75-3.23c3.39-1.73,6.23-4,7.25-7.92.23-.91.05-1.1-.83-1.06-1.35.06-2.7,0-4.06,0Z"/><path class="b" d="M14.79,38.17c-1.95,0-3.91-.07-5.87,0-1,.06-1.27-.35-1.34-1.24-.3-3.64,1.3-6.48,3.79-8.92a18,18,0,0,1,4.83-3.26,6.35,6.35,0,0,0,3.6-4.07c.74-2.65-.16-4.85-2.42-5.78a5.13,5.13,0,0,0-6.51,2.18A6.55,6.55,0,0,0,10.14,19c-.19,1-.83,1.12-1.65,1-1-.19-.46-1-.42-1.42a7.17,7.17,0,0,1,8.77-6.15c4.28.84,6.42,4.49,5.18,8.87a8,8,0,0,1-4,5.11,30.62,30.62,0,0,0-5.46,3.86,8,8,0,0,0-2.47,4c-.28,1,0,1.37.94,1.51a31.38,31.38,0,0,0,8.1,0c.44-.05.64-.19.66-.64a13.68,13.68,0,0,0,.16-1.78c-.1-1.13.41-1.29,1.4-1.22.69.06.84.22.79.89-.09,1.39-.12,2.8-.08,4.19,0,.81-.27,1-1,1C18.94,38.14,16.87,38.17,14.79,38.17Z"/><path class="b" d="M14,54a.39.39,0,0,0-.11.06C12,55.8,10.61,56.1,9.28,55a4.34,4.34,0,0,1-.71-5.46c1.32-2,2.83-3.85,4.27-5.76.65-.86,1.32-1.69,2.08-2.65C17,43.8,19,46.35,21,49a4.7,4.7,0,0,1,.76,4.09c-.66,2.65-3.21,3.4-5.19,1.51-.25-.24-.53-.45-1.05-.9.19,1.36.35,2.42.48,3.48,0,.23.33.62-.13.69a13.27,13.27,0,0,1-2,.1,2.5,2.5,0,0,1,0-.76c.17-1.06.38-2.12.58-3.18C14.25,53.84,14.11,53.9,14,54Z"/><path class="b" d="M149.17,195.7l.28-.21c1.79-1.45,3.09-1.69,4.29-.79a4.18,4.18,0,0,1,1,5c-1.76,3.09-4.18,5.72-6.3,8.56-.37.51-.53.07-.68-.14-1.92-2.5-4-4.9-5.66-7.56a5.48,5.48,0,0,1-.63-4,2.57,2.57,0,0,1,2.2-2.23,2.82,2.82,0,0,1,3,1.26c.15.24.2.55.58.38s.24-.45.2-.72c-.1-.75-.16-1.51-.32-2.25s0-.93.79-1c1.3-.2,1.64.13,1.22,1.39a16.77,16.77,0,0,0-.43,2.35C148.88,195.83,149,195.77,149.17,195.7Z"/><path class="c" d="M14,54c.12-.12.27-.35.38-.33s.13.23,0,.35Z"/><path class="c" d="M149.17,195.7c-.14.12-.29.34-.4.32s-.14-.23,0-.36Z"/></svg>