<svg xmlns="http://www.w3.org/2000/svg" xmlns:xlink="http://www.w3.org/1999/xlink" viewBox="0 0 162.71 251.06"><defs><style>.a{fill:#010101;}.b{fill:#fefefe;stroke:#c5c6c8;stroke-miterlimit:10;}.c{fill:#020202;}</style><symbol id="a" viewBox="0 0 32.96 38.86"><path class="a" d="M17.94,27.45c-.62,2.7,0,5,.66,7.29.32,1.15.69,2.28,1.06,3.42.17.5.07.7-.51.69-1.8,0-3.59,0-5.39,0-.77,0-.82-.18-.6-.87a47.6,47.6,0,0,0,2.07-7.59,12,12,0,0,0,.07-2.94,3.58,3.58,0,0,0-1.51,1.65C11.48,32.76,9,34,5.56,33S.19,29.18,0,25.23a12.56,12.56,0,0,1,3.07-8.69C7.39,11.2,11.72,5.88,16,.52c.55-.7.85-.68,1.37,0,4.4,5.68,8.88,11.29,13.2,17a11.67,11.67,0,0,1,1.8,10.8,7,7,0,0,1-5.93,5.06c-2.74.49-4.79-.74-6.38-2.87C19.38,29.6,18.76,28.63,17.94,27.45Z"/></symbol></defs><path class="b" d="M.79,139.86C.79,97.59.88,66.15.74,34.71c0-8,.17-16.06-.23-24.07C.24,5.16,4,2.25,8.1,1A13.83,13.83,0,0,1,12,.53c14.93,0,29.87-.11,44.8,0C88.41.93,120,.63,151.65.75,156.4.77,161,4.07,162,8.17a24.14,24.14,0,0,1,.16,5.82q-.06,37.39-.05,74.79c0,8.23.07,16.46-.06,24.69,0,3-.17,5.9-.14,8.85.42,38.15.07,76.29.19,114.44a13.66,13.66,0,0,1-6.7,12.31,9.69,9.69,0,0,1-5.34,1.46q-69.72,0-139.43,0c-4.09,0-6.49-2.84-8.48-6a11.08,11.08,0,0,1-1.48-5.84c-.05-4.2-.07-8.39,0-12.59C1.07,193.74.63,161.38.79,139.86Z"/><path class="c" d="M80.77,117.68c-7,0-14.11-.27-21.13.11-3.7.2-4.6-1.29-4.86-4.46C53.71,100.2,59.47,90,68.43,81.19A65.77,65.77,0,0,1,85.85,69.44c6.33-3.11,11-7.63,13-14.66,2.66-9.54-.59-17.45-8.73-20.8-8.84-3.66-19-.31-23.45,7.84A23.57,23.57,0,0,0,64,48.6c-.69,3.76-3,4-5.95,3.48-3.66-.69-1.67-3.55-1.5-5.11,1.69-15.33,15.92-25.2,31.56-22.13,15.41,3,23.11,16.18,18.68,31.94a28.81,28.81,0,0,1-14.45,18.4A109,109,0,0,0,72.71,89.06a29.11,29.11,0,0,0-8.92,14.41c-1,3.59,0,4.94,3.39,5.43a112.74,112.74,0,0,0,29.19.17c1.56-.18,2.29-.69,2.37-2.32.11-2.14.76-4.31.57-6.41-.36-4.08,1.48-4.65,5-4.38,2.49.2,3,.77,2.86,3.21-.34,5-.46,10-.31,15.07.09,2.94-1,3.57-3.7,3.5C95.72,117.56,88.24,117.68,80.77,117.68Z"/><use width="32.96" height="38.86" transform="translate(47.04 146.14) scale(2.08)" xlink:href="#a"/></svg>