<svg xmlns="http://www.w3.org/2000/svg" viewBox="0 0 162.77 251.11"><defs><style>.a{fill:#fefefe;stroke:#c5c6c8;stroke-miterlimit:10;}.b{fill:#040404;}</style></defs><path class="a" d="M80.3,250.57c-22.93,0-45.85,0-68.77,0a10.14,10.14,0,0,1-8-3.9,12.44,12.44,0,0,1-3-8.6c0-4,0-8,0-12C1,181.78.7,137.44.79,93.1c0-19.5.11-39-.08-58.49C.64,26.5.81,18.39.51,10.3.34,5.71,2.9,3.22,6.58,1.54a12.28,12.28,0,0,1,5.24-1C27,.55,42.09.42,57.22.59c31.46.35,62.92,0,94.37.17a10.69,10.69,0,0,1,9.8,5.94,9.61,9.61,0,0,1,.8,5.6c-.05.63-.12,1.27-.12,1.9q0,49.64-.09,99.25c0,3.34-.2,6.7-.14,10,.43,25.84.06,51.68.18,77.52.06,12.07,0,24.13,0,36.2A13.41,13.41,0,0,1,153,250.11a10.16,10.16,0,0,1-3.3.44H80.3Z"/><path class="b" d="M86,66.91a41.88,41.88,0,0,0-9.43,0c.6-1.49,1.12-2.81,1.66-4.13a20.85,20.85,0,0,0,1.9-7.36c0-.28.19-.73-.22-.83s-.63.25-.79.59-.3.66-.47,1c-1.71,3.27-4.79,5.1-7.92,4.71a8.4,8.4,0,0,1-7.15-6.63,9.42,9.42,0,0,1,.54-6.32c2.3-5,6.92-5.54,11.33-3.84.26.1.52.56.79.11s-.23-.42-.4-.61a15.37,15.37,0,0,1-3.42-5.27,7.94,7.94,0,0,1,4.16-9.76,10.43,10.43,0,0,1,9.35-.06,8.08,8.08,0,0,1,3.59,11.36,14.33,14.33,0,0,1-2.73,3.47c-.22.22-.6.46-.4.78s.65.13,1,0a9.17,9.17,0,0,1,5.48-.78c4.74.89,7.52,6,6,11.08s-6,7.65-10.57,6.07A7.1,7.1,0,0,1,84,56.3a3.6,3.6,0,0,0-1.5-2C82.23,59,84.41,62.78,86,66.91Z"/><path class="b" d="M82.54,133.24c-.17,4.67,1.86,8.54,3.57,12.62a33.49,33.49,0,0,0-9.38.07,8.82,8.82,0,0,1,.85-2.4c1.13-2.81,2.34-5.59,2.57-8.66a5.81,5.81,0,0,0,0-.72c0-.24,0-.5-.33-.57s-.39.19-.52.39c-.62,1-1.22,1.95-1.87,2.91a7.13,7.13,0,0,1-8.24,2.51c-3.53-1.2-5.19-3.87-5.76-7.19a8.9,8.9,0,0,1,3.39-8.71c2.33-1.91,5-1.6,7.74-.74.45.14,1.06.74,1.39.22s-.39-1-.76-1.32c-2.47-2.48-3.68-5.38-2.88-8.9s4-6,8.15-6.36,8.32,1.92,9.58,5.48a8.47,8.47,0,0,1-1.55,8.42,15.54,15.54,0,0,0-2.1,2.63,1.5,1.5,0,0,0,1.36-.1c3.08-1.15,6-1.22,8.6,1.17a8.73,8.73,0,0,1,2.53,9.29c-1.18,4.21-4.36,6.62-8.46,6.54A5.59,5.59,0,0,1,87,138.61c-1.35-1.08-2.83-2.1-3.26-4A2.3,2.3,0,0,0,82.54,133.24Z"/><path class="b" d="M82.77,198c.83-1.26,1.45-2.28,2.15-3.24,3.45-4.68,8.9-4.37,12.33-.28,3,3.5,3.09,8.11-.24,12.16-2.21,2.68-5.25,2.86-8.42,2.08-.72-.18-1.43-.43-2.26-.68a7.47,7.47,0,0,0,1.47,2,8.71,8.71,0,0,1,1.85,10.31,8.94,8.94,0,0,1-9.41,4.48c-4.3-.62-7.19-2.92-7.95-6.51s.68-6.3,3-8.75c.16-.18.34-.34.51-.5s.37-.46.22-.75-.47-.1-.72,0a17,17,0,0,1-3.37.78,7.9,7.9,0,0,1-8.24-6,8.86,8.86,0,0,1,2.2-9.06c4.09-4.07,9.37-3.48,12.4,1.6a15,15,0,0,0,1.81,2.63,16.4,16.4,0,0,0-.66-5.43A23.23,23.23,0,0,0,77.54,188a8.53,8.53,0,0,1-.45-1c-.52-1.41-.36-1.59,1.12-1.43a28.62,28.62,0,0,0,6.41-.05c.42,0,.89-.34,1.19.16s-.08.81-.24,1.22c-1.28,3.19-3,6.27-2.87,9.87C82.71,197.09,82.73,197.39,82.77,198Z"/><path class="b" d="M17,23c3,.64,5.48,2.16,6.39,5.23a9.26,9.26,0,0,1-3.81,10.67c-3.06,2-7.73,1.27-10.33-1.48a7.7,7.7,0,0,1-2.06-4.73c0-.61,0-1.13.8-1.22s1.39-.15,1.66.73c.05.15.09.31.13.46.81,3.32,3.08,5.08,6.23,4.82,2.68-.22,4.94-2.81,5.14-5.9.25-3.75-2-6.24-5.32-5.86a4.8,4.8,0,0,0-2,.74c-.93.57-1.48,0-2-.63s-.13-1.1.27-1.55q3.26-3.75,6.53-7.49c.25-.3.65-.61.45-1s-.65-.16-1-.16c-2,0-4,0-6,0-1.54,0-1.57,0-1.6,1.63S10.13,19.1,8.93,19A.92.92,0,0,1,8,18c0-1.28,0-2.56,0-3.84,0-.78.47-1.07,1.16-1.07,3.91,0,7.82,0,11.73,0A2.72,2.72,0,0,1,23,14.12,1.18,1.18,0,0,1,23,15.81c-1.71,2.1-3.77,3.89-5.36,6.11C17.39,22.23,17,22.48,17,23Z"/><path class="b" d="M147.64,238.15c-1.76,0-3.51,0-5.27,0a1.67,1.67,0,0,1-1.77-.94,1.81,1.81,0,0,1,.42-2c1.62-1.87,3.23-3.74,4.86-5.6.92-1.06.86-1.33-.43-1.68-4.83-1.3-6.89-5.74-5.09-10.94A8,8,0,0,1,156,218.49c.1.67,0,1.16-.79,1.31s-1.39-.05-1.53-1a5.33,5.33,0,0,0-4.24-4.89c-3.65-.87-6.77,1.44-7.24,5.34a7.66,7.66,0,0,0,.11,2.86,4.67,4.67,0,0,0,6.84,3.12,4.78,4.78,0,0,1,.64-.32,1.32,1.32,0,0,1,1.63.63c.39.56.16,1-.25,1.5-2.16,2.45-4.31,4.92-6.46,7.38a4.21,4.21,0,0,0-.35.48c-.18.26-.43.56-.31.86s.56.17.85.17c2,0,4,0,6,0s2.09,0,2.06-2c0-1,.39-1.38,1.34-1.35a.83.83,0,0,1,.92.74c0,.2.09.39.11.59.53,3.78.23,4.14-3.57,4.22-1.36,0-2.71,0-4.07,0Z"/><path class="b" d="M15.2,54.65a4.05,4.05,0,0,0,.52,2.46c.67,1.38.58,1.52-.91,1.78a2.81,2.81,0,0,1-1.41,0c-.62-.2-1.13-.41-.5-1.21a8.11,8.11,0,0,0,.66-1.53.66.66,0,0,0-.18-.85c-.33-.26-.63-.13-1,.13-1.79,1.39-3.63,1.23-4.9-.43a4,4,0,0,1,.53-5.39A2.91,2.91,0,0,1,10.4,49c1,.14,1.07-.22.73-1a7.24,7.24,0,0,1-.56-2.31,2.84,2.84,0,0,1,1.77-3,4.45,4.45,0,0,1,4.55.23,2.94,2.94,0,0,1,1.31,3.22,6.31,6.31,0,0,1-.5,1.72c-.5,1,0,1.2.82,1.14a3.1,3.1,0,0,1,3.16,1.89,4.27,4.27,0,0,1-.85,4.92,3.88,3.88,0,0,1-4.37-.1C16,55.37,15.67,55,15.2,54.65Z"/><path class="b" d="M146.54,192.56a18,18,0,0,0,2.33,0c1.29-.18,1.24.43.92,1.33a6.17,6.17,0,0,0-.74,3.07c.52.07.62-.34.84-.6a3,3,0,0,1,3.7-1.13A3.94,3.94,0,0,1,156,199.1a3.53,3.53,0,0,1-2.67,3.29c-.66.14-1.62,0-1.93.37-.45.56.49,1.12.68,1.76a3.59,3.59,0,0,1-1.32,4,4.64,4.64,0,0,1-5.07-.13,3.64,3.64,0,0,1-.94-4.25c.63-1.52.63-1.52-.94-1.69a3.49,3.49,0,0,1-3.12-4,3.75,3.75,0,0,1,3.81-3.53,2.82,2.82,0,0,1,2.18,1.3c.18.25.39.59.76.38s.24-.58.15-.87C147.29,194.75,146.92,193.7,146.54,192.56Z"/></svg>