<svg xmlns="http://www.w3.org/2000/svg" xmlns:xlink="http://www.w3.org/1999/xlink" viewBox="0 0 162.77 251.11"><defs><style>.a{fill:#1d1d14;}.b{fill:#fefefe;stroke:#c5c6c8;stroke-miterlimit:10;}.c{fill:#020202;}</style><symbol id="a" viewBox="0 0 36.15 39.55"><path class="a" d="M16.43,26.84a17.37,17.37,0,0,1-3.45,5c-2.53,2.46-6.58,1.91-8.66.6A9.45,9.45,0,0,1,1.7,19.09c2.41-3.3,6.05-4.21,10.12-2.52l.54.26c.22.08.49.18.62-.08,0-.11-.09-.37-.21-.51-.66-.79-1.4-1.54-2-2.36A8.38,8.38,0,0,1,12.4,1.64,9.09,9.09,0,0,1,17.06.06,10.11,10.11,0,0,1,24.27,2a8.17,8.17,0,0,1,2.35,9.9,10.71,10.71,0,0,1-2.29,3.33,4.56,4.56,0,0,0-1.25,1.59c.57.31,1-.07,1.44-.26a8.28,8.28,0,0,1,9.58,2.16c4.61,5.88.73,13.54-4.74,14.6-2.58.5-4.94.11-6.83-2.05a10.62,10.62,0,0,1-2.05-3A1.86,1.86,0,0,0,19.24,27a17.87,17.87,0,0,0,1.49,7.4c.53,1.29,1.11,2.55,1.66,3.82.42,1,.16,1.4-.85,1.25a25.42,25.42,0,0,0-7.13,0c-1.08.14-1.2-.08-.8-1.13.94-2.44,2.32-4.71,2.78-7.33A10.62,10.62,0,0,0,16.43,26.84Z"/></symbol></defs><path class="b" d="M80.3,250.57c-22.93,0-45.85,0-68.77,0a10.14,10.14,0,0,1-8-3.9,12.44,12.44,0,0,1-3-8.6c0-4,0-8,0-12C1,181.78.7,137.44.79,93.1c0-19.5.11-39-.08-58.49C.64,26.5.81,18.39.51,10.3.34,5.71,2.9,3.22,6.58,1.54a12.28,12.28,0,0,1,5.24-1C27,.55,42.09.42,57.22.59c31.46.35,62.92,0,94.37.17a10.69,10.69,0,0,1,9.8,5.94,9.61,9.61,0,0,1,.8,5.6c-.05.63-.12,1.27-.12,1.9q0,49.64-.09,99.25c0,3.34-.2,6.7-.14,10,.43,25.84.06,51.68.18,77.52.06,12.07,0,24.13,0,36.2A13.41,13.41,0,0,1,153,250.11a10.16,10.16,0,0,1-3.3.44H80.3Z"/><path class="c" d="M80.18,25.76c6.12,0,12.25,0,18.37,0A7.74,7.74,0,0,1,105.91,30c1.78,3.17-.5,4.76-2.08,6.67C98.28,43.35,92.74,50.08,87.1,56.73c-1.64,1.93-2.43,3,.94,3.85C98.39,63.27,106.19,69,108,80.2c2,12-.53,22.93-9.92,31.28-8.18,7.28-17.88,7.6-27.61,3.88-9.56-3.64-14.9-11-16.26-21.22-.31-2.36-.29-4.3,2.8-4.77,2.83-.43,4.08.52,4.66,3.37,1.56,7.68,5.39,13.58,13.41,15.93,9,2.63,17.07-.18,21.73-7.64,5.85-9.38,5.63-20.85-.53-27.41C91,68,83.75,66.66,77,70.44c-2.87,1.61-4.94,2-7.3-.86-2.58-3.12.06-4.6,1.56-6.41,7.22-8.7,14.53-17.33,21.78-26,.58-.69,1.51-1.7,1.34-2.3-.34-1.23-1.78-.87-2.79-.88-7.9-.06-15.8,0-23.7-.14-2.67-.06-3.69.91-3.7,3.47,0,1.49-.5,3-.46,4.46.14,4.09-2.77,3-5,3.12-3.06.23-2.31-2-2.31-3.59,0-3.41.5-6.85.16-10.21-.38-3.93,1.77-4.61,4.77-4.63,6.27,0,12.53,0,18.8,0Z"/><use width="36.15" height="39.55" transform="translate(45.55 148.05) scale(1.98)" xlink:href="#a"/></svg>