<svg xmlns="http://www.w3.org/2000/svg" viewBox="0 0 162.73 251.06"><defs><style>.a{fill:#fefefe;stroke:#c5c6c8;stroke-miterlimit:10;}.b{fill:#cf2101;}</style></defs><path class="a" d="M80.24,250.56H12a11.34,11.34,0,0,1-10.91-8.5,14.61,14.61,0,0,1-.48-3.67c0-4,0-8.07,0-12.1.4-44.7.13-89.4.2-134.1C.81,73,.86,53.83.69,34.66.62,26.55.76,18.44.51,10.34c-.15-4.51,2-6.84,5.92-8.75A11.57,11.57,0,0,1,11.54.53C26.8.54,42.05.43,57.3.58c31.34.31,62.68.05,94,.13a11.27,11.27,0,0,1,9.48,4.92c1.43,1.94,1.51,4.25,1.39,6.54-.05.84-.12,1.67-.12,2.51q0,43,0,85.93c0,4.24.1,8.48-.06,12.71-.12,3.35-.17,6.7-.12,10.05.38,25.92,0,51.85.17,77.77.06,12,0,24,0,36a13.44,13.44,0,0,1-7,12.15,10.19,10.19,0,0,1-5.41,1.28H80.24Z"/><path class="b" d="M82.16,218.49A4.64,4.64,0,0,1,80,216.56c-1.41-1.8-2.9-3.53-4.36-5.3-3.44-4.21-6.86-8.43-10.3-12.64-.69-.85-.33-1.52.23-2.23q5.85-7.27,11.68-14.56,1.71-2.16,3.37-4.35c1-1.29,1-1.3,2-.08l15.14,18.33c1.27,1.54,1.27,1.65.06,3.27-2.1,2.8-4.29,5.55-6.46,8.3s-4.34,5.52-6.59,8.21c-.65.78-1.22,1.64-1.87,2.43C82.73,218.17,82.59,218.53,82.16,218.49Z"/><path class="b" d="M80.39,32.76a2.15,2.15,0,0,1,1.23.65L92.31,46.58c1.54,1.89,3,3.8,4.64,5.64a1.78,1.78,0,0,1,0,2.64c-2.79,3.48-5.62,6.93-8.3,10.5C86.54,68.24,84.17,71,82,73.83c-.83,1.13-1.2,1.1-2.09,0q-7.52-9.12-15-18.22a6.22,6.22,0,0,0-.46-.56,1.59,1.59,0,0,1,0-2.41q4.73-5.8,9.37-11.67c1.86-2.35,3.66-4.77,5.52-7.12A3.41,3.41,0,0,1,80.39,32.76Z"/><path class="b" d="M98.1,125.49a1.84,1.84,0,0,1-.54,1.29c-4,5-8,9.92-11.83,15.06a34.93,34.93,0,0,0-2.88,3.6c-.6,1.07-1.46,1.07-2.39.28a12,12,0,0,1-1.54-1.65q-5.79-7.15-11.64-14.26l-2-2.5c-1.23-1.53-1.24-1.57,0-3.15,3.52-4.43,7.12-8.81,10.56-13.32,1.49-2,3.2-3.73,4.65-5.73.38-.53.87-.69,1.42,0q7.64,9.33,15.29,18.64A2.72,2.72,0,0,1,98.1,125.49Z"/><path class="b" d="M14.05,15.39H11.54c-1.79,0-1.9.12-1.88,1.91,0,1.24-.37,1.65-1.39,1.54A.93.93,0,0,1,7.32,18c-.09-1-.16-2.07-.18-3.1a1.5,1.5,0,0,1,1.49-1.66A46.26,46.26,0,0,1,15.07,13c1.63,0,3.25-.09,4.86-.17,1.06-.06,1.59.65,2.12,1.33s.08,1.19-.34,1.69c-1.73,2-3.45,4.1-5.19,6.13-.51.61-.83.92.35,1.19A7.2,7.2,0,0,1,22.75,31a9.56,9.56,0,0,1-2.4,6.4,7.41,7.41,0,0,1-7.85,2.18,7.32,7.32,0,0,1-5.65-5.87c-.14-.66-.45-1.45.24-2s1.78-.17,2,1.06a5.43,5.43,0,0,0,6,4.72A4.33,4.33,0,0,0,17.1,37c3.1-1.64,4.31-6.66,2.31-9.54-1.29-1.86-3.65-2.37-6-1.29-.42.2-.81.51-1.34.36a1.34,1.34,0,0,1-.61-2.34c1.95-2.32,3.93-4.62,5.89-6.93a3.73,3.73,0,0,0,.32-.36c.24-.35.69-.7.53-1.14s-.77-.3-1.18-.32c-1,0-2,0-3,0Z"/><path class="b" d="M148.26,238.34h-5.63a1.78,1.78,0,0,1-1.46-3.05c1.62-1.93,3.2-3.88,4.86-5.77.68-.78.48-1.23-.39-1.44-5.82-1.38-6.67-7.15-5-11.45a7.45,7.45,0,0,1,8-5.1,7.84,7.84,0,0,1,7.34,6.74,1.2,1.2,0,0,1-1,1.53c-.8.24-1.2-.19-1.4-.9-.06-.23-.13-.46-.2-.69-.92-3-2.92-4.46-5.8-4.32a5.56,5.56,0,0,0-5.23,4.92,6.47,6.47,0,0,0,.79,5.07,4.58,4.58,0,0,0,6.06,1.28c.58-.32,1.1-.65,1.74-.11s1,1.17.24,2c-2,2.32-4,4.69-6,7-.41.48-1.1,1-.85,1.59s1.08.19,1.64.21c1.68,0,3.36,0,5,0s1.84-.12,1.83-1.82c0-.58,0-1.15.57-1.48a1.18,1.18,0,0,1,1.83,1c0,1.08,0,2.16,0,3.24s-.42,1.36-1.36,1.34c-1.92,0-3.83,0-5.74,0Z"/><path class="b" d="M20.52,51a2.88,2.88,0,0,1-.93,2A50.76,50.76,0,0,0,15,58.73c-.71,1.06-1,1.05-1.75.11C11.54,56.73,9.8,54.59,8,52.51A1.68,1.68,0,0,1,8,50c1.77-2.11,3.51-4.24,5.18-6.42.55-.73.88-.65,1.44-.07,1.92,2,3.45,4.38,5.44,6.35A1.84,1.84,0,0,1,20.52,51Z"/><path class="b" d="M148.46,191.31l6.26,7.52a1.3,1.3,0,0,1,.05,1.83q-2.86,3.6-5.71,7.21c-.35.44-.54.55-.95,0-1.91-2.4-3.86-4.77-5.81-7.13a1.22,1.22,0,0,1-.06-1.72C144.29,196.51,146.33,194,148.46,191.31Z"/></svg>