<svg xmlns="http://www.w3.org/2000/svg" xmlns:xlink="http://www.w3.org/1999/xlink" viewBox="0 0 162.73 251.06"><defs><style>.a{fill:#cf2101;}.b{fill:#fefefe;stroke:#c5c6c8;stroke-miterlimit:10;}</style><symbol id="a" viewBox="0 0 40.83 50.32"><path class="a" d="M0,25.26A1.85,1.85,0,0,1,.57,24L19.32.8c.87-1.07,1.17-1.06,2,0L40,23.46c1.16,1.42,1.18,1.61,0,3.07Q30.91,37.91,21.84,49.29c-1.11,1.38-1.36,1.38-2.52,0Q10,38,.68,26.62A2.15,2.15,0,0,1,0,25.26Z"/></symbol></defs><path class="b" d="M80.24,250.56H12a11.34,11.34,0,0,1-10.91-8.5,14.61,14.61,0,0,1-.48-3.67c0-4,0-8.07,0-12.1.4-44.7.13-89.4.2-134.1C.81,73,.86,53.83.69,34.66.62,26.55.76,18.44.51,10.34c-.15-4.51,2-6.84,5.92-8.75A11.57,11.57,0,0,1,11.54.53C26.8.54,42.05.43,57.3.58c31.34.31,62.68.05,94,.13a11.27,11.27,0,0,1,9.48,4.92c1.43,1.94,1.51,4.25,1.39,6.54-.05.84-.12,1.67-.12,2.51q0,43,0,85.93c0,4.24.1,8.48-.06,12.71-.12,3.35-.17,6.7-.12,10.05.38,25.92,0,51.85.17,77.77.06,12,0,24,0,36a13.44,13.44,0,0,1-7,12.15,10.19,10.19,0,0,1-5.41,1.28H80.24Z"/><path class="a" d="M80.17,26c6.12,0,12.24,0,18.37,0a7.77,7.77,0,0,1,7.36,4.19c1.78,3.17-.5,4.75-2.08,6.67C98.27,43.6,92.73,50.34,87.09,57c-1.64,1.93-2.43,3,.94,3.85,10.35,2.68,18.15,8.43,20,19.61,2,12-.53,22.94-9.92,31.28-8.18,7.29-17.88,7.6-27.61,3.89-9.56-3.64-14.9-11-16.26-21.22-.31-2.37-.29-4.3,2.8-4.77,2.83-.43,4.08.51,4.66,3.37,1.56,7.67,5.39,13.58,13.41,15.93,9,2.63,17.07-.18,21.73-7.64,5.85-9.38,5.63-20.86-.53-27.41C91,68.26,83.73,66.92,77,70.7c-2.87,1.61-4.94,2-7.3-.86-2.58-3.13,0-4.61,1.56-6.41,7.22-8.7,14.53-17.33,21.78-26,.58-.7,1.51-1.7,1.34-2.3-.34-1.23-1.78-.88-2.79-.88-7.9-.06-15.8,0-23.7-.14-2.67-.06-3.69.91-3.7,3.47,0,1.48-.51,3-.46,4.46.14,4.08-2.77,3-5,3.12-3.05.22-2.3-2-2.3-3.6,0-3.4.5-6.84.16-10.2-.39-3.93,1.77-4.61,4.77-4.63,6.27,0,12.53,0,18.8,0Z"/><use width="40.83" height="50.32" transform="translate(49.55 148.27) scale(1.56)" xlink:href="#a"/></svg>