<svg xmlns="http://www.w3.org/2000/svg" viewBox="0 0 162.76 251.15"><defs><style>.a{fill:#fefefe;stroke:#c5c6c8;stroke-miterlimit:10;}.b{fill:#cb332a;}</style></defs><path class="a" d="M80.25,250.55c-22.84,0-45.68-.14-68.51.1-5.53.06-10.6-5.61-10.93-9.88A138,138,0,0,1,.73,224.5c0-.4,0-.8,0-1.2q0-66,.05-132c0-18.9.07-37.8-.09-56.69-.07-8.07.1-16.14-.2-24.2C.34,6,2.63,3.38,6.33,1.63A12,12,0,0,1,11.56.53C26.77.54,42,.43,57.19.58c31.38.3,62.76,0,94.14.13A11.53,11.53,0,0,1,158.24,3c3.25,2.32,4.26,5.53,4,9.32-.05.6-.12,1.19-.13,1.79q0,49.32-.08,98.64c0,3.55-.2,7.1-.15,10.65.38,25.92.05,51.85.17,77.77.06,12,0,24.05,0,36.07,0,6.1-4,11.65-9.31,13a13.8,13.8,0,0,1-3.21.36H80.25Z"/><path class="b" d="M98.79,116.75c0,4.12-1.79,7.64-4,11a112.15,112.15,0,0,1-12.39,15.35c-.65.7-1.24.9-2,.07-5-5.62-9.8-11.38-13.45-18a16.22,16.22,0,0,1-2-11.41,8.2,8.2,0,0,1,13.52-4.68,8.75,8.75,0,0,1,2.68,3.31c.1.23.2.48.46.48s.43-.31.56-.56a9.93,9.93,0,0,1,9.7-5c4.07.59,6.69,3.77,6.86,8.38C98.8,116,98.79,116.39,98.79,116.75Z"/><path class="b" d="M97.63,212.93a12.17,12.17,0,0,1-.37,3.06c-.77,3.18-2.58,5.4-5.9,6A8.82,8.82,0,0,1,82,218.21c-1.31-1.84-1.29-1.85-2.66,0a9.63,9.63,0,0,1-10.8,3.33c-2.92-1-4.76-4-5-7.91A17.37,17.37,0,0,1,66,204.13c3.54-6.32,8.25-11.74,13.07-17.06,1.91-2.11,1.7-2.29,3.68,0,4.82,5.64,9.67,11.26,13,18A16.85,16.85,0,0,1,97.63,212.93Z"/><path class="b" d="M65.6,38.5c0-4.53,2-7.84,5.43-9a9.13,9.13,0,0,1,10.64,4.32c.66,1.27,1,1.19,1.76.1,2.69-3.89,6.32-5.28,10.53-4.24A6.68,6.68,0,0,1,99,34.57c1.55,4.93.21,9.4-2.34,13.57a100.92,100.92,0,0,1-13,16.61,8.54,8.54,0,0,0-.64.71c-.45.67-.81.67-1.38.05a123.76,123.76,0,0,1-11.4-14.43,32.7,32.7,0,0,1-3.51-6.51A16.56,16.56,0,0,1,65.6,38.5Z"/><path class="b" d="M150.24,209.71A3.7,3.7,0,0,1,147,208c-.42-.63-.64-.66-1.09,0a5.41,5.41,0,0,1-5.21,1.51c-1.08-.37-2.15-2.26-2.16-3.87A8.79,8.79,0,0,1,140,200.8,43.27,43.27,0,0,1,146,193c.36-.36.63-.41,1,0,2.42,2.86,4.93,5.66,6.53,9.1a7.24,7.24,0,0,1,.69,4.31C153.87,208.66,152.58,209.74,150.24,209.71Z"/><path class="b" d="M24.24,46.21c-.06,1.94-1.68,4.16-3.25,6.36-1,1.4-2.27,2.63-3.39,4s-1.34,1.35-2.52.17A40.14,40.14,0,0,1,10,50a8.21,8.21,0,0,1-1.53-4.83,4.12,4.12,0,0,1,2.37-4,3.86,3.86,0,0,1,4.57,1.07c.7.71,1.13,1,2,.05a4.2,4.2,0,0,1,4.84-1C23.63,41.9,24.24,43.07,24.24,46.21Z"/><path class="b" d="M14.15,11.53c2.12,0,5.54,0,9,0,1.12,0,1.37.75,1.77,1.45s0,1.21-.45,1.7l-5.1,5.64c-.79.87-.69,1.32.53,1.58,3.87.81,5.49,4.11,5.42,7.74-.08,4.08-2.6,7.67-6,8.49A8.23,8.23,0,0,1,10,34.33a10.18,10.18,0,0,1-1-2.94c-.1-.51-.45-1.1.47-1.27.73-.13,1.44-.33,1.77.63a8.66,8.66,0,0,0,1.61,3.4c1.81,1.94,4.05,2,6.27,1.46S22.06,33,22.63,31a6.11,6.11,0,0,0-.2-3.73,4.27,4.27,0,0,0-6.52-2.47c-1,.63-1.55.27-2.23-.41s0-1.15.35-1.6a72.34,72.34,0,0,1,6.13-7.08c.4-.45,1.06-1,.89-1.47s-1.05-.34-1.6-.36c-1.7-.07-3.41,0-5.12,0s-2.19.36-1.95,2.09c.16,1.09-.42,1.31-1.17,1.31s-1.55-.13-1.27-1.3a5.37,5.37,0,0,0,0-1.55C9.74,11.75,10.24,11.23,14.15,11.53Z"/><path class="b" d="M145.89,239.73c-1.71,0-3.43,0-5.14,0a2.55,2.55,0,0,1-2.6-1.35c-.43-.95.52-1.61,1-2.25,1.49-1.79,3.06-3.53,4.62-5.26.72-.8.37-1.14-.46-1.39-4.53-1.34-6.65-5.5-5.27-10.32a8.26,8.26,0,0,1,9.92-5.89,7.72,7.72,0,0,1,5.93,6.88c0,1-.42,1.24-1.26,1.27s-1.07-.21-1.2-1.12c-.33-2.16-1.42-4-3.72-4.62-2.56-.68-4.63-.15-6,1.69a7.27,7.27,0,0,0-1.37,6.33,4.45,4.45,0,0,0,5.9,3.29l.57-.2c1-.38,2.05-.56,2.6.37s-.23,1.61-.91,2.24c-2.3,2.16-4.19,4.7-6.32,7-.2.22-.43.61-.36.82s.55.15.85.16c2.11,0,4.23,0,6.34.1,1.21.06,1.67-.41,1.62-1.58,0-.84-.14-1.74,1.19-1.73s1.18.9,1.2,1.74a21,21,0,0,0,0,2.38c.16,1.28-.57,1.49-1.56,1.49h-5.63Z"/></svg>