<svg xmlns="http://www.w3.org/2000/svg" xmlns:xlink="http://www.w3.org/1999/xlink" viewBox="0 0 162.76 251.15"><defs><style>.a{fill:#cb3329;}.b{fill:#fefefe;stroke:#c5c6c8;stroke-miterlimit:10;}.c{fill:#cf2101;}</style><symbol id="a" viewBox="0 0 41.85 45.12"><path class="a" d="M0,11.37c.12-3,.81-6,3.08-8.33,3.86-4,10-4.06,14.31-.1A12.51,12.51,0,0,1,19.83,6c.24.41.38,1,.91,1s.7-.59.93-1A11.11,11.11,0,0,1,29.16.37c6.11-1.19,11.17.93,12.41,8.14a18.54,18.54,0,0,1-1.22,10.43C37.86,25,34,30.05,30,35.12c-2.48,3.17-5.14,6.21-7.83,9.21-.92,1-1.24,1.05-2.11.1C14.33,38.2,8.78,31.81,4.31,24.58,2,20.85.1,17,0,12.44Z"/></symbol></defs><path class="b" d="M80.25,250.55c-22.84,0-45.68-.14-68.51.1-5.53.06-10.6-5.61-10.93-9.88A138,138,0,0,1,.73,224.5c0-.4,0-.8,0-1.2q0-66,.05-132c0-18.9.07-37.8-.09-56.69-.07-8.07.1-16.14-.2-24.2C.34,6,2.63,3.38,6.33,1.63A12,12,0,0,1,11.56.53C26.77.54,42,.43,57.19.58c31.38.3,62.76,0,94.14.13A11.53,11.53,0,0,1,158.24,3c3.25,2.32,4.26,5.53,4,9.32-.05.6-.12,1.19-.13,1.79q0,49.32-.08,98.64c0,3.55-.2,7.1-.15,10.65.38,25.92.05,51.85.17,77.77.06,12,0,24.05,0,36.07,0,6.1-4,11.65-9.31,13a13.8,13.8,0,0,1-3.21.36H80.25Z"/><use width="41.85" height="45.12" transform="translate(45.63 149.39) scale(1.71)" xlink:href="#a"/><path class="c" d="M81.41,24.23c6.13,0,12.25,0,18.38,0a7.75,7.75,0,0,1,7.36,4.18c1.77,3.17-.5,4.76-2.08,6.67C99.51,41.82,94,48.55,88.33,55.21c-1.63,1.92-2.43,3,1,3.84,10.35,2.69,18.15,8.43,20,19.62,1.95,12-.54,22.93-9.92,31.28-8.19,7.28-17.89,7.6-27.62,3.89-9.55-3.65-14.89-11-16.25-21.22-.31-2.37-.3-4.3,2.8-4.77,2.83-.43,4.07.51,4.65,3.37,1.57,7.67,5.4,13.57,13.42,15.92,9,2.64,17.07-.18,21.72-7.63,5.86-9.38,5.64-20.86-.53-27.41-5.29-5.63-12.55-7-19.26-3.19-2.87,1.62-4.93,2-7.29-.86-2.58-3.12,0-4.6,1.55-6.41,7.23-8.7,14.54-17.33,21.79-26,.58-.69,1.51-1.69,1.34-2.29-.34-1.24-1.79-.88-2.79-.89-7.9-.06-15.81,0-23.7-.14-2.67-.06-3.69.91-3.7,3.47,0,1.49-.51,3-.46,4.46.13,4.09-2.77,3-5,3.13-3.06.22-2.31-2-2.3-3.6,0-3.41.49-6.84.16-10.21-.39-3.93,1.76-4.61,4.77-4.63,6.26,0,12.53,0,18.8,0Z"/></svg>