<svg xmlns="http://www.w3.org/2000/svg" viewBox="0 0 162.77 251.14"><defs><style>.a,.c{fill:#fefefe;}.a{stroke:#c5c6c8;stroke-miterlimit:10;}.b{fill:#020202;}</style></defs><path class="a" d="M80.27,250.54c-22.76,0-45.52-.14-68.28.1C6.48,250.69,2,245.81,1,242a16.58,16.58,0,0,1-.47-3.78c0-4,0-8,0-12C1,181.4.7,136.62.79,91.84c0-19.1.11-38.2-.08-57.29-.08-8.11.1-16.21-.2-24.31C.34,5.69,2.91,3.17,6.6,1.49a12.48,12.48,0,0,1,5.24-1c4.76,0,9.51,0,14.26,0,41.76.25,83.52.18,125.28.19a10.87,10.87,0,0,1,10.09,6.07,8.69,8.69,0,0,1,.76,4.79c-.37,6.15-.15,12.29-.16,18.44-.06,27.69,0,55.37-.09,83.06,0,3.39-.2,6.78-.15,10.17.44,25.92.07,51.84.19,77.77.06,12.06,0,24.13,0,36.19a13.4,13.4,0,0,1-9.09,12.88,10.4,10.4,0,0,1-3.3.43H80.27Z"/><path class="b" d="M83.77,133.3A18.23,18.23,0,0,0,85,141.62c.91,2.67.92,2.65-1.82,2.61-1,0-2.08,0-3.11,0-.87,0-1.11-.13-.77-1.06a24,24,0,0,0,1.6-6.6,23.33,23.33,0,0,0-.14-3.42c-.54.77-.94,1.32-1.31,1.89-2.12,3.21-4.53,4.35-7.61,3.58-3.26-.81-5.27-3.4-5.66-7a11.71,11.71,0,0,1,2.45-8.84c4.39-5.68,8.68-11.44,13-17.17.26-.34.39-.89,1-.15q6.3,8.14,12.7,16.19c2.8,3.5,4,7.35,2.77,11.73a6.84,6.84,0,0,1-5.52,5.19c-2.9.6-5.12-.56-6.84-2.88A12.29,12.29,0,0,0,83.77,133.3Z"/><path class="b" d="M81.55,27.94c4.6,5.84,9.21,11.64,13.73,17.51a11.86,11.86,0,0,1,2,11.51,6.81,6.81,0,0,1-5.56,4.69A6.16,6.16,0,0,1,85.41,59c-.56-.73-1.06-1.5-1.59-2.24-.16-.22-.26-.58-.59-.52s-.29.51-.29.8a23.49,23.49,0,0,0,1.83,8.59c.2.55.41,1.1.63,1.7h-7a36.1,36.1,0,0,0,2.08-7.5c.12-1,.12-2,.16-3,0-.26.1-.62-.3-.67s-.36.25-.48.45a20.66,20.66,0,0,1-2.19,3.13,6.12,6.12,0,0,1-6.26,2A6.91,6.91,0,0,1,66,56.42a11,11,0,0,1,1.8-10.07C72.47,40.24,77,34,81.55,27.94Z"/><path class="b" d="M79.36,182.42c2.11,0,4.14,0,6.17,0,.68,0,.54.28.4.73a36.26,36.26,0,0,0-1.86,7.16c-.09.83-.11,1.67-.13,2.51,0,.24-.15.61.24.69s.45-.27.6-.49A20.17,20.17,0,0,1,87,189.9a6.75,6.75,0,0,1,11.25,2.36,10.83,10.83,0,0,1-1.33,11c-4.32,5.74-8.67,11.44-13,17.18-.62.81-1.11,1-1.81.06-4.47-5.72-9-11.36-13.41-17.16A11,11,0,0,1,67.17,193,6.79,6.79,0,0,1,72.91,188a6.25,6.25,0,0,1,6.34,2.73c.53.7,1,1.45,1.5,2.17.19.27.29.73.77.57s.25-.62.22-.92a41.44,41.44,0,0,0-2.22-9.52C79.46,182.89,79.43,182.7,79.36,182.42Z"/><path class="b" d="M15.05,12.29h5.38a2.3,2.3,0,0,1,2.16,1.23c.52.92-.15,1.39-.61,2-1.63,2-3.25,3.94-4.9,5.89-.48.56-.71.87.27,1.13,3,.78,5.32,2.46,5.85,5.74.58,3.5-.15,6.71-2.9,9.16-2.4,2.13-5.24,2.22-8.09,1.13a7.19,7.19,0,0,1-4.75-6.21c-.1-.69-.09-1.26.82-1.39s1.19.15,1.36,1c.46,2.25,1.58,4,3.93,4.67a5.34,5.34,0,0,0,6.36-2.24c1.71-2.75,1.65-6.11-.16-8a4.45,4.45,0,0,0-5.64-.93c-.84.47-1.44.59-2.13-.25s0-1.35.45-1.88c2.12-2.54,4.26-5.07,6.38-7.61.17-.21.44-.5.39-.67-.1-.37-.52-.26-.82-.26-2.31,0-4.62,0-6.93,0-.79,0-1.08.26-1.09,1,0,.44-.15.87-.13,1.31,0,1.19-.81.86-1.47.91-.9.07-.68-.58-.67-1.05a29.87,29.87,0,0,0,0-3C8,12.7,8.67,12.5,9.55,12.5c1.83,0,3.67,0,5.5,0Z"/><path class="b" d="M145.35,234.54a21.7,21.7,0,0,0,8.45.13c.72-.12.45-.92.55-1.42.14-.74-.14-1.7,1.15-1.66s1,1,1,1.76a15.28,15.28,0,0,1,0,1.79c-.07,2-.07,2-2,2.07-3.43.09-6.86.09-10.29.1a2.1,2.1,0,0,1-2.16-1.19c-.42-1,.22-1.48.73-2.09,1.6-1.93,3.19-3.88,4.79-5.82.42-.49.42-.78-.27-1a9.45,9.45,0,0,1-1.41-.65,8.51,8.51,0,0,1-1.38-14.46c2.59-2,5.48-2,8.36-.71s3.9,3.61,4.17,6.49c0,.34.14.84-.43.73s-1.23.51-1.51-.4c-.09-.27-.14-.54-.22-.81-.93-3.25-3.08-4.79-6.36-4.55-2.43.18-4.54,2.47-5,5.38-.5,3.57,1.1,6.11,4.13,6.54a5.81,5.81,0,0,0,2.9-.52c.52-.2,1-.42,1.58,0s1.13.89.3,1.82C150.06,228.79,147.79,231.62,145.35,234.54Z"/><path class="b" d="M14.84,41.76a103.26,103.26,0,0,1,6.34,8.44,4.79,4.79,0,0,1,.3,4,2.84,2.84,0,0,1-4.74,1.13c-.33-.32-.55-.77-1.15-.89a10,10,0,0,0,.46,3.15c.06.26.26.7,0,.74a7.6,7.6,0,0,1-2.13,0c-.33,0-.09-.47-.06-.72a11.58,11.58,0,0,0,.35-3.37c-.21,0-.31,0-.34,0-1.42,1.87-3,2.38-4.43,1.41a4.37,4.37,0,0,1-.89-5.52c1.26-1.88,2.66-3.67,4-5.49C13.29,43.78,14.05,42.81,14.84,41.76Z"/><path class="b" d="M149.87,195.48c.76-.12,1.07-.7,1.54-1a2.85,2.85,0,0,1,4.72,1.54,4.18,4.18,0,0,1-.34,3.7c-2,2.87-4.12,5.66-6.24,8.56-2.12-2.7-4.24-5.19-6.08-7.9a5.48,5.48,0,0,1-.77-4.13,2.84,2.84,0,0,1,4.52-1.84,20.58,20.58,0,0,1,1.7,1.36c-.22-1.25-.42-2.34-.6-3.43,0-.24-.35-.63.05-.71a6.59,6.59,0,0,1,2.12-.15c.26,0,0,.56,0,.84C150.31,193.33,150.09,194.38,149.87,195.48Z"/><path class="c" d="M15.55,54.41l-.07,0,.08-.12s.07.06.07.09S15.58,54.39,15.55,54.41Z"/></svg>