<svg xmlns="http://www.w3.org/2000/svg" xmlns:xlink="http://www.w3.org/1999/xlink" viewBox="0 0 162.77 251.14"><defs><style>.a{fill:#010101;}.b{fill:#fefefe;stroke:#c5c6c8;stroke-miterlimit:10;}.c{fill:#020202;}</style><symbol id="a" viewBox="0 0 32.96 38.86"><path class="a" d="M17.94,27.45c-.62,2.7,0,5,.66,7.29.32,1.15.69,2.28,1.06,3.42.17.5.07.7-.51.69-1.8,0-3.59,0-5.39,0-.77,0-.82-.18-.6-.87a47.6,47.6,0,0,0,2.07-7.59,12,12,0,0,0,.07-2.94,3.58,3.58,0,0,0-1.51,1.65C11.48,32.76,9,34,5.56,33S.19,29.18,0,25.23a12.56,12.56,0,0,1,3.07-8.69C7.39,11.2,11.72,5.88,16,.52c.55-.7.85-.68,1.37,0,4.4,5.68,8.88,11.29,13.2,17a11.67,11.67,0,0,1,1.8,10.8,7,7,0,0,1-5.93,5.06c-2.74.49-4.79-.74-6.38-2.87C19.38,29.6,18.76,28.63,17.94,27.45Z"/></symbol></defs><path class="b" d="M80.27,250.54c-22.76,0-45.52-.14-68.28.1C6.48,250.69,2,245.81,1,242a16.58,16.58,0,0,1-.47-3.78c0-4,0-8,0-12C1,181.4.7,136.62.79,91.84c0-19.1.11-38.2-.08-57.29-.08-8.11.1-16.21-.2-24.31C.34,5.69,2.91,3.17,6.6,1.49a12.48,12.48,0,0,1,5.24-1c4.76,0,9.51,0,14.26,0,41.76.25,83.52.18,125.28.19a10.87,10.87,0,0,1,10.09,6.07,8.69,8.69,0,0,1,.76,4.79c-.37,6.15-.15,12.29-.16,18.44-.06,27.69,0,55.37-.09,83.06,0,3.39-.2,6.78-.15,10.17.44,25.92.07,51.84.19,77.77.06,12.06,0,24.13,0,36.19a13.4,13.4,0,0,1-9.09,12.88,10.4,10.4,0,0,1-3.3.43H80.27Z"/><path class="c" d="M80.19,25.05c6.12,0,12.24,0,18.37,0a7.74,7.74,0,0,1,7.36,4.18c1.78,3.17-.5,4.76-2.08,6.67C98.29,42.63,92.75,49.37,87.11,56c-1.64,1.93-2.43,3,.94,3.85,10.35,2.68,18.15,8.43,20,19.62,2,12-.53,22.93-9.92,31.28-8.18,7.28-17.88,7.59-27.61,3.88-9.56-3.64-14.9-11-16.26-21.22-.31-2.36-.29-4.3,2.8-4.77,2.83-.43,4.08.52,4.66,3.37,1.56,7.67,5.39,13.58,13.41,15.93,9,2.63,17.07-.18,21.73-7.64,5.85-9.38,5.63-20.86-.53-27.41C91,67.29,83.76,66,77.05,69.73c-2.87,1.61-4.94,2-7.3-.86-2.58-3.12.06-4.61,1.56-6.41,7.22-8.7,14.53-17.33,21.78-26,.58-.7,1.51-1.7,1.34-2.3-.34-1.23-1.78-.87-2.79-.88-7.9-.06-15.8,0-23.7-.14-2.67-.06-3.69.91-3.7,3.47,0,1.49-.5,3-.46,4.46.14,4.09-2.77,3-5,3.12-3.06.23-2.31-2-2.31-3.6,0-3.4.5-6.84.16-10.2-.38-3.93,1.77-4.61,4.77-4.63,6.27,0,12.53,0,18.8,0Z"/><use width="32.96" height="38.86" transform="translate(47.07 146.11) scale(2.08)" xlink:href="#a"/></svg>