<svg xmlns="http://www.w3.org/2000/svg" viewBox="0 0 162.76 251.11"><defs><style>.a,.c{fill:#fefefe;}.a{stroke:#c5c6c8;stroke-miterlimit:10;}.b{fill:#1d1d14;}</style></defs><path class="a" d="M80.29,250.57c-22.88,0-45.76,0-68.64,0a10.25,10.25,0,0,1-8.08-3.91,12.23,12.23,0,0,1-3-8.48c0-4,0-8,0-12C1,181.45.7,136.67.79,91.9c0-19.1.1-38.2-.08-57.29C.63,26.5.8,18.39.51,10.3c-.17-4.56,2.32-7,6.07-8.77a12.07,12.07,0,0,1,5.12-1c15.21,0,30.43-.11,45.64,0,31.38.34,62.75,0,94.13.16a10.81,10.81,0,0,1,9.93,6,9.65,9.65,0,0,1,.8,5.49c0,.79-.13,1.58-.13,2.38Q162,64,162,113.44c0,3-.19,5.91-.14,8.86.41,29.87,0,59.75.18,89.62,0,8.39,0,16.78,0,25.17,0,5.43-2.49,9.45-7.08,12.22a10,10,0,0,1-5.29,1.23H80.29Z"/><path class="b" d="M47.65,59.05c-.87,1.93.18,3.57.49,5.28.37,2,1.4,3.81,2.1,5.71a3.34,3.34,0,0,1,.43,1.62,49.34,49.34,0,0,0-8.24-.14c-1.16.06-1.3-.19-.67-1.24,1.58-2.65,2.19-5.63,3-8.52a7.81,7.81,0,0,0,0-3l-2,3.1a11.39,11.39,0,0,1-1.72,2.09c-1.83,1.78-4,1.84-6.28,1.56A6.47,6.47,0,0,1,30,62.32a9.32,9.32,0,0,1-1.93-5.54c.19-4.32,2.44-7.61,6-8.62a8.79,8.79,0,0,1,5.61.45c.43.17.84.52,1.38,0-2.4-2.33-4.45-4.88-4.35-8.42a7.78,7.78,0,0,1,2.34-5.36c3.42-3.43,9.46-3.66,13.45-.56,2.42,1.89,2.84,4.49,2.73,7.28s-2.27,4.81-4,7.21l2.44-.58C60,46.7,63.4,50.87,64,55.2c.9,6.22-3.8,10.62-8.55,10.48a7.39,7.39,0,0,1-5.91-3.42C48.85,61.27,48.3,60.16,47.65,59.05Z"/><path class="b" d="M121.92,202.65a2.69,2.69,0,0,0,1.08,1.62c3.82,3.81,3.59,9.62,0,12.67a9.68,9.68,0,0,1-8.07,2.13c-4.53-.7-7.3-3.58-7.64-8.09a8.26,8.26,0,0,1,1.81-5.56c.67-.93,1.36-1.84,2.09-2.81a3.29,3.29,0,0,0-1.84.35c-5.72,1.67-10.64-2-10.72-7.91,0-3.77,1.39-6.72,4.81-8.57a7.52,7.52,0,0,1,10.12,3.21,9.18,9.18,0,0,0,1.71,2.72,11.05,11.05,0,0,0-.4-4.39c-.74-2.35-1.59-4.66-2.49-7-.52-1.31-.38-1.45,1-1.32a26.67,26.67,0,0,0,7.14-.2c.74-.13.79,0,.56.61-.48,1.26-.9,2.55-1.5,3.75a22.12,22.12,0,0,0-1.86,6.14,3.41,3.41,0,0,0,.25,2.11c.29,0,.28-.24.32-.39a8.46,8.46,0,0,1,6.14-6,7.34,7.34,0,0,1,6.44,1.44,9.39,9.39,0,0,1,3.18,10.36,7.83,7.83,0,0,1-7.09,5.95,11.35,11.35,0,0,1-3.85-.71A2.17,2.17,0,0,0,121.92,202.65Z"/><path class="b" d="M40.84,202.38a11.74,11.74,0,0,0-3.06.77c-5.46,1.26-9-3.15-9.63-6.74a9.39,9.39,0,0,1,6-10.53c3.49-1.13,7.15.47,9.08,4,.23.42.42.86.65,1.28s.27.8.68.72.32-.65.34-1a9.66,9.66,0,0,0-.59-3.4c-.74-2.4-1.69-4.71-2.61-7-.08-.22-.13-.44-.24-.81l2.43.19a23.37,23.37,0,0,0,5.85-.16c1-.17,1,.21.73,1-.73,1.84-1.48,3.68-2.13,5.55a28.8,28.8,0,0,0-1,3.78,3.15,3.15,0,0,0,.3,2.33c.46-.79.92-1.48,1.27-2.22a7.54,7.54,0,0,1,7.77-4.4,8.61,8.61,0,0,1,7.16,6.81,9.64,9.64,0,0,1-.67,6.3,7.75,7.75,0,0,1-10.24,4,1.45,1.45,0,0,0-.22-.09c-.43-.14-1-.59-1.26-.07s.3.84.66,1.16c4,3.6,4.35,9,.7,12.93a8.8,8.8,0,0,1-4.16,2.15,10.63,10.63,0,0,1-5.51-.2A8.2,8.2,0,0,1,37.64,207a9.71,9.71,0,0,1,2.22-3.08A2.65,2.65,0,0,0,40.84,202.38Z"/><path class="b" d="M111.4,48.84c-.26-.9-1.1-1.34-1.62-2-2-2.66-3-5.59-2.06-8.94a5.8,5.8,0,0,1,1.4-2.47,10.72,10.72,0,0,1,13.68-1.28,8.38,8.38,0,0,1,2,10.86,42.18,42.18,0,0,1-2.92,3.74.72.72,0,0,0,.92.12c5.34-2.25,8.61,0,10.43,2.69,2.3,3.4,1.8,8.15-1.06,11.53a7.87,7.87,0,0,1-8.45,2.26,8.38,8.38,0,0,1-4.15-4,5.22,5.22,0,0,0-1.68-2.2c-.12,4.62,2.13,8.41,3.44,12.6a36.44,36.44,0,0,0-9.39.07c.89-2.31,1.74-4.48,2.57-6.64a15.87,15.87,0,0,0,1-5c0-.28.18-.73-.27-.79s-.57.19-.73.51A16.85,16.85,0,0,1,113.4,62c-1.81,2.64-4.26,4.23-7.51,3.62a8.3,8.3,0,0,1-6.81-6.43,9.62,9.62,0,0,1,.11-5.42c1.43-4.7,5-6.06,9.12-5.76a12.48,12.48,0,0,1,2.92,1C111.43,49.1,111.29,48.82,111.4,48.84Z"/><path class="b" d="M12,48.25c-1.69-2.74-1.81-4.2-.5-5.5a4.22,4.22,0,0,1,5.53-.57c2.64,1.81,1.86,3.94.3,6.1,3.31,0,4.47.55,4.95,2.34.4,1.5-.29,3.81-1.32,4.46-1.91,1.21-3.07.93-5.5-1.35a5.44,5.44,0,0,0,.62,3c.46,1.33.43,1.38-.94,1.48-.75.06-1.5.09-2.31.14,0-1.58,1.31-2.81,1-4.7-1.62,2.4-3.56,2.73-5.74,1.23a4.46,4.46,0,0,1-1.16-3.81C7.76,48.79,8.59,48.33,12,48.25Z"/><path class="b" d="M150,191.86,149,195.54c-.07.23-.23.52,0,.66s.47,0,.68-.29a3.4,3.4,0,0,1,4.52-.86,4.12,4.12,0,0,1,1.51,4.62c-.93,2-1.31,2.61-3.79,2.43-.29,0-.62-.07-.78.13s.16.46.29.68c.84,1.47,1.2,2.93.08,4.46-.55.76-2.7,1.8-3.62,1.58-2.44-.6-3.86-1.55-3.55-4.42a3.62,3.62,0,0,1,.77-1.57c.14-.23.38-.47.23-.75s-.5-.17-.75-.12a3.49,3.49,0,0,1-4.06-3.23,4.42,4.42,0,0,1,1.59-3.61c1.81-1,2.87-1,4.24.29.33.3.55.75.95,1a5.13,5.13,0,0,0-.83-3.65c-.31-.55-.18-.75.42-.86C147.9,191.83,148.92,192.29,150,191.86Z"/><path class="b" d="M150.62,219.2c1.11,0,2.23-.06,3.35,0,1.82.13,2.56,1.4,1.66,3-2.78,4.93-5.61,9.82-8.46,14.71a2.61,2.61,0,0,1-2.6,1.14.93.93,0,0,1-1-1.07c0-2.71,0-5.41,0-8.12,0-2.09,0-4.18,0-6.28,0-1-.68-1.08-1.4-1-.94.09-1.48-.11-1.46-1.23s.81-1.24,1.54-1.18c1.15.11,1.4-.43,1.35-1.39,0-.32,0-.64,0-1,0-1.81,0-1.85-1.85-2.18-.88-.15-.81-.7-.82-1.31s.3-.91,1-.91c1.83,0,3.67-.06,5.5-.07.68,0,1.3.1,1.3,1s-.19,1.24-1.14,1.3c-1.47.09-1.74.54-1.73,2.34s.17,2.12,2.07,2.17c.44,0,.88,0,1.32,0S150.14,219.2,150.62,219.2Z"/><path class="b" d="M19.84,21.52c0,2.28,0,4.55,0,6.83,0,1,.22,1.52,1.36,1.41.44-.05,1.07-.2,1.41.38a1.47,1.47,0,0,1,.09,1.38c-.19.48-.56.59-1,.63-1.74.12-1.75.14-1.89,1.85,0,.35.06.72.06,1.07,0,1,.47,1.53,1.5,1.51s1.35.51,1.27,1.45c-.06.56-.33.89-.91.9L15.42,39c-.62,0-.47-.51-.59-.86-.19-.53-.24-1,.32-1.37.2-.11.47-.12.68-.22.51-.23,1.42.4,1.55-.42a6.7,6.7,0,0,0-.07-3.66c-.15-.39-.55-.23-.85-.27-2-.23-4-.09-6-.13a8.8,8.8,0,0,1-1.54-.12,1.63,1.63,0,0,1-1.41-2.36,6.37,6.37,0,0,1,.62-1.29L16.35,14c.71-1.24,1.95-.7,2.92-.77.72-.05.54.94.55,1.48C19.87,17,19.84,19.24,19.84,21.52Z"/><path class="c" d="M111.4,48.84l0,.28-.13-.15A.7.7,0,0,1,111.4,48.84Z"/><path class="c" d="M145.87,233.4v-8.22c0-3.62,0-3.62,3.6-3.62.8,0,1.6,0,2.39,0s1,0,.64.8A45.94,45.94,0,0,1,145.87,233.4Z"/><path class="c" d="M10,29.77l5.57-9.61c.34-.58.67-1.17,1-1.75.13-.22.21-.55.58-.46s.39.35.39.65q0,5,0,10c0,.64-.32,1.12-1,1.12C14.46,29.79,12.32,29.77,10,29.77Z"/></svg>