<svg xmlns="http://www.w3.org/2000/svg" xmlns:xlink="http://www.w3.org/1999/xlink" viewBox="0 0 162.76 251.11"><defs><style>.a{fill:#1d1d14;}.b,.d{fill:#fefefe;}.b{stroke:#c5c6c8;stroke-miterlimit:10;}.c{fill:#020202;}</style><symbol id="a" viewBox="0 0 36.15 39.55"><path class="a" d="M16.43,26.84a17.37,17.37,0,0,1-3.45,5c-2.53,2.46-6.58,1.91-8.66.6A9.45,9.45,0,0,1,1.7,19.09c2.41-3.3,6.05-4.21,10.12-2.52l.54.26c.22.08.49.18.62-.08,0-.11-.09-.37-.21-.51-.66-.79-1.4-1.54-2-2.36A8.38,8.38,0,0,1,12.4,1.64,9.09,9.09,0,0,1,17.06.06,10.11,10.11,0,0,1,24.27,2a8.17,8.17,0,0,1,2.35,9.9,10.71,10.71,0,0,1-2.29,3.33,4.56,4.56,0,0,0-1.25,1.59c.57.31,1-.07,1.44-.26a8.28,8.28,0,0,1,9.58,2.16c4.61,5.88.73,13.54-4.74,14.6-2.58.5-4.94.11-6.83-2.05a10.62,10.62,0,0,1-2.05-3A1.86,1.86,0,0,0,19.24,27a17.87,17.87,0,0,0,1.49,7.4c.53,1.29,1.11,2.55,1.66,3.82.42,1,.16,1.4-.85,1.25a25.42,25.42,0,0,0-7.13,0c-1.08.14-1.2-.08-.8-1.13.94-2.44,2.32-4.71,2.78-7.33A10.62,10.62,0,0,0,16.43,26.84Z"/></symbol></defs><path class="b" d="M80.29,250.57c-22.88,0-45.76,0-68.64,0a10.25,10.25,0,0,1-8.08-3.91,12.23,12.23,0,0,1-3-8.48c0-4,0-8,0-12C1,181.45.7,136.67.79,91.9c0-19.1.1-38.2-.08-57.29C.63,26.5.8,18.39.51,10.3c-.17-4.56,2.32-7,6.07-8.77a12.07,12.07,0,0,1,5.12-1c15.21,0,30.43-.11,45.64,0,31.38.34,62.75,0,94.13.16a10.81,10.81,0,0,1,9.93,6,9.65,9.65,0,0,1,.8,5.49c0,.79-.13,1.58-.13,2.38Q162,64,162,113.44c0,3-.19,5.91-.14,8.86.41,29.87,0,59.75.18,89.62,0,8.39,0,16.78,0,25.17,0,5.43-2.49,9.45-7.08,12.22a10,10,0,0,1-5.29,1.23H80.29Z"/><path class="c" d="M91.1,55.11c0,8.26.14,16.52-.07,24.78-.09,3.3.44,5,4.28,5.11,2.54.08,6.34-.63,6.25,4.3,0,2.09-.1,3-2.44,3.43-7.18,1.44-7.15,1.58-7.15,8.9a22.43,22.43,0,0,1,0,3.48c-.56,3.36.89,4.91,4.18,4.86,3.68,0,4.52,2.24,4.53,5.3,0,3.68-2.93,3.17-5,3.2-6.51.09-13-.21-19.55-.17-2.52,0-2.46-1.65-2.36-3.17s-1.51-3.56,1.67-4.45c6.94-1.92,6.88-2.13,7-9.35.09-7.75.09-7.73-7.51-7.75-6.67,0-13.38-.62-20,0-7.36.68-9.93-6.92-6.69-12.34,6.59-11,13-22.23,19.41-33.37,3.48-6,6.89-12.07,10.39-18.07a9.92,9.92,0,0,1,12.39-4.06c1.76.74,1.27,2.08,1.27,3.28,0,8.7,0,17.4,0,26.1Z"/><path class="d" d="M82.81,38.14c0,9.77,0,18.69,0,27.62,0,5.35-.36,10.69-.37,16,0,2.12-.36,3-2.81,3-7.5-.18-15-.07-23.4-.07C65.17,69,73.77,54,82.81,38.14Z"/><use width="36.15" height="39.55" transform="translate(46 148.04) scale(1.98)" xlink:href="#a"/></svg>