<svg xmlns="http://www.w3.org/2000/svg" viewBox="0 0 162.74 251.11"><defs><style>.a,.c{fill:#fefefe;}.a{stroke:#c5c6c8;stroke-miterlimit:10;}.b{fill:#cf2101;}</style></defs><path class="a" d="M80.29,250.56c-22.72,0-45.44-.08-68.16.05-4.87,0-7.81-2.41-10.12-6.19a11.21,11.21,0,0,1-1.42-5.75c0-4.24-.12-8.47,0-12.71.32-10.58.14-21.16.16-31.74Q.85,143.94.8,93.66c0-19.66.07-39.31-.1-59C.64,26.59.8,18.48.51,10.38.35,5.85,2.72,3.33,6.4,1.6A11.8,11.8,0,0,1,11.52.53c15.21,0,30.42-.1,45.64,0,31.41.31,62.83,0,94.25.14a11.22,11.22,0,0,1,9.38,4.88c1.44,1.94,1.53,4.25,1.41,6.54,0,.91-.12,1.83-.12,2.74q0,42.86-.05,85.7c0,4.31.08,8.63-.06,12.94-.09,3-.16,5.91-.13,8.86.39,29.8,0,59.59.18,89.39,0,8.39,0,16.78,0,25.17a13.51,13.51,0,0,1-6.46,12,10.65,10.65,0,0,1-6,1.61H80.29Z"/><path class="b" d="M31.16,54.59a2,2,0,0,1,.54-1.2c5.11-6.49,10.24-13,15.3-19.5.62-.79,1-.71,1.5-.06l7.81,9.23c2.76,3.26,5.48,6.56,8.27,9.79a1.44,1.44,0,0,1,0,2.17c-3.76,4.76-7.54,9.51-11.18,14.36-1.17,1.55-2.48,3-3.62,4.58S48.09,75.44,47,74c-1.56-2.07-3.25-4-4.93-6-3.4-4-6.77-8-10.15-12A2.17,2.17,0,0,1,31.16,54.59Z"/><path class="b" d="M67.6,197.73A2,2,0,0,1,67,199q-7.58,9.71-15.18,19.42c-.78,1-.83.95-1.82-.24q-6.42-7.65-12.88-15.28c-1-1.19-2-2.39-3-3.57a1.38,1.38,0,0,1,0-2q7.73-9.76,15.41-19.55c.61-.79,1.1-.71,1.7,0Q59.1,187.15,67,196.47A2.14,2.14,0,0,1,67.6,197.73Z"/><path class="b" d="M95.4,53.37a1.78,1.78,0,0,1,.53-1.27q7.56-9.59,15.13-19.17c.8-1,1.09-1,1.93,0,5.18,6.18,10.34,12.37,15.54,18.53a1.76,1.76,0,0,1,0,2.61c-3.62,4.62-7.2,9.26-10.79,13.9-1.36,1.76-2.69,3.54-4,5.31-.62.84-1.26.89-1.94.09L96.06,54.76A2.06,2.06,0,0,1,95.4,53.37Z"/><path class="b" d="M131.8,196.52a3.73,3.73,0,0,1-.94,1.65q-6.66,8.61-13.33,17.23c-.49.63-.93,1.3-1.4,1.93s-1.19.82-1.76.09c-5.13-6.58-10.7-12.8-16-19.22a1.39,1.39,0,0,1,0-2q7.7-9.72,15.33-19.48c.8-1,1.34-.58,2,.17q7.3,8.72,14.63,17.42A7,7,0,0,1,131.8,196.52Z"/><path class="b" d="M10.52,33.17c-1,0-2,0-3,0-2.41-.06-3.12-1.19-2-3.32s2.41-4.41,3.6-6.61c1.46-2.7,2.9-5.41,4.35-8.11.46-.85,2.61-1.55,3.44-1.06.57.33.5,1,.5,1.5q0,6.74,0,13.48c0,1,.36,1.5,1.32,1.64a3.35,3.35,0,0,1,1,.28c.66.31.62,1,.61,1.56s-.6.36-.91.41c-1.82.27-1.89.34-1.8,2.18,0,.28-.07.55-.05.83,0,.89.18,1.68,1.4,1.54.84-.09,1.27.36,1.28,1.2s-.49,1.19-1.29,1.19c-1.8,0-3.6,0-5.39,0a1,1,0,0,1-1.11-1.08c0-.72.26-1.15,1-1.23s1.39.17,1.54-.73a5,5,0,0,0-.31-3.5c-.21-.37-.65-.25-1-.25H10.52Z"/><path class="b" d="M152.36,218.2a14.45,14.45,0,0,1,3.54,0c1.56.15,2.3,1.35,1.56,2.71-2.73,5.05-5.52,10.05-8.28,15.07a2.41,2.41,0,0,1-1.87,1.14c-1.13.2-1.65-.24-1.69-1.39l-.24-9.44c0-1.32-.1-2.63-.06-3.95,0-1-.32-1.51-1.32-1.58a3.45,3.45,0,0,1-.7-.13c-.74-.16-.9-.7-.87-1.35s.46-1,1.1-1c1.6-.11,1.73-.25,1.73-1.84,0-1.9,0-1.92-1.85-2.59a1.26,1.26,0,0,1-.89-1.48c.08-.73.58-.85,1.2-.87q2.57-.06,5.13-.18c.8,0,1.36.25,1.38,1.1s-.31,1.26-1.24,1.2-1.39.5-1.36,1.42c.13,3.37-.43,3.22,3,3.2Z"/><path class="b" d="M19.75,51.71a1.42,1.42,0,0,1-.44,1c-1.84,2.36-3.7,4.71-5.52,7.08-.39.52-.62.58-1,.05Q9.88,56.35,6.94,53a1.41,1.41,0,0,1-.07-2c1.87-2.34,3.74-4.67,5.57-7,.47-.61.7-.48,1.13,0,1.83,2.21,3.71,4.39,5.56,6.58C19.43,50.85,19.83,51.18,19.75,51.71Z"/><path class="b" d="M149.7,207.2c-.41,0-.64-.28-.87-.55-1.82-2.17-3.62-4.34-5.46-6.5a1.26,1.26,0,0,1,0-1.81q2.85-3.6,5.65-7.26c.4-.52.6-.4,1,0,1.93,2.34,3.88,4.65,5.83,7a1.24,1.24,0,0,1,.1,1.8c-1.78,2.25-3.53,4.52-5.29,6.79A1.07,1.07,0,0,1,149.7,207.2Z"/><path class="c" d="M15,24.48c0,1.59,0,3.19,0,4.78,0,1-.43,1.52-1.52,1.49-1.63-.05-3.27,0-4.9,0-.7,0-.84-.14-.47-.8,2-3.54,3.92-7.11,5.89-10.66.12-.22.18-.6.55-.53s.28.52.29.78c0,1.64,0,3.27,0,4.91Z"/><path class="c" d="M147.7,226.75v-4.9c0-.73.24-1.29,1.08-1.28,1.75,0,3.5-.15,5.25,0,.64.06.76.22.45.79-1.89,3.51-3.72,7-5.8,10.45-.14.23-.24.57-.58.51s-.31-.5-.31-.78c0-1.6,0-3.2,0-4.8Z"/></svg>