<svg xmlns="http://www.w3.org/2000/svg" xmlns:xlink="http://www.w3.org/1999/xlink" viewBox="0 0 162.74 251.11"><defs><style>.a{fill:#cf2101;}.b,.c{fill:#fefefe;}.b{stroke:#c5c6c8;stroke-miterlimit:10;}</style><symbol id="a" viewBox="0 0 40.83 50.32"><path class="a" d="M0,25.26A1.85,1.85,0,0,1,.57,24L19.32.8c.87-1.07,1.17-1.06,2,0L40,23.46c1.16,1.42,1.18,1.61,0,3.07Q30.91,37.91,21.84,49.29c-1.11,1.38-1.36,1.38-2.52,0Q10,38,.68,26.62A2.15,2.15,0,0,1,0,25.26Z"/></symbol></defs><path class="b" d="M80.29,250.56c-22.72,0-45.44-.08-68.16.05-4.87,0-7.81-2.41-10.12-6.19a11.21,11.21,0,0,1-1.42-5.75c0-4.24-.12-8.47,0-12.71.32-10.58.14-21.16.16-31.74Q.85,143.94.8,93.66c0-19.66.07-39.31-.1-59C.64,26.59.8,18.48.51,10.38.35,5.85,2.72,3.33,6.4,1.6A11.8,11.8,0,0,1,11.52.53c15.21,0,30.42-.1,45.64,0,31.41.31,62.83,0,94.25.14a11.22,11.22,0,0,1,9.38,4.88c1.44,1.94,1.53,4.25,1.41,6.54,0,.91-.12,1.83-.12,2.74q0,42.86-.05,85.7c0,4.31.08,8.63-.06,12.94-.09,3-.16,5.91-.13,8.86.39,29.8,0,59.59.18,89.39,0,8.39,0,16.78,0,25.17a13.51,13.51,0,0,1-6.46,12,10.65,10.65,0,0,1-6,1.61H80.29Z"/><path class="a" d="M91.5,55.37c0,8.26.15,16.52-.07,24.78-.08,3.3.45,5,4.28,5.11,2.54.08,6.35-.63,6.26,4.3,0,2.09-.11,3-2.44,3.43-7.19,1.44-7.16,1.58-7.16,8.9a21.25,21.25,0,0,1,0,3.48c-.55,3.36.9,4.91,4.19,4.86,3.68,0,4.52,2.24,4.53,5.3,0,3.68-2.93,3.17-5,3.2-6.52.09-13-.21-19.56-.17-2.51,0-2.46-1.65-2.36-3.17s-1.51-3.56,1.68-4.45c6.93-1.92,6.88-2.13,7-9.35.09-7.75.09-7.73-7.51-7.75-6.66,0-13.38-.62-20,0-7.36.68-9.92-6.92-6.69-12.34,6.59-11,13-22.23,19.42-33.37,3.48-6,6.88-12.07,10.38-18.07A9.92,9.92,0,0,1,90.78,26c1.77.74,1.27,2.08,1.28,3.28,0,8.7,0,17.4,0,26.1Z"/><path class="c" d="M83.22,38.4c0,9.77,0,18.69,0,27.62,0,5.35-.37,10.69-.37,16,0,2.12-.36,3-2.81,3-7.5-.18-15-.07-23.4-.07C65.58,69.3,74.17,54.24,83.22,38.4Z"/><use width="40.83" height="50.32" transform="translate(49.56 148.27) scale(1.56)" xlink:href="#a"/></svg>