<svg xmlns="http://www.w3.org/2000/svg" viewBox="0 0 162.68 251.15"><defs><style>.a,.c{fill:#fefefe;}.a{stroke:#c5c6c8;stroke-miterlimit:10;}.b{fill:#cb332a;}</style></defs><path class="a" d="M80.25,250.55c-22.84,0-45.68-.14-68.52.1C6.2,250.71,1.14,245,.8,240.77A138,138,0,0,1,.72,224.5c0-.4,0-.8,0-1.2q0-66,.05-132.07C.79,72.37.86,53.51.7,34.66.63,26.59.78,18.52.51,10.46c-.15-4.57,1.92-7,6.14-9a11.9,11.9,0,0,1,5-1C26.6.54,41.53.43,56.46.58c31.66.3,63.32,0,95,.14,4.87,0,9.52,3.3,10.48,7.4a23.28,23.28,0,0,1,.17,5.72c-.07,5.43,0,10.86,0,16.3q0,40.74-.06,81.49c0,3.91-.2,7.83-.14,11.74.37,25.92,0,51.84.16,77.76.06,12,0,24.05,0,36.08,0,6.1-4,11.64-9.31,12.95a13.27,13.27,0,0,1-3.2.37H80.25Z"/><path class="b" d="M94.7,209.82a18,18,0,0,1,2.55-9.19c3.69-6.54,8.5-12.24,13.48-17.81.51-.56,1-.8,1.58-.14,5.6,6.14,11.12,12.34,14.78,19.91a14.78,14.78,0,0,1,1,10.8c-1.69,6.12-9.67,7-13.75,3a23.3,23.3,0,0,1-2-2.19c-.63-.8-1-.64-1.47.14a9.58,9.58,0,0,1-10.4,4.39c-3.37-.71-4.66-3.27-5.48-6.22A8.13,8.13,0,0,1,94.7,209.82Z"/><path class="b" d="M128,41.37a16.37,16.37,0,0,1-2.57,9.07,93.34,93.34,0,0,1-11.69,15.7c-.81.9-1.29,2.37-2.63,2.41s-1.58-1.6-2.4-2.41A88.29,88.29,0,0,1,99,54.08a24,24,0,0,1-4.83-12.14c-.26-3.68,1.93-8.3,4.4-9.22a9.51,9.51,0,0,1,11.41,3.58c1.13,1.62,1.13,1.62,2.18,0a9.47,9.47,0,0,1,11.26-3.71c3.16,1.22,4.25,3.89,4.62,7A15.43,15.43,0,0,1,128,41.37Z"/><path class="b" d="M68.63,209.66a14.28,14.28,0,0,1-.48,3.67c-1.06,3.85-3.91,5.81-7.89,5.74a8.35,8.35,0,0,1-7.45-4.32c-.9-1.5-1.22-1.25-2.09,0A9.52,9.52,0,0,1,39,218.49a6,6,0,0,1-3.4-3.6c-2.51-6.48.15-11.91,3.52-17.14A117.5,117.5,0,0,1,50.6,183.19c.63-.71,1.09-.83,1.8-.06C57.81,189,63.07,195,66.75,202.19A16.07,16.07,0,0,1,68.63,209.66Z"/><path class="b" d="M68.07,41.78a16.92,16.92,0,0,1-2.19,8.1,84.8,84.8,0,0,1-9.89,14c-1.2,1.42-2.55,2.72-3.64,4.21-.73,1-1.34.92-2,.22-1.25-1.26-2.49-2.53-3.62-3.9-2.19-2.65-4.44-5.26-6.42-8.07-2.89-4.1-5.81-8.3-6.07-13.56-.16-3.42.2-6.9,3.35-9.08,3.87-2.68,9.61-1.23,12.44,3,1,1.48,1,1.48,2.09,0C55.48,32,60.34,31,65.06,34c2.49,1.56,2.53,4.15,3,6.58A6.86,6.86,0,0,1,68.07,41.78Z"/><path class="b" d="M23,46.06c.15,2.61-1.25,4.66-2.61,6.62s-3,3.67-4.49,5.52c-.4.49-.91.54-1.21.18C12,55.15,8.85,52.14,7.59,47.89A4.6,4.6,0,0,1,9,42.59a3.18,3.18,0,0,1,4.59.13c1,1,1.71,1.41,2.92.13a3.72,3.72,0,0,1,4.64-.63C22.76,43,23,44.51,23,46.06Z"/><path class="b" d="M139.46,204.32c-.05-2.38,1.17-4.27,2.37-6.16a48.86,48.86,0,0,1,4.52-5.71c.6-.69,1.15-.77,1.79-.06a41,41,0,0,1,6,8,7.2,7.2,0,0,1,1,4.47c-.21,1.51-.7,2.8-2.24,3.4a3.82,3.82,0,0,1-4.31-.87c-.91-.93-1.52-1-2.45,0a3.75,3.75,0,0,1-4.51.86C139.94,207.52,139.48,206,139.46,204.32Z"/><path class="b" d="M18.3,39.4c-1,0-2,0-3,0-.78.05-1.05-.41-.93-1s-.13-1.42,1-1.46c1.67,0,2.06-.55,2.08-2.38,0-1.49-.88-2.07-2.2-2.1-2.08,0-4.17,0-6.26,0A2.09,2.09,0,0,1,7.23,29.7c1.49-2.69,3.06-5.34,4.58-8,1.31-2.31,2.67-4.58,3.84-6.95.77-1.55,2-1.3,3.23-1.16.59.07.68.67.69,1.24,0,4.66-.24,9.32.08,14,.07,1,.34,1.36,1.37,1.15.69-.13,1.49,0,1.44.93,0,.74.05,1.86-1.34,1.51-.9-.22-1.31.18-1.5,1a15,15,0,0,0,.07,2.84c0,.73.63.62,1.17.59s1.41-.28,1.31.79c-.08.77.4,2-1.24,1.73a19.21,19.21,0,0,0-2.63,0Z"/><path class="b" d="M143.34,229.36c0-2.11,0-4.23,0-6.34,0-1.22-.4-2-1.81-1.91-.75.06-1.09-.32-1.11-1.06s.21-1.29,1.06-1.25c1,0,1.76-.26,1.79-1.39s.38-2.51-1.28-2.93c-.88-.22-1.44-.66-1.28-1.67s1-.83,1.68-.84c1.59,0,3.19,0,4.78,0,.72,0,1.15.26,1.19,1a1.13,1.13,0,0,1-1.05,1.33c-.56.09-1.32-.21-1.53.59a5.38,5.38,0,0,0,.12,3.52c.19.44.7.3,1.08.3,2.08,0,4.15,0,6.22,0,2.24,0,3.1,1.35,2,3.3-2.7,4.88-5.51,9.7-8.25,14.56a2.21,2.21,0,0,1-2.7,1c-1.05-.21-.87-1.2-.88-2,0-2.08,0-4.15,0-6.23Z"/><path class="c" d="M9.83,30c2.23-3.91,4.34-7.6,6.44-11.3.14-.23.24-.57.59-.49s.25.45.25.71c0,3.3,0,6.61,0,9.91,0,.71-.25,1.17-1,1.17C14.08,30.05,12.06,30,9.83,30Z"/><path class="c" d="M153,221.13c-2.23,4-4.35,7.68-6.47,11.42-.13.22-.19.61-.57.45s-.3-.45-.3-.73c0-3.31,0-6.62,0-9.93,0-.92.54-1.19,1.29-1.2C148.92,221.12,150.86,221.13,153,221.13Z"/></svg>