<svg xmlns="http://www.w3.org/2000/svg" xmlns:xlink="http://www.w3.org/1999/xlink" viewBox="0 0 162.68 251.15"><defs><style>.a{fill:#cb3329;}.b,.d{fill:#fefefe;}.b{stroke:#c5c6c8;stroke-miterlimit:10;}.c{fill:#cf2101;}</style><symbol id="a" viewBox="0 0 41.85 45.12"><path class="a" d="M0,11.37c.12-3,.81-6,3.08-8.33,3.86-4,10-4.06,14.31-.1A12.51,12.51,0,0,1,19.83,6c.24.41.38,1,.91,1s.7-.59.93-1A11.11,11.11,0,0,1,29.16.37c6.11-1.19,11.17.93,12.41,8.14a18.54,18.54,0,0,1-1.22,10.43C37.86,25,34,30.05,30,35.12c-2.48,3.17-5.14,6.21-7.83,9.21-.92,1-1.24,1.05-2.11.1C14.33,38.2,8.78,31.81,4.31,24.58,2,20.85.1,17,0,12.44Z"/></symbol></defs><path class="b" d="M80.25,250.55c-22.84,0-45.68-.14-68.52.1C6.2,250.71,1.14,245,.8,240.77A138,138,0,0,1,.72,224.5c0-.4,0-.8,0-1.2q0-66,.05-132.07C.79,72.37.86,53.51.7,34.66.63,26.59.78,18.52.51,10.46c-.15-4.57,1.92-7,6.14-9a11.9,11.9,0,0,1,5-1C26.6.54,41.53.43,56.46.58c31.66.3,63.32,0,95,.14,4.87,0,9.52,3.3,10.48,7.4a23.28,23.28,0,0,1,.17,5.72c-.07,5.43,0,10.86,0,16.3q0,40.74-.06,81.49c0,3.91-.2,7.83-.14,11.74.37,25.92,0,51.84.16,77.76.06,12,0,24.05,0,36.08,0,6.1-4,11.64-9.31,12.95a13.27,13.27,0,0,1-3.2.37H80.25Z"/><use width="41.85" height="45.12" transform="translate(45.6 149.39) scale(1.71)" xlink:href="#a"/><path class="c" d="M92.25,53.59c0,8.26.15,16.52-.07,24.77-.08,3.3.45,5,4.28,5.12,2.54.08,6.35-.64,6.26,4.29,0,2.09-.11,3-2.44,3.43-7.19,1.45-7.16,1.59-7.16,8.91a21.25,21.25,0,0,1,0,3.48c-.55,3.36.9,4.91,4.18,4.86,3.68-.06,4.53,2.24,4.54,5.3,0,3.68-2.94,3.16-5,3.19-6.51.1-13-.2-19.55-.17-2.52,0-2.46-1.65-2.36-3.17s-1.51-3.56,1.68-4.44c6.93-1.93,6.87-2.14,7-9.36.09-7.74.09-7.72-7.51-7.75-6.67,0-13.38-.61-20,0-7.36.68-9.92-6.92-6.69-12.34,6.59-11.06,13-22.24,19.42-33.38,3.48-6,6.88-12.06,10.38-18.06a9.92,9.92,0,0,1,12.39-4.06c1.77.74,1.27,2.08,1.28,3.27,0,8.7,0,17.41,0,26.11Z"/><path class="d" d="M84,36.62c0,9.76,0,18.69,0,27.61,0,5.35-.37,10.7-.37,16,0,2.11-.36,3-2.82,3-7.49-.17-15-.06-23.39-.06Z"/></svg>