<svg xmlns="http://www.w3.org/2000/svg" viewBox="0 0 162.77 251.11"><defs><style>.a,.c{fill:#fefefe;}.a{stroke:#c5c6c8;stroke-miterlimit:10;}.b{fill:#020202;}</style></defs><path class="a" d="M80.3,250.57c-22.92,0-45.85,0-68.77,0a10.14,10.14,0,0,1-8-3.9,12.44,12.44,0,0,1-3-8.6c0-4,0-8,0-12C1,181.82.7,137.52.79,93.22.83,73.68.9,54.14.71,34.61.64,26.5.81,18.39.51,10.3.34,5.7,2.9,3.22,6.58,1.54a12.46,12.46,0,0,1,5.24-1C27,.55,42.09.42,57.22.59c31.46.35,62.92,0,94.38.17a10.69,10.69,0,0,1,9.79,5.94,9.7,9.7,0,0,1,.81,5.6c-.06.64-.13,1.27-.13,1.9q0,49.64-.09,99.25c0,2.94-.19,5.9-.15,8.85.44,29.52.06,59,.2,88.55q.06,13.13,0,26.25a12.91,12.91,0,0,1-2.32,7.9c-2.62,3.5-5.91,5.6-10.5,5.58-23-.06-45.92,0-68.88,0Z"/><path class="b" d="M52.27,56a15.92,15.92,0,0,0,.64,7.12,30.88,30.88,0,0,0,1,3c.28.73.36,1.12-.68,1.06C51.46,67,49.7,67,48,67c-.73,0-.78-.2-.53-.83a28.49,28.49,0,0,0,2.15-8.9c0-.24,0-.48.06-.72s.06-.59-.28-.71-.47.22-.61.43c-.38.56-.71,1.15-1.09,1.71-1.93,2.88-4.37,4-7.28,3.41a7.25,7.25,0,0,1-5.78-6.25,11.52,11.52,0,0,1,2.35-9.65C41.26,40,45.52,34.48,49.8,29c.89-1.13,1-1.14,1.79,0,4.3,5.5,8.63,11,12.86,16.52,3.19,4.18,3.43,9.18.82,13a6.46,6.46,0,0,1-10.6.66C53.84,58.18,53.14,57.12,52.27,56Z"/><path class="b" d="M50.42,221.15c-2.36-3.05-4.64-6-6.94-9-2.08-2.68-4.18-5.34-6.25-8a12.23,12.23,0,0,1-2.4-11.35,7,7,0,0,1,5.81-5.21c2.88-.56,5,.77,6.65,3.06.65.92,1.26,1.87,2.07,3.06.33-4.27-.92-7.91-2.24-11.63h7C53,185.59,51.57,189,52.23,193a7.26,7.26,0,0,0,1.4-1.86c1.71-2.58,4-4.09,7.16-3.48,3.35.64,5.21,2.9,5.89,6.14a11.6,11.6,0,0,1-2.22,9.72c-4.26,5.63-8.64,11.17-13,16.74A3.29,3.29,0,0,1,50.42,221.15Z"/><path class="b" d="M114.4,193.1c.48-.75.83-1.31,1.21-1.85,2.15-3.18,4.82-4.44,7.75-3.65,3.21.85,5.28,3.56,5.6,7.26a11.44,11.44,0,0,1-2.35,8.4c-4.63,6-9.17,12-13.82,18.06l-4.47-5.78c-3-3.84-6-7.7-9-11.53a12.19,12.19,0,0,1-2.23-11.59,6.65,6.65,0,0,1,5.55-4.85,6.52,6.52,0,0,1,6.65,2.87c.61.83,1.16,1.7,1.81,2.65a5,5,0,0,0,.22-3.78c-.61-2.42-1.3-4.83-2-7.39a50.66,50.66,0,0,0,6.52,0c.72,0,.23.53.15.77a28.62,28.62,0,0,0-1.84,7.64A12,12,0,0,0,114.4,193.1Z"/><path class="b" d="M114.19,55.53c-.64,4.21,1.09,7.69,2,11.36H109.4c1.12-3.54,2.52-7,1.78-10.94-.69,1-1.26,1.9-1.92,2.74a6.72,6.72,0,0,1-10,1,8,8,0,0,1-2.5-5,10.3,10.3,0,0,1,1.54-8c4.63-6.46,9.61-12.63,14.53-19,.93,1.18,1.82,2.29,2.69,3.42,3.63,4.66,7.28,9.29,10.85,14,3,4,3.67,8.26,1.4,12.78A6.6,6.6,0,0,1,116.69,59C115.87,57.94,115.15,56.85,114.19,55.53Z"/><path class="b" d="M18.89,20.67c0,2.28,0,4.55,0,6.82,0,.91.12,1.38,1.17,1.41.7,0,1.75-.17,1.73,1.18,0,.58,0,.82-.67,1-2,.4-2,.44-2,2.45a6.14,6.14,0,0,1,0,1c-.16.92.24,1.35,1.15,1.34s1.24.61,1.25,1.46c0,1-.81.87-1.38.88-1.79,0-3.59-.06-5.38,0-.7,0-.68-.45-.65-.87s-.42-1,.46-1.23c1.91-.53,1.89-.59,1.91-2.57,0-2.14,0-2.13-2.06-2.14-1.84,0-3.69-.17-5.51,0-2,.19-2.73-1.9-1.84-3.4,1.82-3,3.57-6.12,5.35-9.19.95-1.65,1.89-3.32,2.86-5a2.72,2.72,0,0,1,3.41-1.12c.48.21.35.57.35.9,0,2.4,0,4.8,0,7.19Z"/><path class="b" d="M144.42,228.33c0-2.27,0-4.55,0-6.82,0-1-.27-1.31-1.22-1.43-.58-.07-1.57.29-1.6-1,0-1,.4-1.28,1.19-1.26,1.14,0,1.57-.48,1.37-1.59a3.93,3.93,0,0,1,0-.84c0-1.8,0-1.85-1.74-2.34-.69-.19-.77-.62-.75-1.15s.42-.91,1-.91c2,0,3.91.05,5.86,0,.66,0,.59.43.59.78s.37,1-.42,1.28c-.63.22-1.59-.26-1.88.61a7.6,7.6,0,0,0-.06,2c-.07,2-.08,2,1.92,2.06s3.91,0,5.86.11,2.59,1.38,1.63,3.07c-2.73,4.85-5.52,9.67-8.32,14.49a2.66,2.66,0,0,1-3.35.89c-.46-.23-.27-.61-.27-.93,0-2.36,0-4.71,0-7.06Z"/><path class="b" d="M21.52,51.76c0,2-.7,3.12-2.19,3.56a2.62,2.62,0,0,1-3-1.08c-.15-.23-.09-.74-.58-.58s-.33.57-.3.91a9.43,9.43,0,0,0,.26,1.78c.4,1.22-.18,1.34-1.19,1.31-.81,0-1.18-.11-.88-1a24.87,24.87,0,0,0,.48-2.46c.05-.24.11-.47-.16-.61s-.4.1-.55.27C12,55.49,10.7,55.87,9.3,55a4.18,4.18,0,0,1-1.39-4.9,6.44,6.44,0,0,1,.8-1.33c1.81-2.43,3.65-4.84,5.45-7.27.37-.49.57-.66,1-.06,1.77,2.41,3.57,4.79,5.38,7.17A4.92,4.92,0,0,1,21.52,51.76Z"/><path class="b" d="M149.22,195.6a5,5,0,0,1,2.8-1.68,2.7,2.7,0,0,1,3,1.85,5.44,5.44,0,0,1-.52,4.5c-1.8,2.77-3.94,5.29-6,8a84.78,84.78,0,0,1-6.43-8.38,4.22,4.22,0,0,1-.34-3.79,2.91,2.91,0,0,1,4.95-1.31c.35.3.54.8,1.18.93a10.23,10.23,0,0,0-.52-3.1c-.2-.84,0-1.09.81-1a1.94,1.94,0,0,0,.48,0c.79-.15,1.17,0,.9,1a26.18,26.18,0,0,0-.49,2.81C149,195.52,149.11,195.54,149.22,195.6Z"/><path class="c" d="M16.6,16c0,2.69,0,5.15,0,7.6,0,1.48-.1,2.95-.1,4.42,0,.58-.1.84-.78.82-2.06-.05-4.13,0-6.44,0Z"/><path class="c" d="M146.7,231.91c0-3.71,0-7.41,0-11.12,0-.54.19-.68.7-.67,1.75,0,3.51,0,5.26,0,.49,0,.9,0,.61.69A59.13,59.13,0,0,1,147,232Z"/><path class="c" d="M149.22,195.6l-.26.11,0-.37Z"/></svg>