<svg xmlns="http://www.w3.org/2000/svg" xmlns:xlink="http://www.w3.org/1999/xlink" viewBox="0 0 162.77 251.11"><defs><style>.a{fill:#010101;}.b,.d{fill:#fefefe;}.b{stroke:#c5c6c8;stroke-miterlimit:10;}.c{fill:#020202;}</style><symbol id="a" viewBox="0 0 32.96 38.86"><path class="a" d="M17.94,27.45c-.62,2.7,0,5,.66,7.29.32,1.15.69,2.28,1.06,3.42.17.5.07.7-.51.69-1.8,0-3.59,0-5.39,0-.77,0-.82-.18-.6-.87a47.6,47.6,0,0,0,2.07-7.59,12,12,0,0,0,.07-2.94,3.58,3.58,0,0,0-1.51,1.65C11.48,32.76,9,34,5.56,33S.19,29.18,0,25.23a12.56,12.56,0,0,1,3.07-8.69C7.39,11.2,11.72,5.88,16,.52c.55-.7.85-.68,1.37,0,4.4,5.68,8.88,11.29,13.2,17a11.67,11.67,0,0,1,1.8,10.8,7,7,0,0,1-5.93,5.06c-2.74.49-4.79-.74-6.38-2.87C19.38,29.6,18.76,28.63,17.94,27.45Z"/></symbol></defs><path class="b" d="M80.3,250.57c-22.92,0-45.85,0-68.77,0a10.14,10.14,0,0,1-8-3.9,12.44,12.44,0,0,1-3-8.6c0-4,0-8,0-12C1,181.82.7,137.52.79,93.22.83,73.68.9,54.14.71,34.61.64,26.5.81,18.39.51,10.3.34,5.7,2.9,3.22,6.58,1.54a12.46,12.46,0,0,1,5.24-1C27,.55,42.09.42,57.22.59c31.46.35,62.92,0,94.38.17a10.69,10.69,0,0,1,9.79,5.94,9.7,9.7,0,0,1,.81,5.6c-.06.64-.13,1.27-.13,1.9q0,49.64-.09,99.25c0,2.94-.19,5.9-.15,8.85.44,29.52.06,59,.2,88.55q.06,13.13,0,26.25a12.91,12.91,0,0,1-2.32,7.9c-2.62,3.5-5.91,5.6-10.5,5.58-23-.06-45.92,0-68.88,0Z"/><path class="c" d="M91.12,54.44c0,8.26.14,16.52-.07,24.77-.09,3.3.44,5,4.27,5.12,2.55.08,6.35-.64,6.26,4.29,0,2.09-.1,3-2.44,3.43C92,93.5,92,93.64,92,101a22.43,22.43,0,0,1,0,3.48c-.56,3.36.89,4.91,4.18,4.86,3.68-.06,4.52,2.24,4.53,5.3,0,3.68-2.93,3.16-5,3.19-6.52.1-13-.2-19.55-.17-2.52,0-2.46-1.65-2.36-3.17s-1.52-3.56,1.67-4.44c6.94-1.93,6.88-2.14,7-9.35.1-7.75.1-7.73-7.5-7.76-6.67,0-13.39-.61-20,0C47.53,93.58,45,86,48.2,80.56c6.6-11.06,13-22.24,19.42-33.38,3.48-6,6.88-12.06,10.38-18.06a9.92,9.92,0,0,1,12.39-4.06c1.77.74,1.28,2.08,1.28,3.27,0,8.7,0,17.41,0,26.11Z"/><path class="d" d="M82.83,37.47c0,9.76,0,18.69,0,27.61,0,5.35-.37,10.7-.37,16,0,2.12-.36,3-2.81,3-7.5-.17-15-.06-23.4-.06C65.19,68.37,73.79,53.31,82.83,37.47Z"/><use width="32.96" height="38.86" transform="translate(47.07 146.15) scale(2.08)" xlink:href="#a"/></svg>