<svg xmlns="http://www.w3.org/2000/svg" viewBox="0 0 162.77 251.11"><defs><style>.a,.c{fill:#fefefe;}.a{stroke:#c5c6c8;stroke-miterlimit:10;}.b{fill:#1d1d14;}</style></defs><path class="a" d="M80.28,250.56c-22.88,0-45.76,0-68.64.05a10.26,10.26,0,0,1-8.08-3.92,12.26,12.26,0,0,1-3-8.49c0-4,0-8,0-12,.44-44.7.12-89.4.21-134.1C.83,73,.89,53.77.71,34.6.63,26.49.8,18.38.51,10.28c-.17-4.54,2.33-7,6.08-8.75a12.11,12.11,0,0,1,5.13-1c15,0,30-.11,45,0C88.37.92,120,.62,151.6.75a10.7,10.7,0,0,1,9.8,6,9.65,9.65,0,0,1,.8,5.49c-.06.79-.13,1.59-.13,2.38Q162,64,162,113.34c0,2.94-.19,5.9-.15,8.85.42,29.95.06,59.91.19,89.87,0,8.35,0,16.7,0,25.05a13.48,13.48,0,0,1-7.09,12.2,10,10,0,0,1-5.29,1.23H80.28Z"/><path class="b" d="M120.57,202.86a37.55,37.55,0,0,1,3.06,4.53,8.24,8.24,0,0,1-1.92,9.78,10,10,0,0,1-13.2-.29c-2.34-2-3.06-6.32-1.83-9.14.82-1.89,2.4-3.14,3.59-4.89a32,32,0,0,1-5,.74,8,8,0,0,1-7.06-5.16,10.09,10.09,0,0,1,1.31-9.32,7.41,7.41,0,0,1,12.51.24c.55.92,1.12,1.83,1.69,2.74a2.42,2.42,0,0,0,.37.32,6.32,6.32,0,0,0-.63-4.64,7.17,7.17,0,0,1-.92-2.8,11.67,11.67,0,0,0-1.31-3.94c-.41-.94-.27-1.25.76-1.16a31.5,31.5,0,0,0,6.06.23A7.3,7.3,0,0,0,119,180c.34-.08.72-.4,1-.07s.06.82-.1,1.24c-1.08,2.84-2.66,5.52-3,8.61-.1.9-.17,1.79-.27,2.86a3,3,0,0,0,1.28-1.58c1.23-2.19,2.62-4.2,5.33-4.77,5.12-1.09,9.79,2.73,9.93,8.28.07,2.68-.5,5.26-2.61,7.17a7.61,7.61,0,0,1-7.34,1.75A12.72,12.72,0,0,0,120.57,202.86Z"/><path class="b" d="M112.18,49.14,109.65,46a8.08,8.08,0,0,1,1.28-11.39c4.63-3.45,9.74-2.81,13.71,1.12,2,2,2.18,6.28.53,9.34a19,19,0,0,1-3.34,4.11c.59.34,1,0,1.42-.13,3.19-1.21,6.26-1.08,8.79,1.35a8.48,8.48,0,0,1,2.28,9c-1.35,4.61-3.38,6.17-8.08,6.62a5.91,5.91,0,0,1-5.64-2.86c-.78-1.23-1.48-2.51-2.33-4a14.74,14.74,0,0,0,1,7.18c.53,1.5,1.21,2.94,1.79,4.42.41,1,.17,1.3-.9,1.18a25.45,25.45,0,0,0-6.64-.12c-.4.06-.88.2-1.19-.29s.14-.71.23-1.06c.55-2.23,2.13-4.11,2.16-6.51a2.25,2.25,0,0,1,.32-1.13c.86-1.44.84-1.53.24-3.33a6.29,6.29,0,0,0-1.56,2.34,7.26,7.26,0,0,1-9.42,3.31c-4.3-2-5.89-7.31-4.76-11.16,1.6-5.48,6.5-6.87,11-5.22A2.36,2.36,0,0,0,112.18,49.14Z"/><path class="b" d="M44.19,191.53A7.54,7.54,0,0,0,44,187.6a29.68,29.68,0,0,0-2.63-6.89c-.2-.33-.49-.68-.26-1.1s.75-.39,1.18-.35a38.61,38.61,0,0,0,7.05,0c.82-.07.91.12.65.8-.56,1.45-1.06,2.93-1.64,4.36a26.52,26.52,0,0,0-1.57,6,1.8,1.8,0,0,0,.24,1.37,3.93,3.93,0,0,0,1-1.5,8.6,8.6,0,0,1,5.13-4.7A7.84,7.84,0,0,1,62,189.3a9.51,9.51,0,0,1,.46,9.28c-1.83,3.94-5.61,5.4-10.06,4-.57-.18-1.12-.42-1.76-.66-.11.71.41,1.05.79,1.45,2,2.12,3.43,4.53,3.15,7.59-.4,4.21-3,6.82-7.6,7.64s-9.07-1.68-10.36-5.75a8.34,8.34,0,0,1,1.5-7.89c.5-.66,1.12-1.24,1.64-1.9.24-.3.9-.51.57-1s-.72,0-1.08.14-1,.33-1.49.43c-5.18,1-9.11-1.73-9.88-7.08s2.91-10.47,8.77-10.45a6.38,6.38,0,0,1,4.8,2.51C42.45,188.75,43.2,190.08,44.19,191.53Z"/><path class="b" d="M48.54,59.05a14.5,14.5,0,0,0,1,6.53c.53,1.5,1.15,3,1.71,4.46.46,1.21.32,1.45-.93,1.25a25.81,25.81,0,0,0-5.69-.17c-2.3.11-2.23.1-1.43-2.11.88-2.46,1.63-5,2.43-7.46a4.46,4.46,0,0,0-.06-2.95c-.38.08-.37.45-.51.71A20.83,20.83,0,0,1,42.57,63c-3.56,4.21-9.68,2-11.79-1.52a9.36,9.36,0,0,1-.52-9.52,7.88,7.88,0,0,1,10.32-3.82,3.22,3.22,0,0,0,1.64.48,2.47,2.47,0,0,0-1-1.44c-3.67-3.52-4.17-8.71-1.18-12.28C42.42,32,47.57,31,51.32,32.51a8.12,8.12,0,0,1,5,8.64c-.28,2.84-2,5-3.89,6.93-.18.19-.57.28-.32.63s.47,0,.71-.08c4.69-2.14,9.49-.5,11.24,3.65,1.83,4.34.93,8.23-2.48,11.25a7.41,7.41,0,0,1-11-1.46A17.3,17.3,0,0,0,48.54,59.05Z"/><path class="b" d="M76.18,122.2c-.44-.57-.86-1.14-1.32-1.69-2.83-3.41-3.39-7-1.61-10.27,1.66-3.08,5.27-4.72,9.44-4.28,4.88.52,8.14,4.05,7.94,8.65a8.75,8.75,0,0,1-2,5.14c-.6.75-1.22,1.48-1.83,2.22-.16.18-.6.26-.33.61s.41,0,.62-.1c3.16-1.13,6.32-1.44,9,1a8.85,8.85,0,0,1,2.63,9.4,8.41,8.41,0,0,1-6.48,6.37c-3.36.78-6.64-1-8.44-4.62a7.59,7.59,0,0,0-.35-.77c-.21-.34-.31-1-.84-.78s-.37.73-.3,1.19A35.91,35.91,0,0,0,85,143.11l.16.33c.22.54.66,1.18.32,1.68s-1,.08-1.56,0a32.75,32.75,0,0,0-6.34.07,1.67,1.67,0,0,1-1.1,0c1.38-4,3.67-7.8,3.59-12.34-.75.16-1,.72-1.21,1.25-1.79,3.69-5,5.56-8.41,4.94a8.65,8.65,0,0,1-6.89-7.75c-.44-4.43,1.86-8.41,5.54-9.53a9,9,0,0,1,5.18.13,5.88,5.88,0,0,0,1.73.44C76.19,122.47,76.08,122.21,76.18,122.2Z"/><path class="b" d="M16.71,53.41a7,7,0,0,0,.92,3.07c.39.66.19.94-.42,1.13a8.16,8.16,0,0,1-2.61,0c-.56,0-.24-.62-.17-1,.24-1.19,1.06-2.22,1-3.66-.55.52-1,.95-1.46,1.37A3.39,3.39,0,0,1,8.72,53c-1.14-2.93.22-5.21,3.35-5.54.85-.09,1.28-.18.68-1.17a3.49,3.49,0,0,1,.59-4.48,4.56,4.56,0,0,1,5.44-.14,3.62,3.62,0,0,1,.91,4.45c-.2.42-.45.83-.75,1.38l1.65.16a3.77,3.77,0,0,1,3.24,4,4.09,4.09,0,0,1-4,3.58,3.17,3.17,0,0,1-1.77-.92c-.42-.36-.7-.87-1.23-1.1C16.7,53.22,16.8,53.41,16.71,53.41Z"/><path class="b" d="M144,202.82c-2.59-.13-4.67-.76-4.7-3.79a3.71,3.71,0,0,1,2.43-3.74c2.09-.69,3.25.65,4.46,2.28.11-1.79-.71-3.18-1.07-4.78h2.3c1.45,0,1.46,0,.94,1.42a9,9,0,0,0-.81,2.84c.46.17.58-.2.76-.41,1.28-1.43,2.64-1.84,4-1.18a3.92,3.92,0,0,1,2.11,4.28,3.55,3.55,0,0,1-3.07,3.06c-1.52.22-1.52.22-1,1.6.85,2.21-.09,4.16-2.44,5-1.5.56-4.34-.64-4.88-2.19S143.11,204.37,144,202.82Z"/><path class="b" d="M16.21,12.07c1.51,0,3,.07,4.54,0,1.09-.06,1,.68,1.06,1.32s0,1.21-1,1.15c-2.15-.14-4.31,0-6.47-.1-.88,0-1.3.26-1.38,1.19q-.25,3-.68,5.95c-.11.83.15,1,.88.77a12.15,12.15,0,0,1,5.17-.5,7.24,7.24,0,0,1,5.91,7,27.21,27.21,0,0,1-.34,4,7.75,7.75,0,0,1-10.1,5.58A6.41,6.41,0,0,1,9.6,33c-.1-.58.2-.82.66-1s1.12-.27,1.52.3a2.14,2.14,0,0,1,.27.66c.72,2.6,2.32,3.43,4.72,3.37,2.19-.06,3.83-1.31,4.62-3.83a11.74,11.74,0,0,0,.42-3.27A4.67,4.67,0,0,0,19,24.54a5.7,5.7,0,0,0-6.09.7,2,2,0,0,0-.28.23c-.71.73-1.48,1.49-2.58.86s-.5-1.68-.44-2.59c.24-3.62.86-7.2,1.21-10.81.08-.79.31-1,1.08-.95,1.43.07,2.87,0,4.31,0Z"/><path class="b" d="M146.09,239.1H142c-.84,0-1.37-.26-1.36-1.23s.64-1,1.38-1c1.91,0,3.83,0,5.74,0,1.18,0,1.66-.48,1.76-1.59.16-1.83.32-3.66.57-5.47.15-1.09-.28-1.19-1.11-.85a8.12,8.12,0,0,1-5.05.43,6.74,6.74,0,0,1-5.44-5.81c-.52-3.1-.36-6.15,1.93-8.63a7.52,7.52,0,0,1,9.27-1.48,6.5,6.5,0,0,1,3,4.56c.17,1.07-.51,1.22-1.22,1.39s-1.09-.51-1.15-1a3.17,3.17,0,0,0-.78-1.56,4.78,4.78,0,0,0-7.82.3,8.39,8.39,0,0,0-.62,7.26,3.69,3.69,0,0,0,2.63,2.42c2.5.69,4.82.48,6.62-1.66a1.42,1.42,0,0,1,1.8-.39c.8.28.88.81.8,1.48-.36,2.95-.73,5.9-1.09,8.85-.11.9-.2,1.82-.27,2.73s-.6,1.39-1.57,1.36c-1.32,0-2.63,0-3.95,0Z"/><path class="c" d="M76.18,122.2l-.05.28-.14-.13Z"/><path class="c" d="M16.71,53.41c0-.09-.06-.24,0-.27s.14,0,.16.13Z"/></svg>