<svg xmlns="http://www.w3.org/2000/svg" xmlns:xlink="http://www.w3.org/1999/xlink" viewBox="0 0 162.77 251.11"><defs><style>.a{fill:#1d1d14;}.b{fill:#fefefe;stroke:#c5c6c8;stroke-miterlimit:10;}.c{fill:#020202;}</style><symbol id="a" viewBox="0 0 36.15 39.55"><path class="a" d="M16.43,26.84a17.37,17.37,0,0,1-3.45,5c-2.53,2.46-6.58,1.91-8.66.6A9.45,9.45,0,0,1,1.7,19.09c2.41-3.3,6.05-4.21,10.12-2.52l.54.26c.22.08.49.18.62-.08,0-.11-.09-.37-.21-.51-.66-.79-1.4-1.54-2-2.36A8.38,8.38,0,0,1,12.4,1.64,9.09,9.09,0,0,1,17.06.06,10.11,10.11,0,0,1,24.27,2a8.17,8.17,0,0,1,2.35,9.9,10.71,10.71,0,0,1-2.29,3.33,4.56,4.56,0,0,0-1.25,1.59c.57.31,1-.07,1.44-.26a8.28,8.28,0,0,1,9.58,2.16c4.61,5.88.73,13.54-4.74,14.6-2.58.5-4.94.11-6.83-2.05a10.62,10.62,0,0,1-2.05-3A1.86,1.86,0,0,0,19.24,27a17.87,17.87,0,0,0,1.49,7.4c.53,1.29,1.11,2.55,1.66,3.82.42,1,.16,1.4-.85,1.25a25.42,25.42,0,0,0-7.13,0c-1.08.14-1.2-.08-.8-1.13.94-2.44,2.32-4.71,2.78-7.33A10.62,10.62,0,0,0,16.43,26.84Z"/></symbol></defs><path class="b" d="M80.28,250.56c-22.88,0-45.76,0-68.64.05a10.26,10.26,0,0,1-8.08-3.92,12.26,12.26,0,0,1-3-8.49c0-4,0-8,0-12,.44-44.7.12-89.4.21-134.1C.83,73,.89,53.77.71,34.6.63,26.49.8,18.38.51,10.28c-.17-4.54,2.33-7,6.08-8.75a12.11,12.11,0,0,1,5.13-1c15,0,30-.11,45,0C88.37.92,120,.62,151.6.75a10.7,10.7,0,0,1,9.8,6,9.65,9.65,0,0,1,.8,5.49c-.06.79-.13,1.59-.13,2.38Q162,64,162,113.34c0,2.94-.19,5.9-.15,8.85.42,29.95.06,59.91.19,89.87,0,8.35,0,16.7,0,25.05a13.48,13.48,0,0,1-7.09,12.2,10,10,0,0,1-5.29,1.23H80.28Z"/><path class="c" d="M64.82,61.21c4.32-.92,8-1.91,11.75-2.48,17.36-2.67,31,9.13,30.83,26.72a48.43,48.43,0,0,1-3.6,18.16C99.52,114,89.86,119.4,77.41,118.36c-10.53-.89-17.89-7.56-20.53-18.35-.69-2.83.17-3.82,2.84-4.76s3.77-.15,4.52,2.3c4.07,13.36,15.18,15.12,23.89,11.28,6.74-3,9.36-9.08,10.82-15.76a28.51,28.51,0,0,0-.07-11.78c-2.81-13.85-18-19.38-30.2-11-1.85,1.27-3.51,2.84-5.39,4.08-2.09,1.39-4.21,1-6.38-.16s-1.52-3-1.32-4.75C57.1,55.58,58.65,41.69,60,27.78c.21-2.1.64-2.86,2.92-2.82q16.1.27,32.2.16c4.47,0,2.23,3.36,2.78,5.2.77,2.56-1.35,2.17-2.84,2.19-8,.11-16.1.32-24.14.22-2.57,0-3.29.68-3.5,3.2C66.74,44.21,65.75,52.47,64.82,61.21Z"/><use width="36.15" height="39.55" transform="translate(45.53 148.04) scale(1.98)" xlink:href="#a"/></svg>