<svg xmlns="http://www.w3.org/2000/svg" viewBox="0 0 162.74 251.06"><defs><style>.a{fill:#fefefe;stroke:#c5c6c8;stroke-miterlimit:10;}.b{fill:#cf2101;}</style></defs><path class="a" d="M80.34,250.56H11.94a11.28,11.28,0,0,1-10.87-8.41,14.65,14.65,0,0,1-.49-3.79c0-4,0-8.07,0-12.1C1,181.56.71,136.85.79,92.15.82,73,.87,53.8.7,34.62.63,26.56.79,18.49.51,10.43c-.16-4.59,2-7,6-8.86a11.74,11.74,0,0,1,5.12-1c15.25,0,30.5-.1,45.76,0,31.3.31,62.6.05,93.9.12a11.62,11.62,0,0,1,8.95,4.09c1.95,2.15,2.15,4.8,2,7.53,0,.6-.12,1.19-.12,1.79q0,38.3-.05,76.59c0,7.59.06,15.18-.06,22.77-.06,3.23-.18,6.46-.13,9.69.39,26,0,52,.17,78,.06,12,0,24,0,36,0,5.39-2.47,9.38-7,12.14a10.17,10.17,0,0,1-5.41,1.26H80.34Z"/><path class="b" d="M65.73,54.13c0,.32-.29.71-.67,1.09-2.2,2.2-3.7,5-5.83,7.21-1.69,1.76-3,3.79-4.56,5.65a63.51,63.51,0,0,0-4.6,5.74c-.92,1.44-1.39,1.4-2.42,0-1.42-1.87-2.92-3.67-4.42-5.47Q38,62.09,32.7,55.81c-1.58-1.89-1.58-1.92,0-3.81L46.79,34.64c1.71-2.1,1.71-2.1,3.39-.09Q57.49,43.27,64.76,52A3,3,0,0,1,65.73,54.13Z"/><path class="b" d="M98.7,125.42a2.16,2.16,0,0,1-.55,1.17q-7.87,9.79-15.72,19.6c-.48.61-.7.61-1.2,0q-8-9.69-16.08-19.31a1.61,1.61,0,0,1-.07-2.4q7.77-9.57,15.48-19.19c.67-.84,1.16-.87,1.86,0q7.81,9.47,15.67,18.88A2.33,2.33,0,0,1,98.7,125.42Z"/><path class="b" d="M130.44,53.28a1.83,1.83,0,0,1-.56,1.16q-7.81,9.69-15.63,19.37c-.56.69-.88.65-1.45,0q-7.74-9.34-15.55-18.67c-1.36-1.63-1.34-1.67,0-3.32L112,33.56c1.18-1.45,1.3-1.45,2.47-.05q7.45,9,14.92,18C129.84,52,130.44,52.47,130.44,53.28Z"/><path class="b" d="M131.57,197a2.55,2.55,0,0,1-.72,1.35l-9.79,12.26c-1.85,2.32-3.7,4.63-5.52,7-.64.84-1.18.58-1.7-.05-5.28-6.37-10.53-12.75-15.82-19.1a1.67,1.67,0,0,1,.06-2.5c5-6.11,10-12.26,14.94-18.4.15-.18.31-.36.45-.55.61-.82,1.15-.79,1.79,0,2.1,2.57,4.25,5.09,6.37,7.64l9.09,11A3.28,3.28,0,0,1,131.57,197Z"/><path class="b" d="M32.79,197.63a1.94,1.94,0,0,1,.55-1.16q7.78-9.5,15.53-19c.66-.8,1.2-.75,1.82,0,5.19,6.26,10.37,12.54,15.6,18.78a1.79,1.79,0,0,1-.1,2.63L53.56,214.64c-.8,1-1.6,2-2.39,3-.91,1.15-1.31,1.17-2.23.07Q43.66,211.36,38.39,205l-5-6A2,2,0,0,1,32.79,197.63Z"/><path class="b" d="M149.18,235.81h3a1.52,1.52,0,0,0,1.66-1.52c.18-1.78.34-3.57.52-5.36.09-.93-.26-1.25-1.2-.91a9.25,9.25,0,0,1-6,.18c-3.92-1.22-5.2-5.06-5-8.72a16.12,16.12,0,0,1,.94-4c.29-.88,1.17-1.36,1.82-2a7.09,7.09,0,0,1,11.69,3.07c.22.69.37,1.34-.54,1.67a1.23,1.23,0,0,1-1.72-.8c-.64-1.49-1.37-2.89-3.16-3.32a5,5,0,0,0-5.74,2.59,8,8,0,0,0-.55,6.16c1.18,3.7,6.16,4.64,9.14,1.74.2-.2.37-.42.58-.61a1.58,1.58,0,0,1,1.79-.13c.63.23.64.75.6,1.28-.26,3-.55,6-.8,8.94-.06.75,0,1.52-.08,2.26-.16,1.38-.86,2.1-2.2,2-2.59-.22-5.18,0-7.77-.09-.82,0-1.24-.34-1.22-1.23s.47-1.1,1.22-1.09h3Z"/><path class="b" d="M13.62,15.17H10.27c-.67,0-1.2.24-1.28,1-.2,2-.4,3.89-.52,5.84-.08,1.36,0,1.41,1.29,1A8.43,8.43,0,0,1,18.4,24.4a6.47,6.47,0,0,1,2.23,4.53c.36,3.3-.08,6.33-2.74,8.71A7.19,7.19,0,0,1,6.15,34.58c-.18-.6-.46-1.3.4-1.62a1.31,1.31,0,0,1,1.87.74c.14.33.3.65.47,1,2.11,4,6.91,2.71,8.37,0A8.14,8.14,0,0,0,17.87,28c-1.25-3.61-6.32-4.36-9.23-1.36-.53.55-1,1-1.85.76A1.32,1.32,0,0,1,5.66,25.8c.39-3.85.75-7.7,1.11-11.55A1.42,1.42,0,0,1,8.33,12.8c3,0,6,0,9,.07.57,0,.85.22.7.79s.25,1.56-.92,1.57H13.62Z"/><path class="b" d="M149.42,191.2l6.42,7.74a1.08,1.08,0,0,1,.13,1.43c-2.12,2.69-4.27,5.34-6.45,8-2.18-2.66-4.28-5.22-6.39-7.77-.35-.43-.63-.85-.21-1.38Z"/><path class="b" d="M13.38,59.56,6.83,51.72a1.16,1.16,0,0,1,.11-1.63l5.47-6.65c.56-.69,1.12-.66,1.68,0L19.63,50a1.16,1.16,0,0,1,.11,1.62Z"/></svg>