<svg xmlns="http://www.w3.org/2000/svg" xmlns:xlink="http://www.w3.org/1999/xlink" viewBox="0 0 162.74 251.06"><defs><style>.a{fill:#cf2101;}.b{fill:#fefefe;stroke:#c5c6c8;stroke-miterlimit:10;}</style><symbol id="a" viewBox="0 0 40.83 50.32"><path class="a" d="M0,25.26A1.85,1.85,0,0,1,.57,24L19.32.8c.87-1.07,1.17-1.06,2,0L40,23.46c1.16,1.42,1.18,1.61,0,3.07Q30.91,37.91,21.84,49.29c-1.11,1.38-1.36,1.38-2.52,0Q10,38,.68,26.62A2.15,2.15,0,0,1,0,25.26Z"/></symbol></defs><path class="b" d="M80.34,250.56H11.94a11.28,11.28,0,0,1-10.87-8.41,14.65,14.65,0,0,1-.49-3.79c0-4,0-8.07,0-12.1C1,181.56.71,136.85.79,92.15.82,73,.87,53.8.7,34.62.63,26.56.79,18.49.51,10.43c-.16-4.59,2-7,6-8.86a11.74,11.74,0,0,1,5.12-1c15.25,0,30.5-.1,45.76,0,31.3.31,62.6.05,93.9.12a11.62,11.62,0,0,1,8.95,4.09c1.95,2.15,2.15,4.8,2,7.53,0,.6-.12,1.19-.12,1.79q0,38.3-.05,76.59c0,7.59.06,15.18-.06,22.77-.06,3.23-.18,6.46-.13,9.69.39,26,0,52,.17,78,.06,12,0,24,0,36,0,5.39-2.47,9.38-7,12.14a10.17,10.17,0,0,1-5.41,1.26H80.34Z"/><path class="a" d="M64.83,61.47c4.32-.92,8-1.91,11.75-2.48,17.36-2.67,31,9.13,30.83,26.72a48.63,48.63,0,0,1-3.6,18.16c-4.28,10.41-14,15.79-26.39,14.75-10.54-.89-17.89-7.56-20.53-18.35-.69-2.83.17-3.82,2.83-4.76s3.77-.15,4.52,2.3c4.07,13.36,15.19,15.12,23.89,11.28,6.75-3,9.36-9.08,10.83-15.76a28.52,28.52,0,0,0-.08-11.78c-2.8-13.85-18-19.38-30.19-11-1.86,1.27-3.52,2.84-5.39,4.08-2.09,1.39-4.22,1-6.38-.16s-1.52-3-1.32-4.75C57.11,55.84,58.65,42,60,28c.21-2.1.63-2.86,2.91-2.82q16.11.27,32.2.16c4.47,0,2.24,3.36,2.79,5.2.76,2.56-1.36,2.17-2.84,2.19C87,32.88,79,33.1,71,33c-2.57,0-3.3.68-3.51,3.21C66.75,44.47,65.76,52.73,64.83,61.47Z"/><use width="40.83" height="50.32" transform="translate(49.56 148.27) scale(1.56)" xlink:href="#a"/></svg>