<svg xmlns="http://www.w3.org/2000/svg" viewBox="0 0 162.74 251.15"><defs><style>.a{fill:#fefefe;stroke:#c5c6c8;stroke-miterlimit:10;}.b{fill:#cb332a;}</style></defs><path class="a" d="M80.34,250.55c-22.88,0-45.76-.13-68.63.1-5.41,0-10.49-5.39-10.89-9.79a133.81,133.81,0,0,1-.11-16.27c0-.4,0-.8,0-1.2q0-66.15.05-132.32C.8,72.46.87,53.84.71,35.22.63,27,.79,18.69.51,10.43.35,5.84,2.61,3.32,6.68,1.48a11.71,11.71,0,0,1,4.9-.95c15.25,0,30.51-.1,45.76,0,31.3.3,62.6.05,93.9.12a11.6,11.6,0,0,1,8.95,4.09c1.95,2.15,2.15,4.8,2,7.53,0,.59-.12,1.19-.12,1.79Q162,63.55,162,113t0,98.62c0,8.43,0,16.86,0,25.29A13.56,13.56,0,0,1,155.39,249a10.38,10.38,0,0,1-5.82,1.51H80.34Z"/><path class="b" d="M33.83,42.72a14.55,14.55,0,0,1,.56-4.6c.85-2.73,2.56-4.86,5.41-5.33,3.19-.52,6.31,0,8.68,2.62a8.76,8.76,0,0,1,1.39,1.93c.59,1.16,1,.93,1.6,0,2.81-4.21,6.5-5.69,10.82-4.48a6.69,6.69,0,0,1,5.09,5.44,16.42,16.42,0,0,1-1.33,11,60.72,60.72,0,0,1-7.94,11.89c-2,2.34-3.86,4.72-5.8,7.08-1,1.16-1.47,1.12-2.51,0a109.33,109.33,0,0,1-8.52-10c-3.11-4.17-6.23-8.37-7.26-13.67-.05-.27-.11-.55-.14-.82C33.85,43.29,33.83,42.77,33.83,42.72Z"/><path class="b" d="M69.11,210a10.44,10.44,0,0,1-.38,3.33c-.88,3.15-2.8,5.31-6.11,5.83a8.87,8.87,0,0,1-9.17-3.84,3.78,3.78,0,0,1-.3-.51c-.52-1-1-1.27-1.71-.09A9.38,9.38,0,0,1,41.1,219.2a6.57,6.57,0,0,1-5.31-4.78,14.24,14.24,0,0,1,.34-10c2.15-5.51,5.73-10.11,9.36-14.67,1.76-2.22,3.68-4.31,5.52-6.47.58-.67,1.09-.78,1.76-.06C58.09,189,63.26,194.88,67,201.84A15.81,15.81,0,0,1,69.11,210Z"/><path class="b" d="M98.47,116.55a18.64,18.64,0,0,1-2.69,9c-3.67,6.56-8.47,12.27-13.46,17.84-.83.93-1.35.06-1.82-.44a108.76,108.76,0,0,1-12.25-15.31,25,25,0,0,1-3.59-8,12.75,12.75,0,0,1,.7-7.86c1.65-4.06,6.76-5.73,11-3.65a9,9,0,0,1,4.07,3.75c.62,1.14,1,1,1.64,0a9.52,9.52,0,0,1,10.23-4.59c3.28.59,5.39,3.08,5.94,7.06C98.38,115,98.4,115.8,98.47,116.55Z"/><path class="b" d="M93.9,40.89a12.42,12.42,0,0,1,.18-1.81c.63-3.13,1.85-5.84,5.33-6.64,4-.92,7.43-.07,10,3.37,1.34,1.82,1.34,1.81,2.64,0a9.63,9.63,0,0,1,10.41-3.65c3.54,1,4.79,3.81,5.33,7.09.67,4-.63,7.67-2.55,11.09-3.6,6.44-8.3,12.08-13.23,17.53-.65.71-1.18.78-1.87,0C105,62.36,100,56.65,96.27,50A16.43,16.43,0,0,1,93.9,40.89Z"/><path class="b" d="M95.18,210.59a19.91,19.91,0,0,1,2.53-10.13,96.66,96.66,0,0,1,9.59-13.4c1.29-1.55,2.61-3.06,3.93-4.57.65-.75,1.08-.51,1.53,0a130.62,130.62,0,0,1,12.44,15.61c2.6,4,4.42,8.2,3.79,13.15-.47,3.66-2.69,6.5-5.76,7.16a9.28,9.28,0,0,1-9.76-3.77l-.42-.73c-.45-.78-.78-1.08-1.44-.05-2.37,3.74-5.68,5.57-10.22,4.84a6.9,6.9,0,0,1-5.2-4A8.14,8.14,0,0,1,95.18,210.59Z"/><path class="b" d="M22.69,46.29a10.18,10.18,0,0,1-2.09,6.13c-1.31,2-2.92,3.81-4.4,5.7-.72.92-1.19,1.4-2.31.12a71,71,0,0,1-5.51-7.08,8.1,8.1,0,0,1-1.3-5c.06-1.63.57-3.08,2.34-3.67a4,4,0,0,1,4.63,1.28c.64.77,1,.63,1.58,0a4.25,4.25,0,0,1,4.84-1.35C22.29,43.1,22.62,44.63,22.69,46.29Z"/><path class="b" d="M155.61,203.68c0,1.88-.62,3.46-2.45,4.29-1.52.69-3.25.19-4.69-1.43-.55-.62-.87-.64-1.31,0a2.78,2.78,0,0,1-.42.42,4.77,4.77,0,0,1-4.87,1.09c-1.16-.53-2.11-2.64-2-4.36a10.83,10.83,0,0,1,1.85-5.12,73.45,73.45,0,0,1,5-6.43c.56-.69,1.15-.82,1.8-.11a40,40,0,0,1,6.2,8.31A6.88,6.88,0,0,1,155.61,203.68Z"/><path class="b" d="M10.17,20.76c-.23,3.06-.24,3,2.58,2.33,3.85-.94,9,1.64,9.17,6.41a14.41,14.41,0,0,1-.57,5.66,7.5,7.5,0,0,1-7.69,4.91,6.67,6.67,0,0,1-6-4.93c-.19-.73-.26-1.35.59-1.67s1.31.13,1.68.87c1.6,3.2,3.54,4.08,6.39,2.94,2.2-.88,3.58-3.8,3.3-6.86-.22-2.29-1.09-4.06-3.47-4.78a5.61,5.61,0,0,0-6.09,1.64,1.71,1.71,0,0,1-2.1.6c-.83-.34-.79-1-.72-1.71C7.64,22.44,8,18.72,8.37,15a1.4,1.4,0,0,1,1.54-1.44c2.7-.09,5.39-.2,8.09-.27.6,0,1.35-.14,1.32.89s-.42,1.76-1.45,1.66c-2-.21-4,.18-6,.07-.77,0-1,.47-1.17,1C10.12,18.15,10.36,19.55,10.17,20.76Z"/><path class="b" d="M149,237.89c-1.12,0-2.24,0-3.35,0-.83,0-1.9.29-1.93-1.12s1-1.17,1.86-1.19c1.76,0,3.51-.07,5.27-.08.82,0,1.46-.3,1.55-1.15.21-1.9.36-3.81.49-5.72.05-.78-.16-1.25-1.19-.91a10.79,10.79,0,0,1-3.76.56,6.81,6.81,0,0,1-6.45-4.66,10.63,10.63,0,0,1,.64-8.58,7.31,7.31,0,0,1,7.53-3.78,6.4,6.4,0,0,1,5.51,4.67c.25.73.51,1.52-.52,1.9s-1.42-.2-1.72-1.08a4.12,4.12,0,0,0-3.79-3.14,4.84,4.84,0,0,0-5,2.63,8.09,8.09,0,0,0-.71,5.81,4.66,4.66,0,0,0,3.6,3.75,5.61,5.61,0,0,0,5.68-1.67c.65-.68,1.22-1.07,2.17-.66s.77,1.18.7,1.93c-.35,3.62-.7,7.23-1,10.85-.1,1.12-.61,1.63-1.77,1.58s-2.55,0-3.82,0Z"/></svg>