<svg xmlns="http://www.w3.org/2000/svg" xmlns:xlink="http://www.w3.org/1999/xlink" viewBox="0 0 162.74 251.15"><defs><style>.a{fill:#cb3329;}.b{fill:#fefefe;stroke:#c5c6c8;stroke-miterlimit:10;}.c{fill:#cf2101;}</style><symbol id="a" viewBox="0 0 41.85 45.12"><path class="a" d="M0,11.37c.12-3,.81-6,3.08-8.33,3.86-4,10-4.06,14.31-.1A12.51,12.51,0,0,1,19.83,6c.24.41.38,1,.91,1s.7-.59.93-1A11.11,11.11,0,0,1,29.16.37c6.11-1.19,11.17.93,12.41,8.14a18.54,18.54,0,0,1-1.22,10.43C37.86,25,34,30.05,30,35.12c-2.48,3.17-5.14,6.21-7.83,9.21-.92,1-1.24,1.05-2.11.1C14.33,38.2,8.78,31.81,4.31,24.58,2,20.85.1,17,0,12.44Z"/></symbol></defs><path class="b" d="M80.34,250.55c-22.88,0-45.76-.13-68.63.1-5.41,0-10.49-5.39-10.89-9.79a133.81,133.81,0,0,1-.11-16.27c0-.4,0-.8,0-1.2q0-66.15.05-132.32C.8,72.46.87,53.84.71,35.22.63,27,.79,18.69.51,10.43.35,5.84,2.61,3.32,6.68,1.48a11.71,11.71,0,0,1,4.9-.95c15.25,0,30.51-.1,45.76,0,31.3.3,62.6.05,93.9.12a11.6,11.6,0,0,1,8.95,4.09c1.95,2.15,2.15,4.8,2,7.53,0,.59-.12,1.19-.12,1.79Q162,63.55,162,113t0,98.62c0,8.43,0,16.86,0,25.29A13.56,13.56,0,0,1,155.39,249a10.38,10.38,0,0,1-5.82,1.51H80.34Z"/><use width="41.85" height="45.12" transform="translate(45.62 149.39) scale(1.71)" xlink:href="#a"/><path class="c" d="M66,59.69c4.32-.93,8-1.91,11.75-2.49,17.35-2.67,31,9.13,30.83,26.73a48.67,48.67,0,0,1-3.6,18.16c-4.29,10.41-14,15.79-26.39,14.74C68,116,60.65,109.27,58,98.49c-.69-2.83.17-3.83,2.83-4.76s3.77-.16,4.52,2.3c4.07,13.35,15.18,15.11,23.89,11.28,6.74-3,9.36-9.08,10.82-15.76A28.39,28.39,0,0,0,100,79.76c-2.8-13.84-18-19.37-30.19-11-1.86,1.28-3.52,2.84-5.39,4.09-2.09,1.39-4.22,1-6.38-.16s-1.52-3-1.33-4.76c1.52-13.89,3.06-27.78,4.44-41.68.21-2.1.63-2.86,2.91-2.83q16.1.27,32.2.17c4.47,0,2.24,3.36,2.79,5.2.76,2.56-1.36,2.17-2.84,2.19-8,.11-16.1.32-24.14.21-2.57,0-3.3.69-3.51,3.21C67.87,42.69,66.88,50.94,66,59.69Z"/></svg>