<svg xmlns="http://www.w3.org/2000/svg" viewBox="0 0 162.77 251.08"><defs><style>.a,.c{fill:#fefefe;}.a{stroke:#c5c6c8;stroke-miterlimit:10;}.b{fill:#020202;}</style></defs><path class="a" d="M80.27,250.54c-22.88,0-45.76,0-68.64,0a10.25,10.25,0,0,1-8.08-3.92,12.45,12.45,0,0,1-3-8.61c0-4,0-7.91,0-11.86C1,181.44.7,136.7.79,92,.83,72.82.9,53.68.71,34.55c-.08-8.11.1-16.22-.2-24.31C.34,5.68,2.92,3.16,6.6,1.5a12.33,12.33,0,0,1,5.24-1c4.76,0,9.51,0,14.26,0,41.76.24,83.52.18,125.28.19a10.78,10.78,0,0,1,10,6,9.62,9.62,0,0,1,.79,5.61c-.05.59-.12,1.18-.12,1.78q0,49.62-.09,99.24c0,3-.19,5.9-.15,8.85.44,29.8.06,59.6.2,89.4q0,12.77,0,25.53a12.81,12.81,0,0,1-2.34,7.89c-2.62,3.5-5.91,5.58-10.51,5.56-23-.06-45.92,0-68.88,0Z"/><path class="b" d="M47,67a48,48,0,0,0,2.08-6.89,17.76,17.76,0,0,0,.35-3.56c0-.23.07-.53-.2-.64s-.46.2-.61.41c-.6.85-1.16,1.72-1.78,2.56-3.4,4.63-10,2.77-11.7-1.6-1.48-3.81-1.35-7.53,1.11-10.92,4.36-6,9.06-11.76,13.65-17.59.77-1,.93-.88,1.67.11,2.83,3.75,5.72,7.47,8.59,11.2,1.36,1.77,2.76,3.51,4.08,5.32C66.84,49,67.71,52.93,66,57.16A6.79,6.79,0,0,1,54.1,58.79C53.51,58,53,57.2,52.5,56.41c-.15-.21-.21-.58-.59-.47s-.28.43-.28.71a24.44,24.44,0,0,0,1.23,7,22.19,22.19,0,0,0,.86,2.36c.32.72.33,1-.63,1C51.1,67,49.11,67,47,67Z"/><path class="b" d="M84.89,144H78c.6-2,1.23-3.93,1.76-5.89a15.13,15.13,0,0,0,.54-4.5c0-.26.12-.62-.21-.74s-.5.3-.67.54c-.62.87-1.15,1.82-1.84,2.64a6.24,6.24,0,0,1-6.72,2.26,7,7,0,0,1-5.33-5.55A11,11,0,0,1,67.44,123c4.33-5.73,8.79-11.35,13.2-17,.64-.83,1.08-.87,1.72,0,4.39,5.73,8.9,11.37,13.19,17.18a10.92,10.92,0,0,1,1.09,11.55c-1.84,4.11-8.17,5.77-11.55,1.23-.6-.8-1.11-1.65-1.67-2.48-.14-.21-.22-.58-.59-.46s-.29.42-.3.71a22.07,22.07,0,0,0,1,6.35C84,141.32,84.42,142.62,84.89,144Z"/><path class="b" d="M46.71,182.22h7c-1.22,3.71-2.7,7.33-2,11.37.51-.79,1-1.6,1.52-2.39,1.72-2.62,4-4.07,7.26-3.44a7.19,7.19,0,0,1,5.68,5.93,11.23,11.23,0,0,1-1.87,9.44c-4.38,5.94-9,11.7-13.59,17.48-.78,1-1.1,0-1.4-.32-1.68-2.07-3.32-4.19-5-6.31-2.73-3.53-5.5-7-8.16-10.63A11.11,11.11,0,0,1,35,191.5c1.64-3.7,7.76-5.85,11.35-1.41.77.94,1.42,2,2.26,3.17a17.42,17.42,0,0,0-.22-5.76A50.39,50.39,0,0,0,46.71,182.22Z"/><path class="b" d="M110.62,193.24c.9-1.24.58-2.51.28-3.73-.53-2.16-1.15-4.3-1.74-6.45-.13-.47-.23-.88.51-.8a51.3,51.3,0,0,0,6.17-.13,48.49,48.49,0,0,0-2.07,7.18c-.18,1.09-.23,2.21-.32,3.32,0,.27,0,.59.34.66s.4-.23.52-.42c.54-.79,1-1.62,1.6-2.38a6.7,6.7,0,0,1,11.6,1.17c2.09,4.39,1.14,8.5-1.62,12.24S120,211.54,117,215.34c-1.4,1.79-2.84,3.55-4.24,5.34-.39.5-.66.53-1.06,0-1.49-1.92-3-3.81-4.52-5.72-2.86-3.69-5.74-7.36-8.56-11.08a11.91,11.91,0,0,1-2-11.08,6.91,6.91,0,0,1,5.65-5.06c2.82-.55,5,.64,6.57,2.91C109.45,191.5,110,192.36,110.62,193.24Z"/><path class="b" d="M114.16,55.85c-.93,4.21,1.09,7.62,1.83,11.26-1.93,0-3.84,0-5.76,0-1,0-1-.28-.73-1.12a26.91,26.91,0,0,0,2-8.71c0-.39.25-1-.25-1.15s-.76.47-1,.89c-1.09,2-2.46,3.77-4.8,4.36a7.17,7.17,0,0,1-8.79-6,12.08,12.08,0,0,1,2.44-10c4.23-5.35,8.38-10.77,12.56-16.15,1-1.24,1.09-1.29,2-.11q6.61,8.49,13.15,17.05a9.46,9.46,0,0,1,1.82,4.37c.57,3.62.32,7.07-2.81,9.58A6.5,6.5,0,0,1,116.37,59C115.65,58.1,115,57.09,114.16,55.85Z"/><path class="b" d="M9.56,22c1.22-.26,2.26-.54,3.32-.7a7.27,7.27,0,0,1,8.71,7.55,13.53,13.53,0,0,1-1,5.13c-1.21,2.94-3.94,4.46-7.45,4.17A6.33,6.33,0,0,1,7.31,33c-.19-.8.05-1.08.81-1.34s1.06,0,1.27.65c1.15,3.77,4.29,4.27,6.75,3.19,1.91-.84,2.65-2.57,3.06-4.46a8.12,8.12,0,0,0,0-3.33c-.79-3.91-5.09-5.47-8.53-3.1-.53.36-1,.8-1.52,1.15a1.67,1.67,0,0,1-1.81,0c-.63-.34-.43-.84-.37-1.35.43-3.92.86-7.85,1.25-11.78.06-.59.18-.81.83-.79q4.55.08,9.09,0c1.27,0,.64.95.79,1.47.22.72-.38.61-.8.62-2.28,0-4.55.09-6.82.06-.73,0-.93.19-1,.91C10.1,17.2,9.82,19.53,9.56,22Z"/><path class="b" d="M149.21,237.48c-1.56,0-3.12,0-4.67,0-1,.05-.67-.65-.74-1.11s0-.92.71-.92c2.16,0,4.31-.08,6.46-.06,1,0,1.43-.21,1.48-1.29.09-2,.3-3.9.54-5.84.11-.9-.17-1-.94-.76a11.69,11.69,0,0,1-4.36.56,6.94,6.94,0,0,1-6.42-6.07,10.22,10.22,0,0,1,1.39-7.69,7.39,7.39,0,0,1,7.65-3,6.16,6.16,0,0,1,5,5.17c.1.49.27,1-.56,1.13-.59.08-1.12.4-1.4-.49-1.11-3.44-3.47-4-5.5-3.59-2.49.44-4.24,2.68-4.47,5.64-.27,3.44,1.15,5.84,3.92,6.55A5.77,5.77,0,0,0,153,224c.42-.41.73-1,1.59-.73,1,.29,1.31.67,1.16,1.8-.51,3.87-.89,7.76-1.27,11.65-.06.67-.27.86-.93.83-1.43,0-2.87,0-4.3,0Z"/><path class="b" d="M147.42,196.1c-.22-1.24-.35-2.26-.61-3.25-.19-.74,0-1,.76-1a5,5,0,0,0,1,0c.56-.08.69.15.58.67-.23,1.08-.42,2.17-.65,3.35.73-.12,1-.64,1.46-.94a2.88,2.88,0,0,1,4.75,1.67,4.76,4.76,0,0,1-.77,4.3c-1.8,2.39-3.65,4.73-5.44,7.12-.44.6-.69.42-1,0-1.84-2.35-3.72-4.68-5.49-7.08a5,5,0,0,1-.81-4.2,3,3,0,0,1,2.2-2.41,2.87,2.87,0,0,1,3,1A2.41,2.41,0,0,0,147.42,196.1Z"/><path class="b" d="M13.35,57.53,14,53.42c-.59.51-1,.92-1.48,1.27a3,3,0,0,1-4.75-1.41,4,4,0,0,1,.41-4c2.06-2.79,4.16-5.55,6.32-8.4,2.18,2.83,4.39,5.49,6.28,8.4a5.18,5.18,0,0,1,.45,4.06,2.7,2.7,0,0,1-2.42,2A2.53,2.53,0,0,1,16,54.05c-.11-.19-.11-.61-.55-.4s-.31.42-.26.7.14.79.2,1.18C15.71,57.72,15.71,57.72,13.35,57.53Z"/><path class="c" d="M148.51,195.89a.51.51,0,0,1,.07.15s0,.05-.07.07a.94.94,0,0,1-.06-.15S148.49,195.91,148.51,195.89Z"/></svg>