<svg xmlns="http://www.w3.org/2000/svg" xmlns:xlink="http://www.w3.org/1999/xlink" viewBox="0 0 162.77 251.08"><defs><style>.a{fill:#010101;}.b{fill:#fefefe;stroke:#c5c6c8;stroke-miterlimit:10;}.c{fill:#020202;}</style><symbol id="a" viewBox="0 0 32.96 38.86"><path class="a" d="M17.94,27.45c-.62,2.7,0,5,.66,7.29.32,1.15.69,2.28,1.06,3.42.17.5.07.7-.51.69-1.8,0-3.59,0-5.39,0-.77,0-.82-.18-.6-.87a47.6,47.6,0,0,0,2.07-7.59,12,12,0,0,0,.07-2.94,3.58,3.58,0,0,0-1.51,1.65C11.48,32.76,9,34,5.56,33S.19,29.18,0,25.23a12.56,12.56,0,0,1,3.07-8.69C7.39,11.2,11.72,5.88,16,.52c.55-.7.85-.68,1.37,0,4.4,5.68,8.88,11.29,13.2,17a11.67,11.67,0,0,1,1.8,10.8,7,7,0,0,1-5.93,5.06c-2.74.49-4.79-.74-6.38-2.87C19.38,29.6,18.76,28.63,17.94,27.45Z"/></symbol></defs><path class="b" d="M80.27,250.54c-22.88,0-45.76,0-68.64,0a10.25,10.25,0,0,1-8.08-3.92,12.45,12.45,0,0,1-3-8.61c0-4,0-7.91,0-11.86C1,181.44.7,136.7.79,92,.83,72.82.9,53.68.71,34.55c-.08-8.11.1-16.22-.2-24.31C.34,5.68,2.92,3.16,6.6,1.5a12.33,12.33,0,0,1,5.24-1c4.76,0,9.51,0,14.26,0,41.76.24,83.52.18,125.28.19a10.78,10.78,0,0,1,10,6,9.62,9.62,0,0,1,.79,5.61c-.05.59-.12,1.18-.12,1.78q0,49.62-.09,99.24c0,3-.19,5.9-.15,8.85.44,29.8.06,59.6.2,89.4q0,12.77,0,25.53a12.81,12.81,0,0,1-2.34,7.89c-2.62,3.5-5.91,5.58-10.51,5.56-23-.06-45.92,0-68.88,0Z"/><path class="c" d="M64.85,60.5c4.32-.92,8-1.9,11.75-2.48,17.35-2.67,31,9.13,30.83,26.72a48.63,48.63,0,0,1-3.6,18.16c-4.29,10.42-14,15.8-26.39,14.75-10.54-.88-17.89-7.56-20.53-18.34-.69-2.83.16-3.83,2.83-4.76s3.77-.16,4.52,2.29C68.33,110.2,79.44,112,88.15,108.13c6.74-3,9.36-9.08,10.82-15.77a28.35,28.35,0,0,0-.07-11.78c-2.8-13.84-18-19.37-30.19-11-1.86,1.28-3.52,2.84-5.39,4.08-2.09,1.4-4.22,1-6.38-.15s-1.52-3-1.33-4.76C57.13,54.87,58.67,41,60.05,27.08c.21-2.1.63-2.87,2.91-2.83q16.09.27,32.2.16c4.47,0,2.24,3.36,2.79,5.21.76,2.56-1.36,2.17-2.84,2.19-8,.1-16.1.32-24.14.21-2.57,0-3.3.69-3.51,3.21C66.77,43.51,65.78,51.76,64.85,60.5Z"/><use width="32.96" height="38.86" transform="translate(47.07 146.11) scale(2.08)" xlink:href="#a"/></svg>