<svg xmlns="http://www.w3.org/2000/svg" viewBox="0 0 162.72 251.1"><defs><style>.a,.d{fill:#fefefe;}.a{stroke:#c5c6c8;stroke-miterlimit:10;}.b{fill:#1d1d14;}.c{fill:#c0c2c4;}</style></defs><path class="a" d="M.71,127.35V29.67c0-4.87.05-9.75,0-14.62C.63,13,.42,10.91.53,8.83.72,5.54,2.86,3.64,5.47,2.12A12.42,12.42,0,0,1,11.56.58,34.79,34.79,0,0,1,18,.72a7.63,7.63,0,0,0,1.07,0L142.2.77c3,0,6,0,9,0a11.52,11.52,0,0,1,9.27,4.43,7.57,7.57,0,0,1,1.73,5.11c0,7.87.09,15.74,0,23.61-.35,20.6-.14,41.21-.17,61.82q-.07,60.59,0,121.17,0,10.31,0,20.62c0,5.65-2.82,9.56-7.64,12.19a7.46,7.46,0,0,1-3.69.86L23,250.58l-11.13,0a10.92,10.92,0,0,1-10.39-7.34,11.41,11.41,0,0,1-.74-4q0-33,.05-66,0-23,0-45.9Z"/><path class="b" d="M41.52,202.53a1.28,1.28,0,0,0-1.16.07c-5.13,2-9.28.37-11.16-4.28a9.53,9.53,0,0,1,4.74-12,6.46,6.46,0,0,1,7.33,1,7.53,7.53,0,0,1,2.78,3.65,1.68,1.68,0,0,0,.79,1.15c.44-.44.3-.93.27-1.44-.22-3.54-1.74-6.69-3-9.89-.28-.69-.25-1.15.53-1.07a47.52,47.52,0,0,0,7.45,0c.88-.05.89.31.63,1a55.77,55.77,0,0,0-2.77,8,9.06,9.06,0,0,0-.17,3.79,6.62,6.62,0,0,0,1.15-1.91c1.82-3.69,4.89-5.28,7.73-4.87A8.71,8.71,0,0,1,64,192.84a10.22,10.22,0,0,1-1.13,6.82,6.73,6.73,0,0,1-6,3.68c-.88,0-1.76,0-2.64,0a1.85,1.85,0,0,1-1.78-.71c-.29-.41-.87-.67-1.24-.26s.25.66.46,1a5.3,5.3,0,0,0,.68.66c3.21,2.88,4.09,6.85,2.33,10.51-1.54,3.19-5.76,5.19-9.62,4.56-4.42-.72-7.25-3.3-7.8-7.24A8.79,8.79,0,0,1,39.42,205C40.09,204.14,40.81,203.36,41.52,202.53Z"/><path class="b" d="M117.67,59.34c-.25,4.08,1.08,7.44,2.72,10.71.23.45.64.91.25,1.43s-.85.1-1.3.09a23.72,23.72,0,0,0-6.73.19c-.26.06-.64.24-.75-.08a1.53,1.53,0,0,1,0-1.15c.92-1.45,1-3.18,1.68-4.7a12.68,12.68,0,0,0,1.31-4.69c0-.52,0-1.06-.08-1.91a30.75,30.75,0,0,1-2.94,4.14,7.1,7.1,0,0,1-9.18,1.1,9.49,9.49,0,0,1-4.27-8.55,8.07,8.07,0,0,1,11.36-7.24,4.28,4.28,0,0,0,.44.2c.31.1.72.21.91,0s-.16-.55-.34-.76A23.66,23.66,0,0,1,108.27,45a8.28,8.28,0,0,1,6-12.62,9.79,9.79,0,0,1,8.65,2.38,8.13,8.13,0,0,1,1.05,10.51,13.54,13.54,0,0,1-2.13,2.58c-.31.29-.83.63-.53,1s.72,0,1.07-.19c5.22-2.29,10.38.37,11.48,6,.77,3.94-1.29,9.84-7,10.93a6.88,6.88,0,0,1-6.12-2A17.79,17.79,0,0,1,117.67,59.34Z"/><path class="b" d="M45,59.16c-.86,1.35-1.58,2.53-2.34,3.68a6.3,6.3,0,0,1-6.49,2.8,8.62,8.62,0,0,1-7.36-7C28,54.8,30,50.35,33.14,48.84a8.27,8.27,0,0,1,7.06-.1c.42.18,1,.64,1.28.23s-.42-.72-.73-1c-3.08-3.15-4.36-6.76-2.63-11A6.94,6.94,0,0,1,42,33.23a9.36,9.36,0,0,1,4.72-1.07c2.88.34,5.74.94,7.39,3.59,2,3.12,2.26,6.44.08,9.67a10.1,10.1,0,0,1-2.5,2.87c-.22.15-.49.37-.3.69s.5.12.78,0c3.59-1.65,7.21-1.18,9.54,1.21a10,10,0,0,1,1.63,10.67c-2.65,5.29-7.94,5.7-11.32,3.69-1.75-1.05-2.41-2.92-3.46-4.49-.19-.28-.18-.86-.61-.76s-.23.66-.23,1c0,3.46,1.47,6.48,2.78,9.57.22.52.84,1.15.43,1.62s-1.24.12-1.9.07a22.66,22.66,0,0,0-5.58.08c-.47.09-1,.26-1.37-.07s0-.89.2-1.31a25.92,25.92,0,0,0,1.38-4.44A2.5,2.5,0,0,1,44,65,6.81,6.81,0,0,0,45,59.16Z"/><path class="b" d="M51.27,122.49a2,2,0,0,0,1.49-.08c4.79-2.37,10.83.47,11.47,7.29a9.11,9.11,0,0,1-2.78,7.49c-2.33,2.33-7.3,3.49-10.33.21-1.13-1.23-2.78-2.13-2.76-4.14a.39.39,0,0,0-.5-.39c-.38.11-.36.43-.33.78a21.23,21.23,0,0,0,1.32,5.93l2.16,5.5H42c1-4.07,3.13-7.82,3.36-12.05l-.39-.13c-.77,1.1-1.53,2.2-2.31,3.29a7.71,7.71,0,0,1-2.17,2.2,7.46,7.46,0,0,1-8.77-1A9.31,9.31,0,0,1,29,127.77c1.19-4.82,5.68-7.21,10.5-5.62a4.61,4.61,0,0,0,.56.2c.42.09.91.74,1.24.16s-.4-.77-.71-1.1c-1.36-1.46-2.89-2.9-3.21-4.94-.76-4.88,1.25-8.84,6.16-10.2a10.75,10.75,0,0,1,8.78,1.36c2.73,1.67,4.31,6.45,2.62,9.92A18.78,18.78,0,0,1,51.27,122.49Z"/><path class="b" d="M121.15,122.47c.47.29.82.06,1.18-.09,3.07-1.27,6.17-1.22,8.65,1a8.82,8.82,0,0,1,2.6,9.29,9.13,9.13,0,0,1-4.94,6.09,7.45,7.45,0,0,1-9.13-2.8,19.57,19.57,0,0,0-1.89-3.08,13.68,13.68,0,0,0,.64,5.81,27.15,27.15,0,0,0,2.14,5.06c.2.37.52.75.24,1.21s-.85.33-1.3.27a27.92,27.92,0,0,0-6.33,0c-1.34.13-1.52-.14-1-1.42.74-1.85,1.53-3.67,2.2-5.54a9.52,9.52,0,0,0,.36-5.54c-.25.45-.4.68-.52.93a12.39,12.39,0,0,1-2.86,3.94A6.6,6.6,0,0,1,104.3,139a9.54,9.54,0,0,1-5.85-7.92,8.68,8.68,0,0,1,4.46-8.74c2.19-1.28,4.54-.9,6.83-.08.42.15,1,.68,1.29.19s-.42-.76-.69-1.12c-.52-.71-1.13-1.35-1.64-2.06a8.25,8.25,0,0,1,4.41-13,10.54,10.54,0,0,1,6.76.22,8.27,8.27,0,0,1,3.38,13.34A17.24,17.24,0,0,0,121.15,122.47Z"/><path class="b" d="M121,202.51c.7.79,1.41,1.53,2,2.32,2.7,3.4,3,6.8,1,10.45a7.13,7.13,0,0,1-3.76,3.1,10.81,10.81,0,0,1-6.83.46c-5-1.3-8-6.29-5.67-11.52a10.25,10.25,0,0,1,2.21-3.24,3.75,3.75,0,0,0,1.14-1.76c-.79.25-1.5.49-2.21.7-4.77,1.36-8.92-1.24-10.23-6a8.83,8.83,0,0,1,2.24-8.74c3.28-3.41,8-3.8,11.4.24a12.34,12.34,0,0,1,1.8,3c.13.29.36.64.69.56s.25-.54.24-.82a24.81,24.81,0,0,0-2.28-8.36c-.34-.85-.7-1.69-1-2.55-.17-.47-.19-.84.58-.7a21.39,21.39,0,0,0,7.14,0c1.23-.19,1.49.2,1,1.33a42,42,0,0,0-2.86,8.09,9.06,9.06,0,0,0-.16,2.38c0,.22-.07.54.25.58s.43-.17.54-.4c.28-.53.56-1.05.85-1.57,1.55-2.73,3.78-4.47,7-4.38s5.31,1.9,6.74,4.63a9.1,9.1,0,0,1-.52,9.75,7.66,7.66,0,0,1-9.52,2.75C122.19,202.54,121.68,202.16,121,202.51Z"/><path class="b" d="M10.39,24.83a7,7,0,0,1,4.67-2.55,3,3,0,0,1,1,0c5.74,1.28,8.35,6.62,5.86,12.38a6.71,6.71,0,0,1-11.54,1.63A14,14,0,0,1,7.93,30a19.34,19.34,0,0,1,2-13.21c1.4-2.56,3.52-3.91,7.35-3.57a6.82,6.82,0,0,1,5.33,4.61A.93.93,0,0,1,22,19.22c-.69.26-1.2.29-1.54-.51a4.74,4.74,0,0,0-2-2.54c-3.08-1.68-5.58.31-6.93,2.67-.84,1.46-.88,3.2-1.38,4.79A1.43,1.43,0,0,0,10.39,24.83Z"/><path class="b" d="M155,225.08a19.2,19.2,0,0,1-2.26,9.19,6.82,6.82,0,0,1-6.66,3.81,6.32,6.32,0,0,1-6-4.19c-.3-.69-.48-1.29.43-1.66s1.27-.13,1.68.7c1.79,3.63,5.77,4,8.17.7a10.39,10.39,0,0,0,1.9-5.82c0-.27.14-.62-.12-.78s-.58.14-.81.32a6.59,6.59,0,0,1-5.65,1.63,7.51,7.51,0,0,1-5.89-7.15c0-2.09,0-4.15,1.27-6a6.69,6.69,0,0,1,6.22-3.32,6.62,6.62,0,0,1,6,4.31A20.51,20.51,0,0,1,155,225.08Z"/><path class="b" d="M18.53,48.17c1.76.43,3.95.35,4.45,2.68.34,1.67.13,3.43-1.41,4.52-2,1.44-3.64.25-5.23-1.33A4.78,4.78,0,0,0,17,57c.46.82.46,1.31-.68,1.37a7.05,7.05,0,0,1-1.89.07c-.69-.15-1.08-.4-.56-1.21a6.45,6.45,0,0,0,.92-3.35c-.49.05-.62.46-.87.72-1.41,1.47-2.58,1.77-4.13,1-1.09-.54-2.07-2.69-1.89-4.16a3.49,3.49,0,0,1,2.94-3c1.65-.29,1.65-.29,1-1.9a3.5,3.5,0,0,1,.93-4,4.63,4.63,0,0,1,5-.34,3.08,3.08,0,0,1,1.46,3.69C19,46.65,18.76,47.4,18.53,48.17Z"/><path class="b" d="M146.85,196.14c-.32-.86-.67-1.7-.95-2.57-.42-1.31-.2-1.59,1.14-1.54h.36c2.08.05,2.08.05,1.36,2.1a4.4,4.4,0,0,0-.4,2.56c1.41-2.06,3.1-2.95,5.29-1.5a4,4,0,0,1,1.4,4.17c-.57,2.46-2.4,2.82-4.6,2.65.31.91.59,1.68.81,2.47a2.9,2.9,0,0,1-1,3.43,4.37,4.37,0,0,1-4.74.41,2.94,2.94,0,0,1-1.77-3.1,7.88,7.88,0,0,1,.49-2.21c.27-.7.06-.87-.65-.92a3.59,3.59,0,0,1-3.47-4.78c.79-2.77,3.29-3.55,5.52-1.72l.74.6C146.54,196.32,146.72,196.4,146.85,196.14Z"/><path class="c" d="M146.85,196.14c.26.22.44.55,0,.69s-.52-.28-.51-.64Z"/><path class="d" d="M10.74,30.81a6.71,6.71,0,0,1,1.94-4.94,4.24,4.24,0,0,1,6.09.06,6.9,6.9,0,0,1,.4,8.79,4.28,4.28,0,0,1-7,.06A5.92,5.92,0,0,1,10.74,30.81Z"/><path class="d" d="M151.9,220.81a6.48,6.48,0,0,1-2.3,5,4.14,4.14,0,0,1-5.89-.48,6.68,6.68,0,0,1,.23-9.18,4.11,4.11,0,0,1,6.14.07A6.87,6.87,0,0,1,151.9,220.81Z"/></svg>