<svg xmlns="http://www.w3.org/2000/svg" xmlns:xlink="http://www.w3.org/1999/xlink" viewBox="0 0 162.72 251.1"><defs><style>.a{fill:#1d1d14;}.b,.d{fill:#fefefe;}.b{stroke:#c5c6c8;stroke-miterlimit:10;}.c{fill:#020202;}</style><symbol id="a" viewBox="0 0 36.15 39.55"><path class="a" d="M16.43,26.84a17.37,17.37,0,0,1-3.45,5c-2.53,2.46-6.58,1.91-8.66.6A9.45,9.45,0,0,1,1.7,19.09c2.41-3.3,6.05-4.21,10.12-2.52l.54.26c.22.08.49.18.62-.08,0-.11-.09-.37-.21-.51-.66-.79-1.4-1.54-2-2.36A8.38,8.38,0,0,1,12.4,1.64,9.09,9.09,0,0,1,17.06.06,10.11,10.11,0,0,1,24.27,2a8.17,8.17,0,0,1,2.35,9.9,10.71,10.71,0,0,1-2.29,3.33,4.56,4.56,0,0,0-1.25,1.59c.57.31,1-.07,1.44-.26a8.28,8.28,0,0,1,9.58,2.16c4.61,5.88.73,13.54-4.74,14.6-2.58.5-4.94.11-6.83-2.05a10.62,10.62,0,0,1-2.05-3A1.86,1.86,0,0,0,19.24,27a17.87,17.87,0,0,0,1.49,7.4c.53,1.29,1.11,2.55,1.66,3.82.42,1,.16,1.4-.85,1.25a25.42,25.42,0,0,0-7.13,0c-1.08.14-1.2-.08-.8-1.13.94-2.44,2.32-4.71,2.78-7.33A10.62,10.62,0,0,0,16.43,26.84Z"/></symbol></defs><path class="b" d="M.71,127.35V29.67c0-4.87.05-9.75,0-14.62C.63,13,.42,10.91.53,8.83.72,5.54,2.86,3.64,5.47,2.12A12.42,12.42,0,0,1,11.56.58,34.79,34.79,0,0,1,18,.72a7.63,7.63,0,0,0,1.07,0L142.2.77c3,0,6,0,9,0a11.52,11.52,0,0,1,9.27,4.43,7.57,7.57,0,0,1,1.73,5.11c0,7.87.09,15.74,0,23.61-.35,20.6-.14,41.21-.17,61.82q-.07,60.59,0,121.17,0,10.31,0,20.62c0,5.65-2.82,9.56-7.64,12.19a7.46,7.46,0,0,1-3.69.86L23,250.58l-11.13,0a10.92,10.92,0,0,1-10.39-7.34,11.41,11.41,0,0,1-.74-4q0-33,.05-66,0-23,0-45.9Z"/><path class="c" d="M62.12,66.07c2,0,2.93-1.32,4-2.2,16.64-13.67,38.27-4.45,42.81,16.91,2.79,13.09-2.56,26.84-12.57,33.38a24.31,24.31,0,0,1-35.5-10C49.77,81.62,50.48,58.8,62.48,36.77c5.57-10.24,15.3-13.59,26.61-12.22,9.54,1.16,15.64,6.68,18.76,15.64.77,2.2,1.79,4.34-1.56,5.65-2.94,1.15-4.46.5-5.75-2.37C97.65,37,93,32.59,85.54,32.4S72.77,36.24,69,42.32C64.59,49.55,63.12,57.7,62.12,66.07Z"/><path class="d" d="M65.09,87.31a21.81,21.81,0,0,1,7.39-17.18c8.28-7.62,19.59-5.11,25.57,5.61a25.06,25.06,0,0,1-2.7,27.92c-7.18,8.47-19.19,7.79-25.88-1.52A24.09,24.09,0,0,1,65.09,87.31Z"/><use width="36.15" height="39.55" transform="translate(45.5 147.57) scale(1.98)" xlink:href="#a"/></svg>