<svg xmlns="http://www.w3.org/2000/svg" viewBox="0 0 162.74 251.06"><defs><style>.a,.c{fill:#fefefe;}.a{stroke:#c5c6c8;stroke-miterlimit:10;}.b{fill:#cf2101;}</style></defs><path class="a" d="M80.21,250.56H11.93a11.28,11.28,0,0,1-10.86-8.42,14.58,14.58,0,0,1-.49-3.78c0-4,0-8.07,0-12.11C1,181.51.71,136.77.79,92,.82,72.89.87,53.75.7,34.62.63,26.55.79,18.48.51,10.42c-.16-4.59,2-7,6-8.85a11.66,11.66,0,0,1,5.12-1c15.26,0,30.51-.1,45.76,0,31.3.31,62.6.05,93.9.13a11.55,11.55,0,0,1,8.95,4.09c1.95,2.15,2.16,4.8,2,7.53,0,.59-.12,1.19-.12,1.79q0,38.28-.05,76.58c0,7.59.05,15.19-.06,22.77-.05,2.92-.17,5.83-.13,8.74.38,29.84,0,59.68.18,89.52,0,8.39,0,16.78,0,25.17a13.57,13.57,0,0,1-6.83,12.25,10.22,10.22,0,0,1-5.61,1.38H80.21Z"/><path class="b" d="M49.43,146.5a3,3,0,0,1-1.58-1.16l-8.74-10.79c-2.15-2.67-4.28-5.37-6.49-8a1.72,1.72,0,0,1,0-2.6c5.24-6.19,10.44-12.4,15.66-18.6.93-1.1,1.14-1.11,2.11,0,2.15,2.59,4.34,5.14,6.39,7.8,2.33,3,4.83,5.92,7.25,8.86.53.64,1.07,1.27,1.57,1.93.94,1.23.95,1.8-.05,3l-13.1,15.78c-.89,1.07-1.81,2.13-2.71,3.2A4.65,4.65,0,0,0,49.43,146.5Z"/><path class="b" d="M131.08,125.86c.08.79-.52,1.22-.94,1.73q-2.8,3.43-5.65,6.85c-2.15,2.58-4.32,5.14-6.46,7.73-1,1.27-2.06,2.58-3.07,3.89-.75,1-1.34.94-2.14,0-3-3.62-5.78-7.44-8.86-11-2.23-2.58-4.13-5.43-6.4-8-1.15-1.28-.66-1.92.17-2.92,3.16-3.74,6.26-7.53,9.38-11.3,2.08-2.53,4.16-5.06,6.28-7.55.41-.49.9-.79,1.51,0,2.88,3.66,5.76,7.33,8.77,10.89,2.25,2.66,4.18,5.6,6.66,8.08A2.53,2.53,0,0,1,131.08,125.86Z"/><path class="b" d="M65.76,197.6a3.31,3.31,0,0,1-1.16,1.87A5.89,5.89,0,0,0,63.13,201c-1.27,2.14-3.07,3.84-4.6,5.77-2.94,3.7-6,7.28-9.06,10.92-.61.73-1.08.71-1.7,0-2.92-3.4-5.62-7-8.47-10.44a59.57,59.57,0,0,1-5-6.19,19.26,19.26,0,0,0-2.11-2.59,1.75,1.75,0,0,1,.07-2.63c4.43-5.24,8.82-10.51,13.22-15.78.85-1,1.61-2.09,2.47-3.08.68-.79,1.34-.76,1.94,0,4.77,6.29,9.93,12.27,14.8,18.48A3,3,0,0,1,65.76,197.6Z"/><path class="b" d="M32.54,53.4A2.07,2.07,0,0,1,33.15,52q7.89-9.4,15.78-18.8c.76-.92,1.29-.59,1.89.16q6.47,8,13,16c.88,1.09,1.72,2.2,2.62,3.27a1.32,1.32,0,0,1,0,2Q58.54,64,50.74,73.39c-.2.25-.42.48-.64.71-.47.5-.81.53-1.31-.08C43.6,67.59,38.37,61.2,33.15,54.79A2.12,2.12,0,0,1,32.54,53.4Z"/><path class="b" d="M113.45,218.82c-1-.27-1.32-1.16-1.84-1.81-2.67-3.29-5.33-6.59-8-9.91-2.2-2.78-4.48-5.51-6.67-8.3a1.65,1.65,0,0,1,.05-2.42c3.74-4.42,7.43-8.88,11.13-13.33,1.58-1.89,3.17-3.77,4.68-5.72.54-.69.83-.72,1.46-.11,2.08,2,3.62,4.51,5.46,6.74,3.4,4.12,6.71,8.33,10.11,12.46a1.76,1.76,0,0,1,0,2.69c-2.68,2.94-5,6.23-7.62,9.19-2,2.19-3.68,4.6-5.53,6.9-.87,1.08-1.79,2.11-2.67,3.18A1,1,0,0,1,113.45,218.82Z"/><path class="b" d="M131.47,54.3a2.25,2.25,0,0,1-.55,1q-7.83,9.45-15.65,18.9c-.66.81-1.15.76-1.78,0q-7.8-9.63-15.63-19.23a1.61,1.61,0,0,1,.06-2.34q8-9.53,16-19.08c.54-.64.9-.82,1.55,0,5.07,6.36,10.2,12.68,15.31,19A2.45,2.45,0,0,1,131.47,54.3Z"/><path class="b" d="M152.63,227.79c-.83.44-1.57.79-2.29,1.21a5.56,5.56,0,0,1-5.22.26,7.28,7.28,0,0,1-4.72-5.66,10,10,0,0,1,1.63-7.91,6.93,6.93,0,0,1,11.64,1.09,19.87,19.87,0,0,1,1,14.89,16.15,16.15,0,0,1-.67,1.92c-2.33,5.27-6.24,5.64-10,4.57a6.17,6.17,0,0,1-3.86-4.39c-.21-.7.21-1.07.81-1.19s1.23-.36,1.62.46a4.75,4.75,0,0,0,1.65,2.4c2.38,1.42,3.6,1.34,5.7-.47A8,8,0,0,0,152.63,227.79Z"/><path class="b" d="M7.05,25.76a19.77,19.77,0,0,1,2.1-9,7.45,7.45,0,0,1,8.31-4A6.51,6.51,0,0,1,22.37,17c.29.7.22,1.23-.55,1.56A1.09,1.09,0,0,1,20.16,18,4.65,4.65,0,0,0,18,15.41a4.76,4.76,0,0,0-5.68,1.12,10.28,10.28,0,0,0-2.45,6.11c-.07.89.34.82.91.59A1.19,1.19,0,0,0,11,23c3.35-2.7,9.32-1.95,11.21,4.23A8.79,8.79,0,0,1,21,35.12a6.82,6.82,0,0,1-11.74-.36A17.2,17.2,0,0,1,7.05,25.76Z"/><path class="b" d="M14.31,58.43a6.23,6.23,0,0,1-2.05-2c-1.53-1.81-2.94-3.73-4.47-5.54a.88.88,0,0,1-.08-1.31,61.11,61.11,0,0,1,5-6,5.55,5.55,0,0,0,.9-1.11c.5-1,1-.77,1.57-.09Q18,46,20.88,49.61a.77.77,0,0,1,0,1.15c-2,2.41-4,4.84-6,7.26C14.71,58.2,14.59,58.43,14.31,58.43Z"/><path class="b" d="M142,200.8a2.17,2.17,0,0,1,.54-1.38c1.7-2.06,3.4-4.13,5.11-6.18.56-.68,1.12-.65,1.67,0,1.78,2.21,3.55,4.42,5.34,6.61a1.32,1.32,0,0,1-.05,1.92c-1.88,2.27-3.77,4.54-5.61,6.85-.44.54-.77.45-1.13,0-1.1-1.26-2.26-2.48-3.25-3.81a16.7,16.7,0,0,1-2.12-2.7A4,4,0,0,1,142,200.8Z"/><path class="c" d="M142.63,221.27a6.8,6.8,0,0,1,1.28-3.9,4.32,4.32,0,0,1,7.33.11,6.92,6.92,0,0,1-.18,7.94,4.29,4.29,0,0,1-7.31-.3A7.23,7.23,0,0,1,142.63,221.27Z"/><path class="c" d="M10.33,29.84a6.33,6.33,0,0,1,1-3.51,4.52,4.52,0,0,1,8.05.2,6.81,6.81,0,0,1-.72,7.7,4.33,4.33,0,0,1-7-.27A6.6,6.6,0,0,1,10.33,29.84Z"/></svg>