<svg xmlns="http://www.w3.org/2000/svg" xmlns:xlink="http://www.w3.org/1999/xlink" viewBox="0 0 162.74 251.06"><defs><style>.a{fill:#cf2101;}.b,.c{fill:#fefefe;}.b{stroke:#c5c6c8;stroke-miterlimit:10;}</style><symbol id="a" viewBox="0 0 40.83 50.32"><path class="a" d="M0,25.26A1.85,1.85,0,0,1,.57,24L19.32.8c.87-1.07,1.17-1.06,2,0L40,23.46c1.16,1.42,1.18,1.61,0,3.07Q30.91,37.91,21.84,49.29c-1.11,1.38-1.36,1.38-2.52,0Q10,38,.68,26.62A2.15,2.15,0,0,1,0,25.26Z"/></symbol></defs><path class="b" d="M80.21,250.56H11.93a11.28,11.28,0,0,1-10.86-8.42,14.58,14.58,0,0,1-.49-3.78c0-4,0-8.07,0-12.11C1,181.51.71,136.77.79,92,.82,72.89.87,53.75.7,34.62.63,26.55.79,18.48.51,10.42c-.16-4.59,2-7,6-8.85a11.66,11.66,0,0,1,5.12-1c15.26,0,30.51-.1,45.76,0,31.3.31,62.6.05,93.9.13a11.55,11.55,0,0,1,8.95,4.09c1.95,2.15,2.16,4.8,2,7.53,0,.59-.12,1.19-.12,1.79q0,38.28-.05,76.58c0,7.59.05,15.19-.06,22.77-.05,2.92-.17,5.83-.13,8.74.38,29.84,0,59.68.18,89.52,0,8.39,0,16.78,0,25.17a13.57,13.57,0,0,1-6.83,12.25,10.22,10.22,0,0,1-5.61,1.38H80.21Z"/><path class="a" d="M62.16,66.8c2,0,2.93-1.31,4-2.19C82.8,50.94,104.42,60.16,109,81.52c2.79,13.09-2.56,26.84-12.58,33.38-12.29,8-28.68,3.88-35.49-10C49.81,82.36,50.52,59.54,62.52,37.51c5.57-10.24,15.29-13.59,26.6-12.22,9.55,1.15,15.64,6.68,18.77,15.64.76,2.2,1.78,4.34-1.56,5.65-2.94,1.14-4.46.5-5.75-2.38-2.89-6.43-7.6-10.88-15-11.07S72.8,37,69.07,43.05C64.63,50.28,63.16,58.44,62.16,66.8Z"/><path class="c" d="M65.12,88a21.81,21.81,0,0,1,7.4-17.17c8.28-7.62,19.58-5.12,25.57,5.61a25.06,25.06,0,0,1-2.7,27.92c-7.19,8.47-19.19,7.79-25.88-1.52A24.17,24.17,0,0,1,65.12,88Z"/><use width="40.83" height="50.32" transform="translate(49.56 148.27) scale(1.56)" xlink:href="#a"/></svg>