<svg xmlns="http://www.w3.org/2000/svg" viewBox="0 0 162.74 251.15"><defs><style>.a,.c{fill:#fefefe;}.a{stroke:#c5c6c8;stroke-miterlimit:10;}.b{fill:#cb332a;}</style></defs><path class="a" d="M80.21,250.55c-22.84,0-45.68-.13-68.52.1-5.39,0-10.48-5.4-10.87-9.8a135.87,135.87,0,0,1-.11-16.27c0-.4,0-.8,0-1.2q0-66.09,0-132.2C.8,72.41.87,53.63.7,34.85.63,26.71.79,18.56.51,10.42c-.16-4.57,2.05-7,6.07-8.9a11.6,11.6,0,0,1,5-1c15.25,0,30.5-.1,45.75,0,31.3.3,62.6.05,93.9.12a11.63,11.63,0,0,1,8.95,4.09,8.76,8.76,0,0,1,2,6.7c-.32,6.19-.14,12.38-.15,18.57Q162,71,162,111.92q0,49.85,0,99.69c0,8.43,0,16.86,0,25.29A13.54,13.54,0,0,1,155.38,249a10.38,10.38,0,0,1-5.82,1.51H80.21Z"/><path class="b" d="M68.62,116.34A16.42,16.42,0,0,1,66.55,124c-3.6,7.24-9.23,12.89-14.46,18.86a1.11,1.11,0,0,1-1.91,0C44.75,136.64,39.1,130.55,35.52,123a15.31,15.31,0,0,1-1-10.31c1-4.15,4.59-6.32,8.82-5.77,3.4.45,5.91,2,7.37,5.14.3.65.8.68,1.14,0a8.9,8.9,0,0,1,5.94-4.72c5.63-1.52,10.4,1.26,10.85,7.54C68.65,115.33,68.62,115.81,68.62,116.34Z"/><path class="b" d="M59.45,218.73c-3.71.23-6.26-1.61-8-4.79-.47-.87-.88-1.14-1.48-.07a9.15,9.15,0,0,1-7,4.78c-3.59.5-6.82-.39-8.61-4.14-2-4.12-1.11-8.12.61-12,2.06-4.64,5.33-8.5,8.46-12.44,2-2.49,4-4.89,6.22-7.2.83-.88,1.51-.86,2.26,0,2.47,2.92,5.07,5.72,7.39,8.78a66.94,66.94,0,0,1,6.24,9.25c2.07,4,3.34,8.31,1.58,12.79C65.84,217,63.9,219.08,59.45,218.73Z"/><path class="b" d="M111.85,113.28c.48-.65.91-1.17,1.27-1.72,2.26-3.4,5.49-4.37,9.4-4.08,3.15.23,5.81,3.14,6.35,6a17.49,17.49,0,0,1-2.35,12.39,95,95,0,0,1-10,13.53c-1.18,1.4-2.5,2.68-3.75,4a1.06,1.06,0,0,1-1.8,0c-2.55-2.71-4.91-5.58-7.2-8.53a88.39,88.39,0,0,1-5.8-8.19c-2.63-4.36-3.78-8.93-2.49-14,.8-3.16,4.53-5.55,7.91-5.39C107.47,107.44,110.12,109.55,111.85,113.28Z"/><path class="b" d="M34.78,41.54a11.46,11.46,0,0,1,.4-3.83c1-3.23,3-5.32,6.48-5.72a9.06,9.06,0,0,1,9.24,4.47c1,1.51.94,1.54,1.92,0a9.79,9.79,0,0,1,11.24-4c2.84.93,4.74,3.7,5,7.21A18.69,18.69,0,0,1,66,51.37,111.66,111.66,0,0,1,52.87,67.73c-.9,1-1.7.85-2.4,0-2.87-3.46-6-6.67-8.56-10.4a74.76,74.76,0,0,1-5.24-8.22A15.34,15.34,0,0,1,34.78,41.54Z"/><path class="b" d="M129.93,42.75c.14,2.7-1.41,5.61-3,8.44-3.66,6.42-8.58,11.87-13.56,17.28-.61.66-1.15.72-1.79,0a129,129,0,0,1-11.8-14.87,24.55,24.55,0,0,1-4.2-10,10.24,10.24,0,0,1,3.87-10.08c2.06-1.67,4.34-1.17,6.62-.91,2.55.3,4.19,1.91,5.45,4,.3.5.46,1.32,1.05,1.35s.8-.79,1.1-1.28a9.49,9.49,0,0,1,12.65-3.06C129.3,35.51,129.86,38.71,129.93,42.75Z"/><path class="b" d="M111.45,213.12c-1.27,1.82-2.3,3.72-4.26,4.82-3.21,1.79-8.25,1.92-10.89-1.08a8.9,8.9,0,0,1-2.07-5.56,17.23,17.23,0,0,1,2.28-10c3.83-6.64,8.84-12.37,13.94-18,.76-.85,1.42-.79,2.32.19A114.07,114.07,0,0,1,124.7,199c1.83,2.88,3.37,5.88,3.67,9.37s-.22,6.52-2.69,9.09a6.39,6.39,0,0,1-4.1,1.79C116.6,219.84,113.54,217.33,111.45,213.12Z"/><path class="b" d="M11.27,40.88a4.38,4.38,0,0,1,3.24,1.57c.51.63.85.73,1.58.1C17.47,41.34,19,40.36,21,41.22a4.15,4.15,0,0,1,2.43,4.26c-.37,3.19-2.18,5.62-4.07,8-.93,1.18-1.94,2.29-2.92,3.43-.76.89-1.42,1.24-2.33,0-1.26-1.67-2.93-3.07-4-4.84-1.39-2.3-3.06-4.58-2.69-7.58C7.73,42.31,9.16,40.85,11.27,40.88Z"/><path class="b" d="M155.21,204.85c0,2.2-.79,3.68-2.28,4.24a4.21,4.21,0,0,1-5-1.47c-.55-.65-.79-.51-1.29,0a4.51,4.51,0,0,1-5.43,1.19c-1.41-.72-2.09-2.56-1.77-4.73a8,8,0,0,1,.82-2.61,45.63,45.63,0,0,1,6.15-8.35,1.06,1.06,0,0,1,1.82,0,40.28,40.28,0,0,1,6.19,8.48A7.21,7.21,0,0,1,155.21,204.85Z"/><path class="b" d="M7.15,24.58c.19-3,.66-7.26,4.25-10.44s9.71-1.36,11.13,3.06c.21.66.15,1.17-.55,1.47-.88.36-1.37,0-1.81-.79C18.06,14,13.81,14,11.52,17.74a10.36,10.36,0,0,0-1.39,4.16,1.46,1.46,0,0,0,0,.36c.07.4-.33.95.15,1.2s.77-.28,1.11-.52A7,7,0,0,1,22,26.21c1.69,4,.64,9.07-3.57,11.4-2.62,1.44-6.9.37-8.79-2.37S7.31,29.28,7.15,24.58Z"/><path class="b" d="M155.64,226.49a16.21,16.21,0,0,1-2,7.68c-2.14,4-5.73,5.2-10,3.65-2.13-.78-2.63-2.43-3.24-4.17-.14-.41-.27-1.05.48-1.09s1.61-.72,1.87.51c.59,2.9,5.35,4.3,7.59,1.55a10.29,10.29,0,0,0,2.52-6.18c0-.27,0-.63-.15-.78s-.5.11-.69.26c-5.58,4.39-11.44-.5-11.69-5.6-.16-3.15.56-5.76,2.79-7.87,1.92-1.81,6.62-2.23,8.62-.21C154.85,217.35,155.71,221.13,155.64,226.49Z"/><path class="c" d="M10.42,29.48a9.71,9.71,0,0,1,.29-1.55c.79-2.66,3.14-4.3,5.42-3.86,2.49.48,4.33,3.2,4.18,6.19-.13,2.57-1.75,4.95-3.72,5.49-3.05.84-6-1.65-6.17-5.23C10.41,30.32,10.42,30.12,10.42,29.48Z"/><path class="c" d="M152.5,221.21c-.09.59-.15,1.14-.27,1.68-.55,2.5-2.36,4.21-4.49,4.29A5.1,5.1,0,0,1,143,223.3a6.68,6.68,0,0,1,.37-5.11,4.73,4.73,0,0,1,4.78-2.89,5.08,5.08,0,0,1,4,3.81C152.34,219.8,152.4,220.52,152.5,221.21Z"/></svg>