<svg xmlns="http://www.w3.org/2000/svg" xmlns:xlink="http://www.w3.org/1999/xlink" viewBox="0 0 162.74 251.15"><defs><style>.a{fill:#cb3329;}.b,.d{fill:#fefefe;}.b{stroke:#c5c6c8;stroke-miterlimit:10;}.c{fill:#cf2101;}</style><symbol id="a" viewBox="0 0 41.85 45.12"><path class="a" d="M0,11.37c.12-3,.81-6,3.08-8.33,3.86-4,10-4.06,14.31-.1A12.51,12.51,0,0,1,19.83,6c.24.41.38,1,.91,1s.7-.59.93-1A11.11,11.11,0,0,1,29.16.37c6.11-1.19,11.17.93,12.41,8.14a18.54,18.54,0,0,1-1.22,10.43C37.86,25,34,30.05,30,35.12c-2.48,3.17-5.14,6.21-7.83,9.21-.92,1-1.24,1.05-2.11.1C14.33,38.2,8.78,31.81,4.31,24.58,2,20.85.1,17,0,12.44Z"/></symbol></defs><path class="b" d="M80.21,250.55c-22.84,0-45.68-.13-68.52.1-5.39,0-10.48-5.4-10.87-9.8a135.87,135.87,0,0,1-.11-16.27c0-.4,0-.8,0-1.2q0-66.09,0-132.2C.8,72.41.87,53.63.7,34.85.63,26.71.79,18.56.51,10.42c-.16-4.57,2.05-7,6.07-8.9a11.6,11.6,0,0,1,5-1c15.25,0,30.5-.1,45.75,0,31.3.3,62.6.05,93.9.12a11.63,11.63,0,0,1,8.95,4.09,8.76,8.76,0,0,1,2,6.7c-.32,6.19-.14,12.38-.15,18.57Q162,71,162,111.92q0,49.85,0,99.69c0,8.43,0,16.86,0,25.29A13.54,13.54,0,0,1,155.38,249a10.38,10.38,0,0,1-5.82,1.51H80.21Z"/><use width="41.85" height="45.12" transform="translate(45.63 149.39) scale(1.71)" xlink:href="#a"/><path class="c" d="M63.27,65c2,0,2.93-1.31,4-2.2,16.64-13.67,38.27-4.45,42.81,16.91,2.79,13.1-2.56,26.85-12.57,33.39-12.3,8-28.69,3.88-35.5-10C50.92,80.58,51.64,57.76,63.63,35.72,69.2,25.48,78.93,22.14,90.24,23.5c9.54,1.16,15.64,6.68,18.76,15.64.77,2.2,1.79,4.34-1.56,5.65-2.94,1.15-4.46.51-5.75-2.37C98.8,36,94.1,31.54,86.69,31.35S73.92,35.2,70.18,41.27C65.74,48.5,64.27,56.66,63.27,65Z"/><path class="d" d="M66.24,86.26a21.82,21.82,0,0,1,7.39-17.18C81.91,61.46,93.22,64,99.2,74.69a25.06,25.06,0,0,1-2.7,27.92c-7.18,8.47-19.19,7.8-25.88-1.52A24.09,24.09,0,0,1,66.24,86.26Z"/></svg>