<svg xmlns="http://www.w3.org/2000/svg" viewBox="0 0 162.73 251.03"><defs><style>.a,.c{fill:#fefefe;}.a{stroke:#c5c6c8;stroke-miterlimit:10;}.b{fill:#020202;}</style></defs><path class="a" d="M80.34,250.53H12.07A11.22,11.22,0,0,1,1,241.75a14.27,14.27,0,0,1-.27-3.45q0-66.09,0-132.2,0-45.49-.06-91c0-2.47-.38-4.93,0-7.39A6,6,0,0,1,2.24,4.57,12.48,12.48,0,0,1,12.1.5c11,.25,22.11.18,33.16.18q52.93,0,105.88,0a11.77,11.77,0,0,1,9.36,4.5,7.39,7.39,0,0,1,1.67,4.88c0,8,.15,15.91,0,23.85-.31,12.34-.14,24.68-.15,37q-.08,72.63,0,145.27,0,10.61,0,21.21c0,5.65-2.8,9.57-7.6,12.21a7.92,7.92,0,0,1-3.92.88H80.34Z"/><path class="b" d="M51.59,56.49c-.33,3.83,1,7.36,2.26,11H47c.58-2,1.18-3.91,1.73-5.88a14.73,14.73,0,0,0,.52-4.38c0-.3.11-.71-.31-.81s-.4.33-.55.54c-.54.78-1,1.62-1.6,2.37a6.79,6.79,0,0,1-11.82-1.67,10.93,10.93,0,0,1,1.42-11.21c4.34-5.71,8.8-11.34,13.22-17,.88-1.12,1-1,1.88.11C54.62,33.73,57.84,37.84,61,42c1.12,1.45,2.28,2.88,3.33,4.38a11.54,11.54,0,0,1,1.53,11.12,6.84,6.84,0,0,1-5.67,4.57,6.22,6.22,0,0,1-6.3-2.82c-.68-.92-1.3-1.88-2-2.83Z"/><path class="b" d="M48.85,194.15c.65-4.23-1.15-7.73-2-11.47h6.79a58.93,58.93,0,0,0-2,7A15.43,15.43,0,0,0,51.3,193c0,.27-.09.63.24.74s.49-.29.65-.53c.38-.57.72-1.15,1.1-1.72,1.66-2.52,3.91-3.81,7-3.28A7,7,0,0,1,66.1,194a11.47,11.47,0,0,1-1.91,9.77c-4.48,5.92-9.11,11.72-13.65,17.58-.38.48-.55.36-.85,0-4.57-5.9-9.25-11.71-13.67-17.71a10.63,10.63,0,0,1-.83-11.86,6.59,6.59,0,0,1,11.24-1C47.22,191.74,47.9,192.81,48.85,194.15Z"/><path class="b" d="M51.65,133.48a17.24,17.24,0,0,0,.69,6.72c.31,1.19.72,2.36,1.13,3.52.17.47.26.72-.41.72-2.06,0-4.13,0-6.27,0a55.26,55.26,0,0,0,2-6.63,18.5,18.5,0,0,0,.4-3.92c0-.23.07-.51-.25-.59s-.41.16-.54.36c-.44.71-.86,1.44-1.34,2.12-1.7,2.4-3.89,3.75-6.95,3.09A7,7,0,0,1,34.29,133a11.71,11.71,0,0,1,2.29-10.14c4.29-5.41,8.49-10.88,12.74-16.32,1-1.28,1-1.27,2,0,4,5.16,8,10.34,12.06,15.49,3,3.79,4.05,7.92,2.27,12.52A6.73,6.73,0,0,1,54,136.46,22.66,22.66,0,0,0,51.65,133.48Z"/><path class="b" d="M110.54,193.8a5.07,5.07,0,0,0,.22-4.11c-.58-2.3-1.24-4.6-1.89-7h6.86a46.28,46.28,0,0,0-1.67,5.29,16.71,16.71,0,0,0-.25,5.77c.63-.92,1.14-1.69,1.68-2.44,1.73-2.39,4-3.74,7-3.07a7,7,0,0,1,5.63,5.84,11.68,11.68,0,0,1-2.19,10c-4.3,5.45-8.53,11-12.8,16.43-.86,1.1-1.14,1.12-2,0-4.26-5.49-8.54-11-12.73-16.49a11.55,11.55,0,0,1-1.88-10.88,6.78,6.78,0,0,1,5.66-5c2.9-.45,5.11.81,6.75,3.17C109.47,192.14,110,192.91,110.54,193.8Z"/><path class="b" d="M113.88,133.49a4,4,0,0,0-.22,3.5c.59,2.31,1.2,4.62,1.88,6.91.23.75.07.89-.65.85-1.67-.11-3.34-.21-5-.23-.84,0-1-.2-.74-1a28.88,28.88,0,0,0,1.66-6.34,9.23,9.23,0,0,0-.17-3.6c-.74,1-1.36,2-2.09,2.9a6.7,6.7,0,0,1-11.14-.73,8.78,8.78,0,0,1-1.29-4.06,11.31,11.31,0,0,1,2.29-8.3c4.34-5.57,8.61-11.2,12.91-16.79,1-1.25,1-1.26,2,0q4.71,6,9.38,12.11c1.22,1.58,2.47,3.14,3.61,4.77,2.73,3.91,3.2,8.06.77,12.24s-7.9,4.6-11,.74C115.27,135.48,114.61,134.49,113.88,133.49Z"/><path class="b" d="M115.92,67.56h-7c1.32-3.65,2.54-7.27,2.24-11.47l-1.86,2.62c-1.41,2-3.17,3.36-5.73,3.41-3.67.06-6.65-2.66-7.24-6.64A12.11,12.11,0,0,1,98.71,46c4.16-5.41,8.37-10.78,12.57-16.16,1.07-1.37,1.21-1.39,2.3,0,4.24,5.45,8.5,10.88,12.65,16.4a11.27,11.27,0,0,1,1.69,11.09A6.69,6.69,0,0,1,122.38,62a6.36,6.36,0,0,1-6.53-2.83c-.52-.71-1-1.47-1.45-2.2-.14-.23-.24-.55-.6-.47s-.25.45-.25.7A24.43,24.43,0,0,0,115.33,66Z"/><path class="b" d="M9.24,24a1.61,1.61,0,0,0,1.09-.59C14.86,19.68,20.75,22.19,22,28a8.8,8.8,0,0,1-3.43,9.09A6.61,6.61,0,0,1,8.9,34.38,19,19,0,0,1,9.34,16c1.51-2.79,4.16-3.7,7.24-3.33A5.87,5.87,0,0,1,21.69,17c.21.6.49,1.18-.42,1.54a1,1,0,0,1-1.57-.65,4.49,4.49,0,0,0-4.08-3,5,5,0,0,0-4.5,2.7A15.48,15.48,0,0,0,9.24,24Z"/><path class="b" d="M153.12,226.16c-.75.52-1.29.91-1.85,1.28a6.58,6.58,0,0,1-9.13-1.59,9.19,9.19,0,0,1,.31-11.39,6.47,6.47,0,0,1,10.66.85,16.54,16.54,0,0,1,2.24,6.86,18.61,18.61,0,0,1-2,11.58,7,7,0,0,1-8.41,3.58,5.94,5.94,0,0,1-4.29-4.53c-.24-.8.39-.79.82-1s.86-.38,1.11.31a5.12,5.12,0,0,0,.64,1.14,4.44,4.44,0,0,0,7.32.48C152.38,231.65,152.82,229.07,153.12,226.16Z"/><path class="b" d="M13.83,54.18c-.33-.12-.45.13-.61.29-1.48,1.46-2.85,1.81-4.14,1.06A4.17,4.17,0,0,1,7.55,51,3.61,3.61,0,0,1,8,50c2-3,4.3-5.71,6.53-8.64,2,2.7,3.94,5.28,5.86,7.87a5.57,5.57,0,0,1,.85,4.45,2.93,2.93,0,0,1-4.63,1.67c-.45-.34-.77-.93-1.55-.94l.64,3.75c-2.52.14-2.49.14-2.06-2.25A3.91,3.91,0,0,0,13.83,54.18Z"/><path class="b" d="M148.35,196.4c.7-.12.85-.59,1.16-.87a2.9,2.9,0,0,1,3.31-.63,2.7,2.7,0,0,1,1.76,2.58,5.67,5.67,0,0,1-1.07,4c-1.78,2.3-3.5,4.65-5.22,7-.39.53-.57.59-1,0-1.81-2.43-3.72-4.79-5.43-7.29a5.37,5.37,0,0,1-.66-4.58,2.5,2.5,0,0,1,2.12-2,3.13,3.13,0,0,1,3,1.27c.17.22.18.74.62.56s.12-.57.12-.86a8.24,8.24,0,0,0-.46-2.46c-.17-.52-.11-.86.58-.72a3.84,3.84,0,0,0,.83,0c.66,0,1,.07.78.92A25.66,25.66,0,0,0,148.35,196.4Z"/><path class="c" d="M10.05,29.79a5.94,5.94,0,0,1,2-4.68c2.25-2.07,5.33-1.39,7,1.53a6.82,6.82,0,0,1-.73,7.6,4.34,4.34,0,0,1-7-.41A6.57,6.57,0,0,1,10.05,29.79Z"/><path class="c" d="M142.55,220.18a6.24,6.24,0,0,1,2.86-5.22,3.76,3.76,0,0,1,4.91.56c2.38,2.53,2.88,5.56,1,8.58a4.38,4.38,0,0,1-7.67-.07A7.65,7.65,0,0,1,142.55,220.18Z"/></svg>