<svg xmlns="http://www.w3.org/2000/svg" xmlns:xlink="http://www.w3.org/1999/xlink" viewBox="0 0 162.73 251.03"><defs><style>.a{fill:#010101;}.b,.d{fill:#fefefe;}.b{stroke:#c5c6c8;stroke-miterlimit:10;}.c{fill:#020202;}</style><symbol id="a" viewBox="0 0 32.96 38.86"><path class="a" d="M17.94,27.45c-.62,2.7,0,5,.66,7.29.32,1.15.69,2.28,1.06,3.42.17.5.07.7-.51.69-1.8,0-3.59,0-5.39,0-.77,0-.82-.18-.6-.87a47.6,47.6,0,0,0,2.07-7.59,12,12,0,0,0,.07-2.94,3.58,3.58,0,0,0-1.51,1.65C11.48,32.76,9,34,5.56,33S.19,29.18,0,25.23a12.56,12.56,0,0,1,3.07-8.69C7.39,11.2,11.72,5.88,16,.52c.55-.7.85-.68,1.37,0,4.4,5.68,8.88,11.29,13.2,17a11.67,11.67,0,0,1,1.8,10.8,7,7,0,0,1-5.93,5.06c-2.74.49-4.79-.74-6.38-2.87C19.38,29.6,18.76,28.63,17.94,27.45Z"/></symbol></defs><path class="b" d="M80.34,250.53H12.07A11.22,11.22,0,0,1,1,241.75a14.27,14.27,0,0,1-.27-3.45q0-66.09,0-132.2,0-45.49-.06-91c0-2.47-.38-4.93,0-7.39A6,6,0,0,1,2.24,4.57,12.48,12.48,0,0,1,12.1.5c11,.25,22.11.18,33.16.18q52.93,0,105.88,0a11.77,11.77,0,0,1,9.36,4.5,7.39,7.39,0,0,1,1.67,4.88c0,8,.15,15.91,0,23.85-.31,12.34-.14,24.68-.15,37q-.08,72.63,0,145.27,0,10.61,0,21.21c0,5.65-2.8,9.57-7.6,12.21a7.92,7.92,0,0,1-3.92.88H80.34Z"/><path class="c" d="M62.15,65.32c2,0,2.93-1.31,4-2.19C82.79,49.46,104.42,58.68,109,80c2.79,13.1-2.57,26.85-12.58,33.39-12.3,8-28.68,3.88-35.5-10C49.81,80.88,50.52,58.06,62.51,36c5.58-10.24,15.3-13.58,26.61-12.21,9.55,1.15,15.64,6.68,18.76,15.64.77,2.2,1.79,4.33-1.56,5.64-2.93,1.15-4.45.51-5.75-2.37-2.89-6.43-7.59-10.88-15-11.07S72.8,35.5,69.06,41.57C64.62,48.8,63.15,57,62.15,65.32Z"/><path class="d" d="M65.12,86.56a21.8,21.8,0,0,1,7.39-17.17C80.79,61.77,92.1,64.27,98.08,75a25.06,25.06,0,0,1-2.7,27.92c-7.18,8.47-19.19,7.79-25.88-1.53A24.05,24.05,0,0,1,65.12,86.56Z"/><use width="32.96" height="38.86" transform="translate(47.05 145.6) scale(2.08)" xlink:href="#a"/></svg>