<svg xmlns="http://www.w3.org/2000/svg" viewBox="0 0 162.78 251.08"><defs><style>.a,.d{fill:#fefefe;}.a{stroke:#c5c6c8;stroke-miterlimit:10;}.b{fill:#1d1d14;}.c{fill:#c1c2c4;}</style></defs><path class="a" d="M80.33,250.53c-22.8,0-45.6-.06-68.4.05-4.48,0-7.31-2.21-9.59-5.61a11.46,11.46,0,0,1-1.75-6.48q-.07-6.28,0-12.58C1,181.13.7,136.35.79,91.57c0-19,.11-38-.08-57-.08-8.06.1-16.13-.2-24.18C.34,5.77,2.75,3.23,6.61,1.48a12.14,12.14,0,0,1,5.12-1c4.83,0,9.66,0,14.49,0C68,.77,109.74.7,151.49.71a10.71,10.71,0,0,1,9.91,6,9.39,9.39,0,0,1,.81,5.48c-.07.8-.14,1.59-.14,2.38Q162,64,162,113.41c0,3.34-.19,6.7-.14,10,.43,29.55,0,59.11.19,88.67,0,8.35,0,16.7,0,25.05a13.27,13.27,0,0,1-9,12.89,9.46,9.46,0,0,1-3.18.45H80.33Z"/><path class="b" d="M121.17,202.66a16.88,16.88,0,0,1,3.82,5.18c1.49,3.53-.24,9.34-5,10.7-3.86,1.11-7.31.82-10.4-1.79a8.16,8.16,0,0,1-1.39-10.34,26.24,26.24,0,0,1,3.15-4,14,14,0,0,0-2.31.58c-2.64,1.12-5.07.4-7.38-.88a5.4,5.4,0,0,1-2.07-2.43c-2.06-4.42-1.81-7.72,1.38-11.51,3-3.62,9.3-3.12,11.55.46.68,1.09,1.42,2.15,2.32,3.5a13,13,0,0,0-1.07-6.68c-.71-1.68-1.18-3.46-2.05-5.08-.37-.68.11-.9.68-.78a18.22,18.22,0,0,0,7.71,0c.74-.15,1.13.44.72,1.1-1.06,1.74-1.45,3.74-2.36,5.55a11.43,11.43,0,0,0-.93,6c.34.08.49-.05.51-.18a8,8,0,0,1,2.6-4,7,7,0,0,1,7.78-1.87c6.92,2.6,7.08,11.32,3.39,15.13-2,2-6.46,2.92-8.53,1.76A2.73,2.73,0,0,0,121.17,202.66Z"/><path class="b" d="M50.87,122.73a13.67,13.67,0,0,1,5.22-1.17,7.49,7.49,0,0,1,7,4.51c2,4.26.71,8.42-2.28,11.33-1.74,1.7-6.58,2.82-8.94.69-1.41-1.27-3.13-2.19-3.6-4.25a1.72,1.72,0,0,0-1.07-1.14c-.35,4.58,2,8.39,3.59,12.58a33.62,33.62,0,0,0-7-.22c-.71.07-1.41.17-2.12.22s-1-.07-.46-.79a8.23,8.23,0,0,0,1.59-4.31,7.24,7.24,0,0,1,1-2.29,9.28,9.28,0,0,0,.85-5.5c-.7,1.1-1.35,2-1.84,2.91-1,1.87-2.7,2.78-4.4,3.73a4.53,4.53,0,0,1-3.28.08,8.25,8.25,0,0,1-5.57-3.71,10.61,10.61,0,0,1-1.66-5,8.34,8.34,0,0,1,11.62-8.29,2.31,2.31,0,0,0,1.46.35,2.58,2.58,0,0,0-1-1.49,9.08,9.08,0,0,1-2.2-11,4.83,4.83,0,0,1,1.94-2.18,13.42,13.42,0,0,1,4.88-2.06,11.32,11.32,0,0,1,6.07.93A7.23,7.23,0,0,1,55,111.8c.5,2.64.31,5.34-1.59,7.59A20.46,20.46,0,0,0,50.87,122.73Z"/><path class="b" d="M51.2,202.73a23.77,23.77,0,0,1,3.26,4.7c1.69,3.46-.1,8.58-3.54,10.28a10.76,10.76,0,0,1-10.16,0c-4.69-2.33-5.23-8-3.09-11.47A11.87,11.87,0,0,1,40.43,203c.27-.2.54-.46.36-.79s-.52-.12-.81,0a8.92,8.92,0,0,1-8.91-.46c-1.64-1-2.37-2.86-2.94-4.65a9.55,9.55,0,0,1,4-10.56,7.52,7.52,0,0,1,10.41,2.63c.43.67.8,1.37,1.18,2.08.15.29.29.62.68.51s.25-.55.23-.82A21.47,21.47,0,0,0,43,184.37c-.55-1.32-1.17-2.61-1.76-3.92-.4-.89-.18-1.25.75-1.06a20.13,20.13,0,0,0,7.81,0c.59-.11.57.2.58.57a2.47,2.47,0,0,1-.39,1.12,35.61,35.61,0,0,0-2.92,8.32,7.45,7.45,0,0,0,0,2.67,3.24,3.24,0,0,0,1.34-1.74,7.79,7.79,0,0,1,6.66-4.76c3.33-.26,5.64,1.45,7.39,4.17a9.53,9.53,0,0,1-.72,10.75c-2.2,2.8-5.11,3.22-8.37,2.47l-2-.46C51.15,202.41,51.23,202.62,51.2,202.73Z"/><path class="b" d="M118,133.37c-.47,4.4,1.92,8.07,3.18,12-1.6.29-3-.2-4.49-.24-1.25,0-2.45.15-3.68.22s-1.38-.17-.91-1.28a50.42,50.42,0,0,0,3.11-9.64,2.46,2.46,0,0,0,.09-.34c0-.39.24-1-.18-1.07s-.63.45-.82.83a9.29,9.29,0,0,1-5.37,5.13c-4.2,1.37-8.59-1.21-10-5.87a9,9,0,0,1,2-9.13,7.71,7.71,0,0,1,8.79-1.79,6.51,6.51,0,0,0,.77.31c.24.06.54.36.73,0s0-.54-.22-.76-.39-.39-.6-.58a9.21,9.21,0,0,1-2.65-9.8,8.78,8.78,0,0,1,8.38-5.45c3.81,0,7,1.13,8.82,4.76a7.9,7.9,0,0,1-.48,8.09,37.74,37.74,0,0,1-3.25,4.07c1-.33,1.75-.6,2.48-.78,5.15-1.28,9.55,1.38,10.61,6.39s-2.42,10.21-7.21,11a6.6,6.6,0,0,1-5.72-1.79A22.64,22.64,0,0,1,118,133.37Z"/><path class="b" d="M86.5,85.28l2.5-.71a7.8,7.8,0,0,1,9.17,3.62A8.68,8.68,0,0,1,99,95.43c-1,3.06-2.71,5.5-6.1,6.27a7.2,7.2,0,0,1-8.09-3.21c-.62-.95-1.18-1.95-1.81-3a2.26,2.26,0,0,0-.4,2.1,38.61,38.61,0,0,0,3,8.94c.2.43.35.87.52,1.31-.23.31-.55.22-.78.17a24,24,0,0,0-7.71,0c-1,.14-1.13-.15-.73-1a23.12,23.12,0,0,0,1-2.67,40.93,40.93,0,0,1,1.82-5,6.72,6.72,0,0,0,.4-3.87c-.47,0-.47.39-.62.62-.41.59-.74,1.23-1.13,1.83-2.47,3.85-5,4.88-9.47,3.78a2.9,2.9,0,0,1-1.39-.66c-2.26-2.22-4.23-4.69-4.08-8,.37-8,6.74-10.14,11.89-7.89a3.18,3.18,0,0,1,.32.16c.25.16.53.27.75,0s-.15-.47-.29-.64c-.53-.65-1.13-1.24-1.66-1.89-2.17-2.68-3-5.68-1.62-8.94s4.09-4.64,7.39-5.12a9.72,9.72,0,0,1,8.79,3.09,7.3,7.3,0,0,1,1.59,6.8,10.3,10.3,0,0,1-2.94,5.24A4.23,4.23,0,0,0,86.5,85.28Z"/><path class="b" d="M44.52,58.84a17.34,17.34,0,0,1-3.44,5c-2.53,2.45-6.59,1.9-8.67.59A9.45,9.45,0,0,1,29.8,51.09c2.41-3.3,6-4.21,10.12-2.52.18.08.35.18.54.26s.49.19.61-.07-.08-.38-.2-.52c-.67-.79-1.4-1.53-2-2.36A8.39,8.39,0,0,1,40.5,33.64a9.15,9.15,0,0,1,4.66-1.58A10.13,10.13,0,0,1,52.36,34a8.17,8.17,0,0,1,2.36,9.9,10.71,10.71,0,0,1-2.29,3.33,4.56,4.56,0,0,0-1.25,1.59c.57.31,1-.07,1.44-.26a8.28,8.28,0,0,1,9.57,2.16c4.62,5.88.74,13.54-4.74,14.6-2.57.5-4.93.11-6.83-2a11,11,0,0,1-2-3A1.84,1.84,0,0,0,47.34,59a17.9,17.9,0,0,0,1.48,7.4c.53,1.28,1.11,2.54,1.67,3.81.42,1,.16,1.4-.85,1.26a25.42,25.42,0,0,0-7.13,0c-1.08.14-1.2-.08-.8-1.12.93-2.45,2.31-4.72,2.77-7.34A10.61,10.61,0,0,0,44.52,58.84Z"/><path class="b" d="M111.79,49c-2.55-2.74-4.81-5.43-4.11-9.43a7.94,7.94,0,0,1,2.44-4.92c3.55-3.11,9.86-3.14,13.35,0A7.82,7.82,0,0,1,125.93,42c-.4,2.82-2.31,4.72-4.05,6.84.52.33.88.06,1.26-.09,4-1.52,7.19-.79,9.61,2.16a9.15,9.15,0,0,1,.41,10.92,8.5,8.5,0,0,1-9.5,3.61,4.52,4.52,0,0,1-2.1-1.52,12,12,0,0,1-2.78-4c-.1-.27-.17-.72-.59-.59s-.26.55-.24.85A21.27,21.27,0,0,0,119.51,67c.54,1.32,1.11,2.63,1.66,4,.2.47.14.75-.48.7-2.85-.23-5.7-.51-8.63.27.86-4.39,4-8,3.23-13-2.89,5.63-6.63,8.86-12.74,5.25a9,9,0,0,1-3.24-10.9C101.74,47.47,106.36,47,111.79,49Z"/><path class="b" d="M15.43,53.49a6,6,0,0,0,.9,3.5c.49.81.11,1-.59,1.19-.88.22-1.73-.19-2.62-.08-.51.06-.23-.44-.17-.71.24-1.1,1.08-2.06.79-3.57C12,55.76,10,56.39,8,54.56a3.84,3.84,0,0,1-.85-4c.65-2.29,2.46-2.7,4.66-2.49-.31-.7-.58-1.25-.8-1.83a3.45,3.45,0,0,1,.94-4,4.71,4.71,0,0,1,5.18-.2,3.15,3.15,0,0,1,1.34,3.76c-.18.72-.45,1.43-.68,2.14a20.61,20.61,0,0,1,2.08.39,3.38,3.38,0,0,1,2.47,4.17,3.76,3.76,0,0,1-3.75,3.3,2.06,2.06,0,0,1-1.39-.6C16.63,54.65,16.07,54.1,15.43,53.49Z"/><path class="b" d="M148.86,196.83c.76-.9,1.43-1.9,2.73-2.14a3.26,3.26,0,0,1,3.57,1.79,3.55,3.55,0,0,1-.19,4.24,3.59,3.59,0,0,1-4.27,1.41,5,5,0,0,1,1.11,4,3.89,3.89,0,0,1-4.85,2.85,3.65,3.65,0,0,1-2.77-4.66,3.79,3.79,0,0,1,.29-.65c.55-.9.58-1.35-.74-1.45a3.53,3.53,0,0,1-3.46-3.93,3.71,3.71,0,0,1,4.11-3.58,2.08,2.08,0,0,1,1.81,1,3.19,3.19,0,0,0,1.21,1.18,8.68,8.68,0,0,0-1-3.4c-.2-.35-.45-.69-.17-1.09a.84.84,0,0,1,1.08-.24,2.2,2.2,0,0,0,1.39,0c1-.23,1.17.07.9,1.07-.32,1.22-1,2.36-.91,3.68C148.74,196.92,148.79,196.93,148.86,196.83Z"/><path class="b" d="M146.93,237.87h-6.11c-.8,0-1.62,0-2.07-.89a2.14,2.14,0,0,1,.38-2.34,52,52,0,0,0,5.72-10.19,34.74,34.74,0,0,0,2.54-10.53c.07-.9.34-1.43,1.34-1.39,1.17,0,1.1.84,1,1.6a40,40,0,0,1-5.16,16.27c-.81,1.47-1.65,2.91-2.51,4.34-.37.6-.32.82.43.82,2.84,0,5.67,0,8.51,0,.92,0,1.27-.42,1.23-1.33,0-.75.07-1.51,0-2.27s.37-1.2,1.15-1.18,1.21.27,1.19,1.14c0,1.6,0,3.19,0,4.79,0,.89-.43,1.19-1.26,1.18C151.24,237.86,149.08,237.87,146.93,237.87Z"/><path class="b" d="M15.11,15.64c-1.39,0-2.79,0-4.19,0-.64,0-1,.22-1,.89,0,1,0,1.91-.09,2.87,0,.76-.49,1-1.2,1s-1.11-.22-1.15-.93c-.08-1.35-.2-2.7-.19-4.06,0-1.56.78-2.37,2.3-2.23a82.1,82.1,0,0,0,8.87.16c1.19,0,2.37.09,3.55.07a1.33,1.33,0,0,1,1.47,1,1.9,1.9,0,0,1-.13,2C19.36,22,16,28,15.19,35.05a12.17,12.17,0,0,0-.39,2.34c.06.81-.22,1.5-1.17,1.42a1.25,1.25,0,0,1-1.2-1.59c.2-1.5.48-3,.7-4.49C14,27,17.06,22.12,19.74,17.13c.8-1.49.82-1.49-.92-1.49Z"/><path class="c" d="M148.86,196.83l-.11.19,0-.21.08,0Z"/><path class="d" d="M51.2,202.73c-.06-.11-.33-.14-.19-.31s.3-.06.4.11Z"/></svg>