<svg xmlns="http://www.w3.org/2000/svg" xmlns:xlink="http://www.w3.org/1999/xlink" viewBox="0 0 162.78 251.08"><defs><style>.a{fill:#1d1d14;}.b{fill:#fefefe;stroke:#c5c6c8;stroke-miterlimit:10;}.c{fill:#020202;}</style><symbol id="a" viewBox="0 0 36.15 39.55"><path class="a" d="M16.43,26.84a17.37,17.37,0,0,1-3.45,5c-2.53,2.46-6.58,1.91-8.66.6A9.45,9.45,0,0,1,1.7,19.09c2.41-3.3,6.05-4.21,10.12-2.52l.54.26c.22.08.49.18.62-.08,0-.11-.09-.37-.21-.51-.66-.79-1.4-1.54-2-2.36A8.38,8.38,0,0,1,12.4,1.64,9.09,9.09,0,0,1,17.06.06,10.11,10.11,0,0,1,24.27,2a8.17,8.17,0,0,1,2.35,9.9,10.71,10.71,0,0,1-2.29,3.33,4.56,4.56,0,0,0-1.25,1.59c.57.31,1-.07,1.44-.26a8.28,8.28,0,0,1,9.58,2.16c4.61,5.88.73,13.54-4.74,14.6-2.58.5-4.94.11-6.83-2.05a10.62,10.62,0,0,1-2.05-3A1.86,1.86,0,0,0,19.24,27a17.87,17.87,0,0,0,1.49,7.4c.53,1.29,1.11,2.55,1.66,3.82.42,1,.16,1.4-.85,1.25a25.42,25.42,0,0,0-7.13,0c-1.08.14-1.2-.08-.8-1.13.94-2.44,2.32-4.71,2.78-7.33A10.62,10.62,0,0,0,16.43,26.84Z"/></symbol></defs><path class="b" d="M80.33,250.53c-22.8,0-45.6-.06-68.4.05-4.48,0-7.31-2.21-9.59-5.61a11.46,11.46,0,0,1-1.75-6.48q-.07-6.28,0-12.58C1,181.13.7,136.35.79,91.57c0-19,.11-38-.08-57-.08-8.06.1-16.13-.2-24.18C.34,5.77,2.75,3.23,6.61,1.48a12.14,12.14,0,0,1,5.12-1c4.83,0,9.66,0,14.49,0C68,.77,109.74.7,151.49.71a10.71,10.71,0,0,1,9.91,6,9.39,9.39,0,0,1,.81,5.48c-.07.8-.14,1.59-.14,2.38Q162,64,162,113.41c0,3.34-.19,6.7-.14,10,.43,29.55,0,59.11.19,88.67,0,8.35,0,16.7,0,25.05a13.27,13.27,0,0,1-9,12.89,9.46,9.46,0,0,1-3.18.45H80.33Z"/><path class="c" d="M79.73,24.92h22.18c3.32,0,6.54.13,8.29,3.76s.19,6.23-1.78,9c-14.85,20.7-25.31,43.27-29.15,68.64a57.53,57.53,0,0,0-.93,7.93c0,3.6-1.83,4.21-5,4.21-3.91,0-2.87-2.72-2.89-4.56C70.16,94.71,77,77.48,85.3,60.68,89.14,52.87,93,45.07,97,37.34c1.22-2.35,1.28-3.26-1.8-3.25-10.66,0-21.31-.12-32-.29-2,0-3.25.2-3.26,2.72,0,3.24-.75,6.49-.65,9.73s-.8,4.42-4.39,4.49C50.66,50.82,52,48.26,52,46.2c0-5.63.15-11.26-.08-16.88-.13-3.05,1.11-3.86,3.86-3.83,8,.08,16,0,24,0Z"/><use width="36.15" height="39.55" transform="translate(45.57 148.01) scale(1.98)" xlink:href="#a"/></svg>