<svg xmlns="http://www.w3.org/2000/svg" viewBox="0 0 162.74 251.06"><defs><style>.a{fill:#fefefe;stroke:#c5c6c8;stroke-miterlimit:10;}.b{fill:#cf2101;}</style></defs><path class="a" d="M.69,127.21q0-48.78,0-97.56c0-4.87,0-9.75,0-14.62,0-2-.22-4.07-.12-6.1C.67,5.57,2.77,3.61,5.45,2.07A13.16,13.16,0,0,1,11.89.51c2.39,0,4.79.11,7.18.13,11,.08,22,0,32.94,0l90.19,0c3.23,0,6.47-.06,9.7,0,4.9.09,9.6,3.86,10.18,8.35a59.6,59.6,0,0,1,.11,7c0,1,0,2,0,3-.29,34.52-.18,69-.23,103.54q-.06,47.7,0,95.41c0,6.67,0,13.34,0,20A13,13,0,0,1,152,250.37a7.94,7.94,0,0,1-1.54.13l-125.89.06H11.86a11.13,11.13,0,0,1-10.47-7.42,13,13,0,0,1-.73-4.59q0-15.57,0-31.16,0-40.08,0-80.18Z"/><path class="b" d="M32.46,126.69a2,2,0,0,1,.48-1.25q5.4-6.85,10.77-13.74c1.43-1.85,2.75-3.77,4.32-5.51,1-1.08,1.2-1.12,2.11,0q7,8.36,14.06,16.71c.46.55,1,1,1.5,1.54a1.7,1.7,0,0,1,.13,2.62c-1,1.17-1.81,2.48-2.8,3.67-1.75,2.09-3.31,4.33-5,6.49-1.48,1.93-3,3.83-4.51,5.75-.95,1.22-1.88,2.44-2.78,3.7a1,1,0,0,1-1.78.08c-2.26-2.57-4.29-5.34-6.62-7.86-1.87-2-3.54-4.23-5.32-6.34q-1.95-2.29-4-4.51A2.14,2.14,0,0,1,32.46,126.69Z"/><path class="b" d="M48.39,75.27c-.85.06-1.15-.7-1.52-1.17-1.93-2.55-4.09-4.91-6.18-7.32-2.95-3.41-5.69-7-8.8-10.29-1.17-1.23-1.11-2,0-3.36,4-5.13,8-10.22,12-15.41a37.72,37.72,0,0,0,2.85-3.66c.47-.81,1.27-.7,2,.19q6.12,7.32,12.24,14.66c1,1.16,2,2.27,3,3.37,1.29,1.37,1.27,1.92.13,3.31s-2.28,3-3.44,4.55-2.16,2.71-3.23,4.08L52.5,70.6c-1.12,1.44-2.27,2.84-3.34,4.31A.81.81,0,0,1,48.39,75.27Z"/><path class="b" d="M67.76,197.8a2.78,2.78,0,0,1-.71,1.62c-2.19,2.77-4.39,5.52-6.55,8.31s-4.42,5.75-6.58,8.67A28.28,28.28,0,0,0,52,218.81c-.35.59-1.06.44-1.5-.09-1.54-1.85-3-3.8-4.58-5.57-3.33-3.6-6.16-7.63-9.57-11.17-.44-.46-.87-.93-1.26-1.42-1.35-1.69-1.37-2.29,0-4q6.09-7.77,12.22-15.5a22.18,22.18,0,0,1,2.3-3c.85-.75,1.34-.71,2,.13q5.22,6.24,10.5,12.42c1.62,1.9,3.31,3.74,5,5.61A2.64,2.64,0,0,1,67.76,197.8Z"/><path class="b" d="M95.24,53.28A2.31,2.31,0,0,1,95.82,52q7.46-9.52,14.9-19c.85-1.08,1.09-1.12,2-.06q5.7,6.61,11.32,13.31c1.47,1.73,2.89,3.51,4.38,5.23a1.63,1.63,0,0,1,.08,2.41c-5,6.45-10,12.92-15,19.4-.62.8-1.08.94-1.84.05C106.45,67.12,101.21,61,96,54.86A2.34,2.34,0,0,1,95.24,53.28Z"/><path class="b" d="M113.29,103.88a10.58,10.58,0,0,1,1,1q5.19,6.1,10.36,12.25c1.73,2,3.42,4.11,5.18,6.13a1.65,1.65,0,0,1,.08,2.42q-7.52,9.7-15,19.45c-.66.85-1.22.83-1.91,0q-7.92-9.39-15.86-18.74a1.72,1.72,0,0,1,0-2.46q7.53-9.54,15-19.12A2.73,2.73,0,0,1,113.29,103.88Z"/><path class="b" d="M131.94,196.46a2.76,2.76,0,0,1-.68,1.28q-7.42,9.62-14.88,19.22c-.86,1.11-1,1.1-1.95,0q-4.29-5.07-8.57-10.16c-2.34-2.77-4.66-5.57-7-8.31a1.82,1.82,0,0,1-.12-2.71c4.94-6.27,9.83-12.58,14.76-18.86,1.1-1.41,1.25-1.4,2.41,0q7.56,8.91,15.08,17.83A3.38,3.38,0,0,1,131.94,196.46Z"/><path class="b" d="M80.45,68.78c.46-.11.56.2.74.4l15.6,18.47C98,89,98,89.45,97,90.77L82.24,109.65c-.95,1.22-1.12,1.21-2.13,0-5.24-6.18-10.46-12.37-15.74-18.52a1.55,1.55,0,0,1,0-2.36q7.49-9.5,14.9-19A2.58,2.58,0,0,1,80.45,68.78Z"/><path class="b" d="M12.79,43.45c2.28,2.68,4.48,5.29,6.72,7.88.35.4.22.64,0,1-1.62,2.67-3.84,4.87-5.65,7.39-.52.71-1.12.68-1.66,0a69.05,69.05,0,0,0-5.51-6.44,1.42,1.42,0,0,1-.06-2C8.64,48.71,10.69,46.12,12.79,43.45Z"/><path class="b" d="M156.23,199a4,4,0,0,1-1,1.8c-1.33,1.66-2.58,3.39-3.89,5.06-1.1,1.4-1.95,1.28-3-.14s-2.38-2.84-3.57-4.26c-.54-.63-1.08-1.26-1.58-1.91a.87.87,0,0,1,.11-1.11c1.82-2.52,3.76-4.94,5.76-7.31.37-.45.72-.56,1.16-.08,2,2.22,4,4.5,5.83,6.9A1.49,1.49,0,0,1,156.23,199Z"/><path class="b" d="M152.4,236.49c-2.62,0-5.25,0-7.87,0a4.9,4.9,0,0,1-1.76-.22,1.41,1.41,0,0,1-.81-1.88,7.59,7.59,0,0,1,1.16-2.08,42.09,42.09,0,0,0,7-18.5c.06-.51.08-1,.09-1.55,0-.85.34-1.37,1.29-1.33s1.17.65,1.13,1.46a39.28,39.28,0,0,1-3.23,13.4,53,53,0,0,1-3.69,7.19c-.65,1.05.09,1,.66,1,2.24,0,4.48,0,6.71-.07,2.46-.12,2.46-.18,2.47-2.67,0-.28,0-.56,0-.84.1-1.29.61-1.66,1.88-1.37.47.11.49.45.49.83,0,1.87,0,3.73.06,5.6,0,.73-.45.76-.92.81C155.51,236.41,154,236.41,152.4,236.49Z"/><path class="b" d="M12.39,17.37c-1.36,0-2.71,0-4.07,0-.91,0-1.21.42-1.18,1.24s0,1.6.06,2.4-.33,1.08-1.08,1.1-1.17-.21-1.2-1c-.07-1.59-.2-3.18-.21-4.78,0-1.19.51-1.47,1.57-1.46,3.14,0,6.28,0,9.43-.06a26.57,26.57,0,0,0,3.34-.12,1.43,1.43,0,0,1,1.64.8,1.8,1.8,0,0,1,0,2.13,38.16,38.16,0,0,0-5.5,9.9c-1.36,3.59-2.63,7.26-2.56,11.21,0,.52,0,1-.52,1.37a1.17,1.17,0,0,1-1.87-1,32.24,32.24,0,0,1,2.51-12A41.43,41.43,0,0,1,16.82,19a3.88,3.88,0,0,0,.35-.63c.28-.69.23-1.12-.71-1.07-1.36.06-2.72,0-4.07,0Z"/></svg>