<svg xmlns="http://www.w3.org/2000/svg" xmlns:xlink="http://www.w3.org/1999/xlink" viewBox="0 0 162.74 251.06"><defs><style>.a{fill:#cf2101;}.b{fill:#fefefe;stroke:#c5c6c8;stroke-miterlimit:10;}</style><symbol id="a" viewBox="0 0 40.83 50.32"><path class="a" d="M0,25.26A1.85,1.85,0,0,1,.57,24L19.32.8c.87-1.07,1.17-1.06,2,0L40,23.46c1.16,1.42,1.18,1.61,0,3.07Q30.91,37.91,21.84,49.29c-1.11,1.38-1.36,1.38-2.52,0Q10,38,.68,26.62A2.15,2.15,0,0,1,0,25.26Z"/></symbol></defs><path class="b" d="M.69,127.21q0-48.78,0-97.56c0-4.87,0-9.75,0-14.62,0-2-.22-4.07-.12-6.1C.67,5.57,2.77,3.61,5.45,2.07A13.16,13.16,0,0,1,11.89.51c2.39,0,4.79.11,7.18.13,11,.08,22,0,32.94,0l90.19,0c3.23,0,6.47-.06,9.7,0,4.9.09,9.6,3.86,10.18,8.35a59.6,59.6,0,0,1,.11,7c0,1,0,2,0,3-.29,34.52-.18,69-.23,103.54q-.06,47.7,0,95.41c0,6.67,0,13.34,0,20A13,13,0,0,1,152,250.37a7.94,7.94,0,0,1-1.54.13l-125.89.06H11.86a11.13,11.13,0,0,1-10.47-7.42,13,13,0,0,1-.73-4.59q0-15.57,0-31.16,0-40.08,0-80.18Z"/><path class="a" d="M79.73,24.69h22.18c3.32,0,6.54.13,8.29,3.77s.19,6.23-1.78,9c-14.85,20.7-25.3,43.27-29.15,68.64a57.53,57.53,0,0,0-.93,7.93c0,3.6-1.83,4.21-5,4.21-3.91,0-2.87-2.72-2.89-4.56C70.16,94.48,77,77.25,85.3,60.45,89.14,52.64,93,44.84,97,37.11c1.22-2.36,1.28-3.26-1.8-3.26-10.65,0-21.31-.11-32-.28-2,0-3.25.19-3.26,2.72,0,3.24-.75,6.49-.65,9.72s-.8,4.43-4.38,4.5C50.66,50.59,52,48,52,46c0-5.63.15-11.27-.08-16.88C51.79,26,53,25.23,55.78,25.26c8,.08,16,0,24,0Z"/><use width="40.83" height="50.32" transform="translate(49.56 147.74) scale(1.56)" xlink:href="#a"/></svg>