<svg xmlns="http://www.w3.org/2000/svg" viewBox="0 0 162.74 251.15"><defs><style>.a{fill:#fefefe;stroke:#c5c6c8;stroke-miterlimit:10;}.b{fill:#cb332a;}</style></defs><path class="a" d="M80.22,250.55c-22.84,0-45.68-.13-68.51.1-5.41.06-10.49-5.39-10.89-9.79a133.8,133.8,0,0,1-.11-16.27c0-.4,0-.8,0-1.19q0-66.17.05-132.32C.8,72.46.87,53.84.71,35.23.63,27,.79,18.69.51,10.43c-.16-4.59,2.1-7.1,6.17-8.95a11.86,11.86,0,0,1,4.9-.95c15.25,0,30.5-.1,45.75,0,31.3.3,62.6.05,93.9.12a11.65,11.65,0,0,1,9,4.08c1.95,2.16,2.15,4.81,2,7.53,0,.6-.12,1.2-.12,1.79Q162,63.54,162,113t0,98.61c0,8.43,0,16.86,0,25.29A13.56,13.56,0,0,1,155.4,249a10.35,10.35,0,0,1-5.82,1.52H80.22Z"/><path class="b" d="M68.11,41.87a21.93,21.93,0,0,1-3.63,10.8,99.18,99.18,0,0,1-5.8,8.14c-2,2.62-4.27,5.09-6.47,7.58-.69.78-1.41.88-2.24-.08-3.23-3.76-6.53-7.47-9.47-11.48-2.72-3.7-5.21-7.48-6.24-12a12.77,12.77,0,0,1,.87-8.3c1.68-3.67,6.65-5.17,10.75-3.27a8.81,8.81,0,0,1,4.23,3.9c.53,1,1,1,1.57,0a9.52,9.52,0,0,1,7.1-4.75c5.37-.64,8.93,2.48,9.32,8.12C68.13,41,68.11,41.44,68.11,41.87Z"/><path class="b" d="M68.35,116.88A14.1,14.1,0,0,1,66.6,124a67.81,67.81,0,0,1-7.13,11q-3.19,4-6.58,7.91c-1.29,1.46-1.35,1.34-2.68.07a88.91,88.91,0,0,1-6.41-7.31,58.25,58.25,0,0,1-8.08-12.13,15.24,15.24,0,0,1-.87-10.6c1.23-4.83,5.34-6,9.66-5.3,2.75.43,4.59,2.29,6,4.57.55.89.81.94,1.41,0,2.22-3.46,5.33-5.42,9.53-4.85s6.49,3.21,6.89,7.87C68.39,115.76,68.35,116.33,68.35,116.88Z"/><path class="b" d="M94.13,41.64c.08-.84.1-1.68.26-2.5.82-4.21,2.82-6.36,6.37-6.93a9.1,9.1,0,0,1,9.43,4.51c.76,1.41,1.1,1,1.74,0a9.44,9.44,0,0,1,10.93-4.26,6.8,6.8,0,0,1,4.87,5.24A15.47,15.47,0,0,1,127,47.3c-2.3,5.74-6,10.52-10,15.17-1.6,1.89-3.26,3.75-4.81,5.67-.68.84-1.22.73-1.83,0-2.4-2.74-5-5.33-7.16-8.26a76.19,76.19,0,0,1-6.19-8.8C95.46,48.2,94,45.15,94.13,41.64Z"/><path class="b" d="M68.72,209.8c0,2.65-.42,5.14-2.37,7.18a5.93,5.93,0,0,1-3.66,2,17.15,17.15,0,0,1-4.41-.11c-2.49-.33-3.91-2.15-5.45-3.81-1.29-1.38-1.29-1.4-2.31.17a9.36,9.36,0,0,1-12.13,3.08c-1.88-1-2.8-3-3.34-5.08a14.6,14.6,0,0,1,.84-9.35C37.82,199,41,195,44.14,191a78.15,78.15,0,0,1,6.36-7.59c.72-.71,1.32-1,2.09-.17,4.95,5.48,9.81,11,13.53,17.47A17.63,17.63,0,0,1,68.72,209.8Z"/><path class="b" d="M94.36,116.6c.11-.87.17-1.74.32-2.6.69-3.9,2.66-6.19,5.8-6.77,4.15-.78,7.76.69,9.76,3.94.12.21.23.42.36.63.51.87.88.91,1.46,0a9.48,9.48,0,0,1,10-4.69c3.87.64,6.12,3.46,6.49,8,.32,4-1.15,7.58-3.07,11-3.1,5.5-7.21,10.22-11.28,15l-.39.46c-2.26,2.76-2.1,2.72-4.5,0-4.87-5.51-9.59-11.12-13-17.69A15.71,15.71,0,0,1,94.36,116.6Z"/><path class="b" d="M112,212.92a15.56,15.56,0,0,1-3.67,4.38c-2.58,1.93-9.26,3-11.85-1.38a13,13,0,0,1-1.13-10.31c1.14-4.11,3.43-7.62,5.88-11A137.36,137.36,0,0,1,110.65,183c.57-.63,1.19-1,1.91-.24,5.61,6.23,11.25,12.43,14.86,20.13a14.16,14.16,0,0,1,1,9.45A8.87,8.87,0,0,1,127,216c-3.34,4.37-10.74,3.52-13.51-.79C113,214.47,112.53,213.74,112,212.92Z"/><path class="b" d="M81.08,75.45c.89-1.08,1.65-2.17,2.57-3.09a8.88,8.88,0,0,1,9.83-2.09C97,71.52,98.06,74.56,98.3,78a17.84,17.84,0,0,1-2.79,10.35,102.16,102.16,0,0,1-13.24,17.38c-.48.53-1,.86-1.6.18C75,99.56,69.24,93.3,65.6,85.47a13.69,13.69,0,0,1-.52-10.93c1.85-5,8.56-6.4,12.94-2.87A16.12,16.12,0,0,1,81.08,75.45Z"/><path class="b" d="M22.85,46.09a12.12,12.12,0,0,1-2.88,7,51.16,51.16,0,0,1-4.17,5.14c-.63.65-1,.7-1.59,0a38.73,38.73,0,0,1-6.32-8.62,7.09,7.09,0,0,1-.75-4.41,3.43,3.43,0,0,1,2.37-3.15,3.73,3.73,0,0,1,4.18,1c1,1.12,1.52,1.09,2.43-.05a4.09,4.09,0,0,1,4.65-.82C22.57,42.94,22.71,44.56,22.85,46.09Z"/><path class="b" d="M155.33,204c0,2.26-1,3.82-2.62,4.37s-3.24,0-4.54-1.75c-.41-.55-.63-.68-1.09,0a5,5,0,0,1-1.31,1.2c-.86.56-2,1.54-2.74,1.12-1.7-.9-3.52-2-3.5-4.4a8.84,8.84,0,0,1,1.21-4.32,44.19,44.19,0,0,1,5.79-7.75c.47-.54,1-.83,1.63-.18,2.56,2.85,5.13,5.7,6.67,9.28A5.22,5.22,0,0,1,155.33,204Z"/><path class="b" d="M147.78,238.05c-2,0-4.07,0-6.1,0a1.92,1.92,0,0,1-1.93-.94A1.84,1.84,0,0,1,140,235a44.78,44.78,0,0,0,5.42-9.6,32.83,32.83,0,0,0,2.76-11.29c0-.94.25-1.54,1.35-1.51s1.09.72,1.05,1.49A33.23,33.23,0,0,1,147.81,226a51.52,51.52,0,0,1-4.57,8.66c-.43.62-.21,1.08.61,1.07,2.66,0,5.32,0,8,0,1,0,1.44-.49,1.44-1.46,0-.63,0-1.28,0-1.91-.07-1.17.64-1.41,1.59-1.43,1.21,0,.63.89.67,1.37.11,1.31.06,2.63.15,4s-.49,1.9-1.8,1.88C151.85,238,149.82,238.05,147.78,238.05Z"/><path class="b" d="M14.68,15.63c-1.28,0-2.56,0-3.83,0-1,0-1.41.42-1.4,1.37,0,.71,0,1.43,0,2.15s-.38,1.26-1.23,1.24-1.09-.49-1.09-1.24c0-1.48,0-3-.08-4.43,0-.85.33-1.42,1.23-1.43,4.18-.07,8.36-.21,12.53-.13,2.32,0,2.93,1.56,1.64,3.47a46.11,46.11,0,0,0-7.65,17.6,21.23,21.23,0,0,0-.32,3c0,1-.32,1.58-1.4,1.44s-1-.92-.95-1.71A39.34,39.34,0,0,1,16.8,21.34c.83-1.54,1.74-3,2.62-4.56.44-.78.3-1.2-.67-1.19H14.68Z"/></svg>