<svg xmlns="http://www.w3.org/2000/svg" xmlns:xlink="http://www.w3.org/1999/xlink" viewBox="0 0 162.74 251.15"><defs><style>.a{fill:#cb3329;}.b{fill:#fefefe;stroke:#c5c6c8;stroke-miterlimit:10;}.c{fill:#cf2101;}</style><symbol id="a" viewBox="0 0 41.85 45.12"><path class="a" d="M0,11.37c.12-3,.81-6,3.08-8.33,3.86-4,10-4.06,14.31-.1A12.51,12.51,0,0,1,19.83,6c.24.41.38,1,.91,1s.7-.59.93-1A11.11,11.11,0,0,1,29.16.37c6.11-1.19,11.17.93,12.41,8.14a18.54,18.54,0,0,1-1.22,10.43C37.86,25,34,30.05,30,35.12c-2.48,3.17-5.14,6.21-7.83,9.21-.92,1-1.24,1.05-2.11.1C14.33,38.2,8.78,31.81,4.31,24.58,2,20.85.1,17,0,12.44Z"/></symbol></defs><path class="b" d="M80.22,250.55c-22.84,0-45.68-.13-68.51.1-5.41.06-10.49-5.39-10.89-9.79a133.8,133.8,0,0,1-.11-16.27c0-.4,0-.8,0-1.19q0-66.17.05-132.32C.8,72.46.87,53.84.71,35.23.63,27,.79,18.69.51,10.43c-.16-4.59,2.1-7.1,6.17-8.95a11.86,11.86,0,0,1,4.9-.95c15.25,0,30.5-.1,45.75,0,31.3.3,62.6.05,93.9.12a11.65,11.65,0,0,1,9,4.08c1.95,2.16,2.15,4.81,2,7.53,0,.6-.12,1.2-.12,1.79Q162,63.54,162,113t0,98.61c0,8.43,0,16.86,0,25.29A13.56,13.56,0,0,1,155.4,249a10.35,10.35,0,0,1-5.82,1.52H80.22Z"/><use width="41.85" height="45.12" transform="translate(45.62 149.39) scale(1.71)" xlink:href="#a"/><path class="c" d="M80.84,23.43H103c3.32,0,6.54.13,8.29,3.76s.2,6.23-1.78,9c-14.84,20.7-25.3,43.27-29.15,68.64a59.11,59.11,0,0,0-.93,7.93c0,3.6-1.82,4.21-5,4.21-3.9,0-2.86-2.72-2.89-4.56C71.27,93.22,78.12,76,86.4,59.19c3.85-7.81,7.7-15.61,11.7-23.34,1.22-2.35,1.28-3.26-1.8-3.25-10.65,0-21.3-.12-31.95-.29-2,0-3.26.2-3.26,2.72,0,3.24-.76,6.49-.65,9.72s-.8,4.43-4.39,4.5c-4.28.08-2.93-2.48-2.95-4.54,0-5.63.15-11.26-.08-16.88-.13-3,1.12-3.86,3.86-3.83,8,.08,16,0,24,0Z"/></svg>