<svg xmlns="http://www.w3.org/2000/svg" viewBox="0 0 162.77 251.17"><defs><style>.a{fill:#fefefe;stroke:#c5c6c8;stroke-miterlimit:10;}.b{fill:#020202;}</style></defs><path class="a" d="M80.34,250.57c-22.92,0-45.84-.13-68.75.1-5.3.05-10.49-5.54-10.8-10a133.58,133.58,0,0,1,0-16.5c0-.32,0-.64,0-1q0-84.25,0-168.5c0-6.83.16-13.67-.05-20.49-.25-8,.05-16-.21-24.07C.38,6.43,2.12,4,5.08,2.26A12,12,0,0,1,11.34.55c15.38,0,30.75-.13,46.12,0,31.33.35,62.67,0,94,.16a10.76,10.76,0,0,1,10,6.05,8.64,8.64,0,0,1,.79,4.78c-.39,6.19-.16,12.37-.17,18.56-.06,27.72,0,55.45-.09,83.17,0,3.39-.18,6.78-.14,10.17.42,37.82.07,75.65.17,113.47,0,6-3.47,11.27-8.56,13a10.92,10.92,0,0,1-3.63.59H80.34Z"/><path class="b" d="M49.75,28.52c2.79,3.05,5.12,6.33,7.64,9.45,2.06,2.54,4.06,5.12,6.08,7.7,2.79,3.57,3.77,7.53,2.22,11.88a6.69,6.69,0,0,1-5.49,4.6,6.46,6.46,0,0,1-6.74-2.86c-.6-.84-1.17-1.7-1.79-2.6A2.32,2.32,0,0,0,51.19,59c.61,2.56,1.2,5.12,1.93,7.65.28,1,0,1-.84,1-1.59,0-3.19-.06-4.78,0-.89,0-1.11-.14-.75-1a25.09,25.09,0,0,0,2.06-9c0-.37.22-.9-.28-1.06s-.55.45-.76.73-.5.82-.77,1.21c-2.09,3.14-4.52,4.28-7.66,3.58s-5.25-3.25-5.73-6.74a11.26,11.26,0,0,1,2.25-8.88C40.51,40.57,45.08,34.57,49.75,28.52Z"/><path class="b" d="M51.46,133.35c-1,4.25,1.15,7.66,1.95,11.39a34.52,34.52,0,0,0-7,0c1.38-3.72,2.73-7.37,2-11.45l-1.28,1.93c-2.18,3.29-4.6,4.46-7.7,3.75-3.32-.76-5.33-3.22-5.82-7A11.24,11.24,0,0,1,36,123.24q6.62-8.35,13.18-16.74c.61-.78,1.05-.78,1.63,0,4.6,5.87,9.33,11.65,13.75,17.65,2.68,3.64,2.5,7.75.38,11.65-2.31,4.28-8,4.63-11.15.77C53,135.6,52.34,134.57,51.46,133.35Z"/><path class="b" d="M48.49,194.2a11.31,11.31,0,0,0-.36-5.91c-.48-1.84-1.06-3.65-1.61-5.52,2,0,4,.06,5.94,0,1.07,0,.9.38.64,1.09a26.9,26.9,0,0,0-2,9.53v.92c.62-.76,1.08-1.23,1.43-1.77,2.31-3.56,5.18-4.92,8.48-4,3.14.89,5.37,4.21,5.38,8.09a12.69,12.69,0,0,1-2.82,8c-4.36,5.6-8.76,11.17-13.12,16.78-.45.59-.67.34-1,0-1.84-2.26-3.68-4.51-5.49-6.79-2.62-3.32-5.24-6.63-7.81-10a11.66,11.66,0,0,1-2-11.48,6.83,6.83,0,0,1,5.9-4.78,6.7,6.7,0,0,1,6.49,3C47.16,192.21,47.74,193.1,48.49,194.2Z"/><path class="b" d="M114.3,56.55a6.76,6.76,0,0,0-.06,4.75c.51,1.89,1.08,3.75,1.68,5.61.22.69.18.9-.64.83-1.27-.1-2.55,0-3.83,0-2.29,0-2.27,0-1.51-2.23a23.46,23.46,0,0,0,1.56-7.81c0-.41.22-1-.29-1.16s-.52.51-.71.83c-1.28,2.11-2.65,4.15-5.23,4.79-4.32,1.08-8.43-2.22-8.89-7a11.78,11.78,0,0,1,2.5-8.93c4.6-5.82,9.08-11.74,13.71-17.75L117.77,35l8.36,10.63a12.35,12.35,0,0,1,2.57,10.88,7,7,0,0,1-5.55,5.64c-3.13.66-5.51-.67-7.29-3.21C115.36,58.19,114.9,57.45,114.3,56.55Z"/><path class="b" d="M114.25,133.43c-.79,2.15-.28,4,.22,5.86.41,1.49.85,3,1.39,4.44.31.84,0,.92-.69.9-1.63,0-3.27-.06-4.91,0-.91,0-1.16-.08-.78-1.07a26.49,26.49,0,0,0,2-8.7c0-.46,0-.92,0-1.55a4.54,4.54,0,0,0-1.46,1.56c-2.43,3.77-4.94,5-8.28,4s-5.41-4-5.47-8.11a11.61,11.61,0,0,1,2.34-7.39c4.24-5.55,8.59-11,12.87-16.52.84-1.09,1.34-1.45,2.41,0,4,5.28,8.15,10.44,12.22,15.66,2.76,3.53,3.8,7.42,2.2,11.76a6.83,6.83,0,0,1-5.58,4.83,6.72,6.72,0,0,1-6.85-3.22C115.36,135.1,114.86,134.35,114.25,133.43Z"/><path class="b" d="M81.37,106.14A15.2,15.2,0,0,1,78,106l1-3.25A26.71,26.71,0,0,0,80.26,96c0-.34.2-.81-.21-1s-.61.39-.79.68c-1.37,2.17-2.87,4.17-5.57,4.75-4.41.94-8.31-2.36-8.68-7.26a12,12,0,0,1,2.63-8.81C72,79.05,76.2,73.61,80.44,68.17c.65-.84,1.1-1,1.8-.06,4.36,5.56,8.82,11,13.08,16.65A11.23,11.23,0,0,1,97.06,96a6.89,6.89,0,0,1-5.86,4.66,6.43,6.43,0,0,1-6.3-2.85c-.51-.66-1-1.37-1.44-2.05-.2-.27-.28-.79-.72-.68s-.25.61-.24.92a24.57,24.57,0,0,0,2,9c.46,1.09.17,1.27-.85,1.18C83,106.09,82.27,106.14,81.37,106.14Z"/><path class="b" d="M111.09,194a5.26,5.26,0,0,0,.25-3.25,43.66,43.66,0,0,0-1.87-6.92c-.3-.83-.3-1.19.76-1.13,1.63.1,3.27.09,4.91,0,.84,0,1,.14.7,1a27.67,27.67,0,0,0-2,8.44c0,.32,0,.64,0,1s-.1.71.31.8.4-.32.54-.53c.47-.7.89-1.42,1.39-2.09,1.83-2.46,4.19-3.63,7.29-2.85a7,7,0,0,1,5.41,5.88,11.81,11.81,0,0,1-2.41,10.11c-4.33,5.43-8.58,10.91-12.83,16.4-.63.83-1.09.88-1.73.06-4.43-5.7-9-11.32-13.3-17.1a11.19,11.19,0,0,1-1.79-10.12,7,7,0,0,1,5.82-5.36,6.56,6.56,0,0,1,6.73,3C109.81,192.16,110.41,193,111.09,194Z"/><path class="b" d="M14.16,54.17a12.28,12.28,0,0,0,.48,3.42c0,.21.3.63-.12.69a8,8,0,0,1-2,0c-.41-.06-.14-.46-.1-.69.17-.94.37-1.87.56-2.81.06-.3,0-.57-.26-.71s-.37.16-.49.34c-1.08,1.54-2.34,2-3.72,1.5a4,4,0,0,1-2.11-4.07,4.44,4.44,0,0,1,.83-2.08c1.93-2.49,3.84-5,5.73-7.5.36-.48.56-.51.93,0,1.88,2.37,3.8,4.71,5.66,7.1a4.78,4.78,0,0,1,.94,3.94c-.5,2.75-3,3.68-5.18,1.91C14.94,54.89,14.6,54.56,14.16,54.17Z"/><path class="b" d="M148.49,209.24c-2.14-2.85-4.25-5.55-6.23-8.34a4.81,4.81,0,0,1-.45-4.27,3,3,0,0,1,4.79-1.18c.38.33.75.68,1.38,1.26-.24-1.42-.43-2.49-.59-3.57,0-.24-.24-.63.19-.68a8.06,8.06,0,0,1,2-.06c.36,0,0,.47,0,.7-.17,1.09-.38,2.18-.62,3.5.39-.33.6-.49.8-.67,1.74-1.46,3.25-1.66,4.49-.6a4.11,4.11,0,0,1,.66,5.25C152.87,203.47,150.7,206.28,148.49,209.24Z"/><path class="b" d="M14.21,13h6c.89,0,1.76,0,2.23,1a2.2,2.2,0,0,1-.48,2.42A42.33,42.33,0,0,0,14.09,35a15.28,15.28,0,0,0-.25,2.13c0,1-.5,1.14-1.36,1.14-1.05,0-.77-.74-.78-1.23-.07-5.17,1.78-9.81,4-14.34,1-2.1,2.08-4.21,3.15-6.29.33-.63.35-.88-.48-.88-2.87,0-5.74,0-8.61-.07-.55,0-.88.05-.88.73,0,.87-.2,1.75-.17,2.62S8.5,20,7.53,20c-1.15,0-.79-.67-.79-1.22,0-1.52,0-3,0-4.55,0-.82.3-1,1-1,2.15,0,4.3,0,6.45,0Z"/><path class="b" d="M147.56,237.43c-1.87,0-3.75,0-5.62,0-.86,0-1.69,0-2.17-.88a2.11,2.11,0,0,1,.39-2.42A46.31,46.31,0,0,0,147,220.28a36.17,36.17,0,0,0,1.32-7.27c.09-1.12.79-.71,1.33-.79.7-.11.89.2.88.86A33.86,33.86,0,0,1,148.22,224a55.24,55.24,0,0,1-5,9.88c-.48.79-.58,1.11.57,1.08,2.79-.05,5.58,0,8.37,0,.78,0,1.06-.19,1-1s.19-1.59.16-2.38.26-1.12,1.15-1.12.83.57.83,1.15a41.81,41.81,0,0,0,0,4.19c.14,1.32-.55,1.53-1.56,1.53h-6.23Z"/></svg>