<svg xmlns="http://www.w3.org/2000/svg" xmlns:xlink="http://www.w3.org/1999/xlink" viewBox="0 0 162.77 251.17"><defs><style>.a{fill:#010101;}.b{fill:#fefefe;stroke:#c5c6c8;stroke-miterlimit:10;}.c{fill:#020202;}</style><symbol id="a" viewBox="0 0 32.96 38.86"><path class="a" d="M17.94,27.45c-.62,2.7,0,5,.66,7.29.32,1.15.69,2.28,1.06,3.42.17.5.07.7-.51.69-1.8,0-3.59,0-5.39,0-.77,0-.82-.18-.6-.87a47.6,47.6,0,0,0,2.07-7.59,12,12,0,0,0,.07-2.94,3.58,3.58,0,0,0-1.51,1.65C11.48,32.76,9,34,5.56,33S.19,29.18,0,25.23a12.56,12.56,0,0,1,3.07-8.69C7.39,11.2,11.72,5.88,16,.52c.55-.7.85-.68,1.37,0,4.4,5.68,8.88,11.29,13.2,17a11.67,11.67,0,0,1,1.8,10.8,7,7,0,0,1-5.93,5.06c-2.74.49-4.79-.74-6.38-2.87C19.38,29.6,18.76,28.63,17.94,27.45Z"/></symbol></defs><path class="b" d="M80.34,250.57c-22.92,0-45.84-.13-68.75.1-5.3.05-10.49-5.54-10.8-10a133.58,133.58,0,0,1,0-16.5c0-.32,0-.64,0-1q0-84.25,0-168.5c0-6.83.16-13.67-.05-20.49-.25-8,.05-16-.21-24.07C.38,6.43,2.12,4,5.08,2.26A12,12,0,0,1,11.34.55c15.38,0,30.75-.13,46.12,0,31.33.35,62.67,0,94,.16a10.76,10.76,0,0,1,10,6.05,8.64,8.64,0,0,1,.79,4.78c-.39,6.19-.16,12.37-.17,18.56-.06,27.72,0,55.45-.09,83.17,0,3.39-.18,6.78-.14,10.17.42,37.82.07,75.65.17,113.47,0,6-3.47,11.27-8.56,13a10.92,10.92,0,0,1-3.63.59H80.34Z"/><path class="c" d="M79.75,24.29h22.17c3.32,0,6.54.13,8.29,3.76s.2,6.24-1.78,9C93.59,57.73,83.13,80.3,79.28,105.67a59.31,59.31,0,0,0-.93,7.93c0,3.61-1.82,4.21-5,4.21-3.9,0-2.86-2.72-2.88-4.56C70.18,94.07,77,76.85,85.31,60,89.16,52.23,93,44.43,97,36.7c1.22-2.35,1.28-3.26-1.8-3.25-10.65,0-21.3-.12-31.95-.29-2,0-3.25.2-3.26,2.72,0,3.24-.76,6.5-.65,9.73S58.55,50,55,50.1c-4.28.09-2.93-2.48-3-4.54,0-5.63.15-11.26-.08-16.88-.13-3.05,1.12-3.86,3.86-3.83,8,.09,16,0,24,0Z"/><use width="32.96" height="38.86" transform="translate(47.07 146.15) scale(2.08)" xlink:href="#a"/></svg>