<svg xmlns="http://www.w3.org/2000/svg" viewBox="0 0 162.78 251.12"><defs><style>.a,.d{fill:#fefefe;}.a{stroke:#c5c6c8;stroke-miterlimit:10;}.b{fill:#1d1d14;}.c{fill:#c1c2c4;}</style></defs><path class="a" d="M80.36,250.57c-22.84,0-45.68,0-68.51.05-4.4,0-7.16-2.19-9.44-5.47a11.47,11.47,0,0,1-1.82-6.59Q.52,232.28.58,226c.45-44.7.12-89.4.21-134.1C.83,72.79.9,53.69.71,34.6c-.08-8.07.1-16.14-.2-24.19C.34,5.79,2.73,3.3,6.58,1.53a12.09,12.09,0,0,1,5.12-1c15.21,0,30.42-.12,45.63,0,31.42.35,62.84,0,94.25.17a10.67,10.67,0,0,1,9.86,6,9.56,9.56,0,0,1,.76,5.49c-.06.64-.13,1.27-.13,1.9q0,49.62-.09,99.24c0,2.87-.19,5.74-.15,8.61.44,26.36.07,52.72.19,79.08.06,12,0,24,0,36.07a13.27,13.27,0,0,1-9.13,12.95,9.23,9.23,0,0,1-3,.43H80.36Z"/><path class="b" d="M51.83,49.35a10.22,10.22,0,0,1,8.68.17,2.3,2.3,0,0,1,1,.63c2.69,3.29,3.58,6.93,1.89,10.93a7.79,7.79,0,0,1-6.21,5,7,7,0,0,1-7.31-3.3,14.61,14.61,0,0,0-2.07-2.8,11.85,11.85,0,0,0,.76,5.56c.68,1.85,1.41,3.69,2.17,5.51.36.87.27,1.33-.79,1.15a21.37,21.37,0,0,0-7.44,0c-.72.13-.93-.14-.61-1,1.12-2.8,2.53-5.5,3.11-8.5a6.76,6.76,0,0,0,.17-2.37c0-.25.15-.62-.26-.67-.26,0-.36.25-.45.48a15.84,15.84,0,0,1-2.13,3.29C40,66.64,36,66.84,32.87,65c-5.26-3.08-5.64-10.71-1.78-14.4,2.61-2.5,5.68-2.6,8.91-1.47a1.93,1.93,0,0,0,1.6.19c-.62-.66-1.23-1.26-1.78-1.92A9.54,9.54,0,0,1,37.19,40a8.31,8.31,0,0,1,5.52-6.72,10.45,10.45,0,0,1,5.45-.55,8.33,8.33,0,0,1,7.17,10.24c-.55,2.46-2.19,4.09-3.53,6C51.76,49.07,51.59,49.23,51.83,49.35Z"/><path class="b" d="M41.25,123c-.15-.76-.8-1.16-1.28-1.66-4.28-4.5-3.56-11,1.56-13.9s12.5-.18,13.77,5.32c.8,3.48-.47,6.33-2.83,8.82a3,3,0,0,0-1.09,1.62c.92-.3,1.73-.6,2.56-.82a7.61,7.61,0,0,1,9.2,4.14c2,4,.9,9.51-2.53,11.8-5.27,3.51-10.45.62-12.16-3.68a3.79,3.79,0,0,0-.79-1.65,11.53,11.53,0,0,0,.48,5.36,66.63,66.63,0,0,0,2.66,6.5c.14.36.29.69.08,1s-.61.09-.94,0a21.35,21.35,0,0,0-5.81-.2c-.2,0-.42.16-.58.11-.57-.19-1.3.5-1.68-.12s.1-1.32.4-1.89a25.56,25.56,0,0,0,2.48-6.69,10.36,10.36,0,0,0,.06-3.56c-.52.14-.55.54-.7.83a15.21,15.21,0,0,1-2,3,6.57,6.57,0,0,1-7.16,2.2c-3.68-.89-5.42-3.42-6.24-6.76a8.6,8.6,0,0,1,2.73-8.9c2.52-2.3,5.42-2.16,8.42-1.12C40.31,122.87,40.71,123.23,41.25,123Z"/><path class="b" d="M47.56,192.81c1.14-1.05,1.32-2.46,2.18-3.47,2.2-2.6,4.84-4,8.32-2.91a8.58,8.58,0,0,1,6,7.74c.39,4.43-1.81,8.1-5.54,9.27a9.12,9.12,0,0,1-5.86-.25c-.41-.14-.79-.43-1.31-.28a3.19,3.19,0,0,0,.92,1.31c2.12,2.26,3.53,4.77,3.19,8A7.09,7.09,0,0,1,53.21,217a9.57,9.57,0,0,1-7.82,2.51,11.4,11.4,0,0,1-4.45-1.26,8.29,8.29,0,0,1-3.42-9.67,12.1,12.1,0,0,1,3.21-4.81,3.5,3.5,0,0,0,.47-.54.86.86,0,0,0,.07-.34c-.71-.38-1.09.33-1.64.47-3.36.84-6.6.83-9-2.1a9.07,9.07,0,0,1-1.28-10.19c2.18-4.58,6.86-6.25,10.92-4a10.31,10.31,0,0,1,3.92,4.71c.15.29.13.83.63.71s.23-.56.22-.91A16,16,0,0,0,42.77,184c-.55-1-.54-2.33-1-3.47-.17-.45.19-.51.55-.48.8.08,1.59.12,2.38.21a20.74,20.74,0,0,0,5.1-.3c.32,0,.72-.27,1,.12s.09.74-.13,1.1a28.43,28.43,0,0,0-3.22,9.43A6.69,6.69,0,0,0,47.56,192.81Z"/><path class="b" d="M121.52,203.14a5.56,5.56,0,0,0,1.46,2,8.62,8.62,0,0,1-.63,12.47c-5,4.4-14,1.48-15.25-5.05a7.44,7.44,0,0,1,1.38-6.19c.77-1,1.54-1.94,2.29-2.92.2-.26.55-.48.41-1a9.47,9.47,0,0,1-4.39,1.38c-4.19.33-6.69-2-8-5.86s0-6.94,2.38-9.74c2.5-3,8-2.79,10.73.21a12.74,12.74,0,0,1,2.06,3.21c.17.35.38.83.85.67s.16-.61.13-.93a25.31,25.31,0,0,0-2.86-9.44c-.84-1.69-.7-2,1.11-1.84a21.94,21.94,0,0,0,6.72-.13.8.8,0,0,1,.82.38c.25.34-.07.59-.2.87a29.33,29.33,0,0,0-3,8.9,5.24,5.24,0,0,0,.09,2.16,32.86,32.86,0,0,1,3.56-4.67,5.22,5.22,0,0,1,5.1-1.55c6.16.89,9.39,7.8,6.64,13.41-2,4.12-5.81,5.08-10.18,3.87-.38-.11-.75-.24-1.13-.36C121.66,203.05,121.37,202.92,121.52,203.14Z"/><path class="b" d="M76.59,109.56c1.44-4.29,3.74-8.07,3.53-12.56-.76,0-.84.52-1.06,1a9.47,9.47,0,0,1-3.82,4.47A7.32,7.32,0,0,1,66.17,101a9.48,9.48,0,0,1-.74-12.36,7.78,7.78,0,0,1,9.15-2.42,4.45,4.45,0,0,0,1.84.45c-.82-1-1.6-1.9-2.32-2.83-3.45-4.5-2.25-10.65,2.62-12.92a10.54,10.54,0,0,1,9.68.23c4.07,2.15,5.35,7.52,2.89,11.64a10.38,10.38,0,0,1-2.19,2.67c-.3.26-.66.65-.43,1s.65,0,1-.09c3.17-1.18,6.19-1.18,8.8,1.3,2.77,2.65,3.34,5.89,2.27,9.46A8.17,8.17,0,0,1,92,103.3,6.73,6.73,0,0,1,85.53,101a35.26,35.26,0,0,1-2.67-3.89c-.63,2.29.12,4.24.82,6.19s1.48,3.94,2.31,6.14A35.73,35.73,0,0,0,76.59,109.56Z"/><path class="b" d="M86.45,165.6c5.43,6.15,4.82,10,2.41,13.09C85.55,183,80,183,76.06,180.91a8,8,0,0,1-4-7.56c.22-3.19,2.23-5.45,4.17-7.77a24.86,24.86,0,0,1-3.79.83c-4.77.14-7-1.32-8.47-5.66a9.51,9.51,0,0,1,3.11-10.43A7.44,7.44,0,0,1,77.65,152a32.74,32.74,0,0,1,1.73,2.85c.13.22.2.46.48.41s.21-.36.21-.58a11.17,11.17,0,0,0-.81-4.2c-1-2.47-1.78-5-2.61-7.67,1.61.1,3.13.23,4.65.29a31,31,0,0,0,4.56-.37,15.69,15.69,0,0,1-1.34,3.65c-1.07,2.58-2.08,5.18-2,8,0,.28-.23.73.22.81s.37-.4.52-.66a28.42,28.42,0,0,1,1.66-2.76,7.23,7.23,0,0,1,9.71-1.92c6.57,3.76,5.07,12.58.93,15.41-2.33,1.59-5,1.46-7.6.8-.23-.06-.46-.14-.68-.21Z"/><path class="b" d="M121.53,49.05c.44.32.78.15,1.15,0,2.94-1.16,5.79-1.18,8.32,1a8.6,8.6,0,0,1,3,8.6c-.8,4.35-3.75,7.1-7.88,7.42a6.39,6.39,0,0,1-5.65-2.52c-.91-1.1-1.69-2.31-2.7-3.72-.38,4.62,1.91,8.3,3.22,12.35a28.61,28.61,0,0,0-9.46.11c.88-2.25,1.73-4.33,2.5-6.45a16,16,0,0,0,1.12-5.11c0-.33.3-.78-.22-.91s-.63.34-.8.7a8.46,8.46,0,0,1-.43.85c-1.65,3-4,4.88-7.56,4.68-3.38-.2-5.44-2.27-6.77-5.15a9.17,9.17,0,0,1,.64-9A7.94,7.94,0,0,1,109.81,49a2.88,2.88,0,0,0,1.72.39c-.71-.81-1.39-1.56-2-2.33a8.75,8.75,0,0,1-2.27-7.29,7.85,7.85,0,0,1,5.67-6.59,10.75,10.75,0,0,1,6.82,0c6.44,2.08,6.93,8.9,4.36,12.61C123.3,46.91,122.39,48,121.53,49.05Z"/><path class="b" d="M117.49,133c-.39,4.8,2,8.55,3.37,12.71a63.82,63.82,0,0,0-8.74-.07c-.78.05-.36-.52-.24-.83.76-2.05,1.58-4.08,2.31-6.15a12.78,12.78,0,0,0,.81-5.25c-.79,0-.88.64-1.12,1.11-1.21,2.41-2.87,4.34-5.6,5-3.86,1-7.75-1.32-9.23-5.38a9.71,9.71,0,0,1,0-7c1.84-4.69,5.31-5.41,9.22-5.06,1,.1,1.91,1,3.18.9-1.14-1.3-2.22-2.52-3.31-3.73-.13-.15-.36-.22-.44-.37-1.47-3-.5-8,2-10.36,4.54-4.36,13.42-2.41,15.29,3.35a9.29,9.29,0,0,1-2.82,9.76,2.16,2.16,0,0,0-.87,1.25c.48.3.86-.07,1.21-.22a8,8,0,0,1,9,1.68c2.6,2.39,3.12,5.49,2.19,8.8-1,3.56-3.2,5.92-7,6.49-3.09.46-5.31-.94-7-3.33A27.82,27.82,0,0,0,117.49,133Z"/><path class="b" d="M15.85,39.05c-3.76,0-6.19-1.55-7.59-4.55a7.24,7.24,0,0,1,1.2-8.14c1.27-1.55,1.23-1.52.09-3.13-1.9-2.69-1.83-5.08,0-8.26,1.05-1.84,4.51-3.08,7-2.62a7,7,0,0,1,5.56,5.44,6.87,6.87,0,0,1-1.71,6.09c-.51.6-.62.89.07,1.46,4.7,3.9,3.95,10.32-1.8,13.14A5.56,5.56,0,0,1,15.85,39.05Z"/><path class="b" d="M147.28,238.87c-4.89.18-7.14-3.73-7.13-7.39a7,7,0,0,1,1.85-4.17c.44-.57.62-.79,0-1.37-3.36-3-4.28-7.32-1.2-11a8,8,0,0,1,11.12-1.09,7.55,7.55,0,0,1,1.49,10.38c-.51.7-1.38,1.28-1.56,2.05s1,1.22,1.4,1.94c1.65,3,1.21,7.58-2.32,9.67A6.59,6.59,0,0,1,147.28,238.87Z"/><path class="b" d="M18.14,48.71c2.06-.06,3.85.33,4.62,2.46a4.41,4.41,0,0,1-1,4.2c-2.25,1.86-4.06.83-5.8-1.17-.27,1.55-.12,2.73.86,3.63a.62.62,0,0,1,.22.7c-.08.29-.39.24-.6.25-.8,0-1.6,0-2.4,0-.64,0-.78-.25-.48-.91a6.56,6.56,0,0,0,.79-3.42c-1,.9-1.75,2-3.2,2a4,4,0,0,1-3.63-3.58c0-2.75,1-3.85,3.84-4.13.66-.06.82-.22.54-.86a10.19,10.19,0,0,1-.51-1.71A3.4,3.4,0,0,1,14.81,42a4.3,4.3,0,0,1,3.36,1.05c1.34,1.34,1.21,2.74.6,4.27C18.59,47.79,18.37,48.21,18.14,48.71Z"/><path class="b" d="M146.85,197c.25-1.26-.37-2.21-.7-3.2s-.21-1.37.85-1.29l.24,0c2.1-.11,2.17,0,1.6,2-.2.73-.47,1.44-.7,2.16-.07.23-.11.5.16.62s.4-.14.52-.33c1.07-1.79,2.29-2.36,3.9-1.81a3.73,3.73,0,0,1,2.45,3.94c-.21,2.45-.74,3-3.46,3.49-.94.15-1.32.42-.67,1.24,1.3,1.64.56,3.44-.88,4.72s-4.25.94-5.5-.3a4.37,4.37,0,0,1-.42-4.6c.16-.26.51-.47.3-.81s-.58-.08-.88-.12c-2.47-.34-3.67-1.42-3.7-4a3.77,3.77,0,0,1,3.69-3.62C144.5,195,144.8,195.21,146.85,197Z"/><path class="c" d="M51.83,49.35c-.13.11-.34.14-.35,0s.2-.26.32-.39Z"/><path class="d" d="M121.52,203.14l-.14-.2h.29Z"/><path class="d" d="M9.9,31.32A5.47,5.47,0,0,1,15.57,26a5.4,5.4,0,1,1,0,10.79A5.45,5.45,0,0,1,9.9,31.32Z"/><path class="d" d="M10.58,19.14a4.5,4.5,0,0,1,4.72-4.49,4.58,4.58,0,0,1,4.62,4.52,4.8,4.8,0,0,1-4.73,4.62A4.62,4.62,0,0,1,10.58,19.14Z"/><path class="d" d="M146.84,225.2a5.36,5.36,0,0,1-5.52-5.37,5.63,5.63,0,1,1,5.52,5.37Z"/><path class="d" d="M151.77,232a4.59,4.59,0,1,1-4.52-4.58A4.49,4.49,0,0,1,151.77,232Z"/></svg>