<svg xmlns="http://www.w3.org/2000/svg" xmlns:xlink="http://www.w3.org/1999/xlink" viewBox="0 0 162.78 251.12"><defs><style>.a{fill:#1d1d14;}.b,.d{fill:#fefefe;}.b{stroke:#c5c6c8;stroke-miterlimit:10;}.c{fill:#020202;}</style><symbol id="a" viewBox="0 0 36.15 39.55"><path class="a" d="M16.43,26.84a17.37,17.37,0,0,1-3.45,5c-2.53,2.46-6.58,1.91-8.66.6A9.45,9.45,0,0,1,1.7,19.09c2.41-3.3,6.05-4.21,10.12-2.52l.54.26c.22.08.49.18.62-.08,0-.11-.09-.37-.21-.51-.66-.79-1.4-1.54-2-2.36A8.38,8.38,0,0,1,12.4,1.64,9.09,9.09,0,0,1,17.06.06,10.11,10.11,0,0,1,24.27,2a8.17,8.17,0,0,1,2.35,9.9,10.71,10.71,0,0,1-2.29,3.33,4.56,4.56,0,0,0-1.25,1.59c.57.31,1-.07,1.44-.26a8.28,8.28,0,0,1,9.58,2.16c4.61,5.88.73,13.54-4.74,14.6-2.58.5-4.94.11-6.83-2.05a10.62,10.62,0,0,1-2.05-3A1.86,1.86,0,0,0,19.24,27a17.87,17.87,0,0,0,1.49,7.4c.53,1.29,1.11,2.55,1.66,3.82.42,1,.16,1.4-.85,1.25a25.42,25.42,0,0,0-7.13,0c-1.08.14-1.2-.08-.8-1.13.94-2.44,2.32-4.71,2.78-7.33A10.62,10.62,0,0,0,16.43,26.84Z"/></symbol></defs><path class="b" d="M80.36,250.57c-22.84,0-45.68,0-68.51.05-4.4,0-7.16-2.19-9.44-5.47a11.47,11.47,0,0,1-1.82-6.59Q.52,232.28.58,226c.45-44.7.12-89.4.21-134.1C.83,72.79.9,53.69.71,34.6c-.08-8.07.1-16.14-.2-24.19C.34,5.79,2.73,3.3,6.58,1.53a12.09,12.09,0,0,1,5.12-1c15.21,0,30.42-.12,45.63,0,31.42.35,62.84,0,94.25.17a10.67,10.67,0,0,1,9.86,6,9.56,9.56,0,0,1,.76,5.49c-.06.64-.13,1.27-.13,1.9q0,49.62-.09,99.24c0,2.87-.19,5.74-.15,8.61.44,26.36.07,52.72.19,79.08.06,12,0,24,0,36.07a13.27,13.27,0,0,1-9.13,12.95,9.23,9.23,0,0,1-3,.43H80.36Z"/><path class="c" d="M83.31,118.71c-14.9,0-26.72-8.69-29.5-20.18C52,91.1,54.32,84.4,58,78.1c1.83-3.12,5.4-6,5.58-9.07.17-2.89-3.33-5.88-4.89-9-6.55-13-3.31-25.14,8.39-32a25.6,25.6,0,0,1,33.81,8c5.52,8.33,4.24,16.74-.12,25-1.3,2.47-4.19,4.91-4,7.14s3.57,3.87,5.41,5.9c7.65,8.45,9.39,18.19,4.81,28.45C102.18,113.5,92.9,118.31,83.31,118.71Z"/><path class="d" d="M80.94,72.92c11.44,0,20.39,8.31,20.36,19,0,10.4-9.2,19.05-20,18.9-11.11-.16-20.1-8.57-20.23-18.92S69.75,72.94,80.94,72.92Z"/><path class="d" d="M96.39,49A16.29,16.29,0,0,1,80.16,65.32c-9.1,0-16.85-7.47-16.89-16.34a16.56,16.56,0,0,1,33.12,0Z"/><use width="36.15" height="39.55" transform="translate(45.56 148.05) scale(1.98)" xlink:href="#a"/></svg>