<svg xmlns="http://www.w3.org/2000/svg" viewBox="0 0 162.74 251.06"><defs><style>.a,.c{fill:#fefefe;}.a{stroke:#c5c6c8;stroke-miterlimit:10;}.b{fill:#cf2101;}</style></defs><path class="a" d="M80.21,250.56H11.94a11.28,11.28,0,0,1-10.87-8.41,14.65,14.65,0,0,1-.49-3.79c0-4,0-8.07,0-12.1C1,181.51.71,136.77.79,92,.82,72.89.87,53.76.7,34.62.63,26.55.79,18.48.51,10.42c-.16-4.58,2-7,6-8.85a11.8,11.8,0,0,1,5.12-1c15.25,0,30.51-.1,45.76,0,31.3.31,62.6.05,93.9.12a11.63,11.63,0,0,1,8.95,4.09c1.95,2.15,2.15,4.8,2,7.53,0,.6-.12,1.19-.12,1.79q0,38.47-.05,77c0,7.39.07,14.78-.06,22.17-.07,3.39-.17,6.78-.13,10.17.39,29.32,0,58.65.18,88,0,8.51,0,17,0,25.53a13.59,13.59,0,0,1-6.82,12.25,10.28,10.28,0,0,1-5.62,1.38H80.21Z"/><path class="b" d="M65.24,54.21a2.07,2.07,0,0,1-.19.34c-2.17,2.74-4.35,5.47-6.51,8.22-1.71,2.18-3.38,4.38-5.08,6.56-1.39,1.78-2.8,3.54-4.19,5.3-.62.79-1.18.62-1.73-.08-1.92-2.46-4-4.78-6-7.16-3.42-4-6.75-8.08-10.16-12.1-.53-.64-.29-1,.11-1.53,3-3.82,6-7.65,9-11.49,2.22-2.85,4.42-5.72,6.65-8.56a.88.88,0,0,1,1.51,0c2.74,3.28,5.47,6.59,8.21,9.89q3.82,4.59,7.68,9.17A2.53,2.53,0,0,1,65.24,54.21Z"/><path class="b" d="M50.33,177.17c.46,0,.72.23,1,.56,5,6.33,10.37,12.34,15.5,18.55a1.87,1.87,0,0,1,0,2.8q-6.69,8.52-13.31,17.1c-.58.75-1.11,1.54-1.7,2.28s-1,.78-1.62,0c-4.53-5.11-8.6-10.61-13.25-15.63-1-1.09-1.78-2.42-2.92-3.45-.79-.73-.36-1.63.22-2.37,1.09-1.37,2.23-2.71,3.28-4.12,3.76-5,7.92-9.71,11.48-14.87C49.32,177.63,49.62,177.05,50.33,177.17Z"/><path class="b" d="M66.2,125.91a2.74,2.74,0,0,1-.71,1.38c-4,5.35-8.32,10.4-12.19,15.83-.84,1.18-1.77,2.33-2.71,3.45-.56.68-1.18.7-1.66,0-1.22-1.67-2.65-3.17-4-4.77-1-1.22-2-2.46-3-3.67-3-3.57-6-7.14-9-10.67a1.48,1.48,0,0,1,0-2.2q5.88-7.41,11.69-14.87c1-1.32,2-2.69,3-4s1.88-1.32,2.89-.06c4.87,6.06,9.9,12,14.92,17.89A2.42,2.42,0,0,1,66.2,125.91Z"/><path class="b" d="M130.27,124.5a2.42,2.42,0,0,1-.62,1.39c-3.15,4.06-6.34,8.1-9.43,12.21-1.78,2.37-3.75,4.59-5.38,7.07-.74,1.14-1.28,1.13-2.07.05-2.15-3-4.75-5.55-7-8.4-2.78-3.48-5.66-6.89-8.51-10.32-.9-1.09-.84-1.69.06-2.85,4.64-6,9.52-11.76,13.92-17.92.44-.62,1.08-1,1.51-1.69.27-.42.69-.23,1,.2q7.88,9.48,15.79,18.92A2.28,2.28,0,0,1,130.27,124.5Z"/><path class="b" d="M81.68,140.66c.62.07.87.51,1.18.86q7.24,8.61,14.47,17.22c2,2.4,2,2.42.06,4.87-4.76,6.09-9.54,12.18-14.27,18.31-.68.88-.92.71-1.56-.06-4.88-5.9-9.84-11.74-14.75-17.61-2.42-2.89-2.34-2.17-.08-5.07,4.54-5.82,9.13-11.6,13.7-17.38C80.79,141.34,81.09,140.78,81.68,140.66Z"/><path class="b" d="M97.67,89.25a2.23,2.23,0,0,1-.57,1.29l-15,19.14c-.81,1-1.07,1-1.91,0q-7.87-9.33-15.75-18.66a1.71,1.71,0,0,1,0-2.46Q72.24,78.76,80,68.87c.6-.76.8-.18,1.1.17L94.7,85.14c.77.91,1.56,1.81,2.33,2.73A2.12,2.12,0,0,1,97.67,89.25Z"/><path class="b" d="M97.78,197.19a2,2,0,0,1,.59-1.57c3.71-4.34,7.2-8.85,10.61-13.42,1.45-1.93,3-3.78,4.51-5.66.57-.73,1.1-.77,1.73,0Q123,185.8,130.78,195a1.92,1.92,0,0,1,.05,2.83c-2.57,3.21-5.2,6.38-7.57,9.74-2.13,3-4.71,5.67-6.68,8.8a1.43,1.43,0,0,1-.12.21c-1.25,1.51-1.56,1.48-2.84,0-4.77-5.6-9.24-11.45-14.19-16.9A6.31,6.31,0,0,1,97.78,197.19Z"/><path class="b" d="M129,52.71a2.59,2.59,0,0,1-.86,1.7Q121,63.62,113.79,72.82c-1.15,1.47-1.18,1.52-2.42.06-5.19-6.12-10.34-12.27-15.51-18.4a1.65,1.65,0,0,1,0-2.36q7.65-9.67,15.26-19.38c.59-.75,1-.85,1.7,0,5.14,6.21,10.35,12.36,15.53,18.54A2.07,2.07,0,0,1,129,52.71Z"/><path class="b" d="M12.47,13.67a6.28,6.28,0,0,1,6.23,3.61c1.27,2.34.88,4.78-.42,7.07a6.83,6.83,0,0,1-.62.87c-.43.52-.31.87.2,1.29,2.93,2.45,4,5.94,2.31,9.39-1.42,3-4.31,4.91-8.54,4.37a7.71,7.71,0,0,1-6.56-6.66,7.5,7.5,0,0,1,2.51-6.55c.66-.59.48-.86,0-1.39-2.42-2.74-2.85-5.8-1.12-8.82A6.12,6.12,0,0,1,12.47,13.67Z"/><path class="b" d="M149.93,210.72a7.46,7.46,0,0,1,7.07,4.44,7.21,7.21,0,0,1-1.42,8.41c-.91,1-.89,1.54,0,2.5a6.9,6.9,0,0,1-.2,9.26,7.17,7.17,0,0,1-9.47.67,6.91,6.91,0,0,1-1.48-9.15c1.13-1.68,1.13-1.68-.33-3.16a7.52,7.52,0,0,1,2.75-12.44A7.73,7.73,0,0,1,149.93,210.72Z"/><path class="b" d="M6.75,52a1.78,1.78,0,0,1,.48-1.25c1.73-2.19,3.48-4.36,5.16-6.59.54-.73,1-.66,1.48-.07q2.82,3.33,5.6,6.68a1.47,1.47,0,0,1,0,2c-1.74,2.28-3.61,4.45-5.18,6.86-.42.63-.94.88-1.59.06-1.72-2.19-3.53-4.31-5.3-6.47A1.9,1.9,0,0,1,6.75,52Z"/><path class="b" d="M149.51,207.54l-6.34-7.47a1.38,1.38,0,0,1,0-1.94q2.59-3.3,5.16-6.61c.61-.79,1.17-.84,1.82-.05,1.78,2.16,3.57,4.3,5.36,6.45a1.3,1.3,0,0,1,.15,1.75C153.63,202.28,151.59,204.88,149.51,207.54Z"/><path class="c" d="M12.77,37.53a5,5,0,0,1-4.91-5.1,5,5,0,0,1,5.41-4.6,4.83,4.83,0,0,1,4.64,5.07A5,5,0,0,1,12.77,37.53Z"/><path class="c" d="M12.49,16A4.56,4.56,0,0,1,17,20.56a4.84,4.84,0,0,1-4.61,4.62,4.71,4.71,0,0,1-4.58-4.72A4.54,4.54,0,0,1,12.49,16Z"/><path class="c" d="M149.69,223.23a4.85,4.85,0,0,1-4.91-4.81,5.06,5.06,0,1,1,4.91,4.81Z"/><path class="c" d="M150.39,226.07a4.38,4.38,0,0,1,4.49,4.43,4.67,4.67,0,0,1-4.6,4.68,4.55,4.55,0,0,1-4.54-4.58A4.41,4.41,0,0,1,150.39,226.07Z"/></svg>