<svg xmlns="http://www.w3.org/2000/svg" xmlns:xlink="http://www.w3.org/1999/xlink" viewBox="0 0 162.74 251.06"><defs><style>.a{fill:#cf2101;}.b,.c{fill:#fefefe;}.b{stroke:#c5c6c8;stroke-miterlimit:10;}</style><symbol id="a" viewBox="0 0 40.83 50.32"><path class="a" d="M0,25.26A1.85,1.85,0,0,1,.57,24L19.32.8c.87-1.07,1.17-1.06,2,0L40,23.46c1.16,1.42,1.18,1.61,0,3.07Q30.91,37.91,21.84,49.29c-1.11,1.38-1.36,1.38-2.52,0Q10,38,.68,26.62A2.15,2.15,0,0,1,0,25.26Z"/></symbol></defs><path class="b" d="M80.21,250.56H11.94a11.28,11.28,0,0,1-10.87-8.41,14.65,14.65,0,0,1-.49-3.79c0-4,0-8.07,0-12.1C1,181.51.71,136.77.79,92,.82,72.89.87,53.76.7,34.62.63,26.55.79,18.48.51,10.42c-.16-4.58,2-7,6-8.85a11.8,11.8,0,0,1,5.12-1c15.25,0,30.51-.1,45.76,0,31.3.31,62.6.05,93.9.12a11.63,11.63,0,0,1,8.95,4.09c1.95,2.15,2.15,4.8,2,7.53,0,.6-.12,1.19-.12,1.79q0,38.47-.05,77c0,7.39.07,14.78-.06,22.17-.07,3.39-.17,6.78-.13,10.17.39,29.32,0,58.65.18,88,0,8.51,0,17,0,25.53a13.59,13.59,0,0,1-6.82,12.25,10.28,10.28,0,0,1-5.62,1.38H80.21Z"/><path class="a" d="M83.31,119c-14.91,0-26.72-8.69-29.51-20.19C52,91.36,54.32,84.65,58,78.35c1.84-3.11,5.41-5.95,5.59-9.07.16-2.88-3.33-5.87-4.9-9-6.54-13-3.31-25.13,8.4-32a25.59,25.59,0,0,1,33.8,8c5.52,8.33,4.25,16.74-.11,25.05-1.3,2.47-4.19,4.9-4,7.13s3.58,3.87,5.42,5.91c7.64,8.44,9.39,18.18,4.81,28.44C102.18,113.76,92.9,118.57,83.31,119Z"/><path class="c" d="M80.93,73.17c11.44,0,20.39,8.31,20.37,19,0,10.4-9.21,19.06-20,18.9-11.11-.16-20.1-8.56-20.23-18.91C60.88,81.62,69.75,73.19,80.93,73.17Z"/><path class="c" d="M96.38,49.25A16.29,16.29,0,0,1,80.16,65.58c-9.1,0-16.85-7.48-16.89-16.34a16.56,16.56,0,0,1,33.11,0Z"/><use width="40.83" height="50.32" transform="translate(49.56 148.27) scale(1.56)" xlink:href="#a"/></svg>