<svg xmlns="http://www.w3.org/2000/svg" viewBox="0 0 162.74 251.15"><defs><style>.a,.c{fill:#fefefe;}.a{stroke:#c5c6c8;stroke-miterlimit:10;}.b{fill:#cf2101;}</style></defs><path class="a" d="M80.22,250.55c-22.84,0-45.68-.13-68.52.1-5.39,0-10.48-5.39-10.88-9.79a133.83,133.83,0,0,1-.11-16.27c0-.4,0-.8,0-1.2q0-66.16.05-132.32C.8,72.29.87,53.52.7,34.74.63,26.64.8,18.52.51,10.42.35,5.84,2.62,3.32,6.68,1.48a11.9,11.9,0,0,1,4.9-.95c15.25,0,30.51-.1,45.76,0,31.3.31,62.6.05,93.9.12a11.6,11.6,0,0,1,8.95,4.09c1.95,2.15,2.15,4.8,2,7.53,0,.6-.12,1.19-.12,1.79q0,49.32-.07,98.64t0,98.61c0,8.51,0,17,0,25.53A13.54,13.54,0,0,1,155.39,249a10.4,10.4,0,0,1-5.82,1.51H80.22Z"/><path class="b" d="M97.35,172.9a22.33,22.33,0,0,1-.35,2.56c-.71,3.18-2.15,5.78-5.65,6.54a8.93,8.93,0,0,1-9.72-3.53c-.51-.68-.75-1.92-1.51-2s-1.12,1.21-1.69,1.87c-3.57,4.07-10.24,4.61-13.37.89-2.36-2.81-2.55-6.21-1.85-9.65.87-4.26,3.31-7.73,5.85-11.13a125.86,125.86,0,0,1,10.73-12.23c.6-.63,1.2-1.24,2-.25,5.27,6.11,10.37,12.34,13.9,19.68A16,16,0,0,1,97.35,172.9Z"/><path class="b" d="M100.22,80.2c.06,3.31-1.57,6.7-3.66,9.91a107.71,107.71,0,0,1-13.3,16c-.79.82-1.45.74-2.18-.13A116.93,116.93,0,0,1,69.14,89.82c-2.17-3.7-3.74-7.56-3.21-12,.49-4.1,3-7.15,6.71-7.91a9.28,9.28,0,0,1,9.45,4.7c.81,1.47,1,1.49,1.94.11a9.62,9.62,0,0,1,11.52-3.6C98.57,72.28,100.21,75.25,100.22,80.2Z"/><path class="b" d="M63.85,209.09c-.06.71-.08,1.43-.2,2.14-.72,4.32-2.64,6.53-6.3,7.3a9.39,9.39,0,0,1-9.56-4.07c-1.16-1.79-1.16-1.79-2.48-.11a9.77,9.77,0,0,1-11,3.24c-3.13-1.08-4.27-3.62-4.8-6.6-.7-4,.57-7.49,2.5-10.84,3.13-5.43,7.31-10.05,11.52-14.64.95-1,1.92-2,2.91-3a1.17,1.17,0,0,1,2,0c5,6,10.06,12,13.56,19.07A15.8,15.8,0,0,1,63.85,209.09Z"/><path class="b" d="M66.66,116.17c.08,3.74-1.39,7-3.35,10a102.36,102.36,0,0,1-13.92,16.54c-.39.39-.78.79-1.35.12-5.17-6-10.31-12.08-13.85-19.26-1.65-3.35-2.56-6.85-1.57-10.64s3-6,6.31-6.47a9.41,9.41,0,0,1,9.47,4.25c.12.21.23.42.34.63.5.93.92.94,1.56,0,2.5-3.47,5.81-5.12,10.15-4.24,3.85.79,5.89,3.3,6.21,7.67C66.69,115.29,66.66,115.73,66.66,116.17Z"/><path class="b" d="M34.54,41.21a12,12,0,0,1,.85-4.74,6.87,6.87,0,0,1,5.5-4.77,9.06,9.06,0,0,1,9,3.13,6.31,6.31,0,0,1,1,1.47c.62,1.46,1.15,1,1.84,0a9.71,9.71,0,0,1,10.85-3.85c3.33,1,5.31,3.95,5.44,8s-1.31,7.41-3.35,10.67C61.85,57.29,56.88,62.48,52,67.71a1.12,1.12,0,0,1-1.86,0C44.72,61.35,39.29,55,35.84,47.29A13.39,13.39,0,0,1,34.54,41.21Z"/><path class="b" d="M133.73,43.19A17.67,17.67,0,0,1,131,52c-4,6.68-9.24,12.4-14.68,17.92-.44.44-.84.55-1.28,0-5.78-6.86-11.77-13.59-15-22.2a13.12,13.12,0,0,1-.44-7.65c1.5-6.35,8.15-8.76,13.39-4.83a8.61,8.61,0,0,1,2.67,3.17c.52,1.08,1,1,1.63.05a9.61,9.61,0,0,1,10.84-4.14,6.73,6.73,0,0,1,4.7,4.39A14.77,14.77,0,0,1,133.73,43.19Z"/><path class="b" d="M114.22,114.36c.69-.85,1.32-1.73,2.06-2.51a9.46,9.46,0,0,1,10.22-2.35c3.43,1.35,4.56,4.25,4.82,7.61.29,3.91-1.11,7.36-3.11,10.61-3.81,6.19-8.79,11.43-13.72,16.71-.8.86-1.41.93-2.26-.09-5-6-10.12-12-13.52-19.21a15.33,15.33,0,0,1-1.33-10.35c.84-3.6,3.26-6,6.46-6.36a9.32,9.32,0,0,1,9.27,4.42A3.92,3.92,0,0,0,114.22,114.36Z"/><path class="b" d="M94.14,211.31a18,18,0,0,1,3.15-10.07,90.93,90.93,0,0,1,11.88-14.66c3-3.07,3-3.06,5.75.18,4.61,5.46,9,11.07,12,17.62a14,14,0,0,1,.32,12.05c-2.25,5-9.5,5.81-13.53,1.57a12.19,12.19,0,0,1-1.77-2.4c-.61-1.09-1-.79-1.53,0a9.26,9.26,0,0,1-6.2,4.3c-5.63,1.13-9.71-2-10-7.75Z"/><path class="b" d="M16.63,37.49a7.55,7.55,0,0,1-6.85-4.66,7,7,0,0,1,1.56-8.25c1.06-1.08.88-1.83.11-2.95A6.46,6.46,0,0,1,11.19,14a6.76,6.76,0,0,1,7-3.25,6.75,6.75,0,0,1,5.95,5.15,6.44,6.44,0,0,1-1.5,6.24c-.73.84-.81,1.27.07,2.09a7.42,7.42,0,0,1,2,8.4C23.53,35.53,20.56,37.47,16.63,37.49Z"/><path class="b" d="M145.53,240.48a6.83,6.83,0,0,1-6.35-4.1,6.44,6.44,0,0,1,1.1-7.34c.91-1,.31-1.72-.38-2.45-2.1-2.21-2.93-4.75-1.82-7.68a7.58,7.58,0,0,1,7.12-5.13,7.47,7.47,0,0,1,7.63,4.31c1.53,3,.94,5.88-1.23,8.43a4.28,4.28,0,0,1-.4.45c-.86.72-.94,1.29-.12,2.29a6.57,6.57,0,0,1,.77,7.41C150.61,239.25,148.36,240.37,145.53,240.48Z"/><path class="b" d="M9.14,44.35c0-2.06.88-3.68,2.33-4.23a4.16,4.16,0,0,1,5,1.33c.71.83,1.15.65,1.79,0a4.17,4.17,0,0,1,4.91-1,4.13,4.13,0,0,1,2.05,4.35,11.23,11.23,0,0,1-2.3,5.31,52.27,52.27,0,0,1-5.15,6c-.52.55-1.06.78-1.62.13-2.54-3-5.08-5.94-6.52-9.66A5.77,5.77,0,0,1,9.14,44.35Z"/><path class="b" d="M148.94,211.52a3.74,3.74,0,0,1-2.75-1.62c-.66-.92-1.1-.82-1.78-.07a4,4,0,0,1-2.71,1.37c-2.87.25-4.68-1.86-4.26-4.94.3-2.27,1.58-4.06,2.87-5.83a49.86,49.86,0,0,1,4.46-5.16c.62-.64,1.21-.76,1.82,0a38.21,38.21,0,0,1,6,8.87,5.82,5.82,0,0,1-.15,5.73A3.63,3.63,0,0,1,148.94,211.52Z"/><path class="c" d="M17.09,25a5,5,0,0,1,5.22,4.79,5.07,5.07,0,0,1-5.2,4.83A5,5,0,0,1,12,29.72,4.84,4.84,0,0,1,17.09,25Z"/><path class="c" d="M17.15,22.14a4.56,4.56,0,0,1-4.62-4.6,4.69,4.69,0,0,1,9.38.15A4.56,4.56,0,0,1,17.15,22.14Z"/><path class="c" d="M150.77,221.46a5.12,5.12,0,0,1-5.1,4.84,5.31,5.31,0,0,1-5.16-4.84,5.24,5.24,0,0,1,5.29-4.94A5,5,0,0,1,150.77,221.46Z"/><path class="c" d="M145.6,229a4.73,4.73,0,0,1,4.65,4.63,4.65,4.65,0,0,1-4.62,4.51,4.57,4.57,0,1,1,0-9.14Z"/></svg>