<svg xmlns="http://www.w3.org/2000/svg" xmlns:xlink="http://www.w3.org/1999/xlink" viewBox="0 0 162.74 251.15"><defs><style>.a{fill:#cb3329;}.b,.d{fill:#fefefe;}.b{stroke:#c5c6c8;stroke-miterlimit:10;}.c{fill:#cf2101;}</style><symbol id="a" viewBox="0 0 41.85 45.12"><path class="a" d="M0,11.37c.12-3,.81-6,3.08-8.33,3.86-4,10-4.06,14.31-.1A12.51,12.51,0,0,1,19.83,6c.24.41.38,1,.91,1s.7-.59.93-1A11.11,11.11,0,0,1,29.16.37c6.11-1.19,11.17.93,12.41,8.14a18.54,18.54,0,0,1-1.22,10.43C37.86,25,34,30.05,30,35.12c-2.48,3.17-5.14,6.21-7.83,9.21-.92,1-1.24,1.05-2.11.1C14.33,38.2,8.78,31.81,4.31,24.58,2,20.85.1,17,0,12.44Z"/></symbol></defs><path class="b" d="M80.22,250.55c-22.84,0-45.68-.13-68.52.1-5.39,0-10.48-5.39-10.88-9.79a133.83,133.83,0,0,1-.11-16.27c0-.4,0-.8,0-1.2q0-66.16.05-132.32C.8,72.29.87,53.52.7,34.74.63,26.64.8,18.52.51,10.42.35,5.84,2.62,3.32,6.68,1.48a11.9,11.9,0,0,1,4.9-.95c15.25,0,30.51-.1,45.76,0,31.3.31,62.6.05,93.9.12a11.6,11.6,0,0,1,8.95,4.09c1.95,2.15,2.15,4.8,2,7.53,0,.6-.12,1.19-.12,1.79q0,49.32-.07,98.64t0,98.61c0,8.51,0,17,0,25.53A13.54,13.54,0,0,1,155.39,249a10.4,10.4,0,0,1-5.82,1.51H80.22Z"/><use width="41.85" height="45.12" transform="translate(45.62 149.39) scale(1.71)" xlink:href="#a"/><path class="c" d="M84.37,117.18c-14.9,0-26.72-8.69-29.5-20.18-1.8-7.43.52-14.13,4.23-20.43,1.83-3.12,5.4-6,5.58-9.07.17-2.89-3.33-5.88-4.89-9-6.55-13-3.31-25.14,8.39-32a25.6,25.6,0,0,1,33.81,8c5.52,8.33,4.24,16.74-.12,25-1.29,2.47-4.19,4.9-4,7.13s3.57,3.88,5.41,5.91C111,81,112.69,90.78,108.12,101A26.27,26.27,0,0,1,84.37,117.18Z"/><path class="d" d="M82,71.39c11.44,0,20.39,8.31,20.36,19,0,10.4-9.2,19.05-20,18.9-11.11-.16-20.1-8.57-20.23-18.92S70.81,71.41,82,71.39Z"/><path class="d" d="M97.45,47.47A16.29,16.29,0,0,1,81.22,63.79c-9.1,0-16.85-7.47-16.89-16.34a16.56,16.56,0,0,1,33.12,0Z"/></svg>