<svg xmlns="http://www.w3.org/2000/svg" viewBox="0 0 162.79 251.12"><defs><style>.a,.c{fill:#fefefe;}.a{stroke:#c5c6c8;stroke-miterlimit:10;}.b{fill:#020202;}</style></defs><path class="a" d="M80.35,250.57c-22.84,0-45.68,0-68.52.05-4.39,0-7.15-2.2-9.42-5.49a11.42,11.42,0,0,1-1.82-6.58Q.52,232.27.58,226c.45-44.7.12-89.4.21-134.1C.83,72.78.9,53.68.71,34.58c-.08-8.06.1-16.13-.2-24.19C.34,5.8,2.74,3.28,6.59,1.52a12.3,12.3,0,0,1,5.12-1c15.17,0,30.35-.12,45.52,0,31.45.35,62.91,0,94.37.17a10.66,10.66,0,0,1,9.85,6,9.44,9.44,0,0,1,.76,5.38c-.08.83-.14,1.66-.14,2.5q0,49.38-.09,98.75c0,3.35-.2,6.7-.14,10,.43,25.84.06,51.68.18,77.52.06,12.07,0,24.13,0,36.2a13.28,13.28,0,0,1-9,12.91,9.75,9.75,0,0,1-3.18.45H80.35Z"/><path class="b" d="M48.07,193.92c.47-3.95-.93-7.41-2.14-10.9h6.21c.68,0,.87.24.59.92A23.89,23.89,0,0,0,51,191.1a11.77,11.77,0,0,0,.2,3l1.34-2c2-3,4.48-4.15,7.47-3.52s5.08,2.87,5.76,6.29a11.52,11.52,0,0,1-2.36,9.66c-4.27,5.52-8.61,11-12.93,16.48-.91,1.16-.94,1.14-1.82,0Q42.25,213,35.92,205a11.85,11.85,0,0,1-2.32-11.33,6.84,6.84,0,0,1,5.76-5.08A6.5,6.5,0,0,1,46,191.42,11.39,11.39,0,0,0,48.07,193.92Z"/><path class="b" d="M49.32,105.57c4.45,5.64,8.76,11.13,13.11,16.58a13.9,13.9,0,0,1,3.17,6.21,12.4,12.4,0,0,1-.46,6.36c-1.57,4.53-8.27,6.73-11.9,2.07-.72-.93-1.4-1.91-2.17-3a4.64,4.64,0,0,0-.33,3.39,56.74,56.74,0,0,0,1.92,6.89c.22.69.19.91-.63.86-1.63-.11-3.27-.13-4.91-.1-.95,0-1.23-.15-.83-1.17a23.67,23.67,0,0,0,2-8.82c0-.24,0-.48,0-.72a.43.43,0,0,0-.27-.48c-.22-.06-.34.15-.45.32-.4.64-.8,1.28-1.22,1.91-1.72,2.57-4,4-7.19,3.39A7.36,7.36,0,0,1,33.16,133a11.57,11.57,0,0,1,2.33-9.66C40.12,117.53,44.64,111.6,49.32,105.57Z"/><path class="b" d="M50.57,57c-.73,3.84,1.36,7.21,2,10.91a53.85,53.85,0,0,0-6.23.06c-.86.06-.51-.44-.37-.84a33.86,33.86,0,0,0,1.89-6.77c.13-.95.17-1.91.23-2.86,0-.28,0-.61-.3-.72s-.42.27-.56.47c-.38.56-.73,1.14-1.12,1.7-2,2.88-4.57,4.08-7.41,3.42a7.72,7.72,0,0,1-5.81-6.57,11.65,11.65,0,0,1,2.5-9.5c4.24-5.3,8.36-10.69,12.54-16,1.14-1.46,1.22-1.48,2.41,0,4,5,7.91,10,11.9,15a14.18,14.18,0,0,1,3.1,6,10.62,10.62,0,0,1-.73,7.23,6.85,6.85,0,0,1-11.76,1.14c-.69-.88-1.31-1.8-2-2.7Z"/><path class="b" d="M82.37,95.16a6.53,6.53,0,0,0-.24,4.12,41.78,41.78,0,0,0,1.86,6.3c.17.49.35.82-.42.81-2.07,0-4.14,0-6.39,0,1.28-3.72,2.59-7.2,1.86-11.21-.67,1-1.23,1.84-1.81,2.67a6.42,6.42,0,0,1-6.52,2.89,6.71,6.71,0,0,1-5.58-4.32,11.07,11.07,0,0,1,.64-9.91c1.39-2.58,3.41-4.72,5.19-7,3-3.88,6.07-7.72,9.11-11.57.25-.31.52-.6.76-.86,3.72,5.22,7.87,10,11.73,15.11.92,1.2,1.89,2.38,2.7,3.65a11.16,11.16,0,0,1,1.12,10.3,6.73,6.73,0,0,1-5.64,4.58A6.41,6.41,0,0,1,84.27,98C83.63,97.1,83.07,96.19,82.37,95.16Z"/><path class="b" d="M79.2,155.7c.79-2,.26-3.75-.18-5.47s-.93-3.29-1.45-4.92c-.2-.63-.23-.95.6-.91,1.83.1,3.66.14,5.49.17.86,0,.49.47.35.85a35.49,35.49,0,0,0-1.87,6.78c-.12.91-.17,1.83-.23,2.74,0,.26-.09.61.3.68s.38-.22.51-.41c.5-.72,1-1.47,1.48-2.17,1.69-2.21,3.83-3.55,6.7-3a7,7,0,0,1,5.9,5.56,11.51,11.51,0,0,1-2.06,10.28c-4.41,5.57-8.73,11.2-13,16.84-.57.75-.87.77-1.47.08-2.88-3.32-5.46-6.87-8.23-10.27-1.56-1.92-3.08-3.88-4.61-5.82a12.22,12.22,0,0,1-2.59-11.1,7,7,0,0,1,5.6-5.44c3-.65,5.38.52,7.12,3C78.05,154,78.56,154.75,79.2,155.7Z"/><path class="b" d="M108.54,183a37.56,37.56,0,0,0,7.12-.27c-1.14,3.7-2.55,7.2-1.87,11.33.54-.84.94-1.48,1.37-2.11a7,7,0,0,1,13.07,2.41,11.69,11.69,0,0,1-2.23,10c-4.27,5.42-8.5,10.87-12.74,16.31-1,1.33-1.18,1.35-2.24,0q-4.55-5.71-9-11.46-1.66-2.11-3.32-4.24c-2.79-3.64-3.78-7.63-2.07-12,2-5.22,8.1-6.24,11.77-2,.65.75,1.13,1.63,1.73,2.43.19.26.27.79.74.61s.18-.57.17-.86a26.43,26.43,0,0,0-2-8.94C108.88,183.82,108.74,183.45,108.54,183Z"/><path class="b" d="M113.36,133.17c-.36,4.25,1,7.88,2.2,11.57h-6.43c-.78,0-.39-.49-.28-.81a34.35,34.35,0,0,0,1.81-6.43,20.09,20.09,0,0,0,.28-4,7.17,7.17,0,0,0-2.12,2.59c-1.5,2.2-3.51,3.52-6.24,3.26a6.92,6.92,0,0,1-6-4.41,10.25,10.25,0,0,1-.81-5.27,12.66,12.66,0,0,1,2.55-6.47Q104.63,115,111,106.82c1-1.25,1-1.26,2,0,4.27,5.37,8.57,10.72,12.74,16.17a11.3,11.3,0,0,1,1.31,12.69,6.57,6.57,0,0,1-10.67,1.6A44.43,44.43,0,0,1,113.36,133.17Z"/><path class="b" d="M113.39,56.55a10.68,10.68,0,0,0,.35,5.8c.5,1.83,1.09,3.64,1.63,5.42h-6.91c1.23-3.78,2.62-7.38,2-11.36-.71,1.08-1.37,2.2-2.14,3.23-3.64,4.77-10.34,2.71-12-1.77-1.41-3.91-1.14-7.7,1.45-11.11,3.5-4.6,7.06-9.15,10.6-13.73L111,29.64c.58-.75,1-1,1.74,0,4.12,5.38,8.34,10.69,12.53,16,2.68,3.42,3.73,7.19,2.46,11.44a7.09,7.09,0,0,1-5.85,5.18c-2.72.5-4.8-.72-6.42-2.83C114.8,58.55,114.15,57.61,113.39,56.55Z"/><path class="b" d="M12.93,39.66c-4.24,0-7.6-2.47-8.4-5.74a7.62,7.62,0,0,1,1.21-5.81c.52-.89,1.54-1.7,1.59-2.58s-1-1.68-1.4-2.56C4.07,19.28,5,15.82,8.32,13.88a7.29,7.29,0,0,1,9.62,2.26c1.57,2.37,1.2,4.76,0,7.13-.36.7-1.19,1.39-1.13,2s1,1.11,1.54,1.69a7,7,0,0,1,1.37,8.09A7.48,7.48,0,0,1,12.93,39.66Z"/><path class="b" d="M148.53,211.22c4.56,0,8.15,3.42,7.95,7.47a9.38,9.38,0,0,1-2.63,5.76c-.51.58-.45.92,0,1.51,1.44,2.08,2.49,4.29,1.8,6.93a7,7,0,0,1-7.19,5,6.74,6.74,0,0,1-6.41-6.13,8.41,8.41,0,0,1,1.62-5.28c.56-.83.5-1.26-.26-1.92a7.47,7.47,0,0,1,1.82-12.64A7,7,0,0,1,148.53,211.22Z"/><path class="b" d="M13.33,54.51c.21,1.21.33,2.24.56,3.24.15.64,0,.81-.65.85-1.75.14-1.75.17-1.43-1.51.08-.43.2-.85.24-1.29s.37-.75,0-1-.58.27-.87.44A12.79,12.79,0,0,1,10,56a2.82,2.82,0,0,1-4.1-2.1,5.32,5.32,0,0,1,.69-4c1.77-2.6,3.78-5,5.69-7.52.34-.44.54-.44.87,0,2,2.6,4,5.15,5.93,7.8,1.67,2.32.6,5.53-1.91,6.08a2.89,2.89,0,0,1-2.62-.82A3.45,3.45,0,0,0,13.33,54.51Z"/><path class="b" d="M147.32,196a24.65,24.65,0,0,0-.43-2.71c-.22-.82.09-1,.79-.89a5,5,0,0,0,.95.07c.59,0,.63.21.51.71-.22.85-.36,1.71-.53,2.57-.07.35-.19.77.24.94s.46-.33.6-.56a2.79,2.79,0,0,1,5,.13,3.94,3.94,0,0,1-.09,4.41c-2,2.86-4.14,5.66-6.32,8.62a90.81,90.81,0,0,1-6.45-8.7,4.81,4.81,0,0,1-.23-3.95,2.82,2.82,0,0,1,4.4-1.38c.46.29.76.84,1.38.88C147.38,196.32,147.23,196,147.32,196Z"/><path class="c" d="M12.25,26.63a5.4,5.4,0,1,1,.09,10.77A5.65,5.65,0,0,1,6.59,32,5.48,5.48,0,0,1,12.25,26.63Z"/><path class="c" d="M16.65,19.83A4.64,4.64,0,0,1,12,24.47a4.79,4.79,0,0,1-4.8-4.65,4.71,4.71,0,0,1,9.42,0Z"/><path class="c" d="M148.67,213.42a5.52,5.52,0,0,1,5.57,5.5,5.62,5.62,0,0,1-5.69,5.29A5.53,5.53,0,0,1,143,218.8,5.47,5.47,0,0,1,148.67,213.42Z"/><path class="c" d="M144.22,230.93a4.7,4.7,0,1,1,4.65,4.65A4.7,4.7,0,0,1,144.22,230.93Z"/><path class="c" d="M12.19,54.52l.09.08a1,1,0,0,1-.15.07s-.05-.05-.08-.07Z"/><path class="c" d="M147.32,196l0,.3-.14-.16A1.07,1.07,0,0,1,147.32,196Z"/></svg>