<svg xmlns="http://www.w3.org/2000/svg" xmlns:xlink="http://www.w3.org/1999/xlink" viewBox="0 0 162.79 251.12"><defs><style>.a{fill:#010101;}.b,.d{fill:#fefefe;}.b{stroke:#c5c6c8;stroke-miterlimit:10;}.c{fill:#020202;}</style><symbol id="a" viewBox="0 0 32.96 38.86"><path class="a" d="M17.94,27.45c-.62,2.7,0,5,.66,7.29.32,1.15.69,2.28,1.06,3.42.17.5.07.7-.51.69-1.8,0-3.59,0-5.39,0-.77,0-.82-.18-.6-.87a47.6,47.6,0,0,0,2.07-7.59,12,12,0,0,0,.07-2.94,3.58,3.58,0,0,0-1.51,1.65C11.48,32.76,9,34,5.56,33S.19,29.18,0,25.23a12.56,12.56,0,0,1,3.07-8.69C7.39,11.2,11.72,5.88,16,.52c.55-.7.85-.68,1.37,0,4.4,5.68,8.88,11.29,13.2,17a11.67,11.67,0,0,1,1.8,10.8,7,7,0,0,1-5.93,5.06c-2.74.49-4.79-.74-6.38-2.87C19.38,29.6,18.76,28.63,17.94,27.45Z"/></symbol></defs><path class="b" d="M80.35,250.57c-22.84,0-45.68,0-68.52.05-4.39,0-7.15-2.2-9.42-5.49a11.42,11.42,0,0,1-1.82-6.58Q.52,232.27.58,226c.45-44.7.12-89.4.21-134.1C.83,72.78.9,53.68.71,34.58c-.08-8.06.1-16.13-.2-24.19C.34,5.8,2.74,3.28,6.59,1.52a12.3,12.3,0,0,1,5.12-1c15.17,0,30.35-.12,45.52,0,31.45.35,62.91,0,94.37.17a10.66,10.66,0,0,1,9.85,6,9.44,9.44,0,0,1,.76,5.38c-.08.83-.14,1.66-.14,2.5q0,49.38-.09,98.75c0,3.35-.2,6.7-.14,10,.43,25.84.06,51.68.18,77.52.06,12.07,0,24.13,0,36.2a13.28,13.28,0,0,1-9,12.91,9.75,9.75,0,0,1-3.18.45H80.35Z"/><path class="c" d="M83.33,118c-14.9,0-26.72-8.68-29.5-20.18-1.8-7.43.52-14.13,4.23-20.43,1.83-3.11,5.4-6,5.58-9.07.17-2.88-3.33-5.88-4.89-9-6.55-13-3.31-25.13,8.39-32a25.6,25.6,0,0,1,33.81,8c5.52,8.33,4.24,16.74-.12,25-1.29,2.48-4.19,4.91-4,7.14s3.57,3.87,5.41,5.91c7.65,8.44,9.39,18.18,4.82,28.44C102.2,112.83,92.92,117.63,83.33,118Z"/><path class="d" d="M81,72.24c11.44,0,20.39,8.31,20.36,19,0,10.4-9.2,19-20,18.9-11.11-.16-20.1-8.57-20.23-18.91C60.91,80.69,69.77,72.26,81,72.24Z"/><path class="d" d="M96.41,48.32A16.29,16.29,0,0,1,80.18,64.64c-9.1,0-16.85-7.47-16.89-16.33a16.56,16.56,0,0,1,33.12,0Z"/><use width="32.96" height="38.86" transform="translate(47.08 146.15) scale(2.08)" xlink:href="#a"/></svg>