<svg xmlns="http://www.w3.org/2000/svg" viewBox="0 0 162.77 251.13"><defs><style>.a,.d{fill:#fefefe;}.a{stroke:#c5c6c8;stroke-miterlimit:10;}.b{fill:#1d1d14;}.c{fill:#c1c2c4;}</style></defs><path class="a" d="M80.31,250.57c-22.8,0-45.6-.06-68.4.06-4.44,0-7.25-2.17-9.53-5.51a11.54,11.54,0,0,1-1.81-6.59q-.06-6.3,0-12.59C1,181.05.68,136.15.77,91.25c0-18.9.11-37.79-.08-56.69C.61,26.38.73,18.19.5,10A8,8,0,0,1,4.28,2.76a12.06,12.06,0,0,1,7-2.2c15.41,0,30.82-.14,46.23,0,31.34.35,62.68,0,94,.16a10.77,10.77,0,0,1,9.91,6,9.38,9.38,0,0,1,.8,5.48c-.07.8-.14,1.59-.14,2.38Q162,64,162,113.46c0,3-.19,5.9-.14,8.85.43,29.79.06,59.59.19,89.38,0,8.43,0,16.86,0,25.29a13.11,13.11,0,0,1-3.17,9.16c-2.42,2.66-5.27,4.43-9,4.43q-34.74,0-69.47,0Z"/><path class="b" d="M47.77,107.07a11.4,11.4,0,0,0,1,6.35c.6,1.45,1.16,2.91,1.7,4.38.28.75.28,1.31-.83,1.16a31,31,0,0,0-6.81,0c-1.18.11-1.37-.2-.89-1.26a55,55,0,0,0,2.94-8.24,3.64,3.64,0,0,0-.43-2.92,15.25,15.25,0,0,1-2.67,4.31c-1.75,2.07-5.5,2.67-8,1.6a9.4,9.4,0,0,1-4.57-12.22c1.85-3.85,4.92-5.86,9.61-4.6.54.14,1.06.35,1.58.53.26.09.56.32.77,0s-.16-.55-.33-.77c-.7-.87-1.51-1.66-2.12-2.59A8.51,8.51,0,0,1,39,82.53a7.72,7.72,0,0,1,5.41-2.92c3.16-.38,6.21.08,8.71,2.32,1.9,1.7,3.25,6,1.87,8.8a14,14,0,0,1-2.61,4,2.48,2.48,0,0,0-.85,1.51,10.45,10.45,0,0,1,3.93-1c5,.13,6.81,1.54,8.24,6.33a8.79,8.79,0,0,1-5,10.84,6.27,6.27,0,0,1-7-.72A15.73,15.73,0,0,1,47.77,107.07Z"/><path class="b" d="M44.85,192.7a21.51,21.51,0,0,0-1.53-7.59c-.49-1.47-1.12-2.89-1.71-4.33-.27-.66-.13-.81.6-.74a36.6,36.6,0,0,0,7.4,0c1-.11.89.31.65.93-.46,1.23-.86,2.49-1.42,3.67-1,2-1.15,4.21-1.75,6.31a1.88,1.88,0,0,0,0,.71c0,.27,0,.67.28.74s.5-.29.64-.58a12.68,12.68,0,0,1,1.92-3.13c3.7-4.2,8.72-3.33,11.92.59a9.67,9.67,0,0,1-.41,12.15c-2.18,2.4-6,3.06-9.42,1.66-.28-.12-.58-.66-.89-.2s.28.49.46.72a18.23,18.23,0,0,1,2.83,4.13,8.3,8.3,0,0,1-6.7,11.64,11.78,11.78,0,0,1-6.1-.73A8.3,8.3,0,0,1,37.79,207a12.23,12.23,0,0,1,2.58-3.28c.25-.22.65-.52.43-.89s-.65-.05-.94.07c-3,1.24-5.85,1.43-8.44-.76a8.64,8.64,0,0,1-3-9.26c1.2-4.78,5-7.57,9.33-6.83a7.35,7.35,0,0,1,5.24,4A7.31,7.31,0,0,0,44.85,192.7Z"/><path class="b" d="M40.43,156.21a11,11,0,0,1-4.83.55c-4.2-.69-5.9-2.38-7-6.48-1-3.81.32-7.06,3.23-9.55,3.83-3.27,9.36-1.65,11.81,3.3.26.52.3,1.56,1.08,1.31.57-.18.32-1.15.26-1.77a8.89,8.89,0,0,0-.82-3c-.94-2-1.54-4.18-2.31-6.28-.33-.9,0-1.37.88-1.23a36.15,36.15,0,0,0,7.13.06c.78,0,.93.27.62,1a38.2,38.2,0,0,0-2.89,8,8.61,8.61,0,0,0-.12,3.48A2.39,2.39,0,0,0,48.64,144c1.06-5,8.73-6.73,12.48-2.69a9.75,9.75,0,0,1,.3,13.45,5.73,5.73,0,0,1-4.12,1.91,10.13,10.13,0,0,1-4.93-.61,2.19,2.19,0,0,0-1.44-.13,33.21,33.21,0,0,1,2.72,3.2c3.66,5.07,1.12,12.2-5.91,13.25A10.26,10.26,0,0,1,40.62,171a8.09,8.09,0,0,1-2.23-11.61c.7-1,1.47-2,2.2-3C40.7,156.21,40.47,156.28,40.43,156.21Z"/><path class="b" d="M79.64,133.58c-.8,1.13-1.41,2.1-2.11,3-4.31,5.44-10.14,3.37-12.74-.83-1.59-2.56-2.23-5.37-.8-8.39,2.37-5,5.93-6.53,11.16-4.52l.9.35a2.35,2.35,0,0,0-.86-1.54,12.41,12.41,0,0,1-2.69-4.06,7.86,7.86,0,0,1,1-7.86,9.24,9.24,0,0,1,8.89-3.36c2.49.35,4.89,1.17,6.37,3.33a8.56,8.56,0,0,1,1,8,10.85,10.85,0,0,1-2.3,3.6L86,122.87c.55.36.92.09,1.32-.05,3.09-1.13,6.11-1.38,8.7,1.12a8.91,8.91,0,0,1,2.42,9.55,8.2,8.2,0,0,1-7,6.25c-3,.46-5.29-1.06-7-3.46-.53-.75-.93-1.58-1.4-2.37-.13-.21-.17-.62-.55-.49s-.32.42-.31.71a17.41,17.41,0,0,0,1.15,5.48c.62,1.72,1.32,3.41,2,5.1.32.78.25,1.25-.73,1.06a32.42,32.42,0,0,0-6.75-.14c-1.45,0-1.52,0-.94-1.57.84-2.31,2.07-4.48,2.52-6.94A11.64,11.64,0,0,0,79.64,133.58Z"/><path class="b" d="M111.43,96.34a20.92,20.92,0,0,1-4.16-5.77c-1-2.08.24-6.77,1.8-8.21a10.58,10.58,0,0,1,8.44-2.72,8.35,8.35,0,0,1,7.35,5.89,9,9,0,0,1-2.79,9.34c-.17.16-.37.3-.53.48s-.39.54-.17.85.53.07.76,0a9.8,9.8,0,0,1,4.3-.84,8.1,8.1,0,0,1,7.26,6.84,9.67,9.67,0,0,1-3.46,9.32,7.24,7.24,0,0,1-10.1-.86,18.67,18.67,0,0,1-2.58-3.86,11.4,11.4,0,0,0,.26,4.55,24.09,24.09,0,0,0,2,5.35c.12.24.35.49.35.74,0,.53.7,1,.15,1.55s-1,.07-1.56,0a24.18,24.18,0,0,0-6.07.06c-.4.08-.83.2-1.1-.2s-.05-.74.11-1.12a36.57,36.57,0,0,0,3-8.51,6.48,6.48,0,0,0-.21-2.69c-.45.19-.45.6-.59.9a12.12,12.12,0,0,1-2.79,3.86c-2.2,2-4.58,2.14-7.4,1.24-4.29-1.38-6.2-7.57-5.12-10.91,1.54-4.77,4.21-6.91,9.8-5.86Z"/><path class="b" d="M110.26,203.23a20.4,20.4,0,0,1-4.12.62c-4.83.25-7.7-3.43-8.08-7.63a9.8,9.8,0,0,1,3.31-8.47,7.54,7.54,0,0,1,9-.23,10.94,10.94,0,0,1,3.15,4.16c.16.37.33.89.74.83s.31-.65.3-1a16.1,16.1,0,0,0-2.28-7.72c-.58-1-.54-2-1-3-.24-.58.36-.65.73-.62a46.28,46.28,0,0,0,7.63.07c.8-.05.54.42.39.84a62.6,62.6,0,0,0-2.74,7.64,13.07,13.07,0,0,0-.37,4,3.74,3.74,0,0,0,1.39-1.85,8.07,8.07,0,0,1,5.41-4.52,7.79,7.79,0,0,1,8.59,4.38c2.36,4.76.72,10.49-3.62,12.48a8.18,8.18,0,0,1-6.73,0,7.22,7.22,0,0,0-.89-.31,1,1,0,0,0-.37,0c0,.72.55,1,.94,1.42,2.47,2.64,3.77,5.65,2.74,9.29a7.43,7.43,0,0,1-5.23,5.38c-3.14,1-6.07,1-8.89-.8a8.18,8.18,0,0,1-2.07-12.07c.65-.86,1.35-1.67,2-2.51C110.37,203.48,110.43,203.35,110.26,203.23Z"/><path class="b" d="M114.89,59.29c-1.09,1.27-1.36,2.61-2.25,3.61-2.15,2.43-4.68,3.85-7.93,2.94s-5.21-3.4-6-6.74a9.55,9.55,0,0,1,.64-6c1.64-4.11,6.12-5.74,10.63-4,.41.16,1,.72,1.25.29s-.4-.85-.74-1.2a10.68,10.68,0,0,1-3.33-7.8,8,8,0,0,1,5-7,10.92,10.92,0,0,1,6.77-.5c5.61,1.58,7.7,6.38,5.72,11.63A10.82,10.82,0,0,1,122,48.34c-.28.28-.9.51-.53,1,.24.33.73.1,1.1-.1a7.41,7.41,0,0,1,5-.61c4.94.94,7.83,6.64,5.83,11.64-1.78,4.44-4.69,6.25-9.05,5.74-2.19-.25-3.61-1.75-4.76-3.5-.46-.69-.82-1.45-1.24-2.18-.15-.26-.24-.66-.66-.57s-.33.5-.31.79a13.17,13.17,0,0,0,.53,3.53,62.1,62.1,0,0,0,2.67,7c.15.3.36.52.1.84a.91.91,0,0,1-1,.29,20.22,20.22,0,0,0-7.11,0c-.27.06-.65.33-.84-.08a1,1,0,0,1,0-.93c1.24-2.24,1.45-4.86,2.71-7.12A7.64,7.64,0,0,0,114.89,59.29Z"/><path class="b" d="M51.54,49.26c1.3-.22,2.59-.43,3.88-.68a6.69,6.69,0,0,1,6.23,1.71,9,9,0,0,1,2.6,7.48c-.45,3.77-2.93,7.09-6.11,8a7.54,7.54,0,0,1-8.51-3.54c-.57-.94-1.11-1.89-1.79-2.8C47.3,64,49.73,67.8,51,72a43.46,43.46,0,0,0-8.38,0c-.55.07-.73-.2-.64-.69a3.11,3.11,0,0,1,.28-.91c1.42-2.66,2-5.6,2.92-8.44a4.67,4.67,0,0,0,.15-1.78c0-.27,0-.63-.27-.74s-.41.3-.54.5c-.62,1-1.16,2-1.83,2.94A6.73,6.73,0,0,1,36.15,66a8.07,8.07,0,0,1-6.32-4.54,9.3,9.3,0,0,1,.07-9.15c1.94-3.72,6.35-5,10.43-3.23.35.15.74.59,1.05.14s-.24-.69-.49-.94c-2.74-2.64-4.08-5.75-3.27-9.6A7.46,7.46,0,0,1,41,34.07c4-2.79,10.54-1.78,13.38,2.17a7.84,7.84,0,0,1,.42,8.56,18.64,18.64,0,0,1-3.2,4.14,1.09,1.09,0,0,0-.08.15l0,.08h.09Z"/><path class="b" d="M120.74,156c.92,1.13,1.84,2.13,2.6,3.23,2.83,4.09,2,9.28-2.08,12-2.38,1.58-5.18,1.71-8,1.11-5.46-1.16-7.49-6.2-6.23-10.71a11.54,11.54,0,0,1,2.92-4.33c.4-.44.8-.86,1.21-1.3-.56-.29-.94,0-1.34.15a10,10,0,0,1-6,.4c-3.2-.72-4.56-3.09-5.32-6a9.4,9.4,0,0,1,3.43-9.91c4-2.89,9.31-1.35,11.46,3.36a2.82,2.82,0,0,0,1.15,1.58,5.19,5.19,0,0,0-.05-3.48,66.65,66.65,0,0,0-2.68-7.65,2.08,2.08,0,0,1-.33-1.29,30.9,30.9,0,0,0,9.24-.16l-2,4.87a22.36,22.36,0,0,0-1.71,6.68c0,.32-.22.81.2,1s.62-.34.81-.68a22.66,22.66,0,0,1,1.69-2.74,7.4,7.4,0,0,1,11.58-.13,9.57,9.57,0,0,1,.11,12.42c-1.92,2.35-6,3.2-9,1.85C121.91,156.05,121.45,155.68,120.74,156Z"/><path class="b" d="M23.5,24.63a20.6,20.6,0,0,1-2,9.93,7.21,7.21,0,0,1-5.7,4.18c-2.56.33-6.08-1.28-6.88-3.54-.24-.66-.32-1.09.49-1.52a1,1,0,0,1,1.48.41,4.77,4.77,0,0,0,4.33,2.23,3.77,3.77,0,0,0,2.89-1.17,8.66,8.66,0,0,0,2.58-5.5v-.12c0-.71.84-1.6.07-2-.44-.25-1.11.71-1.66,1.14a6.46,6.46,0,0,1-7.47-.23c-4.51-3.23-4.45-10.72,0-14a6.53,6.53,0,0,1,9.52,1.75A15.17,15.17,0,0,1,23.5,24.63Z"/><path class="b" d="M141.2,223.67a1.32,1.32,0,0,0,1.16-.43c3.78-2.92,8.26-2,10.46,2.2a8.91,8.91,0,0,1-.41,9.44,6.65,6.65,0,0,1-11.79-.71,19.53,19.53,0,0,1,.1-17.41,7.17,7.17,0,0,1,9.67-3.59,6.84,6.84,0,0,1,2.79,2.54c.32.49.67,1,0,1.46a1.28,1.28,0,0,1-1.83,0,19.32,19.32,0,0,0-1.49-1.38,4.32,4.32,0,0,0-6.42.88A11.73,11.73,0,0,0,141.2,223.67Z"/><path class="b" d="M146.12,197.27c.5-1.45-.13-2.44-.47-3.47s-.12-1.32.92-1.21c.74.07,1.49,0,2.35,0a22.15,22.15,0,0,0-1.19,4.13c0,.26-.26.57.11.72s.38-.21.49-.4c1.09-1.83,2.37-2.38,4-1.72a3.91,3.91,0,0,1,2.35,4.26,3.49,3.49,0,0,1-3.54,3.08c-.37,0-.85-.23-1.07.22s.18.66.36,1a3.64,3.64,0,0,1-.65,4.68,4.56,4.56,0,0,1-5.35,0,3.59,3.59,0,0,1-.67-4.66c.61-1.08.55-1.2-.64-1.2A3.55,3.55,0,0,1,139.5,199a4,4,0,0,1,3.64-4,2.51,2.51,0,0,1,1.92.83A15,15,0,0,1,146.12,197.27Z"/><path class="b" d="M18.25,48.69c2.92,0,4.24.67,4.73,2.44a4.35,4.35,0,0,1-1.84,4.78c-1.21.72-2.71.23-4.7-1.61-.45,1,.07,1.85.44,2.69.22.49.69.93.31,1.53s-.87.1-1.29.07c-2.16-.19-2.14-.2-1.5-2.27a3.93,3.93,0,0,0,.37-2.21C13,56,11,57.16,9,55.07a3.87,3.87,0,0,1-.74-4.26c.81-2,2.6-2.22,4.64-2.1-1.19-2.21-2.23-4.4.41-6.15a4.05,4.05,0,0,1,5.25.38C19.86,44.2,19.8,45.77,18.25,48.69Z"/><path class="c" d="M110.26,203.23c.13-.14.32-.17.36,0s-.22.25-.34.38Z"/><path class="c" d="M51.54,49.26l-.1.05-.08-.08,0,0a.24.24,0,0,1,.22-.27Z"/><path class="d" d="M40.43,156.21c.1,0,.26-.06.29,0s0,.17-.13.21Z"/><path class="c" d="M51.36,49.23l-.08.15-.1,0,.15-.14Z"/><path class="d" d="M15.44,15.38a4.09,4.09,0,0,1,3,1.17A6.86,6.86,0,0,1,18.51,26,4.22,4.22,0,0,1,12.34,26a6.84,6.84,0,0,1,.26-9.4A4,4,0,0,1,15.44,15.38Z"/><path class="d" d="M151.6,229.65a6.91,6.91,0,0,1-1.07,3.88c-2.07,3.11-6,3-7.81-.25a6.85,6.85,0,0,1-.46-5.89,4.82,4.82,0,0,1,4.85-3.52,5.32,5.32,0,0,1,4.35,4.49A10.45,10.45,0,0,1,151.6,229.65Z"/></svg>