<svg xmlns="http://www.w3.org/2000/svg" xmlns:xlink="http://www.w3.org/1999/xlink" viewBox="0 0 162.77 251.13"><defs><style>.a{fill:#1d1d14;}.b,.d{fill:#fefefe;}.b{stroke:#c5c6c8;stroke-miterlimit:10;}.c{fill:#010101;}</style><symbol id="a" viewBox="0 0 36.15 39.55"><path class="a" d="M16.43,26.84a17.37,17.37,0,0,1-3.45,5c-2.53,2.46-6.58,1.91-8.66.6A9.45,9.45,0,0,1,1.7,19.09c2.41-3.3,6.05-4.21,10.12-2.52l.54.26c.22.08.49.18.62-.08,0-.11-.09-.37-.21-.51-.66-.79-1.4-1.54-2-2.36A8.38,8.38,0,0,1,12.4,1.64,9.09,9.09,0,0,1,17.06.06,10.11,10.11,0,0,1,24.27,2a8.17,8.17,0,0,1,2.35,9.9,10.71,10.71,0,0,1-2.29,3.33,4.56,4.56,0,0,0-1.25,1.59c.57.31,1-.07,1.44-.26a8.28,8.28,0,0,1,9.58,2.16c4.61,5.88.73,13.54-4.74,14.6-2.58.5-4.94.11-6.83-2.05a10.62,10.62,0,0,1-2.05-3A1.86,1.86,0,0,0,19.24,27a17.87,17.87,0,0,0,1.49,7.4c.53,1.29,1.11,2.55,1.66,3.82.42,1,.16,1.4-.85,1.25a25.42,25.42,0,0,0-7.13,0c-1.08.14-1.2-.08-.8-1.13.94-2.44,2.32-4.71,2.78-7.33A10.62,10.62,0,0,0,16.43,26.84Z"/></symbol></defs><path class="b" d="M80.31,250.57c-22.8,0-45.6-.06-68.4.06-4.44,0-7.25-2.17-9.53-5.51a11.54,11.54,0,0,1-1.81-6.59q-.06-6.3,0-12.59C1,181.05.68,136.15.77,91.25c0-18.9.11-37.79-.08-56.69C.61,26.38.73,18.19.5,10A8,8,0,0,1,4.28,2.76a12.06,12.06,0,0,1,7-2.2c15.41,0,30.82-.14,46.23,0,31.34.35,62.68,0,94,.16a10.77,10.77,0,0,1,9.91,6,9.38,9.38,0,0,1,.8,5.48c-.07.8-.14,1.59-.14,2.38Q162,64,162,113.46c0,3-.19,5.9-.14,8.85.43,29.79.06,59.59.19,89.38,0,8.43,0,16.86,0,25.29a13.11,13.11,0,0,1-3.17,9.16c-2.42,2.66-5.27,4.43-9,4.43q-34.74,0-69.47,0Z"/><path class="c" d="M109.62,72.65a66.5,66.5,0,0,1-6.8,30c-4.74,9.49-12.21,15.71-23.17,16.13-9.56.36-17.75-2.94-23.12-11.38-.9-1.42-3.32-3-.42-5.07,2.39-1.69,4.2-3,6.77.14,11.8,14.22,28.55,8.41,34.18-7.72A42.62,42.62,0,0,0,99.64,81.5c0-1.09.69-2.59-.48-3.2s-2,.81-2.87,1.49c-10.55,8.21-22.5,8.3-32.42.2-8.85-7.21-13-22.14-9.54-34S66.91,26.16,78.19,25.35C89,24.57,96.52,29.85,101.64,39,106.55,47.76,109.61,60.85,109.62,72.65Z"/><path class="d" d="M98.79,55.79c-.21,7.85-2.68,14.95-9.79,19.68a16.73,16.73,0,0,1-21-1.94c-9.32-8.64-9.82-25.74-1-35,4.91-5.11,10.82-7.25,17.71-4.9C93.12,36.48,97,43.05,98.53,51.32A39.06,39.06,0,0,1,98.79,55.79Z"/><use width="36.15" height="39.55" transform="translate(45.56 148.05) scale(1.98)" xlink:href="#a"/></svg>