<svg xmlns="http://www.w3.org/2000/svg" viewBox="0 0 162.72 251.11"><defs><style>.a,.c{fill:#fefefe;}.a{stroke:#c5c6c8;stroke-miterlimit:10;}.b{fill:#cf2101;}</style></defs><path class="a" d="M80.17,250.56c-22.76,0-45.52-.06-68.28.05-4.55,0-7.38-2.28-9.65-5.75a11.37,11.37,0,0,1-1.67-6.28c0-4.16,0-8.31,0-12.47.4-45.1.12-90.2.2-135.3q0-19.31,0-38.6C.69,38.11.65,24,.5,9.92A8,8,0,0,1,4.27,2.77,12.42,12.42,0,0,1,11.47.53c15.29,0,30.59-.1,45.88,0,31.3.31,62.6.05,93.9.13a11.57,11.57,0,0,1,8.94,4.1c1.91,2.12,2.13,4.73,2,7.42,0,.72-.13,1.43-.13,2.15q0,43.08-.05,86.17c0,4.32.07,8.64,0,13-.07,2.51-.18,5-.14,7.54.39,26.72.06,53.44.18,80.16.05,12,0,23.9,0,35.84a13.5,13.5,0,0,1-6.94,12.18,10.25,10.25,0,0,1-5.52,1.31H80.17Z"/><path class="b" d="M48.33,81.36c.33,0,.47.27.65.47Q57.11,91.42,65.23,101a1.38,1.38,0,0,1,0,2c-3.72,4.78-7.47,9.54-11.06,14.43-1.14,1.56-2.46,3-3.46,4.67a7.29,7.29,0,0,1-1,1.05c-.46.52-.84.46-1.24-.1-2.11-3-4.74-5.46-7-8.3-2.81-3.56-5.86-6.93-8.81-10.39-1.21-1.42-1.2-1.55-.08-3,4.2-5.62,8.74-11,12.77-16.73.67-1,1.46-1.86,2.21-2.76C47.83,81.62,48,81.36,48.33,81.36Z"/><path class="b" d="M33.24,150.66a4.27,4.27,0,0,1,1-2.14c3.82-4.39,7.12-9.21,10.8-13.72,1.28-1.57,2.43-3.25,3.63-4.9.49-.67,1-.74,1.51-.05,5,6.3,10.44,12.27,15.6,18.45.18.21.34.45.53.65.72.71.55,1.37,0,2.1-2.84,3.7-5.7,7.39-8.47,11.14-2,2.76-4.12,5.49-6.29,8.15-.94,1.16-1.14,1.18-2.12.15-2.72-2.85-5.2-5.91-7.76-8.91s-5-5.89-7.44-8.85A3,3,0,0,1,33.24,150.66Z"/><path class="b" d="M67.92,198a9.65,9.65,0,0,1-1.71,3c-2.22,2.53-4.11,5.28-6.1,8-1.67,2.26-3.51,4.41-5.19,6.68-.73,1-1.5,1.92-2.28,2.86s-1.08,1-1.88.05L36.1,201.45c-.26-.3-.52-.61-.76-.92-1.12-1.44-1.17-2.07-.07-3.51q7.13-9.3,14.3-18.57c1-1.35,1.19-1.34,2.37,0,2.26,2.63,4.49,5.28,6.74,7.93,2.71,3.19,5.43,6.38,8.12,9.58A3.3,3.3,0,0,1,67.92,198Z"/><path class="b" d="M129.63,100.43a2.82,2.82,0,0,1-.76,1.63c-5.06,6.07-9.63,12.52-14.51,18.73-.88,1.12-1.19,1.16-2.09.1L96.74,102.68c-1-1.21-1.08-1.7-.13-2.94l14.66-18.93c.92-1.18,1.17-1.19,2.18,0q6.81,8,13.59,15.94c.7.82,1.46,1.58,2.17,2.39A1.9,1.9,0,0,1,129.63,100.43Z"/><path class="b" d="M98.32,197.32a2.61,2.61,0,0,1,.66-1.65c4.87-6.31,9.76-12.62,14.6-19a1.25,1.25,0,0,1,2.1-.22,10.67,10.67,0,0,1,1.39,1.46c4.48,5.76,9.44,11.12,14.07,16.77,1.23,1.5,1.24,1.53.09,3.05q-7.08,9.27-14.17,18.53c-1.16,1.51-1.92,1.57-3,0-2.05-3-4.64-5.46-6.94-8.22-1.77-2.12-3.43-4.37-5.42-6.34-1.1-1.09-2-2.48-3-3.66A2.14,2.14,0,0,1,98.32,197.32Z"/><path class="b" d="M114.62,169.62a1.74,1.74,0,0,1-1.15-.79c-2.17-2.51-4.38-5-6.47-7.59-3-3.74-6.24-7.35-9.42-11a1.4,1.4,0,0,1-.13-2.09q7.6-9.78,15.17-19.58c.64-.84,1.11-.8,1.73-.07,2.13,2.48,4.27,4.95,6.4,7.44q4.62,5.41,9.22,10.85c1.18,1.4,1.19,1.46.06,2.95l-13.78,18.09c-.29.38-.51.81-.79,1.19S115.05,169.65,114.62,169.62Z"/><path class="b" d="M30.7,55a2.45,2.45,0,0,1,.72-1.46q6.07-7.87,12.15-15.73c.89-1.16,1.73-2.35,2.59-3.53.75-1,1.05-1,1.85-.07q7.82,9.2,15.67,18.37c1.12,1.31,1.18,1.43.18,2.74q-7.29,9.56-14.59,19.1c-1,1.29-1.19,1.3-2.25.06-2.48-2.87-4.85-5.83-7.41-8.63-2.88-3.16-5.36-6.67-8.43-9.66A1.49,1.49,0,0,1,30.7,55Z"/><path class="b" d="M64.54,126a2.3,2.3,0,0,1,.57-1.31L80,105.48c.59-.78,1-1.1,1.83-.1,5.25,6.26,10.58,12.46,15.92,18.65a1.56,1.56,0,0,1,0,2.31Q91.05,135,84.41,143.71c-.45.6-.84,1.25-1.29,1.85-.81,1.07-1.46,1.07-2.4,0-2.62-3.06-5.21-6.14-7.83-9.2q-3.73-4.36-7.48-8.71A2.71,2.71,0,0,1,64.54,126Z"/><path class="b" d="M128.49,52.21a1.93,1.93,0,0,1-.6,1.37q-6.75,8.87-13.49,17.71c-.39.5-.71,1-1.09,1.54-.78,1-1.36,1.08-2.18.12-1.92-2.24-3.82-4.51-5.74-6.76-3.2-3.75-6.4-7.52-9.62-11.26-1.32-1.52-1.34-1.8-.13-3.36,4.87-6.32,9.87-12.54,14.54-19,.77-1.07,1.12-1.09,1.88-.13,5,6.24,10.31,12.19,15.42,18.31A3.54,3.54,0,0,1,128.49,52.21Z"/><path class="b" d="M4.33,23.09c-.07-4.78,3-7.42,6.24-8.51,1.83-.62,5.09.82,6.46,2.74a16.5,16.5,0,0,1,2.77,9.77,19.51,19.51,0,0,1-1.52,8.25c-1.22,2.67-3.15,4.52-6.11,4.94S7,39.21,5.16,37c-.26-.31-.41-.8-.09-1.09s.8-.92,1.53-.65A2.35,2.35,0,0,1,7.66,36a4.3,4.3,0,0,0,6.68.66c2.13-1.83,2.56-4.3,2.77-6.89,0-.49-.21-.58-.57-.41a7.06,7.06,0,0,0-1,.64,6.79,6.79,0,0,1-10-2.46A9.66,9.66,0,0,1,4.33,23.09Z"/><path class="b" d="M143,223.8a18.09,18.09,0,0,1,2.26-9.24,7.12,7.12,0,0,1,12-.57c.37.56.74,1.09,0,1.63a1.23,1.23,0,0,1-1.94-.24c-2.5-3-6.46-2.61-8.28.9a13.34,13.34,0,0,0-1.46,5c0,.3-.19.72.08.9s.65-.12.93-.35a6.87,6.87,0,0,1,6.35-1.55c3.57.95,6,5,5.46,9-.46,3.31-1.94,5.94-5.28,7a6.2,6.2,0,0,1-7-2.17c-2.05-2.38-2.6-5.32-3-8.31C143,225.13,143,224.37,143,223.8Z"/><path class="b" d="M19.34,52.11a1.87,1.87,0,0,1-.37,1c-1.82,2.36-3.66,4.71-5.44,7.1-.42.56-.68.53-1.08.06a27,27,0,0,1-1.92-2.24c-1.11-1.62-2.59-2.91-3.8-4.43a1.7,1.7,0,0,1,0-2.37c1.66-2.14,3.34-4.26,5-6.41.63-.82,1.18-.8,1.82,0q2.67,3.14,5.36,6.26A1.72,1.72,0,0,1,19.34,52.11Z"/><path class="b" d="M156.46,198.5a1.75,1.75,0,0,1-.45,1c-1.82,2.37-3.65,4.74-5.44,7.13-.37.49-.57.63-1,.08q-2.86-3.45-5.82-6.84a1.41,1.41,0,0,1-.05-2c1.68-2.17,3.37-4.35,5-6.53.6-.79,1.2-.85,1.85-.09l5.46,6.36A1.94,1.94,0,0,1,156.46,198.5Z"/><path class="c" d="M16.38,23.13a5.71,5.71,0,0,1-1.4,4,4.22,4.22,0,0,1-6.72.09,7.1,7.1,0,0,1-.52-8,4.29,4.29,0,0,1,7.3-.36A6.4,6.4,0,0,1,16.38,23.13Z"/><path class="c" d="M156,228.46a6.26,6.26,0,0,1-.37,2.23,5,5,0,0,1-4.3,3.61,4.86,4.86,0,0,1-4.43-3.25,6.41,6.41,0,0,1,.8-6.86,4.21,4.21,0,0,1,6.86-.06A6.87,6.87,0,0,1,156,228.46Z"/></svg>