<svg xmlns="http://www.w3.org/2000/svg" xmlns:xlink="http://www.w3.org/1999/xlink" viewBox="0 0 162.72 251.11"><defs><style>.a{fill:#cf2101;}.b,.c{fill:#fefefe;}.b{stroke:#c5c6c8;stroke-miterlimit:10;}</style><symbol id="a" viewBox="0 0 40.83 50.32"><path class="a" d="M0,25.26A1.85,1.85,0,0,1,.57,24L19.32.8c.87-1.07,1.17-1.06,2,0L40,23.46c1.16,1.42,1.18,1.61,0,3.07Q30.91,37.91,21.84,49.29c-1.11,1.38-1.36,1.38-2.52,0Q10,38,.68,26.62A2.15,2.15,0,0,1,0,25.26Z"/></symbol></defs><path class="b" d="M80.17,250.56c-22.76,0-45.52-.06-68.28.05-4.55,0-7.38-2.28-9.65-5.75a11.37,11.37,0,0,1-1.67-6.28c0-4.16,0-8.31,0-12.47.4-45.1.12-90.2.2-135.3q0-19.31,0-38.6C.69,38.11.65,24,.5,9.92A8,8,0,0,1,4.27,2.77,12.42,12.42,0,0,1,11.47.53c15.29,0,30.59-.1,45.88,0,31.3.31,62.6.05,93.9.13a11.57,11.57,0,0,1,8.94,4.1c1.91,2.12,2.13,4.73,2,7.42,0,.72-.13,1.43-.13,2.15q0,43.08-.05,86.17c0,4.32.07,8.64,0,13-.07,2.51-.18,5-.14,7.54.39,26.72.06,53.44.18,80.16.05,12,0,23.9,0,35.84a13.5,13.5,0,0,1-6.94,12.18,10.25,10.25,0,0,1-5.52,1.31H80.17Z"/><path class="a" d="M109.62,72.91a66.49,66.49,0,0,1-6.8,30c-4.74,9.5-12.21,15.71-23.17,16.13-9.56.37-17.75-2.94-23.12-11.38-.9-1.42-3.32-3-.42-5.07,2.39-1.69,4.2-3,6.77.15,11.8,14.21,28.55,8.4,34.18-7.73a42.57,42.57,0,0,0,2.58-13.23c0-1.09.69-2.58-.48-3.19s-2,.8-2.87,1.48c-10.55,8.21-22.5,8.3-32.42.21-8.85-7.22-13-22.14-9.54-34S66.91,26.42,78.19,25.6c10.77-.78,18.33,4.51,23.45,13.65C106.55,48,109.61,61.1,109.62,72.91Z"/><path class="c" d="M98.79,56C98.58,63.89,96.11,71,89,75.72a16.73,16.73,0,0,1-21-1.94c-9.32-8.64-9.82-25.74-.94-35,4.9-5.11,10.81-7.25,17.7-4.9C93.12,36.73,97,43.3,98.53,51.57A36.9,36.9,0,0,1,98.79,56Z"/><use width="40.83" height="50.32" transform="translate(49.55 148.27) scale(1.56)" xlink:href="#a"/></svg>