<svg xmlns="http://www.w3.org/2000/svg" viewBox="0 0 162.77 251.16"><defs><style>.a,.c{fill:#fefefe;}.a{stroke:#c5c6c8;stroke-miterlimit:10;}.b{fill:#cf2101;}</style></defs><path class="a" d="M80.25,250.57c-22.88,0-45.76-.12-68.64.09-5.27.05-10.42-5.37-10.8-9.86a119.39,119.39,0,0,1-.06-16.38c0-.32,0-.64,0-1q0-84.37,0-168.76C.78,47.87.93,41,.72,34.21c-.24-8,.08-16-.21-24-.17-4.53,2.34-7,6-8.69a12.33,12.33,0,0,1,5.24-1C27,.55,42.17.42,57.38.59c31.38.34,62.75,0,94.13.16a10.79,10.79,0,0,1,10,6.09,8.78,8.78,0,0,1,.76,4.79c-.37,6.14-.15,12.29-.17,18.44-.05,27.65,0,55.29-.09,82.94,0,3.47-.18,6.94-.14,10.41.42,37.83.08,75.66.18,113.48,0,6.21-3.65,11.58-9,13.2a11.61,11.61,0,0,1-3.42.45H80.25Z"/><path class="b" d="M49.74,87.64c.63-.82,1.16-1.6,1.78-2.32a9.3,9.3,0,0,1,9-3.19c3.92.64,6.16,3.74,6.36,8.51a17.12,17.12,0,0,1-2.29,8.93c-3.73,6.85-8.89,12.63-14.09,18.36a1,1,0,0,1-1.8,0c-5.35-6-10.61-12.12-14.27-19.4a15.12,15.12,0,0,1-1.39-10.1c.66-3.16,2.21-5.56,5.56-6.32a8.69,8.69,0,0,1,9.09,2.79C48.46,85.75,49.05,86.7,49.74,87.64Z"/><path class="b" d="M96.9,92a14,14,0,0,1,.51-3.91,7.08,7.08,0,0,1,6.1-5.62,8.73,8.73,0,0,1,8.62,3.21c.64.75,1.15,1.6,1.72,2.41.6-.79,1.17-1.59,1.79-2.34a9.42,9.42,0,0,1,11.42-2.35c3.14,1.73,3.83,4.86,3.93,8.1.13,4.6-2,8.47-4.42,12.16a114.13,114.13,0,0,1-11.81,14.59c-.52.56-1,1.08-1.76.26-5.56-6.17-11-12.45-14.59-20A14.24,14.24,0,0,1,96.9,92Z"/><path class="b" d="M66,209.32a11.54,11.54,0,0,1-.36,3.06c-.89,3.72-3,5.84-6.19,6.27-4.15.56-7.67-1-9.45-4.36-.62-1.16-1-1.39-1.88-.15-2.82,4-6.55,5.35-10.79,4.18-3.09-.84-5-3.49-5.41-7.29-.49-4.37,1-8.17,3.24-11.76a106.91,106.91,0,0,1,13.05-16.49c.53-.57,1.07-.86,1.7-.14,5.45,6.17,10.87,12.35,14.5,19.84A15.2,15.2,0,0,1,66,209.32Z"/><path class="b" d="M33.12,40.93a23.63,23.63,0,0,1,.36-2.53c.78-3.33,2.58-5.77,6.15-6.34a8.93,8.93,0,0,1,9.12,3.73c1.37,1.87,1.34,1.89,2.72.1a9.44,9.44,0,0,1,10-3.59c3.55.72,5.69,4,5.84,8.45a18.1,18.1,0,0,1-2.62,9.44c-3.15,5.7-7.4,10.57-11.67,15.42-.73.84-1.5,1.65-2.24,2.49-.51.59-1,.55-1.49,0C43.73,62,38.44,55.73,34.74,48.3A16.33,16.33,0,0,1,33.12,40.93Z"/><path class="b" d="M32.29,158.1a16.1,16.1,0,0,1,2.45-8.34c3.76-6.7,8.81-12.4,13.95-18,.45-.49,1-.74,1.53-.12,5.74,6.57,11.65,13,15.09,21.25A13,13,0,0,1,65.47,163a7.35,7.35,0,0,1-7.23,4.9,8.87,8.87,0,0,1-8.13-5c-.16-.33-.07-.92-.57-.92s-.59.48-.81.82c-2.07,3.17-4.91,5-8.79,4.88-4.76-.22-7.47-3.3-7.65-8.49C32.28,158.94,32.29,158.66,32.29,158.1Z"/><path class="b" d="M98.67,121a17,17,0,0,1-2.32,8.43c-3.5,6.39-8.32,11.78-13.12,17.17l-.88,1c-.55.63-1.13.72-1.72,0-5.5-6.21-11-12.45-14.55-20.07A13.87,13.87,0,0,1,65,118c.78-3,2.18-5.4,5.46-6.15a8.77,8.77,0,0,1,9.13,2.7c.73.82,1.31,2.38,2.06,2.46.94.09,1.28-1.6,2.07-2.39,3.39-3.43,8.8-4,12.17-1.22C98.22,115.4,98.65,118.14,98.67,121Z"/><path class="b" d="M130.53,158.64c-.14,1.06-.21,2.15-.44,3.19-.72,3.2-2.4,5.55-5.82,6.23a8.81,8.81,0,0,1-9.22-3.41c-.54-.68-.8-2-1.55-2s-1,1.29-1.57,2a9.69,9.69,0,0,1-10.26,3.12c-3.31-1-5.09-4-5.26-8.4-.2-5,2.18-9,4.76-12.89a119.9,119.9,0,0,1,11.53-14.21c.62-.68,1.17-.79,1.78-.09,5.15,5.89,10.29,11.79,13.91,18.81A17,17,0,0,1,130.53,158.64Z"/><path class="b" d="M121.93,219.21c-3.74.07-6.37-1.76-8.14-4.92-.53-.95-.81-.87-1.34,0a9.66,9.66,0,0,1-7.1,4.75c-4.93.69-8.68-2.28-9.23-7.25a18.28,18.28,0,0,1,2.8-11.4,91.8,91.8,0,0,1,11.41-14.9c.69-.77,1.37-1.55,2.07-2.32.52-.57,1.13-.68,1.65-.08,5.61,6.49,11.39,12.86,14.85,20.87a13.47,13.47,0,0,1,.55,9.81A7.33,7.33,0,0,1,121.93,219.21Z"/><path class="b" d="M97.23,42.05a16.14,16.14,0,0,1,.69-4.26,6.68,6.68,0,0,1,5.13-5.12c3.39-.76,6.43-.2,8.88,2.42A9.26,9.26,0,0,1,113.38,37c.65,1.2,1.06,1.19,1.78,0a8.71,8.71,0,0,1,6.29-4.33c6-.91,9.75,2.37,9.88,8.5a17.88,17.88,0,0,1-2.51,9.35C125,57.26,119.9,63,114.7,68.72c-.34.38-.6.57-1,.09-5.76-6.37-11.37-12.85-15-20.74a16.55,16.55,0,0,1-1-3.18A26.93,26.93,0,0,1,97.23,42.05Z"/><path class="b" d="M23.92,45.87A7.47,7.47,0,0,1,23,49.54a43.26,43.26,0,0,1-6.18,8.19c-.52.57-1,.71-1.59.06C12.9,55.1,10.51,52.47,9,49.22a7,7,0,0,1-.77-4.16,3.86,3.86,0,0,1,2.74-3.43A3.7,3.7,0,0,1,15.12,43c.72.94,1.1.81,1.82,0a4.28,4.28,0,0,1,4.59-1.23C23.14,42.25,23.92,43.61,23.92,45.87Z"/><path class="b" d="M154.6,205.36a4.21,4.21,0,0,1-2.61,4.29c-1.64.6-3.25.07-4.61-1.62-.48-.6-.72-.65-1.2,0a4.42,4.42,0,0,1-2.24,1.54c-2.68.83-4.84-.67-5.12-3.56a7.66,7.66,0,0,1,1.13-4.45,41.77,41.77,0,0,1,6.4-8.33c.25-.27.42-.55.82-.1,2.77,3.05,5.44,6.17,7,10A5,5,0,0,1,154.6,205.36Z"/><path class="b" d="M21.34,27.21c-.49-.06-.8.27-1.15.53a6.72,6.72,0,0,1-9.8-1.43A9.28,9.28,0,0,1,10.88,15a6.7,6.7,0,0,1,11.37,1.74,19.13,19.13,0,0,1-.54,17.84,7.19,7.19,0,0,1-12.28.6c-.45-.62-.71-1.18.05-1.73a1.25,1.25,0,0,1,1.89.21c3,3.39,6.5,3,8.7-1A11.16,11.16,0,0,0,21.34,27.21Z"/><path class="b" d="M147.39,212.91a7.11,7.11,0,0,1,6.27,3.23c.36.55.7,1.1-.09,1.62s-1.27.59-1.86-.17a5.55,5.55,0,0,0-3.19-2.19,4.14,4.14,0,0,0-4.3,1.46,10.84,10.84,0,0,0-2.5,6.22c0,.28-.19.69.17.86s.58-.17.84-.34c2.62-1.73,5.42-2.41,8.15-.48,3.09,2.19,3.86,5.45,3.24,9a7.51,7.51,0,0,1-5.83,6.24,6.35,6.35,0,0,1-6.81-3c-2.23-3.25-2.51-7-2.35-10.79a15.77,15.77,0,0,1,2.74-8.78A6.86,6.86,0,0,1,147.39,212.91Z"/><path class="c" d="M20.87,21.45a12.52,12.52,0,0,1-.35,1.66c-.81,2.48-2.93,4-5,3.74-2.34-.33-4.14-2.49-4.37-5.27,0-.24,0-.48,0-.72,0-3.21,2.27-5.9,4.91-5.9S20.91,17.77,20.87,21.45Z"/><path class="c" d="M147.05,236.22c-2.64,0-5.16-3.28-4.84-6.35a7,7,0,0,1,1.56-3.92,4.22,4.22,0,0,1,6.16-.51c2.93,2.52,2.46,8.23-.84,10.21A3.6,3.6,0,0,1,147.05,236.22Z"/></svg>