<svg xmlns="http://www.w3.org/2000/svg" xmlns:xlink="http://www.w3.org/1999/xlink" viewBox="0 0 162.77 251.16"><defs><style>.a{fill:#cb3329;}.b,.d{fill:#fefefe;}.b{stroke:#c5c6c8;stroke-miterlimit:10;}.c{fill:#cf2101;}</style><symbol id="a" viewBox="0 0 41.85 45.12"><path class="a" d="M0,11.37c.12-3,.81-6,3.08-8.33,3.86-4,10-4.06,14.31-.1A12.51,12.51,0,0,1,19.83,6c.24.41.38,1,.91,1s.7-.59.93-1A11.11,11.11,0,0,1,29.16.37c6.11-1.19,11.17.93,12.41,8.14a18.54,18.54,0,0,1-1.22,10.43C37.86,25,34,30.05,30,35.12c-2.48,3.17-5.14,6.21-7.83,9.21-.92,1-1.24,1.05-2.11.1C14.33,38.2,8.78,31.81,4.31,24.58,2,20.85.1,17,0,12.44Z"/></symbol></defs><path class="b" d="M80.25,250.57c-22.88,0-45.76-.12-68.64.09-5.27.05-10.42-5.37-10.8-9.86a119.39,119.39,0,0,1-.06-16.38c0-.32,0-.64,0-1q0-84.37,0-168.76C.78,47.87.93,41,.72,34.21c-.24-8,.08-16-.21-24-.17-4.53,2.34-7,6-8.69a12.33,12.33,0,0,1,5.24-1C27,.55,42.17.42,57.38.59c31.38.34,62.75,0,94.13.16a10.79,10.79,0,0,1,10,6.09,8.78,8.78,0,0,1,.76,4.79c-.37,6.14-.15,12.29-.17,18.44-.05,27.65,0,55.29-.09,82.94,0,3.47-.18,6.94-.14,10.41.42,37.83.08,75.66.18,113.48,0,6.21-3.65,11.58-9,13.2a11.61,11.61,0,0,1-3.42.45H80.25Z"/><use width="41.85" height="45.12" transform="translate(45.64 149.39) scale(1.71)" xlink:href="#a"/><path class="c" d="M110.69,71.12a66.64,66.64,0,0,1-6.81,30c-4.74,9.49-12.21,15.71-23.17,16.13-9.56.36-17.75-2.94-23.12-11.38-.9-1.42-3.32-3-.42-5.07,2.39-1.69,4.2-3,6.77.14,11.8,14.22,28.55,8.41,34.18-7.72A42.57,42.57,0,0,0,100.7,80c0-1.09.69-2.59-.47-3.19s-2,.8-2.88,1.48c-10.55,8.21-22.5,8.3-32.42.2-8.85-7.21-13-22.14-9.54-34S68,24.64,79.25,23.82C90,23,97.58,28.32,102.7,37.47,107.61,46.23,110.67,59.32,110.69,71.12Z"/><path class="d" d="M99.85,54.26c-.21,7.85-2.68,14.95-9.79,19.68a16.74,16.74,0,0,1-21-1.94c-9.32-8.64-9.82-25.74-.94-35,4.9-5.11,10.81-7.25,17.7-4.9C94.18,35,98.06,41.52,99.59,49.79A36.9,36.9,0,0,1,99.85,54.26Z"/></svg>