<svg xmlns="http://www.w3.org/2000/svg" viewBox="0 0 162.77 251.16"><defs><style>.a,.d{fill:#fefefe;}.a{stroke:#c5c6c8;stroke-miterlimit:10;}.b{fill:#010101;}.c{fill:#c1c2c4;}</style></defs><path class="a" d="M80.32,250.57c-22.92,0-45.84-.13-68.75.09-5.28.05-10.48-5.54-10.79-10a135.57,135.57,0,0,1,0-16.5c0-.32,0-.64,0-.95Q.76,139,.77,54.7C.77,47.87.92,41,.72,34.21c-.25-8,.05-16-.21-24.07C.38,6.35,2.18,4,5.2,2.19A12.21,12.21,0,0,1,11.48.54c15.09,0,30.18-.12,45.27,0C88.37.94,120,.62,151.6.76a10.67,10.67,0,0,1,9.85,6.05,8.75,8.75,0,0,1,.78,4.79c-.39,6.14-.16,12.29-.17,18.43C162,57.68,162,85.32,162,113c0,3.14-.18,6.3-.15,9.45.42,38.18.08,76.36.18,114.55,0,6-3.48,11.26-8.57,13a11.26,11.26,0,0,1-3.64.57H80.32Z"/><path class="b" d="M44.06,108.12c-.55.82-1,1.45-1.38,2.06-2.1,3.06-4.82,4.28-7.82,3.5a7.79,7.79,0,0,1-5.55-7.05,11.63,11.63,0,0,1,2.5-8.83C36.09,92.45,40.24,87,44.45,81.57c1.16-1.5,1.17-1.51,2.38,0q4.48,5.69,9,11.38c1.33,1.69,2.7,3.36,3.94,5.11C62.34,101.79,63,105.81,61,110a6.73,6.73,0,0,1-11.48,1.37c-.63-.76-1.14-1.63-1.73-2.43-.19-.28-.28-.78-.73-.67s-.25.61-.25.92c0,3.17,1,6.12,2,9,.37,1.06.07,1.18-.88,1.15a44.84,44.84,0,0,0-4.78,0c-.94.07-1-.14-.69-.94A20.44,20.44,0,0,0,44.06,108.12Z"/><path class="b" d="M44.19,193.76c.88-4.2-1-7.61-1.92-11.25h6.92c-1.19,3.57-2.55,7.08-2.24,11,.72-.18,1-.74,1.32-1.26,2.16-3.56,4.89-5,8-4.19,3.49.88,5.63,3.87,5.79,8a12.13,12.13,0,0,1-2.64,8.13c-4.33,5.53-8.69,11-13,16.57-.48.61-.8.64-1.27.05-4.76-6.05-9.77-11.91-14.19-18.22-2.39-3.42-2.34-7.23-.51-10.91a6.8,6.8,0,0,1,11.38-1.3C42.64,191.34,43.28,192.44,44.19,193.76Z"/><path class="b" d="M47.1,56.1c-.81,2.73.2,5.07.78,7.45.27,1.12.69,2.2,1,3.3.16.5.11.69-.52.65-1.79-.12-3.59-.16-5.38-.19-.73,0-.87-.19-.6-.9a24.81,24.81,0,0,0,2-9.65c0-.16,0-.31,0-.54a3.85,3.85,0,0,0-1.54,1.64c-2.1,3.24-4.72,4.55-7.76,3.88s-5.32-3.35-5.81-7a11.86,11.86,0,0,1,2.54-9.07C36,40.32,40.19,35,44.4,29.71c.25-.31.55-.58.8-.89s.56-.49.95,0c4.42,5.66,8.93,11.26,13.29,17a11.09,11.09,0,0,1,1.44,12.15,6.64,6.64,0,0,1-11.49,1.3C48.62,58.28,47.94,57.26,47.1,56.1Z"/><path class="b" d="M114.67,142.82c.56-3.65-.34-6.74-1.47-9.76-.49-1.34-.41-1.79,1.16-1.54a17.23,17.23,0,0,0,3.93.15c1.54-.12,1.45.46,1,1.59a24.25,24.25,0,0,0-1.86,8.36c0,.42-.2,1,.27,1.18s.53-.49.75-.8c.59-.8,1.09-1.67,1.74-2.42a6.83,6.83,0,0,1,11.56,1.93,10.83,10.83,0,0,1-1.35,11.2c-4.35,5.67-8.78,11.27-13.15,16.92-.75,1-1.27.9-2,0-4.29-5.51-8.62-11-12.89-16.51a11.39,11.39,0,0,1-1.9-10.85,7,7,0,0,1,5.83-5c2.79-.5,4.88.76,6.5,2.92C113.42,140.92,114,141.76,114.67,142.82Z"/><path class="b" d="M119.87,67.42c-2.17,0-4.2,0-6.24,0-.7,0-.79-.12-.56-.79a25.89,25.89,0,0,0,1.79-7.52,6.56,6.56,0,0,0-.34-2.63c-.42.65-.84,1.31-1.27,2-1.69,2.53-3.92,4-7.07,3.39a7,7,0,0,1-5.87-5.73,10.93,10.93,0,0,1,2-9.83q6.65-8.47,13.25-17c1.11-1.43,1.41-.36,2,.43,4,5.21,8.09,10.38,12.15,15.56A12.16,12.16,0,0,1,132,57.07a6.85,6.85,0,0,1-5.59,4.82c-2.77.53-4.89-.65-6.55-2.78-.54-.7-1-1.45-1.52-2.16-.17-.24-.27-.68-.67-.57s-.23.54-.23.83a26.26,26.26,0,0,0,1.9,8.83C119.52,66.45,119.66,66.86,119.87,67.42Z"/><path class="b" d="M44.25,143c.61-2.56-.1-4.77-.66-7-.33-1.27-.74-2.52-1.17-3.77-.18-.51-.05-.6.43-.6,1.92,0,3.83,0,5.75,0,.85,0,.53.39.37.8a26.34,26.34,0,0,0-2.13,9.26c0,.35-.26.9.28,1s.5-.44.7-.72c.33-.45.62-.92.93-1.38,2-2.84,4.48-4,7.32-3.4a7.57,7.57,0,0,1,5.81,6.28,11.46,11.46,0,0,1-2.29,9.56q-6.51,8.19-12.93,16.47c-.78,1-1.28.91-2,0-4.23-5.4-8.52-10.76-12.72-16.19a11.85,11.85,0,0,1-2.2-10.83,6.94,6.94,0,0,1,5.59-5.3,6.53,6.53,0,0,1,6.86,2.86C42.87,141,43.5,141.94,44.25,143Z"/><path class="b" d="M119.91,119.4c-2.17,0-4.21,0-6.24,0-.78,0-.84-.2-.59-.89a29.5,29.5,0,0,0,2.07-8.92c0-.46,0-.92,0-1.5a5,5,0,0,0-1.67,1.82c-2.24,3.48-4.8,4.67-8.06,3.74A8,8,0,0,1,100,106a12.91,12.91,0,0,1,2.85-8.66q6.18-7.85,12.34-15.72c.3-.37.65-.7,1-1s.51-.37.82.08c2.93,4.37,6.43,8.32,9.6,12.52,1.29,1.72,2.68,3.38,3.91,5.14a11.23,11.23,0,0,1,1.35,11.12,6.75,6.75,0,0,1-5.77,4.42,6.32,6.32,0,0,1-6.19-2.83c-.55-.73-1-1.54-1.52-2.29-.16-.24-.26-.68-.68-.53s-.23.55-.22.84a25.58,25.58,0,0,0,2.08,9.28C119.64,118.64,119.74,118.93,119.91,119.4Z"/><path class="b" d="M116.27,221.76l-13.26-17c-2.8-3.59-4-7.51-2.37-12A6.75,6.75,0,0,1,106.1,188a6.61,6.61,0,0,1,6.74,2.93c.7,1,1.35,1.95,2.12,3a12.19,12.19,0,0,0-.5-6.09c-.4-1.58-.92-3.13-1.4-4.69-.12-.4-.35-.76.38-.75,2.11,0,4.23,0,6.42,0a37.17,37.17,0,0,0-2.28,8.18c-.1.79-.11,1.59-.15,2.38,0,.25,0,.53.27.6s.4-.2.52-.4c.46-.7.89-1.42,1.37-2.1,1.7-2.45,4-3.65,7-3a7,7,0,0,1,5.73,5.71,11.59,11.59,0,0,1-2,9.89C125.7,209.8,120.93,215.79,116.27,221.76Z"/><path class="b" d="M84.59,144.81c-2,0-4,0-5.93,0-.85,0-1.1-.2-.76-1.1a20.77,20.77,0,0,0,1.66-9.21,7.47,7.47,0,0,0-.14-.75c-.43.64-.73,1.07-1,1.5-2.33,3.47-5,4.8-8.18,4-3-.75-5-3.52-5.43-7.42a10.84,10.84,0,0,1,2.27-8.29q6.57-8.31,13-16.69c.73-.94,1.22-.87,1.9,0,4.33,5.57,8.76,11.07,13,16.72a10.86,10.86,0,0,1,1.17,12,6.62,6.62,0,0,1-11.3,1.21c-.58-.71-1.07-1.49-1.61-2.23-.22-.31-.37-.88-.78-.78s-.24.68-.24,1c-.06,3.17,1,6.11,2,9C84.35,144.25,84.49,144.57,84.59,144.81Z"/><path class="b" d="M21.51,25.65a18.19,18.19,0,0,1-1.87,8.21,7.15,7.15,0,0,1-6.34,4.41A6.71,6.71,0,0,1,7,35.16c-.25-.39-.91-.83-.11-1.39.65-.46,1.15-.81,1.85,0,3.23,3.89,7.82,2.3,9.36-2.12a11.46,11.46,0,0,0,.7-3.62c0-.3.19-.71-.13-.87s-.55.22-.78.4C15,29.85,11.7,29.88,9,27.66a9.32,9.32,0,0,1-2.61-9.3A7.48,7.48,0,0,1,12.9,12.7c2.95-.21,5,1.24,6.42,3.74A20.35,20.35,0,0,1,21.51,25.65Z"/><path class="b" d="M142.68,224.27c1.84-1.59,3.68-2.75,6-2.55,4,.35,7.16,4.38,6.78,8.7-.37,4.1-2.73,7.14-6,7.69a6.63,6.63,0,0,1-7.43-4,19.3,19.3,0,0,1,.45-17.84,6.48,6.48,0,0,1,6.52-3.6c2.48.16,4.57,1.09,5.68,3.52.15.33.67.75-.06,1.05-.53.21-1,.9-1.64.09a8.21,8.21,0,0,0-1.84-1.69,4.52,4.52,0,0,0-6.17,1.13A12.32,12.32,0,0,0,142.68,224.27Z"/><path class="b" d="M149.09,195.92a.39.39,0,0,0,.11-.06c2-1.63,3.49-1.85,4.77-.69a4.58,4.58,0,0,1,.4,5.54c-1.89,2.62-3.91,5.14-5.86,7.72-.3.39-.47.4-.78,0-1.93-2.53-3.91-5-5.83-7.58a4.11,4.11,0,0,1-.82-2.81c.09-1.45.5-2.82,2-3.4,1.79-.68,3,.35,4.25,1.69.29-1.52-.35-2.81-.46-4.14,2.56-.22,2.55-.22,2.07,2.21-.08.39-.12.78-.18,1.18C148.8,195.76,148.68,196.1,149.09,195.92Z"/><path class="b" d="M13.36,41.15c2.19,3,4.4,5.78,6.42,8.72a4.07,4.07,0,0,1,.13,4.23,2.91,2.91,0,0,1-4.56.88c-.42-.35-.81-.73-1.48-1.33.23,1.37.41,2.4.55,3.44,0,.27.28.7-.22.78a6.35,6.35,0,0,1-1.89.09c-.43-.08-.08-.55,0-.82.15-1,.36-2,.55-3.09-.56,0-.81.41-1.13.65A3.31,3.31,0,0,1,8,55.37a3.2,3.2,0,0,1-1.67-3.09A4.6,4.6,0,0,1,7,49.53C9,46.65,11.15,44,13.36,41.15Z"/><path class="c" d="M149.09,195.92c-.08.17-.24.35-.39.23s-.11-.39.06-.57Z"/><path class="d" d="M18.81,21A6.54,6.54,0,0,1,16,26.71a4.83,4.83,0,0,1-6.05-.56,7.46,7.46,0,0,1-.27-10.08,4.61,4.61,0,0,1,5.1-1.41c2.41.82,3.53,2.71,4,5.09A10,10,0,0,1,18.81,21Z"/><path class="d" d="M142.82,230a6.43,6.43,0,0,1,1.89-4.93c2.43-2.5,6.09-2,8,1.17a7.65,7.65,0,0,1-.37,8.14,4.89,4.89,0,0,1-8.19-.06A6.86,6.86,0,0,1,142.82,230Z"/></svg>