<svg xmlns="http://www.w3.org/2000/svg" xmlns:xlink="http://www.w3.org/1999/xlink" viewBox="0 0 162.77 251.16"><defs><style>.a{fill:#010101;}.b,.c{fill:#fefefe;}.b{stroke:#c5c6c8;stroke-miterlimit:10;}</style><symbol id="a" viewBox="0 0 32.96 38.86"><path class="a" d="M17.94,27.45c-.62,2.7,0,5,.66,7.29.32,1.15.69,2.28,1.06,3.42.17.5.07.7-.51.69-1.8,0-3.59,0-5.39,0-.77,0-.82-.18-.6-.87a47.6,47.6,0,0,0,2.07-7.59,12,12,0,0,0,.07-2.94,3.58,3.58,0,0,0-1.51,1.65C11.48,32.76,9,34,5.56,33S.19,29.18,0,25.23a12.56,12.56,0,0,1,3.07-8.69C7.39,11.2,11.72,5.88,16,.52c.55-.7.85-.68,1.37,0,4.4,5.68,8.88,11.29,13.2,17a11.67,11.67,0,0,1,1.8,10.8,7,7,0,0,1-5.93,5.06c-2.74.49-4.79-.74-6.38-2.87C19.38,29.6,18.76,28.63,17.94,27.45Z"/></symbol></defs><path class="b" d="M80.32,250.57c-22.92,0-45.84-.13-68.75.09-5.28.05-10.48-5.54-10.79-10a135.57,135.57,0,0,1,0-16.5c0-.32,0-.64,0-.95Q.76,139,.77,54.7C.77,47.87.92,41,.72,34.21c-.25-8,.05-16-.21-24.07C.38,6.35,2.18,4,5.2,2.19A12.21,12.21,0,0,1,11.48.54c15.09,0,30.18-.12,45.27,0C88.37.94,120,.62,151.6.76a10.67,10.67,0,0,1,9.85,6.05,8.75,8.75,0,0,1,.78,4.79c-.39,6.14-.16,12.29-.17,18.43C162,57.68,162,85.32,162,113c0,3.14-.18,6.3-.15,9.45.42,38.18.08,76.36.18,114.55,0,6-3.48,11.26-8.57,13a11.26,11.26,0,0,1-3.64.57H80.32Z"/><path class="a" d="M109.65,72a66.6,66.6,0,0,1-6.81,30c-4.74,9.5-12.21,15.71-23.17,16.13-9.56.37-17.75-2.93-23.12-11.38-.9-1.41-3.32-3-.42-5.06,2.39-1.69,4.2-3,6.77.14C74.7,116,91.45,110.17,97.08,94a42.51,42.51,0,0,0,2.58-13.23c0-1.09.69-2.58-.48-3.19s-2,.8-2.87,1.48c-10.55,8.22-22.5,8.3-32.42.21-8.85-7.21-13-22.14-9.54-34S66.93,25.48,78.21,24.66c10.77-.78,18.33,4.51,23.45,13.65C106.57,47.08,109.63,60.16,109.65,72Z"/><path class="c" d="M98.81,55.11C98.6,63,96.13,70.05,89,74.79a16.75,16.75,0,0,1-21-1.94c-9.32-8.65-9.82-25.74-.94-35,4.9-5.12,10.81-7.26,17.7-4.9C93.14,35.8,97,42.37,98.55,50.63A37,37,0,0,1,98.81,55.11Z"/><use width="32.96" height="38.86" transform="translate(47.07 146.15) scale(2.08)" xlink:href="#a"/></svg>