<svg xmlns="http://www.w3.org/2000/svg" viewBox="0 0 162.76 251.12"><defs><style>.a,.c{fill:#fefefe;}.a{stroke:#c5c6c8;stroke-miterlimit:10;}.b{fill:#030303;}</style></defs><path class="a" d="M80.24,250.57c-22.72,0-45.44-.07-68.16.05-4.8,0-7.73-2.39-10-6.12a11.28,11.28,0,0,1-1.47-5.84q-.07-6.3,0-12.59C1,181,.69,135.87.78,90.77.82,72.52.88,54.26.71,36c-.08-8.58,0-17.17-.2-25.75-.14-4.56,2.34-7,6.12-8.72a12.4,12.4,0,0,1,5.24-1C27,.56,42.21.42,57.39.59c31.37.35,62.75,0,94.13.17a10.66,10.66,0,0,1,9.88,6,9.71,9.71,0,0,1,.8,5.49c-.06.71-.14,1.42-.14,2.14q0,49.5-.09,99c0,2.94-.19,5.9-.14,8.85.43,29.11.06,58.23.19,87.35,0,9.11,0,18.22,0,27.33a13.63,13.63,0,0,1-7,12.36,10.21,10.21,0,0,1-5.41,1.28H80.24Z"/><path class="b" d="M83.19,134.31c-.56,5.7,2.16,10.28,3.92,15.26-1.23-.13-2.35-.29-3.47-.35a30.24,30.24,0,0,0-6.92.27c-.78.14-.83-.18-.7-.73a5.46,5.46,0,0,1,.4-1C78,144,79.76,140.19,80.09,136c0-.59.33-1.53-.29-1.7s-.83.79-1.09,1.33c-1.62,3.37-3.88,5.94-7.83,6.46a8.67,8.67,0,0,1-7.69-2.72,11.55,11.55,0,0,1-.57-15.47,9.33,9.33,0,0,1,10.9-2.39,3.42,3.42,0,0,0,2.15.5,16.08,16.08,0,0,0-2.39-3,10.51,10.51,0,0,1-2.66-9A10,10,0,0,1,80,101.71a14,14,0,0,1,5.78.58A10,10,0,0,1,90.9,117.5a16.16,16.16,0,0,1-2.59,3.12,2.52,2.52,0,0,0-1,1.42c.6.34,1,0,1.48-.25a10.2,10.2,0,0,1,6.76-.8,8.68,8.68,0,0,1,6.65,5.88,11.37,11.37,0,0,1-1.56,11.41,9,9,0,0,1-15.26-.59A17.45,17.45,0,0,0,83.19,134.31Z"/><path class="b" d="M10,38.62H7.45a1,1,0,0,1-1.1-1.11c0-.69.06-1.42,1.06-1.36S9,35.53,9.15,34.56C10,29.1,11.26,23.69,12.06,18.2a24.88,24.88,0,0,1,.81-3.36c.35-1.18,1.29-1.58,3.16-1.48,1.09.06,1.1,1,1.22,1.65,1.19,6.67,2.63,13.29,4.08,19.9.17.78.52,1.12,1.27,1.13,1.39,0,.78,1.11.93,1.78.18.85-.49.77-1,.78-1.52,0-3,0-4.55,0-.67,0-1.17-.18-1.18-1s-.06-1.44.91-1.51,1.09-.6.9-1.39a3.59,3.59,0,0,1-.08-.35c-.57-3.58-1.65-4.32-5.2-3.62a1.22,1.22,0,0,0-1.14,1c-.18,1.07-.43,2.11-.59,3.18a.9.9,0,0,0,.91,1.14c1.07.08,1,.84.94,1.57s-.58,1-1.24,1Z"/><path class="b" d="M18.66,48.88c1.86.46,4,.38,4.4,2.94.32,2.26-.21,3.44-1.91,4.45-2.18,1.29-3.32-.49-4.8-1.67A5.3,5.3,0,0,0,17,57.51c.65,1.29.54,1.53-.82,1.63-.7.06-1.54.35-2-.29s0-1.43.33-2.12c.18-.44.34-.89.5-1.34s.43-.7-.07-.92-.55.28-.73.57a3,3,0,0,1-4.62.88,4.18,4.18,0,0,1-1.31-4.33,3.15,3.15,0,0,1,3-2.41c1.49-.19,1.49-.19.9-1.58a3.49,3.49,0,0,1,1.39-4.76,4.33,4.33,0,0,1,5.3,1c.84,1.08.58,2.26.29,3.43C19,47.8,18.84,48.32,18.66,48.88Z"/><path class="b" d="M153.07,212.9c.72,0,1.44,0,2.15,0s1.13.19,1.12,1-.21,1.24-1.08,1.15c-1.17-.12-1.39.75-1.55,1.58-.6,3.13-1.16,6.27-1.75,9.41-.63,3.41-1.3,6.81-1.89,10.22-.22,1.26-.94,1.61-2.1,1.58s-1.8-.39-2-1.65c-1.3-6.61-2.68-13.2-4-19.8-.17-.83-.6-1.43-1.49-1.44s-.8-.59-.81-1.14.33-.92,1-.91c1.48,0,3,0,4.44,0,.61,0,1,.25,1,.92s-.09,1.18-.83,1.21c-1,.06-1.17.59-1,1.45s.43,2,.58,2.93a1.38,1.38,0,0,0,1.63,1.33c1,0,1.91,0,2.87,0a1.48,1.48,0,0,0,1.68-1.2c.21-1.06.37-2.12.54-3.18.12-.73,0-1.3-.92-1.32s-.88-.61-.88-1.25.49-.91,1.1-.91Z"/><path class="b" d="M146.63,196.61a6.43,6.43,0,0,0-.7-3.26c-.31-.9-.32-1.34.87-1.3,2.39.08,2.39,0,1.59,2.33a3.32,3.32,0,0,0-.24,1.9c.44-.07.64-.45.94-.68,1.52-1.2,2.76-1.37,4-.54a4.09,4.09,0,0,1,1.63,4.42c-.48,1.88-1.86,2.49-3.59,2.51-1,0-1.09.32-.64,1.16a3.67,3.67,0,0,1-.09,4.27,3.93,3.93,0,0,1-4,1.24,3.19,3.19,0,0,1-2.77-4.18c.2-.76.53-1.49.84-2.34-2.12-.23-4.36-.37-4.66-3.19a3.85,3.85,0,0,1,1.55-3.79C143.58,193.58,145.05,195.24,146.63,196.61Z"/><path class="c" d="M15.07,18.59a79.49,79.49,0,0,1,2,8.61c.13.67-.07.95-.77.94s-1.67.06-2.5,0c-.56,0-.92-.31-.77-.93.66-2.82,1-5.72,1.86-8.49C14.89,18.69,15,18.65,15.07,18.59Z"/><path class="c" d="M150.19,223A82.72,82.72,0,0,1,148,233.7a57.69,57.69,0,0,1-1.76-7.12c-.18-.82-.28-1.65-.49-2.46s.11-1.05.79-1.07C147.73,223,148.93,223,150.19,223Z"/></svg>