<svg xmlns="http://www.w3.org/2000/svg" xmlns:xlink="http://www.w3.org/1999/xlink" viewBox="0 0 162.76 251.12"><defs><style>.a{fill:#1d1d14;}.b{fill:#fefefe;stroke:#c5c6c8;stroke-miterlimit:10;}.c{fill:#070707;}.d{fill:#fcfcfc;}</style><symbol id="a" viewBox="0 0 36.15 39.55"><path class="a" d="M16.43,26.84a17.37,17.37,0,0,1-3.45,5c-2.53,2.46-6.58,1.91-8.66.6A9.45,9.45,0,0,1,1.7,19.09c2.41-3.3,6.05-4.21,10.12-2.52l.54.26c.22.08.49.18.62-.08,0-.11-.09-.37-.21-.51-.66-.79-1.4-1.54-2-2.36A8.38,8.38,0,0,1,12.4,1.64,9.09,9.09,0,0,1,17.06.06,10.11,10.11,0,0,1,24.27,2a8.17,8.17,0,0,1,2.35,9.9,10.71,10.71,0,0,1-2.29,3.33,4.56,4.56,0,0,0-1.25,1.59c.57.31,1-.07,1.44-.26a8.28,8.28,0,0,1,9.58,2.16c4.61,5.88.73,13.54-4.74,14.6-2.58.5-4.94.11-6.83-2.05a10.62,10.62,0,0,1-2.05-3A1.86,1.86,0,0,0,19.24,27a17.87,17.87,0,0,0,1.49,7.4c.53,1.29,1.11,2.55,1.66,3.82.42,1,.16,1.4-.85,1.25a25.42,25.42,0,0,0-7.13,0c-1.08.14-1.2-.08-.8-1.13.94-2.44,2.32-4.71,2.78-7.33A10.62,10.62,0,0,0,16.43,26.84Z"/></symbol></defs><path class="b" d="M80.24,250.57c-22.72,0-45.44-.07-68.16.05-4.8,0-7.73-2.39-10-6.12a11.28,11.28,0,0,1-1.47-5.84q-.07-6.3,0-12.59C1,181,.69,135.87.78,90.77.82,72.52.88,54.26.71,36c-.08-8.58,0-17.17-.2-25.75-.14-4.56,2.34-7,6.12-8.72a12.4,12.4,0,0,1,5.24-1C27,.56,42.21.42,57.39.59c31.37.35,62.75,0,94.13.17a10.66,10.66,0,0,1,9.88,6,9.71,9.71,0,0,1,.8,5.49c-.06.71-.14,1.42-.14,2.14q0,49.5-.09,99c0,2.94-.19,5.9-.14,8.85.43,29.11.06,58.23.19,87.35,0,9.11,0,18.22,0,27.33a13.63,13.63,0,0,1-7,12.36,10.21,10.21,0,0,1-5.41,1.28H80.24Z"/><use width="36.15" height="39.55" transform="translate(45.93 148.05) scale(1.98)" xlink:href="#a"/><path class="c" d="M61.68,119.69c-3.09,0-6.19,0-9.28,0-1.59,0-3.25.16-3.07-2.23.14-1.91-1.5-4.81,2-5.07,6.31-.45,7.39-4.53,8.32-9.81C64.1,77.66,68.93,52.8,73.53,27.9c.46-2.5,1.24-3.82,4.12-3.53,3.37.34,7.61-1,10,.6s1.89,6.23,2.57,9.54q7.48,36.3,14.91,72.61c.51,2.48,1.39,4.29,4.31,4.48a6.34,6.34,0,0,1,2.91,1.32c1.85,1.3,1.47,3.14,1.11,5s-1.67,1.91-3.13,1.9c-5.56,0-11.14.08-16.7-.1-1.24,0-3.31.94-3.69-1.54-.33-2.14-1.17-5,1.37-5.74,6.18-1.82,4.71-5.8,3.63-10A77.15,77.15,0,0,1,93,92.92c-.26-2-1.2-2.49-3-2.49-5.25,0-10.51-.1-15.75-.34-2.33-.11-3.28.75-3.65,3-.68,4.26-1.57,8.5-2.53,12.71-.58,2.58-.36,4.49,2.55,5.43a9.14,9.14,0,0,1,3.11,1.94c1.42,1.29,1.36,2.87.83,4.68-.61,2.07-2,2-3.6,2-3.1,0-6.19,0-9.28,0Z"/><path class="d" d="M81.19,41.43c3.7,9.29,5.18,18.56,7,27.74.52,2.56,1,5.14,1.6,7.67.58,2.33.45,3.69-2.53,4-4,.41-8,.09-12,.28-1.79.08-2-.9-1.81-2.33,1.27-7.75,2.4-15.52,3.86-23.23A76.11,76.11,0,0,1,81.19,41.43Z"/></svg>