<svg xmlns="http://www.w3.org/2000/svg" viewBox="0 0 162.56 251.06"><defs><style>.a,.c{fill:#fefefe;}.a{stroke:#c5c6c8;stroke-miterlimit:10;}.b{fill:#cf2101;}</style></defs><path class="a" d="M.72,129.25q0-37.22,0-74.42C.71,42.88.73,30.93.62,19,.6,15.8.53,12.61.5,9.41A7.1,7.1,0,0,1,3.21,3.56a13,13,0,0,1,8.37-3c4.08,0,8.15,0,12.22,0,42.44.39,84.88.11,127.32.17a11.69,11.69,0,0,1,9,4.05,7.83,7.83,0,0,1,2,5.62c-.05,5.39,0,10.78,0,16.18,0,24.61.09,49.22-.08,73.83-.22,32.35-.08,64.71-.1,97.06,0,4.83.24,9.67.1,14.5-.24,8.62-.15,17.25-.1,25.87a13.27,13.27,0,0,1-9.24,12.37,9.07,9.07,0,0,1-2.26.21c-12.29.05-24.59.14-36.88.15q-37.56,0-75.11,0l-26.23,0A11.3,11.3,0,0,1,1,241.77a13.32,13.32,0,0,1-.29-3.33V129.25Z"/><path class="b" d="M61.08,125.6a1.83,1.83,0,0,1,.57-1.28Q71,112.73,80.4,101.14c.86-1.07,1.16-1.06,2,0L101,123.8c1.17,1.42,1.19,1.61,0,3.07q-9,11.38-18.13,22.76c-1.1,1.38-1.36,1.38-2.51,0L61.75,127A2.09,2.09,0,0,1,61.08,125.6Z"/><path class="b" d="M153.83,212.42c.83,0,1.67,0,2.51,0,.64,0,1,.23.93.89s0,1.58-.89,1.52c-1.55-.09-1.81.84-1.9,2-.19,2.46-.85,4.84-1.26,7.26-.65,3.87-1.35,7.72-2,11.59a2.51,2.51,0,0,1-3.71,1.72,1.42,1.42,0,0,1-.77-1.14c-.52-4-1.68-7.87-2.37-11.84-.48-2.75-1.21-5.45-1.81-8.18-.19-.89-.53-1.48-1.59-1.33-.79.12-.57-.56-.53-.9.06-.54-.44-1.47.59-1.52a51.27,51.27,0,0,1,5.26,0c.87.05.51.93.61,1.44a.77.77,0,0,1-.86,1c-1-.14-1.06.25-.85,1.07a21,21,0,0,1,.59,3.13,1.18,1.18,0,0,0,1.32,1.2c1.15,0,2.3,0,3.46,0,.71,0,1-.55,1.14-1.18s.27-1.57.41-2.36c.17-.95.52-1.88-1-2.05-.79-.09-.65-1.06-.63-1.63s.57-.75,1.17-.71c.75,0,1.51,0,2.27,0Z"/><path class="b" d="M8.76,38.61a18.19,18.19,0,0,1-2.66,0c-1.13-.11-.7-.93-.77-1.53s.31-1,.94-.86c1.12.18,1.47-.3,1.7-1.39,1.38-6.47,2.33-13,3.56-19.51.21-1.08.48-1.86,1.83-1.84,2.05,0,2.17,0,2.54,1.71,1.42,6.49,2.84,13,4.21,19.5.19.9.53,1.47,1.51,1.51.83,0,.92.63.91,1.27a1,1,0,0,1-1,1c-1.4,0-2.79.06-4.19.07-.71,0-1.35-.1-1.42-1s.19-1.27,1.08-1.35c.62,0,.85-.53.75-1.14,0-.28-.12-.54-.16-.82-.62-3.91-1.56-3.85-5.3-3.47a1.17,1.17,0,0,0-1.15,1.05c-.1,1.38-1,2.73-.28,4.15.13.26.47.27.75.31,1.11.14.82,1.09.82,1.69s-.62.69-1.18.67C10.51,38.59,9.79,38.61,8.76,38.61Z"/><path class="b" d="M155.24,199.73a2.7,2.7,0,0,1-.86,1.84c-1.68,1.45-2.72,3.41-4.12,5.08-1.54,1.84-1.41,2-2.9.15-1.63-2-3.2-4-4.92-5.9a1.25,1.25,0,0,1-.14-1.85q2.67-3.37,5.44-6.67c.64-.76,1.24-.87,2,.1,1.61,2.1,3.36,4.08,5.07,6.1A1.83,1.83,0,0,1,155.24,199.73Z"/><path class="b" d="M20.61,50.87a2,2,0,0,1-.52,1.18c-1.67,2.09-3.33,4.18-5,6.26-.86,1.06-1.42,1-2.25-.09C11.46,56.45,10,54.74,8.55,53c-1.62-1.9-1.8-2.1-.24-3.84s2.94-3.94,4.66-5.71c.89-.91,1.17-.94,2,.05,1.71,2,3.4,4.12,5.1,6.18A2.27,2.27,0,0,1,20.61,50.87Z"/><path class="c" d="M148.75,233.44c-.46-2.08-.91-4.17-1.37-6.26-.22-1-.42-2-.65-3-.2-.84.11-1.27,1-1.41,2.83-.47,3.26,0,2.81,2.82A38.29,38.29,0,0,1,148.75,233.44Z"/><path class="c" d="M14,17.85c.43,2,.87,3.93,1.29,5.89.26,1.17.48,2.34.75,3.5.15.63,0,1-.69,1h-.12c-1,.06-2.28.41-3-.15s-.11-1.86,0-2.81c.35-2.28.8-4.54,1.22-6.81a3.18,3.18,0,0,1,.26-.64Z"/></svg>