<svg xmlns="http://www.w3.org/2000/svg" xmlns:xlink="http://www.w3.org/1999/xlink" viewBox="0 0 162.56 251.06"><defs><style>.a{fill:#cf2101;}.b{fill:#fefefe;stroke:#c5c6c8;stroke-miterlimit:10;}.c{fill:#fff;}</style><symbol id="a" viewBox="0 0 40.83 50.32"><path class="a" d="M0,25.26A1.85,1.85,0,0,1,.57,24L19.32.8c.87-1.07,1.17-1.06,2,0L40,23.46c1.16,1.42,1.18,1.61,0,3.07Q30.91,37.91,21.84,49.29c-1.11,1.38-1.36,1.38-2.52,0Q10,38,.68,26.62A2.15,2.15,0,0,1,0,25.26Z"/></symbol></defs><path class="b" d="M.72,129.25q0-37.22,0-74.42C.71,42.88.73,30.93.62,19,.6,15.8.53,12.61.5,9.41A7.1,7.1,0,0,1,3.21,3.56a13,13,0,0,1,8.37-3c4.08,0,8.15,0,12.22,0,42.44.39,84.88.11,127.32.17a11.69,11.69,0,0,1,9,4.05,7.83,7.83,0,0,1,2,5.62c-.05,5.39,0,10.78,0,16.18,0,24.61.09,49.22-.08,73.83-.22,32.35-.08,64.71-.1,97.06,0,4.83.24,9.67.1,14.5-.24,8.62-.15,17.25-.1,25.87a13.27,13.27,0,0,1-9.24,12.37,9.07,9.07,0,0,1-2.26.21c-12.29.05-24.59.14-36.88.15q-37.56,0-75.11,0l-26.23,0A11.3,11.3,0,0,1,1,241.77a13.32,13.32,0,0,1-.29-3.33V129.25Z"/><path class="a" d="M61.62,119.93c-3.09,0-6.18,0-9.27,0-1.6,0-3.25.16-3.07-2.23.14-1.91-1.51-4.81,2-5.07,6.31-.45,7.39-4.53,8.33-9.8C64,77.9,68.87,53,73.47,28.14c.46-2.5,1.24-3.82,4.13-3.53,3.37.34,7.6-1,10,.6s1.89,6.23,2.57,9.54Q97.6,71.05,105,107.36c.51,2.48,1.39,4.29,4.31,4.48a6.44,6.44,0,0,1,2.91,1.32c1.86,1.3,1.48,3.14,1.11,5s-1.66,1.91-3.12,1.91c-5.57,0-11.14.07-16.7-.11-1.25,0-3.32.94-3.7-1.54-.33-2.14-1.17-5,1.37-5.74,6.19-1.82,4.72-5.8,3.63-10A79.59,79.59,0,0,1,93,93.16c-.26-2-1.2-2.49-3-2.49-5.25,0-10.5-.1-15.75-.34-2.33-.1-3.28.75-3.64,3-.69,4.26-1.58,8.5-2.53,12.71-.59,2.58-.36,4.49,2.54,5.43a9,9,0,0,1,3.11,2c1.42,1.28,1.36,2.86.83,4.67-.6,2.07-2,2-3.6,2-3.09,0-6.19,0-9.28,0Z"/><path class="c" d="M81.14,41.67c3.69,9.29,5.17,18.56,7,27.74.52,2.56,1,5.14,1.59,7.67.58,2.33.45,3.69-2.53,4-4,.41-8,.09-12,.28-1.78.08-2-.9-1.81-2.33,1.27-7.74,2.4-15.52,3.87-23.23A75.33,75.33,0,0,1,81.14,41.67Z"/><use width="40.83" height="50.32" transform="translate(49.89 148.25) scale(1.56)" xlink:href="#a"/></svg>