<svg xmlns="http://www.w3.org/2000/svg" xmlns:xlink="http://www.w3.org/1999/xlink" viewBox="0 0 162.6 251.17"><defs><style>.a{fill:#fefefe;stroke:#c5c6c8;stroke-miterlimit:10;}.b{fill:#cb3329;}</style><symbol id="a" viewBox="0 0 162.6 251.17"><path class="a" d="M.72,129.38c0-36.75.61-80.57-.21-117.31C.29,6.07,5.38.21,13,.51,55.4,1,105.72.76,148.16.82c11.24-.09,14.13,8,13.93,14.19,0,70.42-.34,152.51-.25,222.92-.21,7.3-5.83,12.53-11.5,12.58-12.3.05-24.59.14-36.89.15-25,0-73.43-.5-98.46-.26C5.92,250.67.48,247.73.86,237.67,0,200.23.93,166.87.66,129.38Z"/></symbol></defs><use width="162.6" height="251.17" xlink:href="#a"/><path class="b" d="M60,114.18c.12-3,.81-6,3.08-8.33,3.85-4,10-4,14.31-.1a12.61,12.61,0,0,1,2.44,3.09c.23.41.37,1,.91,1s.69-.59.93-1a11.09,11.09,0,0,1,7.49-5.67c6.11-1.18,11.16.93,12.41,8.14a18.46,18.46,0,0,1-1.23,10.43c-2.49,6-6.39,11.11-10.34,16.18-2.49,3.17-5.14,6.21-7.84,9.21-.91,1-1.23,1.05-2.11.1C74.34,141,68.8,134.62,64.33,127.39c-2.3-3.72-4.21-7.62-4.31-12.14C60,114.93,60,114.62,60,114.18Z"/><path class="b" d="M139.33,204.3a8.84,8.84,0,0,1,1.3-4.43,43.75,43.75,0,0,1,5.66-7.53c.54-.63,1.11-.75,1.7-.07a44.51,44.51,0,0,1,5.95,7.76,7.51,7.51,0,0,1,1.09,5.14,3.75,3.75,0,0,1-2.57,3.16,3.7,3.7,0,0,1-4.05-1.05c-.79-.85-1.27-1-2.14-.1a3.91,3.91,0,0,1-4.58,1.07A4,4,0,0,1,139.33,204.3Z"/><path class="b" d="M7.2,46.28c.07-1.69.36-3.28,2.14-4.07s3.21-.39,4.75,1.16c.55.55,1,.74,1.55.07a5.11,5.11,0,0,1,1.12-.89,3.74,3.74,0,0,1,6,3.08A7.59,7.59,0,0,1,22,49.58a42.42,42.42,0,0,1-6.15,8.5c-.48.55-1,.65-1.54.08-2.47-2.77-4.93-5.56-6.51-9A6,6,0,0,1,7.2,46.28Z"/><path class="b" d="M153.31,212.44h2.28c.71,0,1.12.3,1.12,1.08s-.13,1.26-1,1.24c-1.34,0-1.61,1-1.79,2-.91,5.06-1.8,10.13-2.7,15.19-.23,1.3-.43,2.6-.73,3.88a2.22,2.22,0,0,1-3,1.77,1.46,1.46,0,0,1-1.23-1.27c-1.38-6.43-2.79-12.85-4.15-19.28-.24-1.11-.43-2.12-1.87-2.23-.7-.05-.65-.69-.62-1.22s.15-1,.78-1c1.63,0,3.27,0,4.9,0,.58,0,.85.36.87.93s.09,1.23-.65,1.33c-1.39.18-1.28,1-1,2,1,3.83,0,3.54,4.58,3.52,1.55,0,1.86-.35,2.08-1.86.11-.75.26-1.49.38-2.24s-.1-1.28-.92-1.39-.92-.68-.9-1.39.56-1,1.2-1c.8,0,1.6,0,2.39,0Zm-4.94,20.28a56.53,56.53,0,0,0,1.64-8.31c.07-.58.13-1.21-.48-1.62a5.49,5.49,0,0,0-3.37.25c-.54.57.11,1.17.09,1.77a3.88,3.88,0,0,0,.17.94A32.6,32.6,0,0,0,148.37,232.72Z"/><path class="b" d="M9.24,38.8c-.71,0-1.43,0-2.15,0s-1.16-.22-1.16-1,.09-1.33,1-1.32c1.18,0,1.57-.7,1.75-1.72,1.1-6.28,2.23-12.56,3.33-18.85.34-1.91.71-2.25,2.55-2.23a1.64,1.64,0,0,1,1.86,1.53c1.29,6.41,2.67,12.8,4,19.2.22,1,.48,1.94,1.77,2.06.74.06.65.67.64,1.19s-.2,1-.88,1c-1.55,0-3.11,0-4.67,0a.81.81,0,0,1-.89-.9c0-.52-.21-1.21.61-1.34,1.22-.19,1.26-.89,1-1.91-1-4.5-.4-3.57-4.65-3.73a1.62,1.62,0,0,0-1.9,1.66c-.07.83-.28,1.65-.4,2.48s0,1.28.87,1.39.83.81.82,1.46-.47.94-1.11.94Zm5-21c-.78,2.7-1,5.32-1.6,7.89-.67,3.11.38,3.13,2.85,2.75.79-.13,1.08-.52.9-1.34-.33-1.48-.54-3-.88-4.46A31,31,0,0,0,14.27,17.84Z"/></svg>