<svg xmlns="http://www.w3.org/2000/svg" xmlns:xlink="http://www.w3.org/1999/xlink" viewBox="0 0 162.6 251.17"><defs><style>.a{fill:#fefefe;stroke:#c5c6c8;stroke-miterlimit:10;}.b{fill:#cb3329;}.c{fill:#cf2101;}.d{fill:#fff;}</style><symbol id="a" viewBox="0 0 162.6 251.17"><path class="a" d="M.72,129.38c0-36.75.61-80.57-.21-117.31C.29,6.07,5.38.21,13,.51,55.4,1,105.72.76,148.16.82c11.24-.09,14.13,8,13.93,14.19,0,70.42-.34,152.51-.25,222.92-.21,7.3-5.83,12.53-11.5,12.58-12.3.05-24.59.14-36.89.15-25,0-73.43-.5-98.46-.26C5.92,250.67.48,247.73.86,237.67,0,200.23.93,166.87.66,129.38Z"/></symbol><symbol id="b" viewBox="0 0 41.85 45.12"><path class="b" d="M0,11.37c.12-3,.81-6,3.08-8.33,3.86-4,10-4.06,14.31-.1A12.51,12.51,0,0,1,19.83,6c.24.41.38,1,.91,1s.7-.59.93-1A11.11,11.11,0,0,1,29.16.37c6.11-1.19,11.17.93,12.41,8.14a18.54,18.54,0,0,1-1.22,10.43C37.86,25,34,30.05,30,35.12c-2.48,3.17-5.14,6.21-7.83,9.21-.92,1-1.24,1.05-2.11.1C14.33,38.2,8.78,31.81,4.31,24.58,2,20.85.1,17,0,12.44Z"/></symbol></defs><use width="162.6" height="251.17" xlink:href="#a"/><use width="41.85" height="45.12" transform="translate(45.56 149.4) scale(1.71)" xlink:href="#b"/><path class="c" d="M63.07,118.17c-3.09,0-6.19,0-9.28,0-1.59,0-3.25.16-3.07-2.23.14-1.91-1.5-4.82,2-5.07,6.31-.45,7.39-4.53,8.32-9.81,4.42-24.93,9.25-49.79,13.85-74.69.46-2.5,1.24-3.83,4.12-3.53,3.37.34,7.61-1,10,.6s1.89,6.23,2.57,9.54q7.49,36.3,14.91,72.61c.51,2.48,1.39,4.29,4.31,4.48a6.34,6.34,0,0,1,2.91,1.32c1.85,1.3,1.47,3.14,1.11,5s-1.67,1.92-3.13,1.91c-5.56,0-11.13.08-16.7-.1-1.24,0-3.31.94-3.69-1.55-.33-2.13-1.17-5,1.37-5.73,6.18-1.82,4.71-5.8,3.63-10a77.51,77.51,0,0,1-1.87-9.53c-.26-2-1.2-2.49-3-2.5-5.25,0-10.51-.09-15.75-.33-2.33-.11-3.28.75-3.65,3-.68,4.26-1.57,8.5-2.53,12.71-.58,2.57-.36,4.49,2.55,5.43a9.14,9.14,0,0,1,3.11,1.94c1.42,1.28,1.36,2.87.83,4.68-.61,2.07-2,2-3.6,2-3.1,0-6.19,0-9.28,0Z"/><path class="d" d="M82.58,39.91c3.7,9.29,5.18,18.56,7,27.73.52,2.57,1,5.15,1.6,7.68.58,2.32.45,3.69-2.53,4-4,.4-8,.09-12,.27-1.79.09-2-.89-1.81-2.32,1.27-7.75,2.4-15.52,3.86-23.23A76.11,76.11,0,0,1,82.58,39.91Z"/></svg>