<svg xmlns="http://www.w3.org/2000/svg" viewBox="0 0 162.73 251.13"><defs><style>.a,.e{fill:#fefefe;}.a{stroke:#c5c6c8;stroke-miterlimit:10;}.b{fill:#020202;}.c{fill:#070707;}.d{fill:#fcfcfc;}</style></defs><path class="a" d="M80.2,250.59c-22.92,0-45.84,0-68.75,0-3.42,0-5.84-1.56-7.94-3.94a12.37,12.37,0,0,1-3-8.6c0-3.64,0-7.27,0-10.91C1,182.08.67,137,.76,91.88c0-19.1.12-38.2-.08-57.3C.6,26.28.7,18,.5,9.67c-.07-3.21,1.48-5.34,4-7A12.87,12.87,0,0,1,11.92.54c15,0,29.95-.13,44.92,0,31.61.36,63.23,0,94.84.18a10.55,10.55,0,0,1,9.72,6,9.65,9.65,0,0,1,.74,5.6c0,.51-.12,1-.12,1.54q0,37.63,0,75.28c0,7.59,0,15.18,0,22.77,0,3.35-.23,6.7-.18,10,.46,30,.08,59.91.21,89.87,0,8.15,0,16.3,0,24.45,0,3.08-.45,6-2.32,8.61a13,13,0,0,1-6.81,5.18,11.81,11.81,0,0,1-3.3.42H80.2Z"/><path class="b" d="M81.26,55.58A5.67,5.67,0,0,1,82.46,57C91.17,70.3,101,82.68,111.17,94.87c5.89,7.08,11.88,14.1,16.94,21.83A43,43,0,0,1,134.82,132c1.06,5.54,1.09,11-1.3,16.29a20.57,20.57,0,0,1-19.9,12.31,19.75,19.75,0,0,1-15-7.64c-2.43-3-4.6-6.22-6.88-9.35a12.6,12.6,0,0,0-1.82-2,11.79,11.79,0,0,1-3-4.71,9.52,9.52,0,0,0-1.14-2.36c-1.07-1.4-2.25-1.25-3,.36a4.26,4.26,0,0,0-.31,1.64c-.08,3.95.33,7.81,2.57,11.24a5.76,5.76,0,0,1,.39.74,2.43,2.43,0,0,1,.06.42,72.17,72.17,0,0,1-8.7,0,3.33,3.33,0,0,1,.55-1.54c2.25-3.77,2.62-7.88,2.2-12.13-.09-.91-.41-1.64-1.39-1.85-.79-.18-1.57.3-2,1.38A19.63,19.63,0,0,1,72.9,141c-3.37,3.85-6.05,8.23-9.33,12.14-5.39,6.43-12.34,9-20.53,7-8.39-2.08-13.57-7.7-15.4-16.09-1.55-7.15-.12-14,3.11-20.54a94.14,94.14,0,0,1,11.41-17.21c8-9.83,16.16-19.46,23.91-29.47,5.06-6.53,9.77-13.31,14.43-20.12C80.72,56.31,81,56,81.26,55.58Z"/><path class="b" d="M70.62,172c.2-.34.28-.52.39-.67a45.58,45.58,0,0,0,4.74-8.56A1.14,1.14,0,0,1,77,162c2.83.06,5.66.08,8.5.09a.93.93,0,0,1,1,.5c1.67,3,3.36,6,5.17,9.28A167.54,167.54,0,0,1,70.62,172Z"/><path class="c" d="M153,212.35h2.16c.64,0,1.19.13,1.28.93s-.32,1.08-1,1.17c-1,.13-1.47.62-1.67,1.74-1.17,6.76-2.49,13.49-3.71,20.23-.13.73-.39.89-1.07.9-2.54,0-2.61.05-3.14-2.45-1.28-6-2.49-11.94-3.73-17.92-.25-1.2-.57-2.29-2.05-2.6-.77-.17-.2-.95-.3-1.44s.27-.48.6-.48c1.48,0,3,0,4.43,0,.31,0,.79-.21.89.31s.37,1.29-.28,1.51c-1.61.56-1.16,1.67-.9,2.76.21.92.05,2.15.69,2.7S147,220,148,220c2.72.11,2.73.08,3.23-2.61.06-.35.13-.7.22-1,.2-.78.25-1.46-.76-1.76a1.19,1.19,0,0,1-.77-1.12c-.12-1,0-1.1,1-1.11Z"/><path class="c" d="M9.73,37.94H7.33c-.41,0-.84,0-.79-.58s-.39-1.24.52-1.31C8.69,36,9,34.89,9.21,33.53c1.14-6.43,2.39-12.85,3.57-19.28.12-.64.32-1,1.07-.91s2-.26,2.57.16.49,1.6.66,2.46Q19,25.32,20.93,34.7c.13.64.36,1.11,1.11,1.16a1.5,1.5,0,0,1,.75.34c.48.33.38.81.29,1.3s-.43.49-.81.49c-1.43,0-2.87,0-4.31,0-.32,0-.85.24-.95-.4s-.3-1.28.35-1.48c1.6-.47,1.22-1.49.94-2.59A18.44,18.44,0,0,1,17.82,31c-.07-.52-.31-.64-.78-.64-1.36,0-2.72,0-4.07-.09-.6,0-.85.2-.94.79-.18,1.1-.41,2.19-.65,3.28-.16.66-.1,1.16.65,1.4a2.29,2.29,0,0,1,.81.5,1.07,1.07,0,0,1,.21,1.21c-.16.53-.52.51-.93.51-.8,0-1.6,0-2.39,0Z"/><path class="b" d="M15.24,54.12l.5,3.53c-.1.05-.16.13-.23.13-2.13.11-2.12.11-1.81-2A6,6,0,0,0,14,53.71c-.63.12-.9.67-1.33,1-2,1.52-4.17.78-4.76-1.63a4.26,4.26,0,0,1,.46-3.58c2-2.85,4.15-5.62,6.32-8.54,2.19,3,4.48,5.72,6.31,8.79A4.7,4.7,0,0,1,21,53.92a2.9,2.9,0,0,1-4.44,1c-.39-.33-.61-.86-1.2-.92C15.19,53.84,15.34,54.12,15.24,54.12Z"/><path class="b" d="M146.68,192c2.49-.32,2.49-.32,2.11,2-.08.51-.17,1-.25,1.54,0,.06.07.13.11.21.48.05.65-.39.94-.63a3.21,3.21,0,0,1,3.43-.68,3,3,0,0,1,1.75,2.9,5,5,0,0,1-.93,3.37c-1.87,2.67-3.87,5.25-5.91,8-1.31-1.72-2.59-3.38-3.85-5.06-.75-1-1.44-2-2.17-3a4.83,4.83,0,0,1-.66-4.21,2.59,2.59,0,0,1,2.14-2.16,3.12,3.12,0,0,1,3.13,1.29c.17.22.19.73.61.57s.24-.61.18-.94C147.11,194.06,146.89,193,146.68,192Z"/><path class="c" d="M87.85,157.81a17.66,17.66,0,0,1-4.21.43,64.71,64.71,0,0,1-8-.18c-1.09-.11-1.1-.09-.56-1.09.71-1.33,1.44-2.65,2.15-4a1,1,0,0,1,1-.66c2,.06,4.06.08,6.09.08a.85.85,0,0,1,.84.52C86,154.52,86.91,156.11,87.85,157.81Z"/><path class="d" d="M62.71,150.14a9.67,9.67,0,0,1-5.58,2.39c-8.32,1.38-17-3.88-18.75-14.15-1-6,.74-11.53,3.47-16.8a74.28,74.28,0,0,1,7.55-10.9c6.28-8.11,13-15.87,19.26-24,4.06-5.28,8-10.66,11.67-16.22.92-1.4,1-1.41,1.86-.08,7.94,12,17,23,26.15,34.09A158.22,158.22,0,0,1,120.1,120.6c3.87,6.13,5.36,12.8,3.53,19.92-2.49,9.69-13.45,14.94-22.34,10.86a5,5,0,0,1-1.39-.88,4.93,4.93,0,0,1,2.1-.23c5.09-.1,9.22-2,12-6.42a16.42,16.42,0,0,0,2.26-8.32,24.69,24.69,0,0,0-4-14.17c-3.91-6.27-8.41-12.12-12.89-18-5.88-7.7-11.66-15.49-16.82-23.7-1.25-2-1.28-2-2.54,0a300.67,300.67,0,0,1-17.72,24.83,158.85,158.85,0,0,0-13.05,18.88,21.42,21.42,0,0,0-2,17.65,12.79,12.79,0,0,0,12,9C60.39,150.19,61.55,150.14,62.71,150.14Z"/><path class="d" d="M69.51,143.66c-1,1.49-2.66,1.77-4.26,1.91-4.7.42-8.92-2.41-10.56-7.3-1.8-5.38-.87-10.54,1.86-15.41,3.68-6.56,8.2-12.54,12.6-18.61,4-5.44,7.77-11,11.2-16.81.22-.37.5-.71.75-1.08a3,3,0,0,1,1.1,1.13c5.31,8.92,11.52,17.23,17.61,25.61a63.47,63.47,0,0,1,7.21,12,18.57,18.57,0,0,1,1.07,12.16,10.63,10.63,0,0,1-11,8.37,6.09,6.09,0,0,1-4-1.92c1.14,0,2,.26,3,.25a9.28,9.28,0,0,0,9.14-8.3A14.62,14.62,0,0,0,103,126c-3.18-5-6.94-9.63-10.56-14.34-3.33-4.34-6.71-8.64-10.06-13a3.11,3.11,0,0,0-.23-.28c-.9-1.12-1.07-1.13-1.86,0-2.44,3.65-5.08,7.15-7.82,10.57-3.12,3.9-6.29,7.75-9.39,11.66a47.76,47.76,0,0,0-4,6.07,12.75,12.75,0,0,0-1.35,10.79,9,9,0,0,0,10.07,6.22,4.55,4.55,0,0,1,1.76-.13Z"/><path class="d" d="M69.54,143.68c-.09-.08-.07-.14,0-.16s.11,0,.1,0-.07.14-.17.1Z"/><path class="d" d="M148.2,232.87a27.37,27.37,0,0,1-1.75-6.18c-.2-1-.29-2-.45-2.94-.13-.76,0-1.21.93-1.09a15.25,15.25,0,0,0,1.79,0c1.51,0,1.51,0,1.26,1.44l-1.44,8A1.12,1.12,0,0,1,148.2,232.87Z"/><path class="d" d="M14.76,17.74a40,40,0,0,1,1.82,7.16c.13.66.24,1.33.41,2s.11,1-.65,1c-1,.11-2.07,0-3.1.07-.46,0-.53-.23-.47-.6.33-2,.62-4,1-6A19.82,19.82,0,0,1,14.76,17.74Z"/><path class="e" d="M15.24,54.12c-.06-.1-.09-.21,0-.29s.09.1.13.15A1.07,1.07,0,0,1,15.24,54.12Z"/></svg>