<svg xmlns="http://www.w3.org/2000/svg" xmlns:xlink="http://www.w3.org/1999/xlink" viewBox="0 0 162.73 251.13"><defs><style>.a{fill:#010101;}.b{fill:#fefefe;stroke:#c5c6c8;stroke-miterlimit:10;}.c{fill:#070707;}.d{fill:#fcfcfc;}</style><symbol id="a" viewBox="0 0 32.96 38.86"><path class="a" d="M17.94,27.45c-.62,2.7,0,5,.66,7.29.32,1.15.69,2.28,1.06,3.42.17.5.07.7-.51.69-1.8,0-3.59,0-5.39,0-.77,0-.82-.18-.6-.87a47.6,47.6,0,0,0,2.07-7.59,12,12,0,0,0,.07-2.94,3.58,3.58,0,0,0-1.51,1.65C11.48,32.76,9,34,5.56,33S.19,29.18,0,25.23a12.56,12.56,0,0,1,3.07-8.69C7.39,11.2,11.72,5.88,16,.52c.55-.7.85-.68,1.37,0,4.4,5.68,8.88,11.29,13.2,17a11.67,11.67,0,0,1,1.8,10.8,7,7,0,0,1-5.93,5.06c-2.74.49-4.79-.74-6.38-2.87C19.38,29.6,18.76,28.63,17.94,27.45Z"/></symbol></defs><path class="b" d="M80.2,250.59c-22.92,0-45.84,0-68.75,0-3.42,0-5.84-1.56-7.94-3.94a12.37,12.37,0,0,1-3-8.6c0-3.64,0-7.27,0-10.91C1,182.08.67,137,.76,91.88c0-19.1.12-38.2-.08-57.3C.6,26.28.7,18,.5,9.67c-.07-3.21,1.48-5.34,4-7A12.87,12.87,0,0,1,11.92.54c15,0,29.95-.13,44.92,0,31.61.36,63.23,0,94.84.18a10.55,10.55,0,0,1,9.72,6,9.65,9.65,0,0,1,.74,5.6c0,.51-.12,1-.12,1.54q0,37.63,0,75.28c0,7.59,0,15.18,0,22.77,0,3.35-.23,6.7-.18,10,.46,30,.08,59.91.21,89.87,0,8.15,0,16.3,0,24.45,0,3.08-.45,6-2.32,8.61a13,13,0,0,1-6.81,5.18,11.81,11.81,0,0,1-3.3.42H80.2Z"/><path class="c" d="M61.65,119c-3.09,0-6.18,0-9.28,0-1.59,0-3.24.16-3.07-2.23.15-1.91-1.5-4.82,2-5.07,6.31-.45,7.39-4.53,8.33-9.81C64.07,77,68.9,52.15,73.5,27.25c.46-2.5,1.24-3.82,4.13-3.53,3.36.34,7.6-1,10,.6s1.89,6.23,2.57,9.54q7.48,36.3,14.91,72.61c.51,2.48,1.39,4.29,4.31,4.48a6.34,6.34,0,0,1,2.91,1.32c1.85,1.3,1.48,3.14,1.11,5s-1.67,1.91-3.12,1.9c-5.57,0-11.14.08-16.71-.1-1.24,0-3.31.94-3.69-1.55-.33-2.13-1.17-5,1.37-5.73,6.18-1.82,4.72-5.8,3.63-10A79.43,79.43,0,0,1,93,92.27c-.26-2-1.2-2.49-3-2.5-5.25,0-10.51-.09-15.75-.33-2.33-.11-3.28.75-3.65,3C69.89,96.73,69,101,68,105.18c-.58,2.57-.36,4.49,2.55,5.43a9.14,9.14,0,0,1,3.11,1.94c1.42,1.28,1.36,2.87.83,4.68-.6,2.07-2,2-3.6,2-3.09,0-6.19,0-9.28,0Z"/><path class="d" d="M81.16,40.78c3.7,9.29,5.18,18.56,7,27.74.51,2.56,1,5.14,1.59,7.67.58,2.33.45,3.69-2.53,4-4,.4-8,.09-12,.28-1.78.08-2-.9-1.81-2.33,1.27-7.75,2.4-15.52,3.87-23.23A75.26,75.26,0,0,1,81.16,40.78Z"/><use width="32.96" height="38.86" transform="translate(47.05 146.17) scale(2.08)" xlink:href="#a"/></svg>