<svg xmlns="http://www.w3.org/2000/svg" xmlns:xlink="http://www.w3.org/1999/xlink" viewBox="0 0 162.77 251.15"><defs><style>.a{fill:#1d1d14;}.b{fill:#fefefe;stroke:#c5c6c8;stroke-miterlimit:10;}.c{fill:#050503;}</style><symbol id="a" viewBox="0 0 36.15 39.55"><path class="a" d="M16.43,26.84a17.37,17.37,0,0,1-3.45,5c-2.53,2.46-6.58,1.91-8.66.6A9.45,9.45,0,0,1,1.7,19.09c2.41-3.3,6.05-4.21,10.12-2.52l.54.26c.22.08.49.18.62-.08,0-.11-.09-.37-.21-.51-.66-.79-1.4-1.54-2-2.36A8.38,8.38,0,0,1,12.4,1.64,9.09,9.09,0,0,1,17.06.06,10.11,10.11,0,0,1,24.27,2a8.17,8.17,0,0,1,2.35,9.9,10.71,10.71,0,0,1-2.29,3.33,4.56,4.56,0,0,0-1.25,1.59c.57.31,1-.07,1.44-.26a8.28,8.28,0,0,1,9.58,2.16c4.61,5.88.73,13.54-4.74,14.6-2.58.5-4.94.11-6.83-2.05a10.62,10.62,0,0,1-2.05-3A1.86,1.86,0,0,0,19.24,27a17.87,17.87,0,0,0,1.49,7.4c.53,1.29,1.11,2.55,1.66,3.82.42,1,.16,1.4-.85,1.25a25.42,25.42,0,0,0-7.13,0c-1.08.14-1.2-.08-.8-1.13.94-2.44,2.32-4.71,2.78-7.33A10.62,10.62,0,0,0,16.43,26.84Z"/></symbol></defs><path class="b" d="M.76,138.77C.76,97.4.85,66,.7,34.59c0-8.14.07-16.29-.19-24.43C.38,6.38,2.17,4,5.18,2.21A12.09,12.09,0,0,1,11.45.55c15.13,0,30.27-.13,45.4,0,31.61.36,63.23,0,94.85.18a10.54,10.54,0,0,1,9.72,6,9.43,9.43,0,0,1,.74,5.6c0,.52-.11,1-.11,1.55q0,37.27,0,74.56c0,7.87,0,15.74,0,23.61,0,3.11-.22,6.22-.18,9.33.46,30,.08,60,.21,90q.06,12.77,0,25.53a14.69,14.69,0,0,1-1.16,6.05c-1.72,3.78-6.14,7.59-11.13,7.58q-55.75-.06-111.52,0c-8.83,0-17.65-.11-26.47,0C8,250.7,5.49,249,3.29,246.43a12,12,0,0,1-2.72-8c0-4.2-.06-8.39,0-12.59C1.06,193.52.59,161.17.76,138.77Z"/><path class="c" d="M93.53,81.24c-1.11-14.86.59-29.8-1-44.66-.1-1-.06-2-1.15-2.24-2.8-.6-2.69-3.15-3.35-5-.75-2.14.12-3.55,2.6-3.85a102,102,0,0,1,12.11-.37c1.7,0,3.19.43,3.55,2.3s1.18,4.49-1.07,5.48c-3.54,1.56-3.48,4.26-3.47,7.31.11,17.42.21,34.83.87,52.25.29,7.82-2.27,15.45-8.55,20.89-11,9.48-30.75,4.41-36.09-9-1.84-4.62-2.06-9.4-1.79-14.23.08-1.42-1.17-3.85,1.67-4,2.25-.09,4.85-.23,5.84,2.66.4,1.17.68,2.39,1,3.59.64,2.72,1,5.52,1.91,8.15,2.08,6.24,6.8,9.12,13.76,8.69,7.16-.44,10.9-3.61,12.51-10.29.71-2.93.48-5.87.64-8.81S93.53,84.2,93.53,81.24Z"/><use width="36.15" height="39.55" transform="translate(45.56 148.08) scale(1.98)" xlink:href="#a"/></svg>