<svg xmlns="http://www.w3.org/2000/svg" viewBox="0 0 162.74 251.13"><defs><style>.a,.e{fill:#fefefe;}.a{stroke:#c5c6c8;stroke-miterlimit:10;}.b{fill:#08579a;}.c{fill:#f4c948;}.d{fill:#cf2203;}.f{fill:#030303;}.g{fill:#c1c2c4;}</style></defs><path class="a" d="M80.18,250.59c-22.88,0-45.75,0-68.63,0a10.19,10.19,0,0,1-8-3.86,12.34,12.34,0,0,1-3-8.58c0-3.55,0-7.11,0-10.67C1,182.38.67,137.24.76,92.1.8,72.92.88,53.74.68,34.56.6,26.26.7,18,.5,9.66.43,6.49,2,4.37,4.37,2.71A12.77,12.77,0,0,1,11.82.54C27,.56,42.16.41,57.33.59c31.42.36,62.83,0,94.25.17a10.66,10.66,0,0,1,9.83,6.06,9.64,9.64,0,0,1,.75,5.49c0,.59-.14,1.18-.14,1.78q0,43.27,0,86.54c0,4.32.11,8.64-.06,13-.11,3-.19,5.9-.15,8.84.44,29.72.07,59.44.2,89.16q.06,12.76,0,25.53a13.39,13.39,0,0,1-9.14,13,11.81,11.81,0,0,1-3.3.42H80.18Z"/><path class="b" d="M25.46,53.55q0-14.25,0-28.51c0-1.46.31-1.69,1.94-1.69,6.39,0,12.77.07,19.16.07l89.1-.07c1.91,0,2,.11,2,2,.05,6.71,0,13.42,0,20.13,0,33.36.06,66.72-.05,100.08-.08,25.56,0,51.13-.07,76.69,0,1.52.23,3,.14,4.55-.05.91-.45,1.18-1.23,1.2h-1c-6.42,0-12.85.09-19.28,0-4.1-.08-8.2.14-12.3,0-1.76,0-3.56-.08-5.33-.05s-3.35,0-5,0c-1.87.09-3.73-.52-5.57,0a3.34,3.34,0,0,1-1.18,0c-2.9-.21-5.81.27-8.69-.05-1.59-.17-3.14.05-4.72,0-2.3-.12-4.64,0-7,0q-5.79-.09-11.58-.1c-2.87,0-5.75.2-8.6.07-3.67-.18-7.32.42-11-.05-2.42-.32-4.85.15-7.28.16H28c-2.41,0-2.6-.17-2.6-2.53V193.41q0-46.28,0-92.53l0-41.59c0-1.19,0-2.39,0-3.59.76-.49,1.32,0,1.77.48,1.06,1.14,2.13,2.27,3.15,3.44a4.86,4.86,0,0,1,1.07,3.71c-.08,1-.08,2-.1,3-.43,27.55-.17,55.1-.23,82.65,0,3.35.35,6.7.24,10.05,0,.88-.14,1.75-.16,2.63,0,.31,0,.7.44.73s.48-.34.55-.65a2.38,2.38,0,0,0,0-.84,41.91,41.91,0,0,1-.19-6.34c0-15.89-.09-31.79.06-47.68,0-4.34-.33-8.69.18-13a5.05,5.05,0,0,1,.13-.95.65.65,0,0,1,.55-.48c.35,0,.73.18,1-.13a1.47,1.47,0,0,1,.28-.14A1.93,1.93,0,0,0,35.47,91a1.34,1.34,0,0,1,.69-.82,1.27,1.27,0,0,0,.43-.4,1.21,1.21,0,0,1,.69-.57,1.27,1.27,0,0,0,.82-.57l.18-.25.21-.23.23-.21a6.64,6.64,0,0,0,1.39-1.78,1.49,1.49,0,0,1,.2-.29A29.31,29.31,0,0,0,45.58,71.3c0-.4.1-.83-.49-.89a3.45,3.45,0,0,0-2.36.85c-.6.43-.57,1.1-.66,1.72a19.5,19.5,0,0,1-.72,3.62c-.17.51-.31,1.09-1,1.2a1.55,1.55,0,0,1-.71-1.44,10.89,10.89,0,0,0,.82-3.43c0-.83-.31-1.07-1.09-.74s-1.52.66-2.29,1c-.45.12-.94.16-1.08.74-.38,1.51-1.19,2.88-1.5,4.42a1,1,0,0,1-.27.43,2.41,2.41,0,0,0-.44.46c-.51.75.17,1.49,0,2.24a9.6,9.6,0,0,0-.14,3.85c.15.66.35.85.87.3.3-.31.53-.7,1-.85a1.22,1.22,0,0,1,.88,0,.79.79,0,0,1,.32.78,1.33,1.33,0,0,1-.1.34,1.05,1.05,0,0,1-.2.27,1.71,1.71,0,0,1-.26.21,8.27,8.27,0,0,0-2.22,2.38c-.42.38-.65,1.23-1.47.56a5.08,5.08,0,0,1-.16-1.9c0-8,0-16.06,0-24.09a6.56,6.56,0,0,0-2.53-5.65C28.21,56.44,27.15,54.66,25.46,53.55Z"/><path class="c" d="M32.71,92.49a63.42,63.42,0,0,0-.18,8.72c.12,1.42-.09,2.86-.1,4.29,0,11.79,0,23.57-.08,35.35,0,6.15,0,12.29.08,18.44,0,.88.13,1.75.11,2.62,0,.59-.07,1.29-1,1.19s-.93-.7-.83-1.33a17.46,17.46,0,0,0,.16-3c-.27-20-.19-40-.19-60,0-6.91-.06-13.82.09-20.72.11-4.63.06-9.26.22-13.89a9.9,9.9,0,0,0,0-2.37,3.75,3.75,0,0,0-1-2c-1.1-1-2.05-2.24-3.07-3.35-.41-.44-.82-.91-1.52-.75a2.72,2.72,0,0,1,0-2.15A4.46,4.46,0,0,1,28,55.27,18.06,18.06,0,0,0,30.64,58a5.76,5.76,0,0,1,2,4.66c0,3.19,0,6.38-.05,9.57q0,8.07,0,16.15c0,.4.05.79.08,1.19A3.64,3.64,0,0,1,32.71,92.49Z"/><path class="d" d="M14.12,42.4c2.51,3,4.91,6,7.34,8.88.68.81.28,1.38-.23,2l-5.78,7c-1.32,1.6-1.36,1.62-2.69,0-2-2.41-4-4.88-6-7.31-.46-.56-.63-1.08-.1-1.7Z"/><path class="d" d="M156.33,198.72a1.7,1.7,0,0,1-.46,1c-2.24,2.75-4.49,5.5-6.71,8.26-.37.46-.57.53-1,0-2.22-2.76-4.49-5.5-6.72-8.26-.74-.92-.71-1.23.08-2.19q3.06-3.75,6.15-7.48c.78-1,1.11-1,1.87-.06,2.11,2.55,4.19,5.12,6.29,7.68A1.62,1.62,0,0,1,156.33,198.72Z"/><path class="d" d="M17.73,27.17c0-2.86,0-5.18,0-7.49A1.56,1.56,0,0,0,16.87,18c-.72-.32-.6-1-.49-1.55s.57-.73,1.08-.7a15.65,15.65,0,0,1,3.21.05c.34.09.81.08.72.59s.43,1.05-.25,1.4a2.07,2.07,0,0,0-1.05,2.11c0,4.63.05,9.25,0,13.88,0,3.68-2.23,6.24-5.53,6.44a6.13,6.13,0,0,1-6.82-5.59,10.68,10.68,0,0,1-.06-1.79c0-.93.37-1.26,1.22-1.27s1.14.3,1.16,1.28A8.61,8.61,0,0,0,10.33,35a3.61,3.61,0,0,0,4,2.79,3.2,3.2,0,0,0,3.27-3.28C17.9,31.89,17.65,29.25,17.73,27.17Z"/><path class="d" d="M145.27,224.12v7.38c0,.71.06,1.34.84,1.68s.64,1,.53,1.56-.63.73-1.19.72c-.91,0-1.84,0-2.75,0-.42,0-1,.09-1.11-.61s-.21-1.44.45-1.71c.86-.36.83-1,.83-1.64,0-4.51,0-9,0-13.54a7.53,7.53,0,0,1,1.43-4.84,6.08,6.08,0,0,1,7.82-1.24,6.65,6.65,0,0,1,3.17,6.42c0,.76-.36,1.31-1.21,1.35s-1.25-.23-1.23-1.09a7.14,7.14,0,0,0-.37-2.59,3.58,3.58,0,0,0-4.11-2.5,3.22,3.22,0,0,0-3,3.2C145.1,219.32,145.36,222,145.27,224.12Z"/><path class="e" d="M58.4,56.68a1.06,1.06,0,0,0,1,1.13,8.87,8.87,0,0,0,1.78.17c1.35,0,1.46.18,1.11,1.48a2.57,2.57,0,0,1-.19.41c-.25,0-.38-.14-.54-.24-1.48-.88-2.61-.87-3.63,0a3.35,3.35,0,0,0-.92,4.1c.6,1.37.6,1.38-.83,1.68a120,120,0,0,0-21.27,7l-1,.4a1.18,1.18,0,0,1-.36,0c0-.87,0-1.73,0-2.6,0-2.55-.08-5.1.16-7.65A5.86,5.86,0,0,0,32.11,58a19.87,19.87,0,0,0-2.25-2.15c-2.5-2.05-3.32-4.77-3.17-7.89.27-5.54.16-11.08.1-16.63,0-1.76,0-3.51,0-5.27,0-1.34.28-1.57,1.66-1.57h20c.91,0,1.83,0,2.75,0a3.41,3.41,0,0,1,3.21,1.69c.15.27.31.57.72.51l.15.07a107.55,107.55,0,0,0,7,9.54l0,.16a.6.6,0,0,0,.21.66c1.16.69.89,1.78.69,2.75a59.72,59.72,0,0,0-1.15,10c-.07,1.62-.38,1.87-2,1.67a2.47,2.47,0,0,0-2.72,1.28,3.3,3.3,0,0,0,.13,3.51.87.87,0,0,0,.83.34Z"/><path class="e" d="M100.2,215.35a9.87,9.87,0,0,1,0-4.49,80.29,80.29,0,0,0,.92-9c.06-.72.27-1,1-.87.2,0,.4,0,.6,0a2.64,2.64,0,0,0,3.23-2.08,3,3,0,0,0-1.68-3.78,9.76,9.76,0,0,0-3-.64c-.29,0-.7.11-.8-.33a1.59,1.59,0,0,1,.32-1.24c.28-.41.55-.06.81.07,1.26.64,2.49.89,3.64-.22a3.46,3.46,0,0,0,.86-3.95c-.16-.44-.37-.87-.61-1.42a115.56,115.56,0,0,0,23.92-8.18v2.07c0,3.44,0,6.87,0,10.3,0,.82.07,1.66,1.22,1.68l0,0a2.12,2.12,0,0,0,.64,1.36c1.37,1.39,2.71,2.83,4.06,4.23a4.08,4.08,0,0,1,1.16,2.93q0,11.69,0,23.37c0,1.44-.26,1.66-1.83,1.66h-21c-.88,0-1.76,0-2.63,0a3.34,3.34,0,0,1-2.87-1.44c-2.21-3-4.47-5.93-6.68-8.91a3.48,3.48,0,0,0-1.3-1.17Z"/><path class="e" d="M88.54,192.78c-.31.81.15,1.15.7,1.47,1.53.88,1.67,1.22,1.38,3a49,49,0,0,0-.94,7.83,6.72,6.72,0,0,0,.42,2.34A5.15,5.15,0,0,0,96,210.74c.55-.09,1.09-.27,1.63-.4,1-.23,1.09-.13,1.12.89,0,.32,0,.64,0,1-.09,1.38-.39,1.72-1.77,1.95a99.16,99.16,0,0,1-11.42,1.09c-3.87.19-7.73,0-11.6-.16-1.62,0-1.67-.12-2.18-1.65A56.54,56.54,0,0,1,69,199.13a46.41,46.41,0,0,0-1.48-9.43c-.43-1.54-.19-2.06,1.22-2.81a102.89,102.89,0,0,1,13.66-6,11.27,11.27,0,0,1,5.68-.24,2.77,2.77,0,0,1,2.09,1.48c1.84,3.71,4.51,7,6.08,10.82a21.55,21.55,0,0,1,1.57,7.93c0,1.28-.17,1.49-1.36,1.18a6.29,6.29,0,0,0-4.15.67c-.38.15-.77.59-1.2.23s-.3-.89-.22-1.36q.36-2.12.78-4.23c.41-2.18.16-2.77-1.77-3.92A5.31,5.31,0,0,0,88.54,192.78Z"/><path class="e" d="M81.7,37.22c2.14-.12,4.81.2,7.48.25a2.26,2.26,0,0,1,2.15,1.75,33,33,0,0,1,1.91,7.64c.57,4.47,1.11,8.94,1.65,13.42A16.21,16.21,0,0,0,95.48,63c.4,1.37.18,2-1.09,2.65-2.59,1.33-5.19,2.63-7.89,3.7-1.48.59-3,1.18-4.4,1.85a11.66,11.66,0,0,1-6.8.73,3.66,3.66,0,0,1-2.91-2.23,42.11,42.11,0,0,0-3.45-6,23.07,23.07,0,0,1-3.82-12c-.05-1.17.06-1.28,1.29-1.21.76,0,1.51.14,2.27.12a2.9,2.9,0,0,0,2-.86,1,1,0,0,1,1.2-.24c.45.24.36.67.29,1.06-.26,1.61-.54,3.22-.82,4.83a3.45,3.45,0,0,0,2.85,4.33c.26.07.45,0,.44-.2,0-.36.23-.78-.14-1.09-.05-.05-.15-.05-.23-.07-2.17-.5-2.26-1.06-1.79-3.58a30.9,30.9,0,0,0,.89-7.11,8.85,8.85,0,0,0-.35-2.35c-.79-2.59-3.07-3.89-5.93-3.39a10.45,10.45,0,0,0-1.85.47c-.64.22-.89,0-1-.6-.42-1.83.33-3,2.14-3.35A84.34,84.34,0,0,1,81.7,37.22Z"/><path class="e" d="M119.58,53.25a2.58,2.58,0,0,0,1,1.53,28,28,0,0,0,7.71,4.74,2.19,2.19,0,0,1,1.54,2.3,44.2,44.2,0,0,0,0,6c.06.71-.21.94-.88.8-.35-.07-.72-.08-1.07-.13a1.59,1.59,0,0,0-1.84,1c-.48,1-.95,1.08-1.95.66-.29-.12-.57-.27-.86-.42-2-1-2.05-1.13-.44-2.62,2.48-2.28,3-5.39,1.27-7.84a4.45,4.45,0,0,0-4.5-1.87A3.9,3.9,0,0,0,116.22,60c-.11.29-.24.58-.41,1a3.64,3.64,0,0,1-1.28-2.24c-.64-3.33-1.26-6.66-1.89-10-.38-2-.76-4-1.18-6a4.32,4.32,0,0,0-1.22-2.52c-.4-.62.08-1.06.31-1.55a4.44,4.44,0,0,0,.78-1.14l.12-.09c.63-.14.88-.68,1.15-1.14,1.94-3.3,3.9-6.59,5.78-9.93a3.36,3.36,0,0,1,3.36-1.93c4,.11,8,0,12,0H135a4.15,4.15,0,0,1-1.32,2,9.45,9.45,0,0,1-1.18,1,6.47,6.47,0,0,0-2.61,5.51c0,4.39,0,8.78,0,13.18,0,1.1,0,1.08-1.1.89a35,35,0,0,1-15.21-6.9q-.51-.4-1.05-.78s-.07,0-.24-.06a7.27,7.27,0,0,0,.51,4.84,33.19,33.19,0,0,0,5.66,8.55c.3.32.56.7,1.1.5Z"/><path class="e" d="M52,214.63a2.42,2.42,0,0,0-1.14,1.18q-2.79,4.94-5.57,9.89a1.64,1.64,0,0,1-1.57,1c-4.54,0-9.09,0-13.64,0a.69.69,0,0,1-.61-.18,3.86,3.86,0,0,1,1.57-2,5.91,5.91,0,0,0,2.49-5.38c-.09-2.67-.14-5.35-.16-8,0-1.59,0-3.19.09-4.78,0-1.31.24-1.45,1.52-1.21a35.87,35.87,0,0,1,13.42,5.72c.49.34,1,.69,1.48,1s.77.63,1.19.3.18-.87,0-1.32a32.14,32.14,0,0,0-1.33-3.59,26,26,0,0,0-3.62-6,27.32,27.32,0,0,0-5.37-5.15c-.24-.17-.69-.27-.55-.67s.62-.15.94-.17a2,2,0,0,1,.47.09,4,4,0,0,0,4.63-2.12c.28-.48.55-1,.87-1.53a3.46,3.46,0,0,1,1.24,2.22c.52,2.33,1,4.68,1.43,7,.52,2.66,1,5.33,1.51,8a11.71,11.71,0,0,0,.56,1.83,5.63,5.63,0,0,1,.1,3.86Z"/><path class="d" d="M73.59,24.59a23.1,23.1,0,0,1,6.16,0,3.64,3.64,0,0,1,1.16,2,2.86,2.86,0,0,0,3.17,2.12,26.58,26.58,0,0,1,3.57,0,2.92,2.92,0,0,0,3-1.87c.38-.74.23-1.73,1-2.25a18.51,18.51,0,0,1,6.76.14c.85,1.19,1,2.66,1.61,4a2.6,2.6,0,0,0,2.33,1.72c1.19.1,2.34.47,3.52.64,1.58.22,2-.06,2.69-1.52A22.73,22.73,0,0,1,111,24.8a21,21,0,0,1,5.6-.06c1.25.26,1.29.29.75,1.4a87.65,87.65,0,0,1-4.6,7.83c-.54.88-1,1.78-1.58,2.67-.51.67-1.17.35-1.75.19-3-.81-6-1.6-9.07-2.2A102.46,102.46,0,0,0,86.83,33a85.68,85.68,0,0,0-23.32,1.68,7.5,7.5,0,0,1-1.06.14c-.69,0-1.07-.45-1.43-.94-1.23-1.67-2.54-3.28-3.77-4.95a9.41,9.41,0,0,0-2.13-2.23v0c.05-2.24.05-2.26,2.28-2.23a27.8,27.8,0,0,1,4.65.13A12.11,12.11,0,0,1,64,28.14,2.64,2.64,0,0,0,67,30c.78-.1,1.59,0,2.38,0,2.1-.19,2.84-.84,3.43-2.87A6,6,0,0,1,73.59,24.59Z"/><path class="f" d="M130.14,165.78c-.68-.29-.33-1.11-.78-1.52-1.39,0-1.91,1.2-2.72,2-.24.24-.31.63-.56.89-.12,0-.21.05-.23.19a5,5,0,0,0-1.21,1.72c-.09,0-.12.07-.09.16-1.89,2.45-2.69,5.35-3.42,8.28a35.57,35.57,0,0,1-.74,4,2.35,2.35,0,0,1-2.6,1,8.07,8.07,0,0,1,.16-4.14,27.72,27.72,0,0,1,9.57-17.08c.58-.49,1.06-1.08,1.65-1.55a.65.65,0,0,0,.3-.47c0-.09,0-.19-.05-.28,0-.31-.16-.6-.18-.91a11.12,11.12,0,0,1,.57-2c0-1.06-.22-1.23-1.12-.88a5.2,5.2,0,0,1-1.87.68,15.09,15.09,0,0,1-2.52-4.56,71.28,71.28,0,0,1-6.19-23.26,68.79,68.79,0,0,1,6.18-35.78c.45-1,.81-2,1.24-3,.19-.43.29-.93.82-1.11a12.78,12.78,0,0,1,2.83.23,2.46,2.46,0,0,1,1.29.81,2.53,2.53,0,0,1,.29,1.62c0,17,.16,34.11-.06,51.17-.1,7.3,0,14.61-.18,21.92A2.45,2.45,0,0,1,130.14,165.78Z"/><path class="d" d="M90.12,226.6a25.42,25.42,0,0,1-7.69,0c-.09-.09-.22-.16-.25-.26-.57-1.85-2.11-1.94-3.64-2-1.31-.06-2.63.06-3.94-.12a1.44,1.44,0,0,0-1.57,1c-.21.47-.24,1-.65,1.39a28.88,28.88,0,0,1-8.2,0,4.29,4.29,0,0,1-.83-1.83,3.11,3.11,0,0,0-2.57-2.2c-1.37-.23-2.75-.39-4.1-.75-.83-.22-1.28.24-1.6.89-.43.9-.8,1.82-1.19,2.73-.18.43-.27.94-.75,1.18a39.87,39.87,0,0,1-6.18.2c-.64,0-.81-.4-.63-1a1.51,1.51,0,0,1,.11-.22A72.28,72.28,0,0,1,52.32,216a4.38,4.38,0,0,1,2.92.28,112.13,112.13,0,0,0,12.05,2.54A98.34,98.34,0,0,0,86.83,220a63,63,0,0,0,12.2-1.6,2,2,0,0,1,1.62,0,2.31,2.31,0,0,1,1.87,1.09c1.39,1.94,2.84,3.85,4.26,5.77a4.78,4.78,0,0,1,.38.61c.26.5.18.8-.46.86a24.35,24.35,0,0,1-6.55-.1c-.57-.33-.68-1-.91-1.5-.77-1.78-1.48-2.22-3.34-1.91a17.85,17.85,0,0,1-2.63.15c-1.65,0-2,.33-2.57,2A2.89,2.89,0,0,1,90.12,226.6Z"/><path class="d" d="M99.68,86.11l9.86-12.94a7,7,0,0,1,4.89-2.9,30.43,30.43,0,0,0,3.37-.78,5.89,5.89,0,0,1,3.86.37c1,.46,1.31,1.1.77,2.1s-1.28,2-1.93,3A85.56,85.56,0,0,0,109.81,97.2a2.35,2.35,0,0,1-.77,1.31c-.6.11-.85-.35-1.13-.72-2.61-3.42-5.23-6.83-7.78-10.3C99.85,87.1,99.37,86.72,99.68,86.11Z"/><path class="d" d="M63,165.85a4.87,4.87,0,0,1-.83,2.09c-3.22,4.37-6.79,8.47-9.84,13a2.29,2.29,0,0,1-1.5.9c-1.9.43-3.79.89-5.7,1.29-1.65.33-3-.43-4.37-1.24-.49-.3-.4-.84-.18-1.29A16,16,0,0,1,41.5,179a96.79,96.79,0,0,0,10.64-20.68c.3-.86.58-1.73.85-2.61a2.08,2.08,0,0,1,.95-1.31c.86.05,1.12.84,1.55,1.34,2.65,3.08,4.81,6.54,7.43,9.64A.51.51,0,0,1,63,165.85Z"/><path class="f" d="M36.45,164.51a5,5,0,0,1-2.13-.22,1.48,1.48,0,0,1-1.11-1.84A7.23,7.23,0,0,1,34,160.2,59.41,59.41,0,0,0,40,142a72.07,72.07,0,0,0,.63-16.8c-.58-8.52-3.17-16.45-6.76-24.12-1.22-2.61-1.14-2.87,1.28-4.4a6.41,6.41,0,0,1,.75-.35c.42.07.55.42.71.74A72.22,72.22,0,0,1,44.64,124a70.15,70.15,0,0,1-3.15,29.44c-1.18,3.45-2.75,6.73-4.26,10A2,2,0,0,1,36.45,164.51Z"/><path class="f" d="M103.67,70.84a10.31,10.31,0,0,1,4.44.49c.13.55-.25.9-.54,1.27-5.92,7.72-11.9,15.4-17.86,23.1-5.29,6.85-10.63,13.66-15.91,20.52q-2.47,3.23-5,6.42c-.21.28-.37.63-.8.66-.64.09-1.19-.3-1.8-.37a1.19,1.19,0,0,1-1-1.15l.5-1.57c.62-1.64,1.91-2.83,3-4.17,6.46-8.32,13-16.62,19.39-25,4.22-5.47,8.5-10.89,12.62-16.43.71-1,1.4-2,2.09-2.93C103,71.37,103.16,70.92,103.67,70.84Z"/><path class="f" d="M59.14,182.06A8.45,8.45,0,0,1,55,181c-.16-.66.37-1,.69-1.43q9.63-12.36,19.21-24.77c6.19-8,12.35-16,18.58-23.91.5-.63.77-1.47,1.57-1.85.66-.1.9.79,1.58.66.5.08.66.47.79.88l0,1.57c0,1-.79,1.54-1.31,2.21-6.39,8.14-12.69,16.33-19,24.48-5.36,6.86-10.63,13.78-16,20.65C60.39,180.34,60.09,181.44,59.14,182.06Z"/><path class="c" d="M53,153.48c-1.47,3.57-2.56,7.28-4.11,10.81a81.37,81.37,0,0,1-9.34,15.81c-.27.35-.49.75-1,.81a1.08,1.08,0,0,1-1-.49c-.35-.49-.07-.89.23-1.29a79.34,79.34,0,0,0,6.44-10.34,82.55,82.55,0,0,0,8.32-24.64,82.61,82.61,0,0,0,1.1-19.54,73.75,73.75,0,0,0-7.52-28c-1-2.08-2.09-4.12-3.14-6.18-.17-.35-.42-.71-.22-1.13a1.46,1.46,0,0,1,.89-.91c.55-.14.77.33,1,.69a72.79,72.79,0,0,1,5.44,10.48,72.26,72.26,0,0,1,5.46,20.2,85.85,85.85,0,0,1,.12,18.62c-.34,3.45-1,6.85-1.34,10.3A13.62,13.62,0,0,1,53,153.48Z"/><path class="c" d="M109.79,99.08c1.11-3,2.14-6,3.35-8.94a79.69,79.69,0,0,1,10.09-17.57,6.19,6.19,0,0,1,.8-.89.88.88,0,0,1,1.21,0,.76.76,0,0,1,.17,1.15c-.9,1.37-1.8,2.73-2.68,4.1a82.2,82.2,0,0,0-11.86,28.37,96.11,96.11,0,0,0-1.62,12,75.12,75.12,0,0,0,.08,12.55,71,71,0,0,0,6.52,24.07,75.57,75.57,0,0,0,3.87,7.81,6.4,6.4,0,0,1,.63,2.29h0a2,2,0,0,1-2.47-1.11c-4.65-8.13-8.33-16.65-10-25.92a86.13,86.13,0,0,1-.84-20.73,92.32,92.32,0,0,1,1.48-11.11,3.09,3.09,0,0,0,.1-1.42,2,2,0,0,1,0-1.61A27.94,27.94,0,0,1,109.79,99.08Z"/><path class="c" d="M36.45,164.51c1.48-3.64,3.31-7.13,4.6-10.85a65.16,65.16,0,0,0,3.12-13.93,76.2,76.2,0,0,0,.38-12.54,71.55,71.55,0,0,0-7.28-27.95c-.47-1-.93-1.94-1.4-2.9.1-.18.18-.36.29-.52,1.32-1.72,2-1.66,2.92.27a85.65,85.65,0,0,1,6.84,18.15,76.75,76.75,0,0,1,1.59,11.09,76.46,76.46,0,0,1,.14,9.33A69.53,69.53,0,0,1,39.13,165c-.14.24-.26.49-.4.73-.42.66-.86.61-1.31,0A5.67,5.67,0,0,0,36.45,164.51Z"/><path class="c" d="M126.35,88.21c-2,5.15-4.56,10.13-5.91,15.56a77.12,77.12,0,0,0-2.07,12.92,71.76,71.76,0,0,0,8.21,38.67c.09.17.16.36.24.54a4.33,4.33,0,0,1-.27.79c-.72,1.27-1.82,1.32-2.53,0a81.06,81.06,0,0,1-3.94-8.83,63.49,63.49,0,0,1-4.23-15.62,79.86,79.86,0,0,1-.43-17.89A71.54,71.54,0,0,1,123.08,89a26.66,26.66,0,0,1,1.37-2.52c.26-.4.52-.41.85-.07A4,4,0,0,1,126.35,88.21Z"/><path class="e" d="M85.44,90.84c-.25.75-1.13.51-1.55,1-.84.7-1.84.41-2.75.35a54.26,54.26,0,0,1-15-2.85,44.62,44.62,0,0,1-9.31-4.55c-.43-.27-.92-.5-1-1.09a2.5,2.5,0,0,1-.38-2c1.9,0,2.79-.78,2.75-2.27,0-.71-.32-.9-1-.66s-1.12.73-1.8.84a26.52,26.52,0,0,1,0-5.27c.48-.11.7.3,1,.52a43.18,43.18,0,0,0,18.72,8.57,42.45,42.45,0,0,0,14.4,0l1.66-.25a.12.12,0,0,1,.13.14,19.38,19.38,0,0,1-3.83,4.81c-.53-.12-.72-.59-1-1-.52-.71-1-.59-1.55,0a1.85,1.85,0,0,0-.2,2.39A3.64,3.64,0,0,1,85.44,90.84Z"/><path class="c" d="M130.14,165.78c0-4.55,0-9.1.06-13.65.2-20.17.16-40.33.19-60.49,0-.8.05-1.59.08-2.39,1.15-.33,1.56,0,1.58,1.25,0,3.15,0,6.31,0,9.46.23,18.28.21,36.56.09,54.84-.07,10,0,20-.21,30a31.74,31.74,0,0,0,0,5.6,5,5,0,0,0,1.65,2.95c.61.58,1.2,1.17,1.77,1.79a3.88,3.88,0,0,1,.64,1,1,1,0,0,1-.22,1.11c-.37.3-.67-.12-.88-.33-1-1-1.94-1.9-2.82-2.92a1.89,1.89,0,0,0-1.52-.77l0,0a17.63,17.63,0,0,1-.31-4c0-6.23,0-12.47,0-18.7C130.39,169,130.25,167.37,130.14,165.78Z"/><path class="f" d="M100.65,218.38a73.35,73.35,0,0,1-21.79,2,111.2,111.2,0,0,1-24-3.8c-.84-.23-1.71-.39-2.56-.58a3.56,3.56,0,0,0-.29-1.32h0a1.77,1.77,0,0,0,1.33-.9c.38-.55.65-1.21,1.31-1.53a.87.87,0,0,1,1.19.06l1,0c.52-.16.76.42,1.21.48l.85,0c.31,0,.64-.08.7.37a2.56,2.56,0,0,0,2.38.76c.4,0,.79-.11,1.18-.16s.67-.14.77.33a1.8,1.8,0,0,0,1.31.07.59.59,0,0,1,.7.33c.53.46,1.12.17,1.69.13.49-.21,1,0,1.44.06l.84-.06A.85.85,0,0,1,71,215a6.31,6.31,0,0,0,3.71,1.07c2.34,0,4.68.19,7,.21a64.39,64.39,0,0,0,15.73-1.37c1-.25,1.84.38,2.77.46h0a2.89,2.89,0,0,0,.46,1.64A1.1,1.1,0,0,1,100.65,218.38Z"/><path class="f" d="M62,34.56A94.08,94.08,0,0,1,77.6,32.48a106.93,106.93,0,0,1,12.4.34A99.24,99.24,0,0,1,107.94,36c1,.27,2.06.9,3.23.61l.28.84v0a1.57,1.57,0,0,0-.71,1.29c-.15.51-.62.91-.51,1.51a4.38,4.38,0,0,0-1.85.41.3.3,0,0,1-.24-.11c-.5-.77-1.14-.26-1.74-.2a.31.31,0,0,1-.31,0c-.48-.6-1.19-.4-1.81-.53-.42-.12-.77-.38-1.18-.5s-.82,0-1.23,0a2.17,2.17,0,0,1-.84-.46c-.44-.36-.9-.12-1.36,0a.54.54,0,0,1-.44-.19c-.34-.72-1-.81-1.7-.91-4.33-.64-8.67-1.1-13.05-1.32a83,83,0,0,0-17.1,1.16,31.36,31.36,0,0,1-3.21.16c-.44,0-.62-.17-.73-.59a.91.91,0,0,0-1.11-.67v0A2.32,2.32,0,0,1,62,34.56Z"/><path class="f" d="M107.8,161.84a.8.8,0,0,0,.72.57c.77,1.16.33,2.43.33,3.65-.11.41-.48.8-.1,1.26a3.64,3.64,0,0,1-.31,1.81,1,1,0,0,1-.85.43,5.35,5.35,0,0,1-2.22-1.11,43.45,43.45,0,0,0-19.79-6.74,40.22,40.22,0,0,0-4.52-.21,7.52,7.52,0,0,1-2.58-.39c-.68-.7-.2-1.31.15-1.91a12.51,12.51,0,0,0,1.65-2.71.89.89,0,0,1,.22-.29c1,0,1.64-1.06,2.67-1a4.38,4.38,0,0,1,3.59.28c1.45.25,2.89.51,4.34.73a.7.7,0,0,0,.88-.57c.06-.31.22-.39.49-.33.86,1.26,2.19,1.55,3.57,1.75.42.06.87,0,1.24.27a4.84,4.84,0,0,0,3.67,1.53C103.27,159.74,105.41,161.07,107.8,161.84Z"/><path class="f" d="M55.84,83.69c8.45,5.82,17.9,8.17,28.05,8.14l1.46.61a.5.5,0,0,1-.06.65c-1.12,1.48-2.27,3-3.42,4.41a.78.78,0,0,1-.6.34l-1.08,0a29.66,29.66,0,0,1-5.14-.68c-1.4-.77-1.84-.74-2.9.17-.33.2-.49,0-.61-.27-.23-.6-.74-.36-1.16-.39a1.21,1.21,0,0,1-.7-.13,4.59,4.59,0,0,0-4.18-.68.92.92,0,0,1-.8-.12.51.51,0,0,1-.09-.54c.08-.23.18-.57-.06-.64-1-.31-1.86-1.12-3-1.07a27.27,27.27,0,0,1-6.35-3,1.37,1.37,0,0,0-.73-1.21,4.24,4.24,0,0,1,0-4C55.26,85,55,83.87,55.84,83.69Z"/><path class="c" d="M80.5,156.2h0c-3.43,4.3-6.72,8.7-10.09,13,0,.07-.11.12-.15.18-.22.32-.71.63-.48,1s.74.09,1.1,0a50.85,50.85,0,0,1,9.83-1.16A38.52,38.52,0,0,1,104.26,177c1.68,1.2,3.19,2.61,5,3.68l.06.18a1.39,1.39,0,0,0,.63,1.22,14.79,14.79,0,0,1,1.5,1.85c.17.2.39.46.11.74a.62.62,0,0,1-.87,0,5.9,5.9,0,0,1-.8-.7A43.08,43.08,0,0,0,92.7,173a38.56,38.56,0,0,0-21.53-.69l-.58.14c-1.49.36-1.49.36-1.57-1.18-.84.28-1.22,1-1.68,1.61-2.07,2.74-4.11,5.49-6.18,8.21a1.92,1.92,0,0,1-2,.95,39.22,39.22,0,0,1,4.29-6.16L79,155.85l18.42-23.7c.87.66.89.79.13,1.79q-4.16,5.4-8.32,10.77-4,5.14-8,10.26A2.42,2.42,0,0,0,80.5,156.2Z"/><path class="c" d="M55.86,212.26a2.4,2.4,0,0,1-1.19-.06c-1.18-5.52-2.13-11.09-3.12-16.65a19.86,19.86,0,0,0-1.2-4.6,9.17,9.17,0,0,0-3.61-4.2,3.41,3.41,0,0,0-4.48.42c.15.22.34.11.5.06a4.94,4.94,0,0,1,5.79,2.1,17.2,17.2,0,0,1,2.76,7.44c.67,4.4,1.27,8.82,2.29,13.16.1.42.33,1-.13,1.18s-.75-.49-.86-.9a75.66,75.66,0,0,1-1.78-8,58.14,58.14,0,0,0-1.65-8.67,9.42,9.42,0,0,0-2.32-4.11c-2.08-2-3.71-1.81-5.35.5-.12.16-.23.32-.35.51-.31-.67-.31-.67.45-2.62a3.05,3.05,0,0,0-.24,4.84,1.87,1.87,0,0,0,2.87-.51c.16-.31.26-.65,0-.89s-.48.06-.67.25c-.33.35-.71.56-1.15.21a1.16,1.16,0,0,1-.34-1.5A2,2,0,0,1,44.25,189,2.19,2.19,0,0,1,46,191a3.34,3.34,0,0,1-4.88,3A4.08,4.08,0,0,1,39,189c.63-2,1.78-3.63,4-4a6.23,6.23,0,0,1,6.3,1.95,17,17,0,0,1,3.73,8.4c.77,4.43,1.55,8.86,2.39,13.27A10.7,10.7,0,0,1,55.86,212.26Z"/><path class="c" d="M108.15,40.56l.24.11A127.79,127.79,0,0,1,111,54.38c.45,3.16.89,6.33,2.71,9.08.36.54.66,1.2,1.64,1.06-2.82-3.63-3.35-7.93-4.09-12.15-.57-3.3-1.09-6.6-1.63-9.9-.06-.35,0-.71-.08-1.12.88,0,1,.67,1.1,1.2a54,54,0,0,1,1.54,8,54,54,0,0,0,1.69,8.54,10.42,10.42,0,0,0,1.9,3.7c1.49,1.81,3,2.06,5,.85.26-.15.47-.45.83-.41.27.31,0,.7.17,1a2.82,2.82,0,0,0-.26-4.39c-1.33-.89-2.49-.25-2.74,1.53.3.13.42-.07.58-.27s.47-.81,1-.43A1.19,1.19,0,0,1,121,62a2,2,0,0,1-4-.46,3,3,0,0,1,1.7-2.94,3.57,3.57,0,0,1,3.93.48,4.28,4.28,0,0,1,1.15,5,5.59,5.59,0,0,1-9.08,2.38,13.36,13.36,0,0,1-4.18-7.1c-.86-3.07-1.14-6.26-1.69-9.4a59.81,59.81,0,0,0-1.59-8C106.94,41.08,107.46,40.8,108.15,40.56Z"/><path class="c" d="M27.25,191.64a31.83,31.83,0,0,1,8.08,2.16c3.32,1.26,5.72,3.72,8.28,5.92a20.89,20.89,0,0,1,6.06,9.67c.07.2.28.44,0,.63a.62.62,0,0,1-.68,0c-.21-.11-.41-.25-.61-.38a42.24,42.24,0,0,0-17.1-6.29,30.35,30.35,0,0,0-4-.48c-.69,0-1.31-.18-1.24-1.07,0-.72.61-1.09,1.5-1a50.64,50.64,0,0,1,12.23,2.56,38.64,38.64,0,0,1,4.48,1.95c.36.19.8.63,1.16.22s-.07-.9-.34-1.27a25.47,25.47,0,0,0-9.18-8,31,31,0,0,0-8-2.69c-.27-.06-.54-.15-.81-.21-.63-.13-1.05-.43-.9-1.14S26.84,191.67,27.25,191.64Z"/><path class="d" d="M97.28,157.28a7,7,0,0,1-3.68-.58c-.74-.27-1.14-.65-1.13-1.44.47-1.85,1.81-3.3,2.35-5.07s2.1-3,2.93-4.66a22,22,0,0,1,3.21-4.45,8.69,8.69,0,0,0,.88-1.27c.53-.84,1-1,1.85-.41,1.75,1.22,2.06,3.3.75,5.27a2.54,2.54,0,0,0-.7,1.72h0a3,3,0,0,0-1.87,3.16v0a3.18,3.18,0,0,0-1.94,2.53c-.16,1.11-1.27,1.64-1.53,2.73A13.84,13.84,0,0,1,97.28,157.28Z"/><path class="c" d="M95.05,129a23.38,23.38,0,0,1-2.94,4.05Q78.92,150.16,65.68,167.2L55,181l-.12,0c-.44.09-.89.78-1.25.37s.1-1.1.45-1.56q4.26-5.59,8.52-11.18a11.81,11.81,0,0,0,1.42-2.2A5.64,5.64,0,0,1,66,164a81.78,81.78,0,0,0,6.78-8.32c6.33-8.46,13-16.65,19.48-25,.47-.6.87-1.24,1.34-1.83S94.44,128.2,95.05,129Z"/><path class="c" d="M119.6,53.28c.14-.75-.38-1.19-.81-1.64a23.17,23.17,0,0,1-5-8.34,2.78,2.78,0,0,1-.2-.68c-.07-.56.2-.74.7-.57a3.24,3.24,0,0,1,.6.39,42.16,42.16,0,0,0,16.23,6.29,21.31,21.31,0,0,0,4.14.51c.73,0,1.23.32,1.15,1.17s-.4,1.07-1.31.94c-5.4-.79-10.76-1.74-15.69-4.27-.38-.2-.89-.84-1.33-.26s.19,1,.5,1.44a26.2,26.2,0,0,0,15.88,10.29,12.6,12.6,0,0,1,1.37.38.77.77,0,0,1,.55.94c-.09.51-.45.61-.89.59a18.9,18.9,0,0,1-4.88-1.05A25.24,25.24,0,0,1,121,53.8a2.5,2.5,0,0,0-1.4-.55Z"/><path class="c" d="M89.65,111.29c-.61-.18-.84.32-1.17.63s-.48.72-1,.53-.26-.67-.29-1a2.19,2.19,0,0,1,0-.36.88.88,0,0,1,0-.15,4.49,4.49,0,0,0,1.7-2.61.64.64,0,0,1,.21-.25,3.18,3.18,0,0,0,1.1-.89c1-1.22,1.9-2.47,2.87-3.68a2.28,2.28,0,0,0,.58-1.29,1.21,1.21,0,0,1,.11-.32,1.73,1.73,0,0,1,.19-.28l.11-.12c1.26-1.43,1.21-2.13-.28-3.89a.75.75,0,0,0-.05-.16c0-.55-.41-.81-.79-1.12s-.63-.54-.33-1,.72-.41,1.16-.26a4.89,4.89,0,0,1,2.94,4.29c.06,1.48.06,1.48,1.48,2a4.45,4.45,0,0,1,3.27,4.48,1.88,1.88,0,0,0,1.3,2,5.92,5.92,0,0,1,3.65,6.45,2.58,2.58,0,0,1-1.27,1.9,1.33,1.33,0,0,0-.77,1.46l-.08.14a6.36,6.36,0,0,0-2.84,3.83.51.51,0,0,1-.23.23,1.59,1.59,0,0,0-1.45.85,17,17,0,0,1-1.57,2,1.38,1.38,0,0,1-1.41.61c.4-1.66,1.64-2.77,2.54-4.07a5.33,5.33,0,0,0,1.15-1.79c.12-.58.73-.61,1.05-1a29.73,29.73,0,0,1,2-2.78c1.69-1.67,1.43-5.12-.47-6.18a2.12,2.12,0,0,0-2.57,0c-1.65,1.47-3.4,2.92-3.85,5.29l0,0a1.09,1.09,0,0,0-1.2.79c-.49,1.39-1.74,2.17-2.57,3.29-.17.22-.44.53-.77.28a.72.72,0,0,1-.13-1,4.7,4.7,0,0,1,.4-.59q2.86-3.77,5.72-7.52c.94-1.25,1.83-2.53,1.69-4.22a3.14,3.14,0,0,0-2.07-2.81,2.43,2.43,0,0,0-2.89.8A4.12,4.12,0,0,0,93.47,106a1.09,1.09,0,0,1-.08.15,8.55,8.55,0,0,0-2.17,3.08l-.14.11c-.87.35-1.64.78-1.46,1.94Z"/><path class="d" d="M64.72,95.83a5.12,5.12,0,0,1,5.66.87A50.36,50.36,0,0,1,62,111.46c-.33.4-.68.79-1,1.16-.83.86-1.15.86-1.93,0-.59-.64-.91-1.5-1.77-1.91-.3-.15-.16-.51-.07-.77a5.61,5.61,0,0,1,.77-1.34c1-1.31,2-2.6,2.86-4a19.16,19.16,0,0,1,1.85-3.06,2.23,2.23,0,0,0,.43-2h0a3.34,3.34,0,0,0,1.64-3.74Z"/><path class="c" d="M71.43,143.67c1-.39,1.41-1.37,2.06-2.11.37-.42.73-.84,1.12-1.24.22-.23.52-.46.84-.21s.18.64,0,1-.28.38-.43.57c-1.87,2.44-3.75,4.87-5.61,7.31a13.34,13.34,0,0,0-1.19,1.8,3.64,3.64,0,0,0,1,5l.65.53c.34.26.64.55.36,1s-.68.36-1.07.2a4.26,4.26,0,0,1-2.89-3.78,2.63,2.63,0,0,0-2.06-2.78A3.79,3.79,0,0,1,61.38,147c-.06-1.8-.1-1.85-1.83-2.4a3.93,3.93,0,0,1-2.75-2.89,16.82,16.82,0,0,1-.31-3.32,2.3,2.3,0,0,1,1-1.93,11.3,11.3,0,0,0,3.26-3.85,14.16,14.16,0,0,1,2.59-3.31c.52-.51.89-1.13,1.4-1.63.2-.19.45-.44.74-.29s.23.56.16.85c-.13.56-.62.92-.85,1.43a2.13,2.13,0,0,0-.1.58l-.07.15c-2,2.19-3.53,4.72-5.45,7a3.93,3.93,0,0,0-.25,4.72,2,2,0,0,0,3.09.57,17,17,0,0,0,3.8-4.26,15.3,15.3,0,0,1,2-2.5,6.85,6.85,0,0,0,1.49-2.43l.13-.11c1.43.38,1.58.69.75,1.8-2,2.7-4.09,5.38-6.15,8.07a4.66,4.66,0,0,0-1,4.56c.68,2,2.95,3,4.67,1.1a20.57,20.57,0,0,0,3.68-5.24Z"/><path class="c" d="M68,123.3c2.4-3.13,4.79-6.27,7.21-9.39q13.94-18,27.9-36c1.69-2.17,3.33-4.37,5-6.56.45,0,1-.61,1.3-.07s-.24,1-.55,1.44q-4.56,6-9.18,11.9a6.54,6.54,0,0,0-.93,1.51.22.22,0,0,1,.08.26c-.17.25-.44.4-.61.66a1.15,1.15,0,0,1-.21.23,1.94,1.94,0,0,0-.69,1c-.07.14-.14.3-.35.26a2.33,2.33,0,0,0-1,.78L69.78,123.05a5.43,5.43,0,0,1-.54.63C68.53,124.34,68.35,124.28,68,123.3Z"/><path class="c" d="M99.24,38.66l.42,0c1,.87,1.08,2.11,1.34,3.25,1,4.29,1.42,8.67,2.16,13a45.53,45.53,0,0,0,2.1,9.21,8.36,8.36,0,0,0,2,3.32l.06.19c-.1.58.28,1,.54,1.41.11.21.29.44.1.65a.62.62,0,0,1-.68.08,4.74,4.74,0,0,1-2.13-2c-.29-.4-.48-.9-1.11-1.1,0,.76.53,1.23.7,1.82.06.22.28.44,0,.65s-.47,0-.67-.08a3.26,3.26,0,0,1-1-1.13A22.22,22.22,0,0,1,100,59.4c-.68-3.56-.86-7.19-1.41-10.77-.46-3-1.17-5.92-1.79-8.88a5.43,5.43,0,0,1-.13-.58c0-.36-.1-.77.37-.87a.65.65,0,0,1,.8.53c.38,1.25.88,2.48,1.14,3.76.68,3.44,1,6.93,1.51,10.39.6,4.21.92,8.48,2.8,12.4.17.35.25.75.62,1,.36-.39,0-.72-.08-1a47.21,47.21,0,0,1-2.62-12A110.57,110.57,0,0,0,99,40.08,1.28,1.28,0,0,1,99.24,38.66Z"/><path class="f" d="M66,164A8.92,8.92,0,0,1,64,166.46l-1-.61c-2.61-2.88-4.68-6.19-7.12-9.2-.63-.76-1.3-1.49-2-2.23a1.08,1.08,0,0,0-.91-.94,20.38,20.38,0,0,1,1.32-4.85,2.33,2.33,0,0,1,2.12,1.06c2.86,3.45,5.23,7.29,8.31,10.57A4.37,4.37,0,0,1,66,164Z"/><path class="c" d="M81.27,97.84c1.33-1.82,2.85-3.51,4.08-5.4a27.38,27.38,0,0,0,4.25-5q5.84-7.58,11.64-15.18A9,9,0,0,0,102,71.2a1,1,0,0,1,1.67-.36c-2.42,3.66-5.13,7.12-7.8,10.59q-11.45,14.8-23,29.57c-2.4,3.08-4.82,6.14-7.23,9.21-.94-.19-.81-.67-.36-1.26,2.09-2.72,4.16-5.46,6.28-8.15,2.71-3.45,5.27-7,8.1-10.37C79.75,99.28,81.25,99,81.27,97.84Z"/><path class="c" d="M103.84,186.45a2.83,2.83,0,0,1-1.34-.74,36.07,36.07,0,0,0-14.58-7.6A28.93,28.93,0,0,0,75.84,178c-4.56.83-9,2-13,4.59a4.49,4.49,0,0,1-.54.26.64.64,0,0,1-.85-.18.69.69,0,0,1,0-.79,3.56,3.56,0,0,1,1.57-1.43A41.17,41.17,0,0,1,77.69,176a33.38,33.38,0,0,1,21.52,5.12,24.69,24.69,0,0,1,5.13,4.27c.2.22.54.51.36.82S104.16,186.49,103.84,186.45Z"/><path class="d" d="M86.05,126.66a2.19,2.19,0,0,1-.65,1.5c-.67.83-1.33,1.69-2,2.54-.12.15-.31.33-.31.5,0,1.16-.95,1.36-1.74,1.71s-1.31.51-1.4-.61c0-.4-.4-.68-.68-1a19.48,19.48,0,0,1-2.75-3.45,2.46,2.46,0,0,1,.46-3.55,31.6,31.6,0,0,0,2.65-3.23C80.47,120,81.06,120,82,121c1.36,1.41,2.44,3,3.65,4.58A1.71,1.71,0,0,1,86.05,126.66Z"/><path class="c" d="M65.19,121.78c.36.36.46,1,1,1.15a8.61,8.61,0,0,0,2.91,3.7c.35.23.37.58.56.86,1.93,3,4.24,5.62,6.37,8.42,1.43,1.87,2.88,3.72,4.3,5.59a5.06,5.06,0,0,1,.68,1.25.79.79,0,0,1-.36.93.66.66,0,0,1-1-.07,8,8,0,0,1-.88-1c-1.45-1.86-2.8-3.8-4.35-5.56s-2.87-4.1-4.5-6-3.17-4-4.74-6l-4.62-6c-1.57-2-3.16-4-4.73-6a4.27,4.27,0,0,1-1.24-2.77c0-.23-.07-.52.18-.64a.51.51,0,0,1,.65.15c.4.66,1,1.08,1.5,1.7C59.6,115,62.05,118.69,65.19,121.78Z"/><path class="c" d="M72.56,73.21a7.65,7.65,0,0,0,4.16,1.62,35.84,35.84,0,0,0,19.56-3c1.31-.59,2.57-1.27,3.85-1.91.21-.1.42-.23.64-.31a.66.66,0,0,1,.68.06c.25.22,0,.44,0,.65A3.46,3.46,0,0,1,99.78,72,29.53,29.53,0,0,1,92,75.21a39.5,39.5,0,0,1-11.79,1.52c-7.36-.31-13.69-3.26-19.44-7.66a9.56,9.56,0,0,1-2.16-2c-.14-.2-.47-.43-.22-.72a.83.83,0,0,1,.87-.26,2.52,2.52,0,0,1,1,.58,40.46,40.46,0,0,0,10,6.19,3.57,3.57,0,0,0,2.19.39Z"/><path class="c" d="M82.48,83.05A37,37,0,0,1,61.36,77a39.25,39.25,0,0,1-9.28-7.65c-.13-.16-.28-.29-.41-.44-.25-.32-.52-.67-.11-1a.72.72,0,0,1,1.15.1,16.34,16.34,0,0,0,1.83,1.89c5.89,5.4,12.55,9.38,20.5,10.9a38.29,38.29,0,0,0,16.57-.46,7.4,7.4,0,0,0,.81-.21c.48-.15,1-.31,1.27.23s-.26.9-.67,1.16a10,10,0,0,1-3.88,1A32.27,32.27,0,0,1,82.48,83.05Z"/><path class="c" d="M97.42,130.58c-.42-.14-.53-.58-.79-.88a33,33,0,0,0-3.9-5.55c-3.57-4.55-7-9.19-10.7-13.65-.38-.46-.67-.94-.07-1.44s1-.18,1.46.36l23.7,30.2a4.22,4.22,0,0,1,1.14,3.46c-.82-.08-1.22-.71-1.64-1.24-2.61-3.27-5.18-6.57-7.79-9.85C98.42,131.48,98.14,130.81,97.42,130.58Z"/><path class="f" d="M98.69,86.19l.06-.08h.93a2.13,2.13,0,0,0,.47,1q4.06,5.35,8.11,10.73a3.14,3.14,0,0,0,.78.72.71.71,0,0,0,.75.57,3.53,3.53,0,0,1-.57,2.23c-.52.7-.25,1.59-.56,2.34a2.94,2.94,0,0,1-2-1.22c-2.76-3.64-5.55-7.26-8.33-10.88a6.94,6.94,0,0,1-1.41-3l.14-.3A3.75,3.75,0,0,0,98,87a.17.17,0,0,1,.09-.15C98.25,86.63,98.69,86.62,98.69,86.19Z"/><path class="c" d="M54.5,85.25a33.7,33.7,0,0,0,0,4A19,19,0,0,0,54.19,93q0,5.75,0,11.49c0,.34.26.89-.33,1s-.75-.31-.93-.75a7.41,7.41,0,0,1-.63-2.77c0-8.54,0-17.08.09-25.62a36.08,36.08,0,0,1,.19-4.64c1.28.31,1.78.78,1.8,2.15q.08,4.6-.07,9.21A7.23,7.23,0,0,0,54.5,85.25Z"/><path class="c" d="M108.38,169.05l.13-1.76c0-.32,0-.65,0-1,0-1.3.14-2.6,0-3.91.45-4.53.18-9.08.26-13.62a3.18,3.18,0,0,1,.34-2,4.73,4.73,0,0,1,1.57,3.74c0,7.74,0,15.48-.06,23.22,0,1.9-.11,3.82-.2,5.73,0,.79-.33,1.29-1.15,1.39h0c-1.22-1.14-1.19-2.64-1-4.09a33.8,33.8,0,0,0,0-7.11A2.41,2.41,0,0,1,108.38,169.05Z"/><path class="d" d="M26.84,197.12c0-.39,0-.79,0-1.19,0-1.24.42-1.6,1.61-1.37a24.57,24.57,0,0,1,12.94,6.7l.93.93a.81.81,0,0,1,.27.87c-.2.45-.59.1-.83,0-1.67-.51-3.31-1.11-5-1.62a50.33,50.33,0,0,0-7.42-1.21C26.9,199.9,26.84,199.87,26.84,197.12Z"/><path class="d" d="M120.33,48.8a4.29,4.29,0,0,1,2.26.51c3.29,1.56,6.84,2,10.37,2.54.51.08,1,.15,1.54.21,1.67.19,1.81.33,1.85,2,0,.59,0,1.19,0,1.79-.1,1.63-.7,2.09-2.36,1.72a23.41,23.41,0,0,1-6.32-2.42,29.93,29.93,0,0,1-6.45-4.9A3.29,3.29,0,0,1,120.33,48.8Z"/><path class="f" d="M32.71,92.49a12,12,0,0,1,0-2.93c.37-.35.91-.52,1.12-1a6.76,6.76,0,0,0,2.43-2.38l0,0a1.86,1.86,0,0,1,.23-.26l.07,0V85.8c2.09-2,3.21-4.54,4.26-7.12a20.3,20.3,0,0,0,1.4-5.92A3.74,3.74,0,0,1,42.63,71a3.19,3.19,0,0,1,2.51-1,2.38,2.38,0,0,1,.24,1.73,29.41,29.41,0,0,1-4.25,12.93,6.07,6.07,0,0,1-.85,1.43.18.18,0,0,0,0,.21,17.68,17.68,0,0,0-1.64,1.92l0,0a1.06,1.06,0,0,0-.19.23h-.07v.07c-.36.29-.65.67-1,.94-.42-.08-.42.33-.61.51s-.12.34-.3.42c-.42,0-.6.26-.65.64-.53.41-1.05.86-1.59,1.27l-.06,0,0,0c-.22.18-.42.39-.74.25Z"/><path class="e" d="M42,183.76c-.8.79-1.54,1.47-2.21,2.19a5.92,5.92,0,0,0-.2,8.49,2.19,2.19,0,0,1,.44.75,6.38,6.38,0,0,1-2.77-1.36,3.12,3.12,0,0,0-1.54-.84c-2-.66-2.55-1.34-2.46-3.49a46.92,46.92,0,0,0,0-4.89c-.05-.72.14-1,.92-.91,1.3.17,2.48,0,3-1.51.17-.54.59-.27.89-.15C39.3,182.58,40.57,183.14,42,183.76Z"/><path class="e" d="M48.5,71.2A29.9,29.9,0,0,1,37.92,92.88c-1.05.93-2.1,1.84-3.16,2.76-.38.34-.75.81-1.33.43-.42-.28-.29-1.24.24-1.72s1.23-1.12,1.88-1.61A28.47,28.47,0,0,0,41,87.19a28.13,28.13,0,0,0,5-11.31,48,48,0,0,0,.81-5.2,5.18,5.18,0,0,1,.26-1.29.78.78,0,0,1,.95-.53c.49.1.45.47.45.84S48.5,70.66,48.5,71.2Z"/><path class="e" d="M120.36,163.94h0a6,6,0,0,0,2.4-2.87.18.18,0,0,1,0-.26,2.86,2.86,0,0,0,.78-.73l.13-.09c.77.09,1.19-.5,1.7-.88,1-.74,1.89-1.55,2.86-2.29a2.3,2.3,0,0,1,1.57-.73,3,3,0,0,1-.43,2.1,11.44,11.44,0,0,1-2.51,2.09c-1.78,1.37-3,3.25-4.52,4.82-.32.32-.26.82-.46,1.21l-.12.12a1,1,0,0,0-1.18.76c-.24,1.37-1.47,2.15-1.84,3.45s-1,2.44-1.31,3.71a40,40,0,0,0-1.44,8,1.59,1.59,0,0,1-.18.8.74.74,0,0,1-.82.34c-.5-.08-.46-.48-.47-.83a26.72,26.72,0,0,1,.9-7.81,32.25,32.25,0,0,1,4.5-9.7A1.86,1.86,0,0,0,120.36,163.94Z"/><path class="c" d="M63.93,214a1.31,1.31,0,0,1-.77-.33A89.55,89.55,0,0,1,61,203.31c-.47-3.19-.81-6.4-1.47-9.56A22.94,22.94,0,0,0,54.65,183s0-.14,0-.21c1-.28,1.62,0,2.44,1.08a22.74,22.74,0,0,1,3.61,7.62,79.09,79.09,0,0,1,1.65,9.89c.5,3.63,1,7.25,1.81,10.83A2,2,0,0,1,63.93,214Z"/><path class="c" d="M65.94,214.43l-.7-.33c-1.72-6.4-2.27-13-3.4-19.51a27.52,27.52,0,0,0-3.52-10.32c-.15-.25-.46-.56-.13-.85s.56.1.78.25a5.71,5.71,0,0,1,1.66,2,23.27,23.27,0,0,1,2.88,9.16,114.33,114.33,0,0,0,3,18.11A1.1,1.1,0,0,1,65.94,214.43Z"/><path class="d" d="M135.29,174.56a3,3,0,0,0-1.3.11c-1,.25-1.13.15-1.18-.85-.05-1.16,0-2.31,0-3.47,0-2,0-3.92,0-5.87a3.73,3.73,0,0,1,2.67-3.58c.54-.17.61.09.68.49a18.29,18.29,0,0,1,.16,2.86q0,3.17,0,6.33a7,7,0,0,1-1,4Z"/><path class="c" d="M69.07,214.62c-.5.5-1,0-1.44-.06-.63-2.75-1.47-5.44-2-8.21-.52-2.54-.82-5.11-1.09-7.68-.48-4.61-1.06-9.18-3.36-13.33-.19-.34-.45-.8,0-1.08s.84.11,1.11.43a10.75,10.75,0,0,1,1.57,3.07,34.83,34.83,0,0,1,2.08,9.65A81.13,81.13,0,0,0,69.07,214.62Z"/><path class="c" d="M62.1,212.55c0,.26,0,.49-.18.6a.57.57,0,0,1-.65-.15,1.77,1.77,0,0,1-.55-.9,83.83,83.83,0,0,1-2-10c-.62-4.15-1-8.38-2.5-12.35a16.46,16.46,0,0,0-3.58-6c-.13-.13-.19-.27-.08-.42a.29.29,0,0,1,.42-.06,6.44,6.44,0,0,1,2.08,1.54,24.34,24.34,0,0,1,4.15,10.68c1,5.55,1.55,11.18,2.81,16.68C62.07,212.3,62.08,212.46,62.1,212.55Z"/><path class="c" d="M59.6,213.1a1,1,0,0,1-.7-.37c-1.45-5.23-2.11-10.6-3-15.93-.71-4.12-1.72-8.11-4.52-11.39-.24-.28-.49-.53-.72-.8s-.57-.44-.69-.82a2.24,2.24,0,0,1,2.34.83,14.19,14.19,0,0,1,3.59,6,47.53,47.53,0,0,1,1.89,8.73,107.82,107.82,0,0,0,2.12,12.1A1.64,1.64,0,0,1,59.6,213.1Z"/><path class="c" d="M94.4,38.72c0-.27-.05-.6.3-.71s.62.21.79.55a22.29,22.29,0,0,1,1.57,5.36c.85,4,1.26,8,1.71,12,.42,3.85,1,7.66,3,11.08.23.39.61,1,.19,1.3s-1-.28-1.22-.69a22.26,22.26,0,0,1-2.42-5.81,49.44,49.44,0,0,1-1.25-8.13,62.15,62.15,0,0,0-2.47-14.06A3.35,3.35,0,0,1,94.4,38.72Z"/><path class="d" d="M30,83.69c0,1.43,0,2.87,0,4.3a3.23,3.23,0,0,1-1.58,3c-.36.25-.72.56-1.19.31a1.2,1.2,0,0,1-.54-1.24c0-1.91,0-3.82.06-5.73a30.88,30.88,0,0,1,.1-4.3,2.47,2.47,0,0,1,2.52-2.19c.68,0,.63.6.63,1.05,0,1.6,0,3.19,0,4.79Z"/><path class="c" d="M71,215a2.39,2.39,0,0,1-1.06-.42,60.6,60.6,0,0,1-3.29-16.2,44.28,44.28,0,0,0-2.2-11.21c-.07-.18-.2-.35,0-.59a2.94,2.94,0,0,1,1.5,1.58,22.74,22.74,0,0,1,2.16,9,73.36,73.36,0,0,0,2.78,16.31A4,4,0,0,1,71,215Z"/><path class="c" d="M58.05,212.71c-.62.38-.84-.24-1.21-.48-1.63-6.08-2.18-12.36-3.6-18.47a22.47,22.47,0,0,0-1.31-3.83,11.09,11.09,0,0,0-5-5.85,4.62,4.62,0,0,1,4,1.74,17.84,17.84,0,0,1,3.8,7.87c1,4,1.47,8.14,2.16,12.21C57.21,208.17,57.64,210.44,58.05,212.71Z"/><path class="c" d="M98.67,66a3.27,3.27,0,0,1-1.8-2A28.54,28.54,0,0,1,95.16,56c-.47-5.79-1-11.57-3-17.11-.13-.39-.36-.79.21-1s.83.12,1,.57a27.33,27.33,0,0,1,2,7.1c.72,4.88,1.09,9.81,1.91,14.68C97.63,62.21,98.19,64.06,98.67,66Z"/><path class="d" d="M100,25a9.16,9.16,0,0,1,2.8-.44,66.67,66.67,0,0,1,6.78,0,15.14,15.14,0,0,1-1.83,5.1,1.29,1.29,0,0,1-.75.57,5.55,5.55,0,0,1-7.15-4.95A.53.53,0,0,1,100,25Z"/><path class="c" d="M101.22,38.71l.82.56a2.15,2.15,0,0,1,.53.91v.15c.34,1.75.71,3.5,1,5.26.5,3.21.93,6.44,1.42,9.66.53,3.49,1.14,7,2.86,10.13a19.21,19.21,0,0,0,3,3.89,2.36,2.36,0,0,1-2.21-.74c-.39-.33-.7-.77-1.25-.87l0,0a31.63,31.63,0,0,1-4-11.47c-.84-4.82-1-9.75-2.3-14.51a14.81,14.81,0,0,1-.45-1.74C100.61,39.47,100.52,38.91,101.22,38.71Z"/><path class="c" d="M103.11,39.15a1.17,1.17,0,0,1,1,.5c.52.26.47.8.58,1.24,1.13,4.7,1.79,9.48,2.49,14.25A34.38,34.38,0,0,0,109.35,63a5.77,5.77,0,0,0,1.31,2.11l.06.19c-.07.83.1,1.51,1,1.76a1.13,1.13,0,0,1,.45.36c.41.44,1,1,.57,1.48s-1-.11-1.44-.44a11.36,11.36,0,0,1-3.71-5.17,37.39,37.39,0,0,1-2.15-9.15c-.53-4.1-1-8.21-2-12.25-.13-.57-.11-1.32-.92-1.53l0,0C102.3,39.75,102.53,39.38,103.11,39.15Z"/><path class="e" d="M77.85,146.84c-.14-1,0-2.08-1.22-2.43a2.82,2.82,0,0,0-2.82,1.41,15.69,15.69,0,0,0-1.41,3.29c-.5,1.42-1,2.84-1.54,4.44a5.53,5.53,0,0,0,3.64-3.43,2.73,2.73,0,0,1,1.59-1.82,1,1,0,0,1,.74,0c0,.34-.25.53-.42.76-1.45,1.91-2.89,3.82-4.34,5.72-.8,1-1.11,1.08-2.19.39a2.83,2.83,0,0,1-.72-4.27c1.7-2.31,3.45-4.59,5.18-6.88.51-.67,1-1.32,1.51-2,.35-.52.64-.46,1-.07a10.76,10.76,0,0,1,2.09,2.9C79.45,145.82,78.42,146.2,77.85,146.84Z"/><path class="c" d="M28.82,222.9a3.33,3.33,0,0,0,2.32-3.62c-.18-4.35-.09-8.69-.12-13a6,6,0,0,1,0-1c.07-.43.16-.93.75-.89s.73.46.79.92a11.4,11.4,0,0,1,0,1.31c0,4.35,0,8.7,0,13.05a4.54,4.54,0,0,1-1.61,3.68c-1,.91-1.95,1.88-2.92,2.82a10.69,10.69,0,0,1-.82.69.74.74,0,0,1-1.07-.12.67.67,0,0,1,0-1.05c.73-.54.89-1.63,1.89-1.92a.39.39,0,0,0,.13-.52l.07-.11.19-.16A.5.5,0,0,1,28.82,222.9Z"/><path class="d" d="M134.09,98.14a8,8,0,0,0,.94.15c.88,0,1.18.57,1.21,1.33,0,1,0,2.07,0,3.11,0,1.48.05,3,.05,4.43,0,2.74-.28,3.1-3,3.85-.49-4.35-1.26-8.69.8-12.87Z"/><path class="c" d="M48,104a44.32,44.32,0,0,1,2.62,7.87,2.38,2.38,0,0,1,.24,1.15,5.29,5.29,0,0,1-4,.28A87.66,87.66,0,0,0,44,104.31,3.46,3.46,0,0,1,48,104Z"/><path class="d" d="M26.72,148.7c0-1.39,0-2.79,0-4.18a2.89,2.89,0,0,1,1.86-2.8c.76-.37,1.1-.19,1.27.62a1.84,1.84,0,0,1,.06.47c0,2.75.07,5.5,0,8.24,0,1.9-.56,2.43-2.38,2.88-.65.16-.9,0-.83-.69a.48.48,0,0,0,0-.12Z"/><path class="d" d="M26.72,112.27c0-3.45,0-6.76,0-10.06a3.22,3.22,0,0,1,2-2.74c.61-.33,1-.06,1,.66a79.91,79.91,0,0,1,0,9.54A2,2,0,0,1,29,111.1,5.71,5.71,0,0,1,26.72,112.27Z"/><path class="d" d="M136.26,119.5c0,3.35,0,6.58,0,9.81a2.67,2.67,0,0,1-1.63,2.21,1,1,0,0,1-1.56-.92c0-2.55-.05-5.11,0-7.66,0-2.21.32-2.51,2.45-3.23Z"/><path class="d" d="M136.31,145.45c0,1.63,0,3.26-.13,4.89a2.62,2.62,0,0,1-1.56,2.35c-.86.43-1.55.07-1.55-.9,0-2.34,0-4.69.06-7a6.91,6.91,0,0,0,.07-1.19c-.2-1.27.63-2,1.43-2.67a1,1,0,0,1,1.11-.22,1,1,0,0,1,.57,1.09C136.32,143,136.31,144.22,136.31,145.45Z"/><path class="e" d="M93.85,97.41l0,0a4.46,4.46,0,0,1,.35,4.33l0,0L94,102l0,0c-1.52,2.15-3.33,4.08-4.81,6.26l0,0a7.23,7.23,0,0,0-2,2.89l0,0c-2-.16-2.7-1.8-3.56-3.17-.43-.68,0-1.32,1.16-2.13,0,.28,0,.51,0,.74A1.83,1.83,0,0,0,87.32,108a3.82,3.82,0,0,0,2.31-2.43c.78-1.92,1.23-4,2.16-5.83.08-.16.22-.35,0-.52s-.45-.08-.68,0c-.62.14-.92.92-1.65.85a3.14,3.14,0,0,1,3.69-2.76C93.37,97.36,93.61,97.38,93.85,97.41Z"/><path class="d" d="M26.73,133c0-3.33,0-6.56,0-9.78,0-1.22.9-1.83,1.85-2.28.74-.36,1.31.12,1.31,1,0,2.39,0,4.78,0,7.16S29.28,132.31,26.73,133Z"/><path class="c" d="M106.28,40.26l.13.1c1.25,6.72,2.27,13.48,3.82,20.15a11.4,11.4,0,0,0,4.49,7,2.18,2.18,0,0,1,.38.3c.15.17.39.35.29.59a.5.5,0,0,1-.73.18c-1-.53-2.1-.91-2.64-2-.28-.57-.55-1.16-1.3-1.25l0,0a21.27,21.27,0,0,1-2.86-7.82c-1-5.26-1.72-10.56-2.66-15.83C105,40.5,105.28,40.23,106.28,40.26Z"/><path class="c" d="M136.27,25.45a1.44,1.44,0,0,1-.25,2.08c-.72.74-1.47,1.46-2.26,2.13A4.09,4.09,0,0,0,132.32,33c0,4.43,0,8.86,0,13.28,0,.55.24,1.37-.64,1.43s-.81-.82-.81-1.41c0-4.9,0-9.81,0-14.72a1.87,1.87,0,0,1,.43-1.32A43.09,43.09,0,0,1,136.27,25.45Z"/><path class="e" d="M77.14,73.52a24.15,24.15,0,0,0,8.59-2.86,8,8,0,0,1,4.58-.58,1.36,1.36,0,0,1-.77.74.27.27,0,0,0-.12.41c.09.15.25.27.39.2.64-.34,1.41-.28,2-.6.32-.16.73-.33.68-.75s-.59-.15-.9-.43a15.26,15.26,0,0,1,3.92-2l.14.24-2.34,1.32c-.29.16-.58.36-.35.74s.5.23.75.08a1.74,1.74,0,0,1,1.69-.25,10.55,10.55,0,0,1-3.12,1.46,4.37,4.37,0,0,0-1.46.46c-.58.33-.62.62.07,1A28.31,28.31,0,0,1,77.14,73.52Z"/><path class="e" d="M128.14,86.46c-1.1.37-1.47.24-2-.77a8.05,8.05,0,0,1-.63-6c.51-2.09,1.32-4.1,1.63-6.24a12.89,12.89,0,0,0,.13-2.63,1,1,0,0,1,.53-1.1c.56-.25.91.11,1.24.46a2.64,2.64,0,0,1,.69,1.36,11,11,0,0,1,0,2.86,1.34,1.34,0,0,1-.69,1.2c-1.4.62-1.6,1.91-1.78,3.17-.24,1.77,0,3.59-.49,5.35a1.33,1.33,0,0,0,.52,1.27C127.61,85.69,128.05,86,128.14,86.46Z"/><path class="d" d="M135.75,193.71a5.09,5.09,0,0,1-3.1-4.84c.07-1.23.07-2.47.14-3.7a2.72,2.72,0,0,1,2.57-2.67c.59-.07.55.33.6.65a27.13,27.13,0,0,1,.29,5A22.59,22.59,0,0,1,135.75,193.71Z"/><path class="e" d="M33.23,179.08c-.08-1.26,0-2.44,1.58-2.9.48-.15.62-.69.67-1.19.21-1.87.89-3.71.48-5.64a1.14,1.14,0,0,1,.08-.71,1.39,1.39,0,0,0-.55-1.95c-.37-.25-.78-.66-.37-1.05s.92,0,1.22.33a7.32,7.32,0,0,1,1.41,5.29,12.6,12.6,0,0,1-.76,3.25,17,17,0,0,0-1.13,6.77c0,.51,0,1.07-.63,1.25a1.24,1.24,0,0,1-1.4-.66A4.27,4.27,0,0,1,33.23,179.08Z"/><path class="d" d="M26.94,57.93a15.52,15.52,0,0,1,2.35,2.39,4.46,4.46,0,0,1,1,3c0,1,0,2,0,3a3.61,3.61,0,0,1-3.33,3.74Z"/><path class="e" d="M68.7,180.94a33.48,33.48,0,0,1,17.52-2,9.48,9.48,0,0,1-2.27.52,25.78,25.78,0,0,0-6.17,2.2,8,8,0,0,1-2,.72c-.87.18-1.65.4-2.18-.71-.33-.67-1.1-.47-1.72-.24a3.83,3.83,0,0,1-2,.56,1.46,1.46,0,0,1,1-.72c.28,0,.61-.16.44-.53s-.47-.25-.73-.11a5.43,5.43,0,0,1-1.72.47C68.72,181.13,68.66,181.08,68.7,180.94Z"/><path class="d" d="M63.58,24.73a23.26,23.26,0,0,1,8.36,0A3.52,3.52,0,0,1,71.17,28a4.14,4.14,0,0,1-6.67-.34C64,26.72,63.3,25.88,63.58,24.73Z"/><path class="d" d="M118.59,86.62a46.49,46.49,0,0,1,6.71-10.78,5.52,5.52,0,0,1-.41,1.84,10.52,10.52,0,0,0-.72,5,5.24,5.24,0,0,1-1.43,4.15A7.71,7.71,0,0,1,118.59,86.62Z"/><path class="c" d="M38.87,168.85a3.46,3.46,0,0,1,.67-2.2,12.26,12.26,0,0,0,1.09-2.21c1.35,0,2.77-.37,4,.57a30,30,0,0,1-2.18,4.44c-.86,1.5-1.77,3-2.65,4.45-1,.33-1.14-.13-1-1l.09-2.33A1.88,1.88,0,0,0,38.87,168.85Z"/><path class="c" d="M58.4,56.68h0c-.17-.61-.39-1.21-.51-1.83a2.06,2.06,0,0,1,1.34-2.49,1.58,1.58,0,0,1,2,.63,1,1,0,0,1-.47,1.66c-.18.1-.36.24-.21.47a.5.5,0,0,0,.72.18,2.93,2.93,0,0,0,1.6-2.73,51.85,51.85,0,0,1,.83-6.81,4.43,4.43,0,0,1,.52,2.47,40.16,40.16,0,0,1,0,5.26c-.15,2.47-1.92,3.75-4.38,3.33A4.83,4.83,0,0,0,58.4,56.68Z"/><path class="e" d="M93.47,106a1.21,1.21,0,0,0,1.37-.73,3.64,3.64,0,0,1,.82-1,1.79,1.79,0,0,1,3.14.66,2.7,2.7,0,0,1,0,2.43,25.36,25.36,0,0,1-4,5.13,20.64,20.64,0,0,1,2.14-6.76,4.07,4.07,0,0,0-3.41,2.71A3.82,3.82,0,0,1,91.16,111a2.79,2.79,0,0,1-.46.07c-.23-.68.44-1.1.38-1.68v0c.78-1.14,2-2,2.42-3.38Z"/><path class="e" d="M95.41,117.56a1.49,1.49,0,0,1,.73-1.42,1.47,1.47,0,0,0,.69-1.5l0,0a1.84,1.84,0,0,0,1.29-1c.68-.93,1.4-1.84,2.11-2.75a1.9,1.9,0,0,1,2.21-.77,2.08,2.08,0,0,1,1.42,1.89,2.6,2.6,0,0,1-.25,1.63c-.51.93-.62,2-1.66,2.73-.54.35-.57,1.22-1.14,1.78-.39.38-1,.62-1.21,1.21A21.87,21.87,0,0,1,102,112a3.75,3.75,0,0,0-3.44,2.6,4.27,4.27,0,0,1-3.13,3Z"/><path class="c" d="M102.69,197.46c-1.52-.09-2.09.29-2.31,1.69s-.33,2.61-.4,3.92a23.78,23.78,0,0,1-.37,3.61A6.53,6.53,0,0,1,99.1,204a24.93,24.93,0,0,1-.33-4.89,3.59,3.59,0,0,1,4.52-3.45,2.56,2.56,0,0,1,1.72,3.21,1.87,1.87,0,0,1-2.66,1c-.87-.51-.93-1.22-.15-1.92C102.37,197.79,102.63,197.73,102.69,197.46Z"/><path class="c" d="M59.9,62.61a1.67,1.67,0,0,0,2.46-.76,11.92,11.92,0,0,0,1.17-3.73c0-.23,0-.49.1-.71.16-.43.2-1.13.74-1.09s.77.73.77,1.31A8.45,8.45,0,0,1,63,63.41a3.63,3.63,0,0,1-3,1.14,2.49,2.49,0,0,1-2.32-2.17A2.41,2.41,0,0,1,59.36,60a1.46,1.46,0,0,1,1.89,1c.31.87-.27,1.13-.91,1.36C60.17,62.35,60,62.37,59.9,62.61Z"/><path class="e" d="M71.45,143.65a1.26,1.26,0,0,0-1.2.62c-.87,1.18-1.77,2.36-2.69,3.51-.58.72-1.23,1.42-2.32,1.08a2.4,2.4,0,0,1-1.47-2.51,2.44,2.44,0,0,1,.34-1.49,31.62,31.62,0,0,1,3.33-4.23.39.39,0,0,1,.48-.09,7.38,7.38,0,0,1-.69,3.18c-.36,1-.77,2-1.22,3.1A4.21,4.21,0,0,0,69.39,144a3.14,3.14,0,0,1,2.74-2.39c0,.78-1.11,1.22-.7,2.11Z"/><path class="e" d="M100,25a10.72,10.72,0,0,0,.28,1.15c1.09,3.32,2.29,4.07,6.06,4a1.64,1.64,0,0,0,1.54-1.26c.57-1.44,1.14-2.87,1.7-4.31l1.47.23c-.81,1.86-1.62,3.72-2.45,5.57a1.79,1.79,0,0,1-2.14,1.11c-1.65-.29-3.29-.61-4.94-.91a1.6,1.6,0,0,1-1.28-1,21.66,21.66,0,0,1-1.73-4.82A2.14,2.14,0,0,1,100,25Z"/><path class="d" d="M81.06,24.7a29.92,29.92,0,0,1,9.11,0A2.6,2.6,0,0,1,87.23,28c-1-.12-1.91,0-2.86-.1A3.36,3.36,0,0,1,81.06,24.7Z"/><path class="c" d="M31.81,177.05a5.13,5.13,0,0,1,.8,2.71c0,3.39,0,6.79,0,10.18,0,.64.18,1.58-.74,1.62s-.92-.86-1-1.61c-.15-3-.23-6-.12-9,0-.91.13-1.82.18-2.74A1.33,1.33,0,0,1,31.81,177.05Z"/><path class="c" d="M103.44,190.07a1.19,1.19,0,0,0-1.73-.23c-1.69,1-2,2.78-2.24,4.52-.11.7-.1,1.42-.8,1.88-1.51-2.56,0-7.05,3-8.05a2.78,2.78,0,0,1,3.08.58,2.55,2.55,0,0,1,0,3,1.63,1.63,0,0,1-1.62.8,1.55,1.55,0,0,1-1.38-1c-.32-.79-.12-1.15.73-1.31C102.73,190.24,103,190.18,103.44,190.07Z"/><path class="d" d="M62.84,226.6a28.52,28.52,0,0,1-8.2,0,3.08,3.08,0,0,1,3.12-3.67,8.83,8.83,0,0,1,2.94.41A3,3,0,0,1,62.84,226.6Z"/><path class="e" d="M63.58,24.73a8.73,8.73,0,0,0,.79,2.1c1.14,2.24,2.77,2.88,5.19,2.09a2.76,2.76,0,0,0,1.79-1.78,8,8,0,0,0,.59-2.41,3,3,0,0,1,1.65-.14c-.24,1-.43,2.1-.74,3.12a3.06,3.06,0,0,1-3,2.41c-1.35.06-2.7.1-4,.19a1.45,1.45,0,0,1-1.47-1c-.77-1.56-1.52-3.14-2.28-4.7A2.51,2.51,0,0,1,63.58,24.73Z"/><path class="c" d="M132.27,68v5.63a2.11,2.11,0,0,1-.16,1,.65.65,0,0,1-.67.39.59.59,0,0,1-.61-.46,3.65,3.65,0,0,1-.15-1.18c0-3.71,0-7.42,0-11.13,0-.61-.16-1.48.7-1.54s.88.82.88,1.5C132.28,64.2,132.27,66.12,132.27,68Z"/><path class="c" d="M118.49,147.16c.72,1.71,1.34,3.47,2.2,5.12a5.5,5.5,0,0,1-4.18.08,15.24,15.24,0,0,1-2-5.06A5.13,5.13,0,0,1,118.49,147.16Z"/><path class="e" d="M81.06,24.7c.88,2.38,2.1,3.19,4.61,3a7.77,7.77,0,0,1,1.67,0c1.47.2,2-.14,2.5-1.55a3.85,3.85,0,0,0,.33-1.5,2.51,2.51,0,0,1,1.53-.07,20.16,20.16,0,0,1-1,2.78A2.48,2.48,0,0,1,88.26,29c-1.86,0-3.72-.06-5.58-.1a1.56,1.56,0,0,1-1.39-1,27.27,27.27,0,0,1-1.54-3.34A2.09,2.09,0,0,1,81.06,24.7Z"/><path class="c" d="M42.73,101,40.4,96a5.67,5.67,0,0,1,4.15-.1l2.21,4.9C45.47,101.79,44.1,101.43,42.73,101Z"/><path class="e" d="M62.84,226.6a4.92,4.92,0,0,0-6.23-3.38,1.67,1.67,0,0,0-1,.93,11.71,11.71,0,0,0-.94,2.45,2.83,2.83,0,0,1-1.5,0c.56-1.35,1.13-2.71,1.67-4.07a1.45,1.45,0,0,1,1.87-1c1.32.28,2.64.55,4,.74a3.29,3.29,0,0,1,3,2.61c.15.57.34,1.14.51,1.71A2.54,2.54,0,0,1,62.84,226.6Z"/><path class="e" d="M129.65,159.68a58.54,58.54,0,0,0-5.3,5.15,28.45,28.45,0,0,0-6.47,16.36l-.09,1.31c-1.06.12-.8-.66-.74-1.19a37.82,37.82,0,0,1,2.16-9.13,16.18,16.18,0,0,0,1.3-3.3c0-.34.45-.42.63-.68a3,3,0,0,0,.63-1.76l0,0c1.67-2.77,4.13-4.78,6.55-6.83.37-.32.77-.74,1.36-.37h0A.26.26,0,0,1,129.65,159.68Z"/><path class="d" d="M129.59,170.05c.28,1.13.8,2.29-.38,3.26a7.73,7.73,0,0,1-2.47,1.1c-1.08.46-1.17.78-.54,1.79.39.62,1.07,1.07,1.13,1.89s0,1.13-.84,1a15.53,15.53,0,0,1-3.26-3.83,1.53,1.53,0,0,1,.67-1.61c.34-.53.92-.58,1.45-.73s1.08-.26,1.61-.41c1.43-.41,1.54-.69.93-2a4.82,4.82,0,0,1-.86-2.31.83.83,0,0,1,.84-.92C128.86,168,128.9,169.2,129.59,170.05Z"/><path class="d" d="M28.82,222.9h0c-.08.25-.37.2-.5.37v0l-1.1.42c-.86-1.77-.48-3.63-.17-5.39.18-1,1.29-1.58,2.25-1.95.65-.24,1.12.29,1.11,1.15,0,1.7.17,3.47-1.38,4.74C28.88,222.36,28.89,222.67,28.82,222.9Z"/><path class="d" d="M33.61,81.32c-.06-.8-.82-1.62.08-2.39.13-.12.34-.15.39-.36a.28.28,0,0,0,.09-.1,9.1,9.1,0,0,1,2.15-.62c1.77-.62,1.83-.78.77-2.36a12.37,12.37,0,0,1-1.34-1.8c.1-.74.62-.78,1.19-.73a9.64,9.64,0,0,1,2.87,3.47l.49,1.45a.34.34,0,0,1-.15.27,6,6,0,0,1-1.16.57l-3,.83c-1.1.3-1.24.65-.81,1.73.31.81,1,1.43,1.25,2.27a4.19,4.19,0,0,1,.17,1,.69.69,0,0,1-.14.3l-1,0A6.94,6.94,0,0,1,33.61,81.32Z"/><path class="d" d="M134.71,36.5c-1.42-.45-1.66-.71-1.66-2.19,0-2.16.5-4.09,2.62-5.23.7-.37.93-.2.92.54,0,1.28,0,2.55,0,3.82a2,2,0,0,1-1,1.67c-.49.33-1,.67-.9,1.41Z"/><path class="c" d="M97.91,187.41c1.36-.32,2.39-2.19,4.17-.8-2.53,1.1-3.73,3.21-4.66,5.65-1.55-1.78.3-3.12.41-4.7-.72.09-.87.64-1.16,1s-.56.65-1,.45-.35-.58-.3-1a5.72,5.72,0,0,1,3.23-3.46c.35-.09.67-.08.83.24a.76.76,0,0,1-.31.94C98.65,186.19,98,186.44,97.91,187.41Z"/><path class="c" d="M111.72,107.75a15.77,15.77,0,0,1,.94-4.65,4.19,4.19,0,0,1,2.66-.21,1,1,0,0,1,.89.94c-.33,1.47-.66,2.93-1,4.39A4.37,4.37,0,0,1,111.72,107.75Z"/><path class="e" d="M90.12,226.6a1.79,1.79,0,0,1,0-.24c.59-2.91,1.07-3.31,4-3.33a9.69,9.69,0,0,0,2-.2,2.45,2.45,0,0,1,3.06,1.59c.33.72.62,1.46.92,2.19a2.66,2.66,0,0,1-1.48,0,.82.82,0,0,1-.59-.69A1.81,1.81,0,0,0,96,224.54a11.21,11.21,0,0,1-1.42,0,2.28,2.28,0,0,0-2.4,1.39,1.16,1.16,0,0,1-.61.69A2.55,2.55,0,0,1,90.12,226.6Z"/><path class="e" d="M72.38,226.61c.08-.35.15-.7.25-1,.41-1.49.75-1.72,2.26-1.63s3.25.25,4.87.22A2.23,2.23,0,0,1,82.24,226c.05.19.13.38.19.57a2.34,2.34,0,0,1-1.48,0,12.89,12.89,0,0,0-6.12-.74c-.54,0-.65.69-1.15.77A2.14,2.14,0,0,1,72.38,226.61Z"/><path class="e" d="M101.34,121.74h0c.94-1.49,2.26-2.69,3.17-4.2h0a2.42,2.42,0,0,0,.47-.07c.31-.12.67-.46.92,0a.88.88,0,0,1-.29,1.18,8.64,8.64,0,0,0-3.43,4.44c-.15.44-.54.53-.9.69a2.46,2.46,0,0,0-1.59,2.32c0,1.13.52,1.78,1.65,1.66.94-.09,1.12.28,1,1.06l0,0a1.17,1.17,0,0,0-.46.08c-1.17.63-1.17.64-2.1-.35-1.65-1.74-1.69-2.15-.23-4A10.56,10.56,0,0,0,101.34,121.74Z"/><path class="d" d="M91.57,226.62c.76-2.14,1.1-2.4,3.32-2.51h.36c2.54,0,2.71.09,3.42,2.49A22,22,0,0,1,91.57,226.62Z"/><path class="e" d="M107.8,161.84a2,2,0,0,1-.82,0c-2-.93-4.22-1.61-6-3,.78,0,1.67.11,1.7-1.12,0-.49.41-.43.71-.28,1.21.59,2.42,1.2,3.62,1.82a1.27,1.27,0,0,1,.67,1.19A4.55,4.55,0,0,0,107.8,161.84Z"/><path class="c" d="M65.94,67.67c1-.39,1.38-1.19,2-1.82.22-.24.39-.66.86-.34s.32.6.17.95a6.37,6.37,0,0,1-2.39,2.77.84.84,0,0,1-1,0c-.31-.24-.2-.56,0-.85s.25-.44.06-.65-.45-.08-.67,0-.44.19-.66.27a.59.59,0,0,1-.78-.35.52.52,0,0,1,.16-.74c1.3-.8,2-2.14,3-3.2.16-.17.29-.46.57-.35a.74.74,0,0,1,.35.59,2.89,2.89,0,0,1-.86,2.27C66.41,66.62,65.88,66.87,65.94,67.67Z"/><path class="e" d="M55.19,90.48c2.14,1,4.3,1.89,6.35,3-.57.17-1.1.34-1.14,1.12,0,.57-.43.69-.94.43-1-.49-2-.91-3-1.44A2.71,2.71,0,0,1,55.19,90.48Z"/><path class="e" d="M26.85,168.21c0-.46,0-.9.51-1s.7.25.85.65a.88.88,0,0,1,.07.23.63.63,0,0,0,.46.62c.36.08.43-.29.54-.51a1.76,1.76,0,0,1,2.1-1,1.59,1.59,0,0,1,1.28.94c.34.76.56.74,1,.06.15-.26.17-.68.63-.56a.91.91,0,0,1,.67.63.8.8,0,0,1-.35.83,1.61,1.61,0,0,1-1.07.46,50.19,50.19,0,0,1-5.49-.16A1.16,1.16,0,0,1,26.85,168.21Z"/><path class="e" d="M134.28,83.4c-.38.18-.35.51-.47.74a1.89,1.89,0,0,1-1.8,1.15,1.49,1.49,0,0,1-1.56-1.2c-.08-.25-.09-.58-.48-.58s-.49.3-.61.61-.22.64-.64.57a.79.79,0,0,1-.65-.62.83.83,0,0,1,.34-.83,1.62,1.62,0,0,1,1-.3A25.48,25.48,0,0,1,135,83c1,.11,1.36.61,1.14,1.62-.07.3-.19.52-.52.56a.57.57,0,0,1-.7-.49A1.57,1.57,0,0,0,134.28,83.4Z"/><path class="e" d="M135.57,81.52c-.61-.28-.28-1.32-.95-1.37s-.63.86-1.07,1.24a2,2,0,0,1-3-.65c-.16-.28-.08-.8-.59-.77s-.51.43-.66.76-.27.63-.67.54a1,1,0,0,1-.61-.55.68.68,0,0,1,.21-.85,1.9,1.9,0,0,1,1.19-.47c2-.3,4.05.14,6.07.26.57,0,.79.31.62.87A1.51,1.51,0,0,1,135.57,81.52Z"/><path class="e" d="M60.47,96.88c-1.29.22-1.54,1-1.13,2.18a10.58,10.58,0,0,1-3.77-1.87c-.45-.31-.44-2-.11-2.48.19-.27.4-.14.62-.06A29.73,29.73,0,0,1,60.47,96.88Z"/><path class="e" d="M102.31,155.63c1.67-.59,1.67-.59,1.17-2.23,1.5.45,3,.73,3.89,2a2.92,2.92,0,0,1,.12,2.57A25.45,25.45,0,0,1,102.31,155.63Z"/><path class="e" d="M28.65,172.45c.19-.31.36-.61.55-.9a1.77,1.77,0,0,1,3.22.16s0,.08,0,.11c.18.23.13.67.59.65s.49-.33.58-.65.24-.68.72-.62a.66.66,0,0,1,.59.65.77.77,0,0,1-.59.8,4,4,0,0,1-1.17.22c-1.71,0-3.43,0-5.14,0-1,0-1.29-.51-1.17-1.4,0-.31.15-.55.46-.61s.41.16.54.38C28.11,171.63,28.15,172.15,28.65,172.45Z"/><path class="e" d="M40.28,86.16c-.18-.51.22-.81.44-1.17a29.51,29.51,0,0,0,4.42-14.92c1-.19.8.54.76,1a31.36,31.36,0,0,1-1.65,7.79,49.38,49.38,0,0,1-3.35,6.95A.8.8,0,0,1,40.28,86.16Z"/><path class="e" d="M127,168.23a15.24,15.24,0,0,1,1.51,2.92c.42.92.3,1.2-.64,1.48-1.32.39-2.66.71-4,1.06A9.89,9.89,0,0,1,127,168.23Z"/><path class="c" d="M110.72,113.89a7.84,7.84,0,0,1,.36-3.23c1.2-.23,2.4-.47,3.5.32l-.13,3A4.18,4.18,0,0,1,110.72,113.89Z"/><path class="d" d="M136.6,46.17c-.06,2-.41,2.39-2,2.29a1.48,1.48,0,0,1-1.21-2.32,5,5,0,0,1,2.4-1.88c.38-.16.57,0,.71.35A5.75,5.75,0,0,1,136.6,46.17Z"/><path class="e" d="M36.5,84.85h0a3.5,3.5,0,0,1,.86-1.12,10.22,10.22,0,0,0,2.43-4.43,3.51,3.51,0,0,1,.54-1.43v0c1.13-1.3,1.1-3,1.42-4.53.1-.5.17-1,.22-1.52s.18-.77.69-.79a26.5,26.5,0,0,1-5.14,14.35c-.27.38-.51.6-1,.41Z"/><path class="c" d="M93,183.25a6,6,0,0,1,1.9-1.07.6.6,0,0,1,.66.14c.2.23,0,.44-.11.65-.25.48-.86.73-.88,1.37.58.27.87-.2,1.22-.49a2.75,2.75,0,0,1,1-.68.68.68,0,0,1,.84.2.55.55,0,0,1-.1.76c-.81.88-1.62,1.76-2.44,2.63-.19.2-.42.38-.73.16a.7.7,0,0,1-.27-.84c.13-.41.46-.75.39-1.22-.07,0-.14-.12-.17-.11-1.31.55-1.31.55-1.25-.92,0-.2,0-.4,0-.6Z"/><path class="e" d="M123.23,175.3a22.1,22.1,0,0,1,3.26,3.83,13.17,13.17,0,0,1-3.35,1.52c-.68.25-.85,0-.86-.58A12.8,12.8,0,0,1,123.23,175.3Z"/><path class="e" d="M86.76,155.43l-3.59-.28c.15-2.08,1-2.8,3-2.55a7,7,0,0,1,2.12.47c-.25.38-.8.41-.87.9a2.19,2.19,0,0,0,.32,1.25C87.46,155.61,87,155.14,86.76,155.43Z"/><path class="e" d="M89.62,111.32c.42,0,1-.18.62.61a3.29,3.29,0,0,0-.16.69c-.23,1.39.34,2,1.74,2a4.41,4.41,0,0,1,1.47-.08,5.61,5.61,0,0,1-1.72,2.38.61.61,0,0,1-.95,0,8.29,8.29,0,0,1-.61-.72c-1.62-1.94-1.62-1.94-.45-4.21.11-.21.23-.42.09-.67Z"/><path class="e" d="M75.05,97.19c1.31.08,2.62.13,3.93.24a2.18,2.18,0,0,1,1.21.44c-.54.4-.21,1.3-1,1.61a7.88,7.88,0,0,1-3.76.26c-.36,0-.7-.17-1.08-.26.36-.53,1.22-.27,1.44-.89S75.29,97.66,75.05,97.19Z"/><path class="e" d="M35.75,73.69c1.33.8,1.92,2.16,2.68,3.5a7.33,7.33,0,0,1-4.26,1.28C34.42,76.78,35.43,75.35,35.75,73.69Z"/><path class="d" d="M28,203.83a2.33,2.33,0,0,1,.43,0c.71.18,1.58.15,1.84,1s-.41,1.53-1.08,2.05c-.28.22-.57.43-.86.64s-.66.45-1.08.21a.89.89,0,0,1-.44-1,7.5,7.5,0,0,0,.1-1.89C26.85,204.07,27.21,203.72,28,203.83Z"/><path class="d" d="M85.44,90.84a13.76,13.76,0,0,1-.91-1.11,2.37,2.37,0,0,1,.62-3.28c.55-.36,1-.37,1.42.25.3.47.62.92.94,1.38A4.83,4.83,0,0,1,85.44,90.84Z"/><path class="e" d="M98.51,120.65a14.3,14.3,0,0,1-1.6,2.47c-.35.57-.88.44-1.35.12a7.41,7.41,0,0,1-2.12-3c-.16-.3.08-.61.28-.86l1.07-1.26a2,2,0,0,1,.08,1.16c0,1.62,1.09,2.35,2.61,1.74.34-.14.59-.56,1-.38Z"/><path class="e" d="M64.73,130.26c.51.12.75-.35,1.09-.55,1-.6,1.32-.59,2.08.37a6.19,6.19,0,0,1,1.6,3.28l0,0a6.67,6.67,0,0,1-.59.6c-.56.42-.92.31-1.12-.4-.58-2-.94-2.14-2.85-1.32-.32.14-.68.42-1,.09s-.14-.75.11-1.08a7.47,7.47,0,0,1,.67-1Z"/><path class="e" d="M72.32,103c1.36-.78,1.36-.78.35-2.6a26.26,26.26,0,0,1,4.43.73C76.2,103.72,75.3,104.06,72.32,103Z"/><path class="e" d="M90.59,149.51c-1.36.84-1.36.84-.47,2.48a23,23,0,0,1-3.86-.45c-.41-.08-.48-.28-.35-.69a2.42,2.42,0,0,1,3.32-1.8C89.67,149.18,90.11,149.35,90.59,149.51Z"/><path class="e" d="M72.94,140.55c-.1-2.78-.59-3.08-3.51-2.23a10.27,10.27,0,0,1,1.74-2.67c.38-.33.64-.28,1,.06a17.54,17.54,0,0,1,1.73,2.21C74.52,138.73,74.19,139.5,72.94,140.55Z"/><path class="c" d="M60.71,65.76c2.68-.8,3.81-3,5.08-5A2,2,0,0,1,66,62.5a6,6,0,0,1-2.83,3.67C62.41,66.69,61.62,66.49,60.71,65.76Z"/><path class="e" d="M127.33,178.09c-.55-.68-1.14-1.33-1.63-2.06s-.46-1.24.47-1.69a10.4,10.4,0,0,1,3-1C128.58,174.9,128,176.5,127.33,178.09Z"/><path class="d" d="M55.43,79.56a5.55,5.55,0,0,1,2.35-1.35c.3-.1.5-.1.63.28a2.7,2.7,0,0,1-1.65,3.38,1.07,1.07,0,0,1-1.3-.22A5.44,5.44,0,0,1,55.43,79.56Z"/><path class="e" d="M105.45,128.58c.65.54.66,1,0,1.66-1.52,1.56-1.2,2.81.38,3.65.79.41.82,1.14.2,1.59-.24.16-.54.3-.75,0a13.14,13.14,0,0,1-2.2-2.79c-.18-.41,0-.86,0-1.29a1,1,0,0,0,0-.17c.77-.84,1.81-1.44,2.22-2.59Z"/><path class="e" d="M57.84,102.62c-2.32-.35-2.88-1.13-2.52-3.15.13-.71.44-.72,1-.54a13.47,13.47,0,0,1,2.81,1.46C58.07,100.84,57.47,101.47,57.84,102.62Z"/><path class="d" d="M73.68,226.6c.35-1.27.43-1.33,1.7-1.24,1.46.1,2.92.23,4.38.29a1.11,1.11,0,0,1,1.19.92A21.13,21.13,0,0,1,73.68,226.6Z"/><path class="e" d="M105.14,149.9c2.13.53,2.63,1.08,2.6,2.7,0,.84-1.12,1.6-1.61,1-.63-.74-1.6-.82-2.28-1.62C104.87,151.7,105.61,151.2,105.14,149.9Z"/><path class="e" d="M120.39,181.48A28.31,28.31,0,0,1,123.57,170c.21-.42.45-.75,1-.73a2.13,2.13,0,0,1-.39,1.11,23.51,23.51,0,0,0-2.94,8.89C121.1,180,121.24,181,120.39,181.48Z"/><path class="d" d="M122.72,161.08h0c-1.87.28-2,.19-2.86-1.41-.18-.35-.33-.71-.49-1.06a1,1,0,0,1,.95-.4c1,0,2.06-.12,3.09-.2.48.62.09,1.34.24,2v0A3.65,3.65,0,0,0,122.72,161.08Z"/><path class="e" d="M39.81,76.43A30.92,30.92,0,0,1,36.94,73c.87-.38,1.73-.8,2.62-1.14s1.14-.26,1.17.85A6.54,6.54,0,0,1,39.81,76.43Z"/><path class="e" d="M62.74,128.91c0,.07,0,.18-.07.22-1,.92-1.5,2.27-2.61,3.15a10.93,10.93,0,0,0-1.65,2,5.69,5.69,0,0,1-.52.65c-.25.21-.46.73-.83.43a.8.8,0,0,1,0-1.18,4.2,4.2,0,0,1,.79-.73A6.42,6.42,0,0,0,60.47,130a1.86,1.86,0,0,1,1.81-1.48C62.51,128.54,62.78,128.53,62.74,128.91Z"/><path class="e" d="M92.05,148.42a10,10,0,0,1-3.11-.53c-.19,0-.3-.17-.27-.43a2.33,2.33,0,0,1,2.49-2,4.31,4.31,0,0,1,1.79.51C91.72,146.41,91.5,147.27,92.05,148.42Z"/><path class="e" d="M56.55,116.61c1.58.52,2.33,1.9,3.07,3.17.43.73-.38,1.39-.87,1.94a2.91,2.91,0,0,0-1,1.84l0,0a1.64,1.64,0,0,1-1-.37c0-.49.45-.66.72-.92a2.75,2.75,0,0,0,.82-2.39.91.91,0,0,0-.64-.89c-1.46-.53-1.45-.55-1.15-2a2.16,2.16,0,0,0,0-.36Z"/><path class="d" d="M30.23,189.58c0,.5.13,1.21-.74,1.49a3.5,3.5,0,0,1-2.44-.62.89.89,0,0,1,.18-1.27,6.46,6.46,0,0,1,1.89-1.2c.7-.28,1.06,0,1.11.71C30.24,188.93,30.23,189.17,30.23,189.58Z"/><path class="e" d="M69.94,106.68c.94-.58,1.64-1.11,1-2.28.76,0,1.44,0,2.1.1,1,.13,1.28.67.68,1.55a2,2,0,0,1-2.23,1C71,106.94,70.48,106.81,69.94,106.68Z"/><path class="e" d="M59.89,125.35a7.41,7.41,0,0,1,1.39-2c.47-.41.9-.45,1.31.09s.65.81,1,1.21c1.31,1.58,1.28,1.84-.49,3.29,0-.65.09-1.22.08-1.79,0-1-.35-1.36-1.39-1.28A4.86,4.86,0,0,0,59.89,125.35Z"/><path class="d" d="M133.09,63c-.16-1.7.66-2.06,2.38-1.57.66.19.81.7.48,1.32a3.74,3.74,0,0,1-1,1.15c-.42.33-.84.82-1.47.49S133.1,63.45,133.09,63Z"/><path class="e" d="M67.49,110c1.3-.9,1.3-.9.89-2.39a2.67,2.67,0,0,1,1.61.17c.49.16,1.36,0,1.36.76a2,2,0,0,1-2.09,2A5.24,5.24,0,0,1,67.49,110Z"/><path class="e" d="M95.29,142.53c-1.2.95-1.2.95-.63,2.53a18,18,0,0,1-3.32-.74C92.23,141.53,93.31,141.64,95.29,142.53Z"/><path class="c" d="M57.77,123.56c.73.09,1-.48,1.42-.91s.86-1.77,1.74-1.14c.53.39-.41,1.17-.76,1.75-.64,1-1.7,1.79-2.09,3-.07.24-.45.85-.95.53s-.38-.83-.13-1.28c.36-.63,1.11-1.1.79-2Z"/><path class="d" d="M39.38,93.81c0-1.41,1.2-1.84,2-2.57.3-.26.69,0,.9.31a4.89,4.89,0,0,1,1.1,2.19A4.48,4.48,0,0,1,39.38,93.81Z"/><path class="c" d="M103.06,131.44c-1.31-.36-1.32-.36-.75-1.64a1,1,0,0,0,0-1l0,0a1.29,1.29,0,0,0,1.21-.6,17.22,17.22,0,0,1,2.16-2.4c.68,1-.5,1.83-.25,2.75l0,0a7.13,7.13,0,0,0-2.43,2.9Z"/><path class="e" d="M97.08,141.51a5.76,5.76,0,0,1-2.74-.55c-.21-.07-.41-.17-.32-.51a2.12,2.12,0,0,1,2.71-1.6c.34.09.67.21,1.14.35-1,.59-1,1.44-.8,2.32Z"/><path class="d" d="M135.51,71.77a4,4,0,0,1,.64.52,2.37,2.37,0,0,1,0,2.45,2.47,2.47,0,0,1-2.55.23c-.55-.35-.37-.73,0-1.06s.87-.67,1.29-1a1.64,1.64,0,0,0,.61-1.12Z"/><path class="e" d="M65,113.37c1.14-.81,1.16-.88.71-2.5a13.18,13.18,0,0,1,2.53.62c.51.21.64.43.34,1C67.77,113.94,67.29,114.09,65,113.37Z"/><path class="e" d="M100.61,136.34c-1.27.68-1.27.68-1.17,2a5.74,5.74,0,0,1-2.48-.57c-.13-.05-.29-.1-.31-.3a2,2,0,0,1,1.94-1.83,4.55,4.55,0,0,1,.8.23C99.79,136,100.17,136.17,100.61,136.34Z"/><path class="e" d="M33.61,81.32l1.89,3.57c-.53.57-.89,1.3-1.76,1.73A8.17,8.17,0,0,1,33.61,81.32Z"/><path class="d" d="M47.65,144.29l.22-1c.87-.32,1.79,0,2.82-.27-.85-.79-1.94-.13-2.68-.71a2,2,0,0,1,.06-.95,5.16,5.16,0,0,1,3.71.16c.3,1.08-.48,2-.5,3A6.41,6.41,0,0,1,47.65,144.29Z"/><path class="e" d="M62.48,116.17a2.54,2.54,0,0,0,1.09-1,1.51,1.51,0,0,1,2.4-.29.36.36,0,0,1,.15.29,1.72,1.72,0,0,1-2.22,1.68A4.44,4.44,0,0,1,62.48,116.17Z"/><path class="e" d="M133.61,86.43a15.48,15.48,0,0,1,1.67,0c.38,0,.8.13.86.65s0,.75-.39.9a.58.58,0,0,1-.78-.38c-.4-1.11-.78-.91-1.37-.09s-1.22.62-1.93.27a.74.74,0,0,1,.28-1.42h1.66Z"/><path class="e" d="M29.56,166c-.63-.06-1.26-.11-1.89-.19-.42-.05-.8-.2-.79-.71a.81.81,0,0,1,.46-.78c.42-.14.63.18.81.52.35.64.71.81,1.21.09a2.15,2.15,0,0,1,2.24-.34.65.65,0,0,1,.28.73.69.69,0,0,1-.65.59c-.56,0-1.11,0-1.67,0Z"/><path class="e" d="M68.85,181.12c-.23.31-.68.42-.77.87.31.37.78,0,1.11.27a7.76,7.76,0,0,1-3.87,2.07c-.25-.3.08-.4.2-.55s.32-.59,0-.71c-1.11-.43-.18-.72.08-.85,1-.47,2.05-.86,3.07-1.28Z"/><path class="c" d="M47.3,115.44c-.07-.42-.34-.8-.26-1.25a3.85,3.85,0,0,1,4-.19,1.41,1.41,0,0,1,.24,1.3A4.83,4.83,0,0,1,47.3,115.44Z"/><path class="c" d="M114.9,132.84A2,2,0,0,1,115,134a4.52,4.52,0,0,1-4,.14,1.14,1.14,0,0,1-.12-1.28A4,4,0,0,1,114.9,132.84Z"/><path class="e" d="M132.31,76.22c1,0,1.61-.07,1.65.86s-.48,1.17-1.56,1.17S131,78,131,77.24,131.32,76.23,132.31,76.22Z"/><path class="e" d="M133.63,93.41c-.67-1.8-.14-2.5,2.44-3.34C136.54,92.16,134.67,92.43,133.63,93.41Z"/><path class="c" d="M47.79,117.53a1.43,1.43,0,0,1-.28-1.37,4.42,4.42,0,0,1,3.84-.08,1.23,1.23,0,0,1,.34,1.31C50.4,117.65,49.11,118.22,47.79,117.53Z"/><path class="e" d="M28.33,179.89a.81.81,0,0,0,.68.05c.34-.1.71-.26.93.18a.9.9,0,0,1-.23,1,6.79,6.79,0,0,1-2.06,1.58c-.55.32-.7,0-.75-.48a1.4,1.4,0,0,1,.82-1.34c.37-.24.79-.43.62-1Z"/><path class="d" d="M28.34,179.88c-.72-.11-1.48-.16-1.49-1.17,0-.52,0-1.08.58-1.3a1.94,1.94,0,0,1,1.83.06c.54.36.28.84-.12,1.18s-.83.64-.81,1.24Z"/><path class="e" d="M29.31,159.25c.36-.05.48.16.52.48.12.92-1.75,2.71-2.63,2.48-.45-.12-.37-.56-.32-.9A3.83,3.83,0,0,1,29.31,159.25Z"/><path class="e" d="M30.39,176.16c-.71,0-1.13-.23-1.12-1s.51-1.07,1.25-1,1.43-.11,1.56.85C32.18,175.67,31.51,176.14,30.39,176.16Z"/><path class="e" d="M133.38,140.21c-.22-1.57.16-2.06,2.48-3.17C136.3,138.41,135.7,139.18,133.38,140.21Z"/><path class="c" d="M116,139.1a1.1,1.1,0,0,1,.29.7c-.94,1.16-2.37,1.34-4.12.51a1.39,1.39,0,0,1-.26-.86C112.88,138.46,114.32,138.34,116,139.1Z"/><path class="e" d="M27.27,187.6c-.41-.12-.42-.5-.35-.9a6.71,6.71,0,0,1,2.37-2c.56,0,.76.35.69.85A5.22,5.22,0,0,1,27.27,187.6Z"/><path class="e" d="M133.08,67.67c0-2,1.64-2.32,2.84-3.08C136.24,66.19,135.61,66.88,133.08,67.67Z"/><path class="c" d="M123.44,158a1.67,1.67,0,0,1-1.46.56c-.86,0-1.72,0-2.58,0a1.43,1.43,0,0,1-.49-1.22c1.25-.77,2.58-.37,3.9-.29A2.41,2.41,0,0,1,123.44,158Z"/><path class="c" d="M39.38,93.81l4-.07a1.7,1.7,0,0,1,.65,1,4.52,4.52,0,0,1-4,.27C39.63,94.74,39.27,94.41,39.38,93.81Z"/><path class="c" d="M114.45,128.77l0,1a3.77,3.77,0,0,1-4-.18c0-.34-.25-.66-.08-1A4.17,4.17,0,0,1,114.45,128.77Z"/><path class="e" d="M134.69,36.52c.55.18,1-.28,1.55-.31a1.86,1.86,0,0,1-.75,1.93,7,7,0,0,1-1.27.87c-.24.13-.47.56-.8.2a.82.82,0,0,1,0-1,2.67,2.67,0,0,1,.91-.92c.28-.19.5-.41.4-.79Z"/><path class="d" d="M48.41,121.72a2.81,2.81,0,0,1-.41-2.27c1.29-.6,2.69-.27,4-.48a1.76,1.76,0,0,1,.19,1.43,2,2,0,0,1-1.69.34A2.1,2.1,0,0,0,48.41,121.72Z"/><path class="e" d="M27.23,120.22a2.23,2.23,0,0,1,2.09-2.85c.4,0,.3.39.27.66C29.48,119,28.86,119.55,27.23,120.22Z"/><path class="e" d="M135.51,71.77h0c-.65-.19-1,.34-1.5.59-.2.11-.4.33-.63.14s-.18-.43-.19-.67a.89.89,0,0,1,.33-.74c.59-.46,1.21-.9,1.82-1.34.2-.14.45-.24.65,0a.6.6,0,0,1,.14.67C136,70.84,135.73,71.3,135.51,71.77Z"/><path class="e" d="M129.59,170.05c-.71-.29-.91-.94-1.17-1.57-.16-.4-.37-.78-.55-1.17.81-1.39.81-1.39,1.72-1.87Z"/><path class="c" d="M118.85,95.55a1,1,0,0,1-.45,1c-1.35.83-2.58.25-3.8-.34a1,1,0,0,1,.31-1A4,4,0,0,1,118.85,95.55Z"/><path class="c" d="M118.59,86.62c1.38.08,2.79-.24,4.15.24a1.81,1.81,0,0,1-.46.94,4.17,4.17,0,0,1-4.07-.3C118.39,87.23,118.32,86.85,118.59,86.62Z"/><path class="e" d="M27.42,216.05c-.48-1.38-.09-1.84,2.54-3.2C30,214.28,29.66,214.77,27.42,216.05Z"/><path class="c" d="M116.6,141.21a1.44,1.44,0,0,1,.32,1,4.82,4.82,0,0,1-4.11.22,2.84,2.84,0,0,1-.38-1.09A5,5,0,0,1,116.6,141.21Z"/><path class="c" d="M48.6,123.75a1.85,1.85,0,0,1-.11-1.09,3.54,3.54,0,0,1,3.83.07,1.52,1.52,0,0,1,.15,1A4.17,4.17,0,0,1,48.6,123.75Z"/><path class="c" d="M43.54,103.16c-.16-.31-.45-.59-.33-1a4.23,4.23,0,0,1,4-.21l.36,1a.5.5,0,0,1-.45.47C45.91,103.49,44.69,103.78,43.54,103.16Z"/><path class="c" d="M114.05,122.82v1a3.65,3.65,0,0,1-3.75,0,2.32,2.32,0,0,1,0-1.08A3.8,3.8,0,0,1,114.05,122.82Z"/><path class="e" d="M133.61,44.31a.29.29,0,0,1-.32-.27,1,1,0,0,1,.2-1,8.46,8.46,0,0,1,2.07-1.59.51.51,0,0,1,.65,0,.52.52,0,0,1,.17.54A7,7,0,0,1,133.61,44.31Z"/><path class="d" d="M116.51,152.36a34.31,34.31,0,0,0,4.18-.08l.33,1a5,5,0,0,1-4,.25A3.89,3.89,0,0,1,116.51,152.36Z"/><path class="c" d="M118.59,156.49a.94.94,0,0,1-.65-1.1c1.32-.37,2.64-.85,4-.16a2.44,2.44,0,0,1,.48,1.06C121.19,157.11,119.89,156.81,118.59,156.49Z"/><path class="c" d="M48.41,121.72c.06-1.22.15-1.33,1.28-1.34.84,0,1.68,0,2.52,0l0,1.17a5.13,5.13,0,0,1-3.81.19Z"/><path class="c" d="M114,118.79a2.81,2.81,0,0,1,0,1.12,4,4,0,0,1-3.74,0l0-1.17A4.16,4.16,0,0,1,114,118.79Z"/><path class="c" d="M115.05,135.09a.87.87,0,0,1,.23.65,3.36,3.36,0,0,1-4,.44l0-1.09A4,4,0,0,1,115.05,135.09Z"/><path class="c" d="M114,120.74a2.51,2.51,0,0,1,0,1.09,4.19,4.19,0,0,1-3.75,0,2.16,2.16,0,0,1,0-1.1A3.61,3.61,0,0,1,114,120.74Z"/><path class="c" d="M110.3,117.74a2.76,2.76,0,0,1,.1-1.21,3.88,3.88,0,0,1,3.64.19v1.1A4.27,4.27,0,0,1,110.3,117.74Z"/><path class="e" d="M133.62,135.06c-.3-1.46.14-2.06,2.14-3C136.14,133.83,135.86,134.24,133.62,135.06Z"/><path class="c" d="M110.73,131.93a.84.84,0,0,1-.22-.74,3.45,3.45,0,0,1,4-.41l0,1A3.84,3.84,0,0,1,110.73,131.93Z"/><path class="c" d="M113.43,144.41a1.11,1.11,0,0,1-.31-1,4.07,4.07,0,0,1,4.21-.07,1.45,1.45,0,0,1,.08.82A4.5,4.5,0,0,1,113.43,144.41Z"/><path class="d" d="M116,139.1c-1.37,0-2.78-.39-4.09.35a2.47,2.47,0,0,1-.22-1.28,2.31,2.31,0,0,1,1.82-.35,2.53,2.53,0,0,0,2.06-.74A2.32,2.32,0,0,1,116,139.1Z"/><path class="e" d="M134.09,98.14h0c-1.27-.75-1.3-1-.19-1.92a5.67,5.67,0,0,1,1.5-1c.56-.23.73,0,.68.56a1.6,1.6,0,0,1-1,1.25A1.82,1.82,0,0,0,134.09,98.14Z"/><path class="e" d="M29.71,155.14a1.5,1.5,0,0,1-.63,1.08,11.85,11.85,0,0,1-1.31.81c-.22.11-.48.42-.74.15a.75.75,0,0,1-.07-1,5.07,5.07,0,0,1,1.86-1.61C29.3,154.39,29.68,154.5,29.71,155.14Z"/><path class="e" d="M29.16,112.34c.55,1.42-.1,2.31-2.2,3C26.46,113.43,28.06,113.08,29.16,112.34Z"/><path class="c" d="M48.94,131.55l0-1.06a4,4,0,0,1,3.75.07,2.86,2.86,0,0,1,0,1.13A3.9,3.9,0,0,1,48.94,131.55Z"/><path class="c" d="M48.4,156l-.26.9c-1.36.45-2.71.7-4-.27a.9.9,0,0,1,.37-1A3.89,3.89,0,0,1,48.4,156Z"/><path class="c" d="M115.56,137.08c.06.83-.35,1.12-1.15,1.09s-1.82,0-2.73,0a.94.94,0,0,1-.23-.73,3.45,3.45,0,0,1,4.09-.39Z"/><path class="e" d="M93.28,208.73a8.1,8.1,0,0,0,4.58-1.22c.29.58.25,1.07-.36,1.35A4.1,4.1,0,0,1,93.28,208.73Z"/><path class="e" d="M65,45.22c1-2.29,2.89-2.71,5.12-1.24A7.9,7.9,0,0,0,65,45.22Z"/><path class="c" d="M117,153.51l4-.25a1.15,1.15,0,0,1,.48.72c-.82,1-2.4,1.15-4,.51A1.06,1.06,0,0,1,117,153.51Z"/><path class="c" d="M116.77,90.59l.3-.64a3.87,3.87,0,0,1,4,.29,1.72,1.72,0,0,1-.31.92A3.37,3.37,0,0,1,116.77,90.59Z"/><path class="c" d="M110.33,127.76a2.82,2.82,0,0,1,0-1.12,4.44,4.44,0,0,1,3.77,0,.7.7,0,0,1,.21.58A3.13,3.13,0,0,1,110.33,127.76Z"/><path class="d" d="M47.19,102l-4,.21L42.73,101c1.34,0,2.71.3,4-.24A1.57,1.57,0,0,1,47.19,102Z"/><path class="c" d="M110.3,125.76v-1a4.18,4.18,0,0,1,3.76,0v1A3.41,3.41,0,0,1,110.3,125.76Z"/><path class="c" d="M116,92.64a1,1,0,0,1,.36-1.18c1.3.14,2.71-.31,3.86.67.07.51-.27.75-.65,1C118.39,93.18,117.13,93.59,116,92.64Z"/><path class="c" d="M50.36,148.19l-.06.92a3.31,3.31,0,0,1-3.72-.16,1.28,1.28,0,0,1,.4-1.18A3.83,3.83,0,0,1,50.36,148.19Z"/><path class="d" d="M40.06,95.05l4-.27c.24.34.55.63.5,1.1-1.38.09-2.77-.1-4.15.1Z"/><path class="c" d="M43.44,158.28a1.93,1.93,0,0,1,.48-.77,3.8,3.8,0,0,1,3.73.34l-.29.94A3.41,3.41,0,0,1,43.44,158.28Z"/><path class="d" d="M116.6,141.21c-1.38.19-2.79-.09-4.17.17a1.11,1.11,0,0,1-.27-1.07,8.68,8.68,0,0,1,1.54.09,3.37,3.37,0,0,0,2.58-.6A2.49,2.49,0,0,1,116.6,141.21Z"/><path class="e" d="M135.29,174.56h0c1,.58,1.1.86.33,1.65a4.89,4.89,0,0,1-1.86,1.28c-.2.07-.44.29-.63,0a.62.62,0,0,1,0-.68,2.77,2.77,0,0,1,1.14-1A1.94,1.94,0,0,0,135.29,174.56Z"/><path class="g" d="M79.56,138.73c-.31-1.76-.91-3.53.35-5.26v5.26Z"/><path class="c" d="M117.41,99.41a1.34,1.34,0,0,1-.3,1.17,4.65,4.65,0,0,1-3.72-.62l.27-.81A3.64,3.64,0,0,1,117.41,99.41Z"/><path class="d" d="M114.54,130.78c-1.35,0-2.76-.44-4,.41a1.51,1.51,0,0,1,0-1.61,10.87,10.87,0,0,0,4,.18Z"/><path class="c" d="M52,119a3.82,3.82,0,0,1-2.72.49H48v-1a3.36,3.36,0,0,1,3.78,0A.55.55,0,0,1,52,119Z"/><path class="d" d="M118.49,147.16l-4,.14a1,1,0,0,1-.37-1c1.27-.62,2.66-.27,4-.46Z"/><path class="d" d="M44.63,165a8.42,8.42,0,0,0-2.55-.21,2.74,2.74,0,0,1-1.45-.36l.47-.66c1.37-.39,2.73-.74,4,.19A2.35,2.35,0,0,1,44.63,165Z"/><path class="c" d="M48.48,139.37v-1a4.11,4.11,0,0,1,3.74,0l0,.94A3.2,3.2,0,0,1,48.48,139.37Z"/><path class="c" d="M52.63,124.69v.8a4.91,4.91,0,0,1-3.85.25c-.14-.34-.34-.67-.11-1A3.69,3.69,0,0,1,52.63,124.69Z"/><path class="d" d="M45.13,153.87l.47-1.05a8.06,8.06,0,0,1,3.75,0,3.49,3.49,0,0,1-.46,1.3C47.61,154.34,46.33,154.73,45.13,153.87Z"/><path class="c" d="M118.1,145.85c-.78.64-1.7.43-2.59.46h-1.4l-.43-.95a5.17,5.17,0,0,1,4-.2A1.29,1.29,0,0,1,118.1,145.85Z"/><path class="e" d="M30.1,208.19c-.32,1.67-1.6,2.19-2.74,2.89C27,209.6,27.78,208.76,30.1,208.19Z"/><path class="c" d="M52.68,132.8v.84a3.86,3.86,0,0,1-3.73,0v-1.16A3.89,3.89,0,0,1,52.68,132.8Z"/><path class="c" d="M110.5,115.78l0-1a2.62,2.62,0,0,1,3.72.54.67.67,0,0,1-.17.5A3.6,3.6,0,0,1,110.5,115.78Z"/><path class="c" d="M48.93,127.6v-1a3.42,3.42,0,0,1,3.77.05l0,.94A4.16,4.16,0,0,1,48.93,127.6Z"/><path class="d" d="M116.21,103.83a1.44,1.44,0,0,0-1.46-.72c-.69,0-1.39,0-2.09,0a1.54,1.54,0,0,1,.26-1.36,12.34,12.34,0,0,1,3.57.52C116.5,102.8,116.65,103.37,116.21,103.83Z"/><path class="d" d="M114.58,111c-1.15-.25-2.35,0-3.5-.32l.17-1a5.14,5.14,0,0,1,3.72.22A1,1,0,0,1,114.58,111Z"/><path class="c" d="M47,159.77l-.32.8c-1.34.25-2.69.64-3.93-.3a1.21,1.21,0,0,1,.34-1.23C44.38,159.24,45.8,158.84,47,159.77Z"/><path class="e" d="M29.53,133.27a4.32,4.32,0,0,1-1.66,2.65c-.23.16-.55.4-.86.1a.74.74,0,0,1-.05-.89C27.43,134.1,28.39,133.72,29.53,133.27Z"/><path class="c" d="M51.78,141.5a27,27,0,0,1-3.71-.16,1.22,1.22,0,0,1,.23-1.09,4.44,4.44,0,0,1,3.65.31Z"/><path class="c" d="M113.92,98.12c.09-.33.08-.71.4-1a4.87,4.87,0,0,1,3.78.24l-.23,1A4.31,4.31,0,0,1,113.92,98.12Z"/><path class="e" d="M136.12,111.81a.87.87,0,0,1-.42.81c-.58.4-1.18.79-1.78,1.18-.19.12-.43.28-.63,0a.73.73,0,0,1,0-.69,2.51,2.51,0,0,1,1.06-1.08,11.44,11.44,0,0,1,1.11-.69C135.91,111.1,136.07,111.38,136.12,111.81Z"/><path class="c" d="M119.36,93.65c0,.42.13.85-.27,1.18a4.28,4.28,0,0,1-3.72-.56l.22-.75A4.24,4.24,0,0,1,119.36,93.65Z"/><path class="e" d="M57.31,131.35a3.47,3.47,0,0,1,1.42-4.55Z"/><path class="c" d="M50.87,146.26a1,1,0,0,1-.26,1.07,4.08,4.08,0,0,1-3.55-.39,1.13,1.13,0,0,1,.2-.84A3.54,3.54,0,0,1,50.87,146.26Z"/><path class="c" d="M52.64,134.73c.21.4,0,.71-.18,1a3.49,3.49,0,0,1-3.53-.21v-1C50.2,133.87,51.42,134.33,52.64,134.73Z"/><path class="c" d="M49.35,152.83a10.74,10.74,0,0,1-3.75,0,1.1,1.1,0,0,1,.3-1.08,3.93,3.93,0,0,1,3.54.38Z"/><path class="d" d="M117.45,154.49c.79,0,1.58-.05,2.37,0a3.08,3.08,0,0,0,1.68-.49,3.3,3.3,0,0,1,.45,1.25l-4,.16Z"/><path class="d" d="M117.67,145.16l-4,.2-.25-1,4-.23A1.7,1.7,0,0,1,117.67,145.16Z"/><path class="c" d="M116.49,102.26a6.82,6.82,0,0,1-3.57-.52.71.71,0,0,1,.2-.53,3,3,0,0,1,3.76.32C116.76,101.78,116.73,102.07,116.49,102.26Z"/><path class="d" d="M52.64,134.73c-1.24.15-2.47-.25-3.71-.15l0-1a19.36,19.36,0,0,0,3.73,0A2.36,2.36,0,0,1,52.64,134.73Z"/><path class="d" d="M118.59,156.49l3.84-.2a1.69,1.69,0,0,1,.38.81c-1.28.44-2.61.11-3.9.29Z"/><path class="d" d="M115.05,135.09a34.77,34.77,0,0,0-3.82,0,2,2,0,0,1-.23-1l4-.14Z"/><path class="d" d="M117.33,143.36a12.15,12.15,0,0,0-4.21.07,2.36,2.36,0,0,1-.31-1l4.11-.22A1.68,1.68,0,0,1,117.33,143.36Z"/><path class="e" d="M29.7,138.44c-.17,1.5-1.2,2-2.19,2.6-.43.24-.55,0-.59-.4s.26-.72.54-1A5.2,5.2,0,0,1,29.7,138.44Z"/><path class="d" d="M46,162.16l-.47.94a4.69,4.69,0,0,1-4-.28l.47-1.18C43.33,161.89,44.73,161.49,46,162.16Z"/><path class="e" d="M133.05,182.35c.32-1.55.76-2,2.77-2.87C135.86,180.71,135.62,181,133.05,182.35Z"/><path class="d" d="M115.54,137.05c-1.38-.06-2.78-.35-4.09.39a1.55,1.55,0,0,1-.19-1.26c1.35,0,2.75.41,4-.44A1.74,1.74,0,0,1,115.54,137.05Z"/><path class="c" d="M48,142.29a11.51,11.51,0,0,1,2.49.06c.38.09.86.18.8.72s-.54.35-.84.34a7.78,7.78,0,0,1-2.59-.14Z"/><path class="c" d="M46.09,150.83c-.07-.35.2-.62.26-.94a4.17,4.17,0,0,1,3.53.27l-.06.87A3.31,3.31,0,0,1,46.09,150.83Z"/><path class="d" d="M113.92,98.12a34.93,34.93,0,0,0,4,.26,2.74,2.74,0,0,1-.46,1,20.51,20.51,0,0,0-3.75-.26A1.06,1.06,0,0,1,113.92,98.12Z"/><path class="d" d="M52.7,126.65a11.92,11.92,0,0,0-3.77-.05l-.14-.86,3.85-.25A2.08,2.08,0,0,1,52.7,126.65Z"/><path class="c" d="M115,109.88a21.06,21.06,0,0,1-3.72-.22,1,1,0,0,1,.23-1A4.36,4.36,0,0,1,115,109Z"/><path class="d" d="M110.33,127.76c1.35.06,2.74.39,4-.52a1.61,1.61,0,0,1,.15,1.53,14.47,14.47,0,0,0-4-.2Z"/><path class="d" d="M42.73,160.27c1.28.41,2.63.07,3.93.3-.11.34-.09.73-.42,1a4.83,4.83,0,0,1-4-.45Z"/><path class="c" d="M52.28,136.73l0,.75a3.15,3.15,0,0,1-3,.3c-.57-.33-.57-.79-.34-1.32h0C50.07,136,51.22,135.79,52.28,136.73Z"/><path class="d" d="M51,114a21.35,21.35,0,0,0-4,.19c-.07-.32-.28-.6-.23-.94l4-.28A2.18,2.18,0,0,1,51,114Z"/><path class="e" d="M133.21,119c.2-1.63,1.44-2.06,2.51-2.71C136,117.76,135.44,118.37,133.21,119Z"/><path class="e" d="M30,70.23c-.47,1.55-1.74,2-2.78,2.75C27,71.53,27.6,71,30,70.23Z"/><path class="d" d="M51.78,118.43a11.42,11.42,0,0,0-3.78,0l-.21-.93a29.85,29.85,0,0,1,3.9-.14Z"/><path class="d" d="M52.71,130.56a21.36,21.36,0,0,0-3.75-.07l0-.94a4.32,4.32,0,0,1,3.78,0Z"/><path class="d" d="M48.43,121.76l3.81-.19.08,1.16a16.91,16.91,0,0,0-3.83-.07Z"/><path class="e" d="M86.06,104.12a14,14,0,0,1,2.76-3.61c0,2-1.22,3.5-2.79,3.59Z"/><path class="c" d="M52.71,129.51l-3.78,0v-1a4.77,4.77,0,0,1,3.78,0Z"/><path class="e" d="M133.5,160.83c-.27-2.06,1.41-2.12,2.44-3.07C136.06,159.69,134.55,159.92,133.5,160.83Z"/><path class="d" d="M52.71,128.54l-3.78,0v-.92h3.75Z"/><path class="d" d="M110.3,117.74l3.74.08v1l-3.75-.08Z"/><path class="c" d="M45.13,153.87c1.24.21,2.52-.12,3.76.26a.9.9,0,0,1-.26.89c-1.32.29-2.67.76-3.76-.55C44.83,154.21,45,154.05,45.13,153.87Z"/><path class="d" d="M116.88,101.53a6.45,6.45,0,0,0-3.76-.32c0-.44-.09-.89.27-1.25l3.72.62Z"/><path class="d" d="M110.73,131.93c1.28-.1,2.59.19,3.86-.19.27.32.21.73.31,1.1a16.89,16.89,0,0,0-4,0A1.83,1.83,0,0,1,110.73,131.93Z"/><path class="d" d="M118.21,87.5a24.09,24.09,0,0,0,4.07.3,1.52,1.52,0,0,1-.35.81,6.18,6.18,0,0,1-4.3-.1A1.23,1.23,0,0,1,118.21,87.5Z"/><path class="d" d="M38.83,173c0,.61.32,1,1,1a5.93,5.93,0,0,1-2.17,3A9.31,9.31,0,0,1,38.83,173Z"/><path class="e" d="M27,94.51c-.07-1.82,1.41-2.1,2.43-2.85C29.54,93,29.08,93.48,27,94.51Z"/><path class="c" d="M41.55,162.82l4,.28a.87.87,0,0,1-.39.87,28.55,28.55,0,0,0-4-.19A1.52,1.52,0,0,1,41.55,162.82Z"/><path class="c" d="M67.38,70.32c.3-1.3,1.37-2,2.17-3,.73,1.37-.18,2.75-2.19,3Z"/><path class="d" d="M43.54,103.16h2.75a1.91,1.91,0,0,0,1.26-.23,1,1,0,0,1,.4,1c-1.34,0-2.72-.3-4,.36A1.73,1.73,0,0,1,43.54,103.16Z"/><path class="d" d="M52,140.56l-3.65-.31.18-.88a10.62,10.62,0,0,0,3.73,0A1.27,1.27,0,0,1,52,140.56Z"/><path class="c" d="M47.65,144.29a12.29,12.29,0,0,1,3.63.2,1.17,1.17,0,0,1-.22.87,3.83,3.83,0,0,1-3.54-.28C47.5,144.81,47.43,144.53,47.65,144.29Z"/><path class="d" d="M44.87,154.47a3.55,3.55,0,0,0,2.36.47c.46,0,.93.05,1.4.08l-.23,1a31.42,31.42,0,0,0-3.87-.34A2.83,2.83,0,0,1,44.87,154.47Z"/><path class="d" d="M46.09,150.83a12.64,12.64,0,0,0,3.73.2,1,1,0,0,1-.38,1.09l-3.54-.38Z"/><path class="d" d="M52.68,132.8a24.53,24.53,0,0,0-3.72-.36l0-.89a16.81,16.81,0,0,0,3.75.14Z"/><path class="d" d="M110.26,121.84H114l0,1a17.15,17.15,0,0,0-3.79,0Z"/><path class="d" d="M47,159.77a17.66,17.66,0,0,0-2.72-.28,1.66,1.66,0,0,1-1.19-.45l.37-.76c1.23.76,2.61.39,3.92.51Z"/><path class="d" d="M120.26,92.13a10.93,10.93,0,0,0-2.55-.25,2.4,2.4,0,0,1-1.31-.42l.37-.87c1.23.81,2.62.48,4,.57Z"/><path class="d" d="M118.1,97.41l-3.78-.24.28-1c1.27,0,2.49.63,3.8.34A1,1,0,0,1,118.1,97.41Z"/><path class="d" d="M114.26,115.34c-1.1-1.14-2.43-.71-3.72-.54a.78.78,0,0,1,.18-.91,31,31,0,0,0,3.73.07A1.54,1.54,0,0,1,114.26,115.34Z"/><path class="d" d="M48.91,136.46c-.13.73.2,1.14.91,1.17a5.22,5.22,0,0,0,2.42-.15v1a33.36,33.36,0,0,0-3.74,0C48.43,137.72,48.31,137,48.91,136.46Z"/><path class="d" d="M47.52,145.08l3.54.28a1.56,1.56,0,0,1-.19.9l-3.61-.16A1.94,1.94,0,0,1,47.52,145.08Z"/><path class="d" d="M49.88,150.16l-3.53-.27.23-.94a14,14,0,0,0,3.72.16A2.83,2.83,0,0,1,49.88,150.16Z"/><path class="d" d="M121,90.24a17,17,0,0,0-4-.29c.11-.26.13-.58.39-.77a5.6,5.6,0,0,1,4.2.11Z"/><path class="d" d="M52.63,124.69a9.56,9.56,0,0,0-4,0l-.08-.94a33.32,33.32,0,0,0,3.87-.06A.89.89,0,0,1,52.63,124.69Z"/><path class="d" d="M115,109l-3.55-.28a1.76,1.76,0,0,1,.24-.92l3.51.47Z"/><path class="d" d="M47.65,157.85a21.21,21.21,0,0,0-3.73-.34l.24-.9c1.3.41,2.66.1,4,.27A1.65,1.65,0,0,1,47.65,157.85Z"/><path class="c" d="M42.28,161.09l4,.45-.25.62c-.86,0-1.71,0-2.57,0a2.82,2.82,0,0,1-1.4-.5Z"/><path class="e" d="M126.08,167.16c.26-1.72,1.65-2.49,2.92-3.32.44-.29.34.19.36.42a12.12,12.12,0,0,0-2.21,2C126.81,166.6,126.57,167,126.08,167.16Z"/><path class="c" d="M121.66,89.29l-4.2-.11c0-.24,0-.49.17-.67a38.53,38.53,0,0,1,4.3.1Z"/><path class="e" d="M27.1,77.3c.19-1.35.19-1.35,2.48-2.41C29.56,76.1,29,76.61,27.1,77.3Z"/><path class="d" d="M115.37,94.27l3.72.56a1.16,1.16,0,0,1-.24.72,23.7,23.7,0,0,0-3.94-.31A1.76,1.76,0,0,1,115.37,94.27Z"/><path class="e" d="M79.52,113.58a10.44,10.44,0,0,1,0,5.6Z"/><path class="d" d="M47.06,146.94l3.55.39a1.4,1.4,0,0,1-.25.86c-1.11-.26-2.28-.09-3.38-.42Z"/><path class="e" d="M72.56,73.21h-.1a1.89,1.89,0,0,0-.8-.94A1.41,1.41,0,0,1,71,71l0,0c1.37,0,1.88,1.29,3.11,2A3.79,3.79,0,0,0,72.56,73.21Z"/><path class="e" d="M104.79,125.13a10.31,10.31,0,0,1,.82-4.07A3.83,3.83,0,0,1,104.79,125.13Z"/><path class="d" d="M52.28,136.73a11.29,11.29,0,0,0-3.38-.26l0-.91,3.53.21A1.6,1.6,0,0,1,52.28,136.73Z"/><path class="d" d="M110.3,125.76a8.63,8.63,0,0,0,3.75,0l0,.93-3.77,0Z"/><path class="d" d="M114.05,124.75a24.83,24.83,0,0,0-3.76,0v-.88a10.5,10.5,0,0,0,3.75,0Z"/><path class="e" d="M67.33,184.66c1.19-1,2.72-1.21,4-1.92A5.51,5.51,0,0,1,67.33,184.66Z"/><path class="d" d="M51.35,116.08a32.82,32.82,0,0,0-3.84.08c-.09-.23-.26-.44-.21-.72l4-.14Z"/><path class="e" d="M135.94,153.41c-.49,1.47-1.62,1.89-2.68,2.66C133.43,154.38,134.63,154,135.94,153.41Z"/><ellipse class="g" cx="88.56" cy="126.98" rx="0.07" ry="8.03"/><ellipse class="g" cx="74.17" cy="125.6" rx="0.05" ry="7.98"/><path class="d" d="M114,120.74a27,27,0,0,0-3.71,0l0-.86,3.74,0Z"/><path class="d" d="M119.36,93.65a31.6,31.6,0,0,0-3.77-.13l.45-.88c1.16.37,2.41,0,3.57.45A.85.85,0,0,1,119.36,93.65Z"/><path class="g" d="M83.34,114.94v4.53C82.46,118,82.78,116.45,83.34,114.94Z"/><path class="d" d="M110.5,115.78a22.66,22.66,0,0,0,3.59.06l0,.88a21.1,21.1,0,0,0-3.64-.19Z"/><path class="e" d="M56.8,103.52a2,2,0,0,0-.64,2.5,1.53,1.53,0,0,1-.81-2.19C55.61,103.08,56.11,103.52,56.8,103.52Z"/><path class="e" d="M29.53,96.4c-.18,1.6-1.23,2-2.45,2.5C27.34,97.46,28.54,97.2,29.53,96.4Z"/><path class="e" d="M90.62,205.29a7.1,7.1,0,0,1,3.19,1.9A3.37,3.37,0,0,1,90.62,205.29Z"/><path class="e" d="M83.37,134.08a50.72,50.72,0,0,1,0,5.22,17.17,17.17,0,0,1-.35-5.45C83.2,133.78,83.3,133.9,83.37,134.08Z"/><path class="e" d="M71.93,47c-1.16-.31-2-1.13-3.34-1.73,2.36.12,3,.47,3.32,1.76Z"/><path class="g" d="M72.06,128a19,19,0,0,1,0-5A9.64,9.64,0,0,1,72.06,128Z"/><path class="e" d="M106.06,148.47c1.12-.31,1-1,.68-2,.69.5,1,1,.89,1.53,0,.4.2,1-.3,1.17S106.53,148.94,106.06,148.47Z"/><path class="g" d="M86.59,134.4v-5.19A8.66,8.66,0,0,1,86.59,134.4Z"/><path class="e" d="M36.25,86.14c-.17,1.45-1.16,2-2.43,2.38A4.56,4.56,0,0,1,36.25,86.14Z"/><path class="g" d="M77.81,115.54a16.14,16.14,0,0,1,0,5.19A10.26,10.26,0,0,1,77.81,115.54Z"/><path class="g" d="M90.51,129.64a8.58,8.58,0,0,1,0-4.79Z"/><path class="c" d="M71,71a2.13,2.13,0,0,0-.57.1c-.33.14-.7.32-1,0s0-.58.15-.84a1.43,1.43,0,0,1,1.11-.78c.23,0,.27.24.28.43,0,.36,0,.71,0,1.06Z"/><path class="c" d="M93,183.23c-.42-.07-1.12.14-.92-.67.15-.6.44-1.25,1.21-1.27.56,0,.45.38.35.76s-.74.64-.66,1.2Z"/><path class="e" d="M135.76,76.3c.51.1.51.63.53,1.08s-.18.79-.61.7c-.72-.16-.41-.85-.52-1.31S135.28,76.25,135.76,76.3Z"/><path class="e" d="M86.58,123.65v-4.39C87.18,120.26,87.19,121.13,86.58,123.65Z"/><path class="e" d="M26.88,175.27c0-.5-.06-1,.5-1,.75.07.39.83.58,1.25s-.1.52-.42.53C26.91,176.07,26.91,175.6,26.88,175.27Z"/><path class="g" d="M75.82,132.77v-3.22A3.38,3.38,0,0,1,75.82,132.77Z"/><path class="e" d="M70,127.24a2.48,2.48,0,0,1,.21-2.52A2.41,2.41,0,0,1,70,127.24Z"/><path class="g" d="M96,203.8l-1.74,1.31C94.39,203.61,94.51,203.51,96,203.8Z"/><path class="g" d="M66.58,48.7l2-.89C68.46,49.05,68.16,49.21,66.58,48.7Z"/><path class="g" d="M81.69,135.9v4.68h-.14v-4.67Z"/><path class="e" d="M124.64,169.07a1.48,1.48,0,0,1,1.21-1.72A2,2,0,0,1,124.64,169.07Z"/><path class="e" d="M38.6,88.29a2.41,2.41,0,0,1,1.64-1.92A3.56,3.56,0,0,1,38.6,88.29Z"/><path class="e" d="M34.2,174.9c-.11.29-.21.62-.59.62s-.43-.32-.41-.58.11-.57.46-.56A.56.56,0,0,1,34.2,174.9Z"/><path class="e" d="M90.13,180c.56-.21,1,.09,1.35.34.2.13.35.34.13.59s-.39.31-.63.14A1.79,1.79,0,0,1,90.13,180Z"/><path class="e" d="M63.05,99.54a5.48,5.48,0,0,1-.57-.05.67.67,0,0,1-.64-.61c0-.27.21-.29.4-.34A.56.56,0,0,1,63,99a2.7,2.7,0,0,1,.08.57Z"/><path class="c" d="M56.57,116.59a9.08,9.08,0,0,1-.83-.81.48.48,0,0,1,.16-.72c.37-.2.46.18.57.39a2.67,2.67,0,0,1,.08,1.16Z"/><path class="g" d="M99.48,157a.53.53,0,0,1-.55.39.49.49,0,0,1-.54-.5.42.42,0,0,1,.56-.43A.7.7,0,0,1,99.48,157Z"/><path class="e" d="M99.94,153.39c0-.37.24-.4.48-.41a.58.58,0,0,1,.68.53c0,.36-.32.43-.59.45S100,153.71,99.94,153.39Z"/><path class="e" d="M34.18,92.35a2,2,0,0,1,1.59-1.27C35.46,91.77,35.14,92.47,34.18,92.35Z"/><path class="e" d="M101.88,149.53v0s.08,0,.11,0c.39-.08.81-.21.93.36a.37.37,0,0,1-.34.41C101.94,150.43,101.88,150,101.88,149.53Z"/><path class="e" d="M129.37,76.8c.33,0,.47.22.48.53a.48.48,0,0,1-.44.57c-.33,0-.48-.2-.49-.51A.54.54,0,0,1,129.37,76.8Z"/><path class="e" d="M95.14,148c0,.19,0,.42-.29.37s-.57-.08-.61-.43.17-.41.43-.43S95.16,147.66,95.14,148Z"/><path class="e" d="M64.72,95.83l0,0a2.24,2.24,0,0,1-.55.19c-.34,0-.66-.06-.63-.48s.39-.28.64-.31a1.87,1.87,0,0,1,.47,0Z"/><path class="g" d="M93.15,71.65c.64-.14,1.12-.88,1.93-.51A1.83,1.83,0,0,1,93.15,71.65Z"/><path class="g" d="M70.74,48.75c0,.31-.18.42-.46.41s-.49-.11-.44-.41.23-.56.54-.53S70.74,48.49,70.74,48.75Z"/><path class="g" d="M76.09,119.46a7.48,7.48,0,0,1,0,2.83A7.69,7.69,0,0,1,76.09,119.46Z"/><path class="c" d="M107.22,137.18c0,.2-.07.45-.32.4a.56.56,0,0,1-.47-.6.36.36,0,0,1,.34-.4C107.12,136.6,107.19,136.9,107.22,137.18Z"/><path class="g" d="M68,105.11a.42.42,0,0,1-.14-.35.53.53,0,0,1,.41-.53.4.4,0,0,1,.46.43C68.68,104.94,68.45,105,68,105.11Z"/><path class="d" d="M38.87,168.85c.89.56.46,1.17.05,1.77Z"/><path class="e" d="M77.77,134.66a6.89,6.89,0,0,1,0-2.52A4.79,4.79,0,0,1,77.77,134.66Z"/><path class="g" d="M71.54,97.09l.61.27c0,.43-.22.89-.7.68S71.44,97.41,71.54,97.09Z"/><path class="g" d="M93.21,203.75a.73.73,0,0,1-.44.61.32.32,0,0,1-.42-.29c0-.38.26-.54.56-.62C93.05,203.41,93.19,203.55,93.21,203.75Z"/><path class="e" d="M60.35,102.19a.43.43,0,0,1,.53.35c0,.25-.14.35-.36.36a.45.45,0,0,1-.53-.36C59.94,102.3,60.14,102.22,60.35,102.19Z"/><path class="g" d="M83.37,134.08l-.38-.23a2.47,2.47,0,0,1,0-1.14C83.57,133.1,83.4,133.61,83.37,134.08Z"/><path class="g" d="M93.23,151.21c0,.35-.15.51-.34.54a.42.42,0,0,1-.52-.36c0-.23.21-.29.42-.32A.45.45,0,0,1,93.23,151.21Z"/><path class="g" d="M37.33,89.51a1.11,1.11,0,0,1,1-.94C38.16,89,38,89.53,37.33,89.51Z"/><path class="e" d="M70.48,101.22c0,.21-.15.25-.31.27s-.42,0-.42-.28.11-.42.34-.39A.48.48,0,0,1,70.48,101.22Z"/><path class="g" d="M66.42,108.06a.46.46,0,0,1-.48.4c-.18,0-.31-.13-.23-.28a.89.89,0,0,1,.4-.39C66.26,107.73,66.4,107.86,66.42,108.06Z"/><path class="g" d="M91.79,154.81c0,.15-.05.31-.26.29a.47.47,0,0,1-.45-.29.24.24,0,0,1,.2-.34C91.55,154.41,91.71,154.56,91.79,154.81Z"/><path class="g" d="M103.74,146.39h0c.33-.06.67-.22.93.13,0,0,0,.25-.09.28C104.17,147,104,146.62,103.74,146.39Z"/><path class="g" d="M33.34,92.61a1.22,1.22,0,0,1,.74-.25C33.92,92.7,33.84,93.28,33.34,92.61Z"/><path class="g" d="M68.77,139.07a.3.3,0,0,1,.16-.37.19.19,0,0,1,.07.08.25.25,0,0,1-.19.34Z"/><path class="g" d="M96.12,67.44c0-.14.1-.21.23-.19s.05.09.07.14l-.32,0Z"/><path class="g" d="M34.08,78.57a.34.34,0,0,1-.39.36A.53.53,0,0,1,34.08,78.57Z"/><path class="e" d="M70.55,44.26c0-.1.11-.13.19-.07a.8.8,0,0,1,.13.13c-.07,0-.14.08-.2.07S70.59,44.3,70.55,44.26Z"/><path class="g" d="M36.42,90.44c0-.17.09-.36.3-.42C36.67,90.2,36.66,90.4,36.42,90.44Z"/><path class="g" d="M58.62,105.85c0,.06,0,.15-.09.17a.17.17,0,0,1-.25-.13s.09-.13.14-.14S58.55,105.81,58.62,105.85Z"/><path class="g" d="M66.38,185.36c.1-.17.29-.34.42-.16s-.16.23-.28.31S66.37,185.46,66.38,185.36Z"/><path class="g" d="M93.82,114c0,.14-.14.38-.25.3s-.11-.34.11-.44S93.83,113.94,93.82,114Z"/><path class="e" d="M91.21,83.13c.09,0,.23-.06.25,0s0,.14-.12.17A.86.86,0,0,1,91.21,83.13Z"/><polygon class="g" points="92.49 208.29 92.4 208.31 92.41 208.25 92.49 208.29"/><path class="g" d="M93,208.5l-.08.13-.07-.07a.61.61,0,0,1,.07-.14Z"/><path class="e" d="M36.45,85.9c0,.12,0,.33-.23.26C36.21,86,36.32,85.94,36.45,85.9Z"/><path class="e" d="M71.91,47.07h.16L72,47.2,71.93,47Z"/><path class="e" d="M86,104.1c.1.06.1.12,0,.17s-.07,0-.11,0l.14-.14Z"/><polygon class="g" points="84.94 105.46 84.99 105.43 84.98 105.5 84.94 105.46"/><path class="c" d="M67.36,70.3a.2.2,0,0,1,0,.08s0,0-.06,0l.12-.05Z"/><path class="g" d="M98.27,69.58l-.13.18c-.12-.2,0-.17.14-.16Z"/><path class="g" d="M66.52,185.51c-.08.08-.18.17-.26.07s0-.18.12-.22Z"/><path class="g" d="M98.28,69.6l.07-.18c.19.17,0,.12-.08.16Z"/><path class="e" d="M97.07,141.52l.15.11s-.07,0-.1,0-.12-.08,0-.15Z"/><path class="e" d="M96.1,67.42c0,.11,0,.2-.11.22s-.09,0-.09-.06.11-.15.22-.14Z"/><path class="e" d="M98.53,120.67c-.07-.08-.06-.13,0-.14a.2.2,0,0,1,0,.06c0,.16,0-.06-.09.06Z"/><path class="e" d="M38.44,88.5c0-.12,0-.24.19-.23Z"/><path class="g" d="M68.81,139.12l-.12.17s-.06,0-.07-.09,0-.14.15-.13Z"/><path class="g" d="M93.68,113.9c0-.05.14-.15.16-.14s.07.19,0,.28Z"/><path class="g" d="M68,140.22l-.06.07s-.06,0-.06-.07,0-.05.06-.07Z"/><path class="e" d="M95.39,117.53l-.13.14s0-.08,0-.1.11-.1.17,0Z"/><path class="d" d="M30,45.4a1.55,1.55,0,0,1,.51-1.17Q37,36.28,43.57,28.35c.87-1.06,1.13-1,2,0Q52,36.26,58.48,44.14c.85,1,.85,1.35,0,2.4q-6.39,7.85-12.79,15.67c-1,1.17-1.31,1.15-2.31-.05L30.81,46.92C30.44,46.47,29.94,46.08,30,45.4Z"/><path class="b" d="M62,34.56a3.73,3.73,0,0,1,.32,1.95,57.48,57.48,0,0,1-7.09-9.4c-.09-.13-.2-.25-.13-.42a2.27,2.27,0,0,1,1.62,1.07C58.48,30,60.25,32.3,62,34.56Z"/><path class="d" d="M132.81,205.58a1.65,1.65,0,0,1-.48,1.12q-6.45,8-12.91,15.9c-.92,1.13-1.14,1.12-2.09,0q-6.51-7.9-13-15.84c-.81-1-.81-1.25,0-2.28l12.76-15.56.32-.36c.8-.84,1.07-.87,1.82,0,1.22,1.42,2.39,2.88,3.58,4.34l9.46,11.6A1.49,1.49,0,0,1,132.81,205.58Z"/><path class="b" d="M75.42,207.39c1.16-.48,2.15.59,3.23.07-1.6-1.36-1.81-1.7-5.25-2.63a2,2,0,0,1,1-1.21c2.84-1.6,5.77-2.22,8.86-.67,1.1.56,1.27.92.93,2.09C83.12,208.74,78.65,210,75.42,207.39Z"/><path class="b" d="M73.11,208.54a2.1,2.1,0,0,1,1.57.2,9.57,9.57,0,0,0,8.4.08c.45-.22.93-.39,1.21.22s-.15.89-.57,1.15a7.93,7.93,0,0,1-6.33.73A8.21,8.21,0,0,1,73.11,208.54Z"/><path class="b" d="M87.19,190.69a9.11,9.11,0,0,1-2.85-.29,3.51,3.51,0,0,0-1.87-.14.78.78,0,0,1-1-.38.86.86,0,0,1-.07-.91c.26-.37.66-.15,1-.1a70.54,70.54,0,0,0,7.27.11h.83c.42,0,.85,0,.9.56s-.36.67-.78.73A21,21,0,0,1,87.19,190.69Z"/><path class="b" d="M85,193.5a9.47,9.47,0,0,1,2.73.83c.45.13.33.85-.17,1.12a1.31,1.31,0,0,1-1.26,0c-.36-.17-.68-.43-1-.61s-1-.38-1.4.11-.11.8.14,1.17.6.7,0,1a.89.89,0,0,1-1.19-.5,1.86,1.86,0,0,1,.05-1.93A2.23,2.23,0,0,1,85,193.5Z"/><path class="b" d="M84.73,183.79c1.52.19,2.81.46,4-.17.26.21.26.45.15.59-.52.61-1.1,1.13-.43,2,.26.36-.18.62-.6.56a4.76,4.76,0,0,0-2.3.16A2.53,2.53,0,0,0,84.73,183.79Z"/><path class="b" d="M87.52,45.08c-.88.29-1.72-.16-2.68-.11A3.77,3.77,0,0,0,87,46.79a13.05,13.05,0,0,0,2.28.7c.58.12.7.33.3.75-2.16,2.28-7.3,2.88-10,1.19a1.3,1.3,0,0,1-.71-1.38,6.47,6.47,0,0,1,.25-1.16C80.22,43.78,85.2,42.69,87.52,45.08Z"/><path class="b" d="M84,41.33A10.33,10.33,0,0,1,89.34,43c.33.2.79.44.56.89s-.7.21-1.05.06a10.14,10.14,0,0,0-6.15-1,11,11,0,0,0-2.35.84c-.54.26-1.15.6-1.5-.22s.15-1.1.78-1.33A11.89,11.89,0,0,1,84,41.33Z"/><path class="b" d="M75.93,61.9l4.63.29a1.34,1.34,0,0,1,.89.28,1.16,1.16,0,0,1,.3,1.1c0,.45-.42.27-.66.23A42.8,42.8,0,0,0,73,63.56a5.77,5.77,0,0,1-.72,0,.6.6,0,0,1-.62-.45.62.62,0,0,1,.4-.76,4.84,4.84,0,0,1,2.43-.48c.47,0,1,0,1.43,0Z"/><path class="b" d="M74.9,58.32c.68-1.59.83-1.65,2.15-1,.32.16.62.36.94.5a1,1,0,0,0,1.2-.21.78.78,0,0,0-.08-1.08c-.25-.31-.62-.7-.17-1s.92-.06,1.23.39a1.62,1.62,0,0,1,.2,1.79,2.32,2.32,0,0,1-3,1.2A6.15,6.15,0,0,0,74.9,58.32Z"/><path class="b" d="M77.53,65.61c-.35,1.59-.35,1.59.66,3a8.51,8.51,0,0,0-4.45.33c.46-1.09,1.63-1.91.5-3.11C75.42,65.63,76.49,65.89,77.53,65.61Z"/><path class="b" d="M110.75,38.75c-.44-1-.42-1,.71-1.29C111.43,38,111.36,38.53,110.75,38.75Z"/><path class="b" d="M129.93,152.12a20,20,0,0,1-3.39-6.16,68.84,68.84,0,0,1-4-14.55,59.2,59.2,0,0,1-.38-13.11,69.82,69.82,0,0,1,2-13.28,51.46,51.46,0,0,1,5.11-12.57.72.72,0,0,1,.39-.35C130,112,129.88,131.91,129.93,152.12Z"/><path class="b" d="M129.65,159.27a1.34,1.34,0,0,0-.67.17,53.08,53.08,0,0,0-5.58,5.12c-.57.59-.85,1.48-1.66,1.91a1.64,1.64,0,0,1,1-2c.33-.12.43-.46.59-.71a17.47,17.47,0,0,1,6-5.53C129.77,158.48,129.65,158.89,129.65,159.27Z"/><path class="b" d="M129.65,159.68c0-.14-.11-.28,0-.42s.21,0,.22.13A.24.24,0,0,1,129.65,159.68Z"/><path class="d" d="M80.82,88a3.89,3.89,0,0,1-1.75,2.42.73.73,0,0,1-.67-.12,2.7,2.7,0,0,1,0-4.1c.68-.54,1.17-.49,1.68.24C80.38,86.92,80.85,87.35,80.82,88Z"/><path class="d" d="M71.17,87.12a2.87,2.87,0,0,1,2-2.22c.58,0,.86.36,1.11.76a2,2,0,0,1,.11,2.14,1.5,1.5,0,0,1-.37.46c-.5.41-.9,1.21-1.67.86A2.28,2.28,0,0,1,71.17,87.12Z"/><path class="d" d="M60.38,83.21c0-1.44.67-2.25,1.89-2.31.6,0,1,.16,1.06.83a2.74,2.74,0,0,1-.59,2.34,1.67,1.67,0,0,1-1.84.54C60.24,84.36,60.41,83.7,60.38,83.21Z"/><path class="d" d="M65.66,85.51a1.71,1.71,0,0,1,.47-1.37c.48-.54,1-1.07,1.81-.86.51.13,1,1.36.8,2.09a2.4,2.4,0,0,1-1.38,1.68C66.35,87.51,65.68,86.9,65.66,85.51Z"/><path class="b" d="M101.22,38.71a1.14,1.14,0,0,0-.26,1.21c1.42,4.27,1.72,8.74,2.33,13.15.64,4.67,1.5,9.28,3.81,13.47a3.1,3.1,0,0,1,.29,1.15,3.17,3.17,0,0,1-1.75-1.82c-1.67-3.46-2.19-7.21-2.81-10.93-.72-4.36-1.18-8.76-2.15-13.07a23.1,23.1,0,0,0-1-3.18A1,1,0,0,1,101.22,38.71Z"/><path class="b" d="M106.28,40.26c-.88,0-.9.57-.79,1.23.67,3.88,1.47,7.74,2,11.64a52,52,0,0,0,3.3,12.16,3.07,3.07,0,0,1-1.56-1.84c-1.74-4.05-2.31-8.35-2.92-12.65a105.1,105.1,0,0,0-2-10.56,5.58,5.58,0,0,1-.09-.59C104.9,39.74,105.83,39.17,106.28,40.26Z"/><path class="b" d="M103.11,39.15c-.23.38-.58.7-.52,1.2-.49-.2-.48-.66-.55-1.08C102.36,38.9,102.7,38.69,103.11,39.15Z"/><path class="e" d="M78.27,161a57.52,57.52,0,0,1,16.85,2.27A40.46,40.46,0,0,1,105.25,168c.77.5,1.57.94,2.35,1.4a1.11,1.11,0,0,1,.17,1.28c-.35.52-1,.67-1.46,1a1.8,1.8,0,0,0-1,1.6c0,1.05.17,1.23,1.22,1,.43-.1.85-.22,1.22.14a5.38,5.38,0,0,1,.1,3c-.19,1.06-.68,1.24-1.59.58-1.55-1.12-3.09-2.24-4.74-3.23A40.4,40.4,0,0,0,77.83,169a44.42,44.42,0,0,0-4.74.57c-.51.08-1.1.25-1.43-.28s.12-.9.39-1.28c1.1-1.51,2.24-3,3.37-4.5a1.62,1.62,0,0,1,.82-.66c.62.14.39.58.3.94a2.5,2.5,0,0,0-.16.93,1.94,1.94,0,0,0,1,1.65.75.75,0,0,0,.95-.29c.47-.58,1.05-1.13.71-2a1.93,1.93,0,0,0-2.14-1.46C76.8,161.51,77.12,161.14,78.27,161Z"/><path class="b" d="M107.61,170.73v-1.32l.78-.36c.73,2.18.38,4.41.31,6.62,0,.88-.07,1.75-.1,2.63a4.94,4.94,0,0,0,.71,2.54A17.72,17.72,0,0,1,106,178.7,40,40,0,0,0,88,170.17a44.39,44.39,0,0,0-17.67.67c-.31.07-.62.14-.93.18a1.12,1.12,0,0,1-.35-.06,2.91,2.91,0,0,1,.71-1.51q4.68-6.06,9.38-12.11c.36-.46.67-1,1.32-1.14.21,1-.46,1.56-.94,2.21A5.4,5.4,0,0,0,78.27,161c-.59.4-1.44.59-1.34,1.58l-.07.11a.76.76,0,0,1-.23.13h-.14a20.26,20.26,0,0,0-2.84,3.49,21.84,21.84,0,0,0-2.14,3.13,44.87,44.87,0,0,1,19,.29,44,44,0,0,1,16.72,8.52c.65-1.4.3-2.77.41-4.09A28.53,28.53,0,0,1,107.61,170.73Z"/><path class="b" d="M108.52,166.32a.7.7,0,0,1,0,1C107.89,167,107.89,166.64,108.52,166.32Z"/><path class="b" d="M121.57,64.71a3.63,3.63,0,0,1-4.11,1.71c-.81-.24-1.73-.49-2-1.82A6.34,6.34,0,0,0,121.57,64.71Z"/><path class="b" d="M89.16,108.2A20.56,20.56,0,0,1,94,101.94a1.33,1.33,0,0,1-.26,1.33c-1.17,1.46-2.31,2.94-3.46,4.41C90,108.05,89.68,108.35,89.16,108.2Z"/><path class="b" d="M104.52,117.53a9,9,0,0,1-3.17,4.2A5.08,5.08,0,0,1,104.52,117.53Z"/><path class="b" d="M94.18,101.72a15.76,15.76,0,0,0-.35-4.33C95.73,98.49,95.9,100.5,94.18,101.72Z"/><path class="b" d="M93.5,106a3.07,3.07,0,0,1-1.33,2.5c-.35.31-.73.59-1.09.88A4.64,4.64,0,0,1,93.5,106Z"/><path class="b" d="M87.23,111.07c-.2-1.54.83-2.25,2-2.89A3,3,0,0,1,87.23,111.07Z"/><path class="b" d="M94,102c0-.13,0-.33.25-.27C94.21,101.88,94.12,102,94,102Z"/><path class="b" d="M64.75,130.24c.07.48.12.95-.48,1.16s-.24.58-.27,1c1-.52,1.76-1.34,2.93-1,1.35.41,1.09,1.57,1.2,2.55.65.17.66-1,1.39-.64A3.67,3.67,0,0,1,68.14,136c-1.42,1.35-2.31,3.12-3.57,4.59a9.8,9.8,0,0,1-2.77,2.56,2.17,2.17,0,0,1-3.14-1,4.46,4.46,0,0,1,.16-4.87c.67-1,1.59-1.87,2.28-2.9.85-1.26,1.86-2.42,2.76-3.65C64.1,130.46,64.44,130.4,64.75,130.24Z"/><path class="b" d="M98,87c.13.7-.08,1.16-.86,1.23A1.21,1.21,0,0,1,98,87Z"/><path class="b" d="M98.69,86.19c.12.54-.17.69-.63.69A.77.77,0,0,1,98.69,86.19Z"/><path class="b" d="M122.72,161.08c-.14-.78.22-1.11,1-1.1C123.79,160.72,123.39,161,122.72,161.08Z"/><path class="b" d="M28.31,223.28c.08-.23.29-.3.5-.37C28.77,223.21,28.7,223.47,28.31,223.28Z"/><path class="b" d="M40.31,77.86a9.57,9.57,0,0,1-3.83,7l-.16-1.08c.27-.7.79-1.39-.34-1.9a.87.87,0,0,1-.3-1.16,1.07,1.07,0,0,1,1-.77.92.92,0,0,1,1,.7c.05.13,0,.32.19.37.84-.64.59-1.88,1.42-2.51A1.49,1.49,0,0,1,40.31,77.86Z"/><path class="e" d="M39.23,78.49a5.2,5.2,0,0,1-1.71,3.22c-.13-.65.16-1.45-.79-1.53-.56,0-.81.33-.85.8-.09,1.1.88.88,1.5,1.07-.07.81-.65,1.21-1.06,1.71A29.15,29.15,0,0,1,34.79,81c-.35-.92-.25-1.27.66-1.53A22.23,22.23,0,0,1,39.23,78.49Z"/><path class="b" d="M127.06,171.38a.75.75,0,0,1-.81.82c-.59,0-.75-.38-.73-.86s.25-.83.8-.81S127.06,170.88,127.06,171.38Z"/><path class="b" d="M123.55,179.67c-.48,0-.7-.29-.71-.74a.68.68,0,0,1,.74-.74.63.63,0,0,1,.73.72C124.28,179.32,124.09,179.68,123.55,179.67Z"/><path class="b" d="M103.05,131.46c.29-1.4.83-2.59,2.43-2.9C105.3,130.06,104.22,130.79,103.05,131.46Z"/><path class="b" d="M39.33,72.75c.47,0,.77.19.8.62a.79.79,0,0,1-.7.94.65.65,0,0,1-.8-.67A.82.82,0,0,1,39.33,72.75Z"/><path class="b" d="M67.6,182.49a1.12,1.12,0,0,1-1,.68c-.22,0-.45-.09-.42-.29a1,1,0,0,1,.92-.78A.42.42,0,0,1,67.6,182.49Z"/><path class="e" d="M79.13,205.43c-.08-1.66.21-1.87,1.85-1.49Z"/><path class="e" d="M77.43,203.38c.44,0,.58.12.54.47a.84.84,0,0,1-.8.86c-.31,0-.77-.06-.7-.56S77.05,203.48,77.43,203.38Z"/><path class="e" d="M86,47.86c.28,0,.57.1.6.42,0,.56-.4.72-.82.81-.26,0-.62,0-.6-.35A.92.92,0,0,1,86,47.86Z"/><path class="e" d="M82.27,48.56l1.57-1.19C83.93,48.85,83.78,49,82.27,48.56Z"/><path class="d" d="M76.93,162.61c.53-.17,1.07-.64,1.58,0s1.19,1.49.82,2.47a4.56,4.56,0,0,1-1,1.44c-.35.37-.78.26-1.19,0a2.43,2.43,0,0,1-.79-2.88c.1-.26.5-.45.19-.81l0,0c.12-.16.36-.11.49-.27Z"/><path class="d" d="M92.32,165.78a3.21,3.21,0,0,1-2,2.32.89.89,0,0,1-.82-.38,2.41,2.41,0,0,1,1-3.88c.64-.21,1,.22,1.26.65A2.2,2.2,0,0,1,92.32,165.78Z"/><path class="d" d="M86.17,164.93c0,.59-1.4,2.21-1.94,2.21-.73,0-1.82-2.17-1.46-2.91a1.7,1.7,0,0,1,.35-.48c.51-.47.93-1.11,1.66-1.22C85.07,162.48,86.16,164.45,86.17,164.93Z"/><path class="d" d="M97.79,167.52a2.51,2.51,0,0,1-1.6,2.15.78.78,0,0,1-1-.24,2.26,2.26,0,0,1-.54-2.2,2.41,2.41,0,0,1,1.91-1.43C97.29,165.66,97.8,166.46,97.79,167.52Z"/><path class="d" d="M107.61,170.73a4.7,4.7,0,0,1,0,3.46,3.51,3.51,0,0,0-1.44.48c-.88.37-1.06.26-1.21-.72-.24-1.5-.07-1.84,1.24-2.56C106.68,171.15,107.15,171,107.61,170.73Z"/><path class="d" d="M103.08,169.77a2.12,2.12,0,0,1-2,2.3c-1,0-1-.64-1-1.27a2.24,2.24,0,0,1,2-2.53C102.82,168.27,103.05,168.6,103.08,169.77Z"/><path class="e" d="M77,162.6c0,.3-.15.51-.49.27C76.53,162.59,76.61,162.35,77,162.6Z"/><path class="e" d="M67.35,135.38a7.84,7.84,0,0,1-1.27,1.82,30.93,30.93,0,0,0-2.93,3.89,2.71,2.71,0,0,1-2.74,1.26,2.2,2.2,0,0,1-1.41-2.6,4.34,4.34,0,0,1,.32-1.39,18.5,18.5,0,0,1,3.79-4.84,14.66,14.66,0,0,1-1.66,6c-.15.27-.58.58-.22.92s.7,0,1-.11a5.71,5.71,0,0,0,2.45-3,3.27,3.27,0,0,1,2-2A.64.64,0,0,1,67.35,135.38Z"/><path class="g" d="M63.66,133s-.06,0-.1,0-.14-.05-.06-.1a.13.13,0,0,1,.11,0S63.64,133,63.66,133Z"/></svg>