<svg xmlns="http://www.w3.org/2000/svg" xmlns:xlink="http://www.w3.org/1999/xlink" viewBox="0 0 162.74 251.13"><defs><style>.a{fill:#cf2101;}.b{fill:#fefefe;stroke:#c5c6c8;stroke-miterlimit:10;}</style><symbol id="a" viewBox="0 0 40.83 50.32"><path class="a" d="M0,25.26A1.85,1.85,0,0,1,.57,24L19.32.8c.87-1.07,1.17-1.06,2,0L40,23.46c1.16,1.42,1.18,1.61,0,3.07Q30.91,37.91,21.84,49.29c-1.11,1.38-1.36,1.38-2.52,0Q10,38,.68,26.62A2.15,2.15,0,0,1,0,25.26Z"/></symbol></defs><path class="b" d="M80.18,250.59c-22.88,0-45.75,0-68.63,0a10.19,10.19,0,0,1-8-3.86,12.34,12.34,0,0,1-3-8.58c0-3.55,0-7.11,0-10.67C1,182.38.67,137.24.76,92.1.8,72.92.88,53.74.68,34.56.6,26.26.7,18,.5,9.66.43,6.49,2,4.37,4.37,2.71A12.77,12.77,0,0,1,11.82.54C27,.56,42.16.41,57.33.59c31.42.36,62.83,0,94.25.17a10.66,10.66,0,0,1,9.83,6.06,9.64,9.64,0,0,1,.75,5.49c0,.59-.14,1.18-.14,1.78q0,43.27,0,86.54c0,4.32.11,8.64-.06,13-.11,3-.19,5.9-.15,8.84.44,29.72.07,59.44.2,89.16q.06,12.76,0,25.53a13.39,13.39,0,0,1-9.14,13,11.81,11.81,0,0,1-3.3.42H80.18Z"/><path class="a" d="M93.52,81.51c-1.12-14.87.58-29.8-1-44.66-.1-1-.06-2-1.15-2.24C88.59,34,88.7,31.46,88,29.56c-.74-2.13.13-3.54,2.61-3.85a106.43,106.43,0,0,1,12.11-.37c1.7,0,3.19.44,3.55,2.31s1.18,4.48-1.08,5.48c-3.54,1.55-3.48,4.26-3.46,7.3.11,17.42.21,34.84.86,52.26.29,7.82-2.26,15.45-8.54,20.89-11,9.47-30.75,4.41-36.1-9-1.84-4.61-2-9.39-1.78-14.22.08-1.42-1.17-3.85,1.66-4,2.26-.09,4.85-.23,5.85,2.67.4,1.17.67,2.38,1,3.59.64,2.71,1,5.51,1.91,8.15,2.08,6.23,6.8,9.11,13.76,8.69,7.16-.44,10.9-3.61,12.51-10.29.71-2.93.47-5.88.63-8.82S93.52,84.46,93.52,81.51Z"/><use width="40.83" height="50.32" transform="translate(49.56 148.31) scale(1.56)" xlink:href="#a"/></svg>