<svg xmlns="http://www.w3.org/2000/svg" xmlns:xlink="http://www.w3.org/1999/xlink" viewBox="0 0 162.75 251.13"><defs><style>.a{fill:#cb3329;}.b{fill:#fefefe;stroke:#c5c6c8;stroke-miterlimit:10;}.c{fill:#cf2101;}</style><symbol id="a" viewBox="0 0 41.85 45.12"><path class="a" d="M0,11.37c.12-3,.81-6,3.08-8.33,3.86-4,10-4.06,14.31-.1A12.51,12.51,0,0,1,19.83,6c.24.41.38,1,.91,1s.7-.59.93-1A11.11,11.11,0,0,1,29.16.37c6.11-1.19,11.17.93,12.41,8.14a18.54,18.54,0,0,1-1.22,10.43C37.86,25,34,30.05,30,35.12c-2.48,3.17-5.14,6.21-7.83,9.21-.92,1-1.24,1.05-2.11.1C14.33,38.2,8.78,31.81,4.31,24.58,2,20.85.1,17,0,12.44Z"/></symbol></defs><path class="b" d="M80.24,250.59c-22.91,0-45.83,0-68.75,0-3.41,0-5.84-1.53-7.95-3.91a12.4,12.4,0,0,1-3-8.59c0-3.55,0-7.11,0-10.67.46-45,.12-90,.21-134.94,0-19.3.12-38.6-.07-57.9C.6,26.32.71,18,.5,9.71.42,6.5,2,4.36,4.43,2.68A12.84,12.84,0,0,1,11.88.54c15,0,29.95-.13,44.92,0C88.41,1,120,.62,151.64.77a10.59,10.59,0,0,1,9.74,6,9.49,9.49,0,0,1,.77,5.6c-.05.51-.12,1-.12,1.54l0,74.79c0,7.92,0,15.83,0,23.74,0,3.11-.22,6.21-.18,9.32.46,30,.08,60,.21,90q.06,12.7,0,25.41a13.4,13.4,0,0,1-9.08,13,11.75,11.75,0,0,1-3.29.43H80.24Z"/><use width="41.85" height="45.12" transform="translate(45.63 149.38) scale(1.71)" xlink:href="#a"/><path class="c" d="M94.55,79.67c-1.11-14.86.59-29.8-1-44.66-.1-1-.06-2-1.15-2.24-2.8-.6-2.69-3.15-3.35-5-.75-2.14.12-3.54,2.6-3.85a102,102,0,0,1,12.11-.37c1.7,0,3.19.43,3.55,2.3s1.18,4.49-1.07,5.48c-3.54,1.56-3.48,4.26-3.47,7.31.11,17.42.21,34.83.87,52.25.29,7.82-2.27,15.46-8.55,20.89-11,9.48-30.75,4.41-36.09-9-1.84-4.62-2.06-9.4-1.79-14.23.08-1.42-1.17-3.85,1.67-4,2.25-.09,4.85-.23,5.84,2.67a36.29,36.29,0,0,1,1,3.58c.64,2.72,1,5.52,1.91,8.15,2.08,6.24,6.8,9.12,13.76,8.69,7.16-.44,10.9-3.61,12.51-10.28.71-2.94.48-5.88.64-8.82S94.55,82.63,94.55,79.67Z"/></svg>