<svg xmlns="http://www.w3.org/2000/svg" xmlns:xlink="http://www.w3.org/1999/xlink" viewBox="0 0 162.77 251.14"><defs><style>.a{fill:#010101;}.b{fill:#fefefe;stroke:#c5c6c8;stroke-miterlimit:10;}.c{fill:#050503;}</style><symbol id="a" viewBox="0 0 32.96 38.86"><path class="a" d="M17.94,27.45c-.62,2.7,0,5,.66,7.29.32,1.15.69,2.28,1.06,3.42.17.5.07.7-.51.69-1.8,0-3.59,0-5.39,0-.77,0-.82-.18-.6-.87a47.6,47.6,0,0,0,2.07-7.59,12,12,0,0,0,.07-2.94,3.58,3.58,0,0,0-1.51,1.65C11.48,32.76,9,34,5.56,33S.19,29.18,0,25.23a12.56,12.56,0,0,1,3.07-8.69C7.39,11.2,11.72,5.88,16,.52c.55-.7.85-.68,1.37,0,4.4,5.68,8.88,11.29,13.2,17a11.67,11.67,0,0,1,1.8,10.8,7,7,0,0,1-5.93,5.06c-2.74.49-4.79-.74-6.38-2.87C19.38,29.6,18.76,28.63,17.94,27.45Z"/></symbol></defs><path class="b" d="M80.32,250.6c-22.88,0-45.76,0-68.64,0-3.67,0-6.21-1.65-8.4-4.22a12,12,0,0,1-2.71-8c0-4.16,0-8.32,0-12.47C1,181.27.68,136.57.78,91.86.82,72.77.9,53.66.7,34.57.62,26.42.77,18.28.51,10.14.38,6.35,2.18,4,5.2,2.19A12.27,12.27,0,0,1,11.47.55c15.29,0,30.59-.14,45.88,0,31.42.36,62.83,0,94.25.17a10.62,10.62,0,0,1,9.83,6.06,9.47,9.47,0,0,1,.75,5.49c-.05.59-.14,1.18-.14,1.78l0,86.55c0,4.31.13,8.63,0,12.94q-.21,5-.14,9.93c.44,29.56.05,59.12.19,88.68q.06,12.34,0,24.7a14.69,14.69,0,0,1-1.17,6.16c-1.73,3.78-6.12,7.57-11,7.56-23.15-.06-46.31,0-69.47,0Z"/><path class="c" d="M93.53,80.56c-1.11-14.86.59-29.8-1-44.65-.1-1-.06-2-1.15-2.25-2.8-.6-2.69-3.15-3.35-5-.75-2.14.12-3.54,2.6-3.85a106.43,106.43,0,0,1,12.11-.37c1.7,0,3.19.44,3.55,2.31s1.18,4.48-1.07,5.47c-3.54,1.56-3.48,4.26-3.46,7.31.1,17.42.21,34.83.86,52.26.29,7.81-2.27,15.45-8.55,20.88-11,9.48-30.75,4.41-36.09-9-1.84-4.61-2.06-9.39-1.79-14.22.08-1.42-1.17-3.86,1.67-4,2.25-.09,4.85-.23,5.84,2.67a36.29,36.29,0,0,1,1,3.58c.64,2.72,1,5.52,1.91,8.15,2.08,6.24,6.8,9.12,13.76,8.69,7.16-.44,10.9-3.6,12.51-10.28.71-2.93.48-5.88.64-8.82S93.53,83.52,93.53,80.56Z"/><use width="32.96" height="38.86" transform="translate(47.07 146.18) scale(2.08)" xlink:href="#a"/></svg>