<svg xmlns="http://www.w3.org/2000/svg" xmlns:xlink="http://www.w3.org/1999/xlink" viewBox="0 0 162.76 251.15"><defs><style>.a{fill:#1d1d14;}.b{fill:#fefefe;stroke:#c5c6c8;stroke-miterlimit:10;}.c{fill:#050402;}</style><symbol id="a" viewBox="0 0 36.15 39.55"><path class="a" d="M16.43,26.84a17.37,17.37,0,0,1-3.45,5c-2.53,2.46-6.58,1.91-8.66.6A9.45,9.45,0,0,1,1.7,19.09c2.41-3.3,6.05-4.21,10.12-2.52l.54.26c.22.08.49.18.62-.08,0-.11-.09-.37-.21-.51-.66-.79-1.4-1.54-2-2.36A8.38,8.38,0,0,1,12.4,1.64,9.09,9.09,0,0,1,17.06.06,10.11,10.11,0,0,1,24.27,2a8.17,8.17,0,0,1,2.35,9.9,10.71,10.71,0,0,1-2.29,3.33,4.56,4.56,0,0,0-1.25,1.59c.57.31,1-.07,1.44-.26a8.28,8.28,0,0,1,9.58,2.16c4.61,5.88.73,13.54-4.74,14.6-2.58.5-4.94.11-6.83-2.05a10.62,10.62,0,0,1-2.05-3A1.86,1.86,0,0,0,19.24,27a17.87,17.87,0,0,0,1.49,7.4c.53,1.29,1.11,2.55,1.66,3.82.42,1,.16,1.4-.85,1.25a25.42,25.42,0,0,0-7.13,0c-1.08.14-1.2-.08-.8-1.13.94-2.44,2.32-4.71,2.78-7.33A10.62,10.62,0,0,0,16.43,26.84Z"/></symbol></defs><path class="b" d="M80.29,250.6c-22.84,0-45.68,0-68.52.05-3.76,0-6.35-1.68-8.58-4.36a12.3,12.3,0,0,1-2.63-7.87v-1C1,189.08.72,140.7.78,92.31.81,73.05.89,53.79.7,34.54.62,26.39.77,18.25.51,10.11.38,6.32,2.21,4,5.22,2.18A12.22,12.22,0,0,1,11.5.55C26.75.55,42,.41,57.26.59c31.45.36,62.91,0,94.37.18a10.58,10.58,0,0,1,9.76,6,9.6,9.6,0,0,1,.79,5.6A15.27,15.27,0,0,0,162,14l0,86.19c0,4.47.13,9,0,13.42q-.21,5-.14,9.93c.44,29.56.05,59.12.19,88.68q.06,12.28,0,24.58a15.09,15.09,0,0,1-1.14,6.17c-1.68,3.8-6.18,7.66-11.21,7.65-23.11-.08-46.23,0-69.35,0Z"/><path class="c" d="M80.3,71.11C73.81,78.88,68.55,86.3,66.93,95.73a28.18,28.18,0,0,0,0,9.3c.45,2.82,1.16,5,4.71,5.29,3.32.23,2.33,3,2.4,5.05.08,2.28-.67,3.53-3.17,3.5-5.46-.07-10.93-.06-16.39,0-2.88,0-3.8-1.52-3.78-4.13,0-2.3-.09-4.58,3.19-4.49,3.51.09,4.62-2,4.62-5.08q0-33.49,0-67c0-3-1.32-4.45-4.31-5.07-3.35-.7-4.76-5.81-2.47-8.11.64-.64,1.45-.2,2.18-.21,5.6-.08,11.23.6,16.81-.4,2.92-.53,2.66,2,3.3,3.49.9,2.17.45,4.66-1.83,5-5.36.76-5,4.26-5,8.14.1,7.49,0,15-.07,22.47,0,2,.12,4.06,1.5,5.77,1.44.17,1.71-1.13,2.25-2Q79.22,54,87.51,40.75c2.09-3.34,2.88-6.67,1.08-10.58-1.94-4.22-.9-5.49,3.62-5.38,5.44.14,10.86-.57,16.34,0,4.32.43,2.6,3.23,2.88,5.4.35,2.77-1.18,3.9-3.51,3.36-3.9-.9-5.75.95-7.87,3.93-4.52,6.38-8.13,13.28-12.35,19.82-1.49,2.32-1.28,4.78-.42,7.2q7.35,20.67,14.77,41.31c1.06,2.95,2.91,4.74,6.29,4.38,3-.32,3.76,1.65,3.83,4.07.07,2.64-.78,4.62-3.93,4.62-5.15,0-10.3-.09-15.44.07-2.08.06-3.59,0-4.15-2.51-.5-2.25-1.2-4.75,1.26-5.77,3.54-1.47,3.1-3.47,2.08-6.31C88.08,93.53,84.34,82.66,80.3,71.11Z"/><use width="36.15" height="39.55" transform="translate(45.56 148.08) scale(1.98)" xlink:href="#a"/></svg>