<svg xmlns="http://www.w3.org/2000/svg" xmlns:xlink="http://www.w3.org/1999/xlink" viewBox="0 0 162.75 251.13"><defs><style>.a{fill:#cf2101;}.b{fill:#fefefe;stroke:#c5c6c8;stroke-miterlimit:10;}</style><symbol id="a" viewBox="0 0 40.83 50.32"><path class="a" d="M0,25.26A1.85,1.85,0,0,1,.57,24L19.32.8c.87-1.07,1.17-1.06,2,0L40,23.46c1.16,1.42,1.18,1.61,0,3.07Q30.91,37.91,21.84,49.29c-1.11,1.38-1.36,1.38-2.52,0Q10,38,.68,26.62A2.15,2.15,0,0,1,0,25.26Z"/></symbol></defs><path class="b" d="M80.3,250.59c-22.92,0-45.83,0-68.75,0a10.19,10.19,0,0,1-8-3.86,12.34,12.34,0,0,1-3-8.58c0-3.6,0-7.19,0-10.79.46-45,.12-90,.21-135.06C.8,73.08.88,53.82.68,34.56.6,26.26.7,18,.5,9.65.43,6.49,2,4.37,4.38,2.71A12.72,12.72,0,0,1,11.82.54C27,.56,42.16.41,57.33.59c31.42.36,62.83,0,94.25.17a10.66,10.66,0,0,1,9.83,6.06,9.47,9.47,0,0,1,.75,5.49c0,.59-.14,1.18-.14,1.78q0,43.27,0,86.54c0,4.32.12,8.64-.06,13q-.21,5-.14,9.92c.44,29.56,0,59.12.19,88.68q.06,12.47,0,24.93a13.42,13.42,0,0,1-9.14,13.06,10.51,10.51,0,0,1-3.06.41H80.3Z"/><path class="a" d="M80.29,71.37C73.81,79.14,68.54,86.56,66.93,96a28.52,28.52,0,0,0-.05,9.31c.45,2.81,1.17,5,4.71,5.29,3.33.22,2.34,3,2.41,5,.08,2.28-.68,3.54-3.18,3.51q-8.19-.11-16.38,0c-2.89,0-3.8-1.52-3.78-4.13,0-2.3-.1-4.57,3.19-4.48,3.5.09,4.61-2,4.61-5.09q0-33.5,0-67c0-3-1.31-4.45-4.3-5.07-3.36-.7-4.77-5.82-2.47-8.11.64-.64,1.45-.2,2.18-.21,5.6-.09,11.22.6,16.8-.41,2.93-.52,2.66,2,3.3,3.5.91,2.16.46,4.65-1.83,5-5.35.77-5,4.27-5,8.14.11,7.49,0,15-.06,22.48,0,2,.11,4.06,1.49,5.76,1.45.18,1.71-1.12,2.25-2Q79.22,54.3,87.5,41c2.09-3.33,2.88-6.66,1.09-10.57-2-4.22-.9-5.5,3.61-5.38,5.44.14,10.86-.58,16.34,0,4.32.44,2.61,3.24,2.88,5.41.35,2.76-1.17,3.89-3.5,3.36-3.91-.9-5.76.94-7.88,3.93C95.53,44.11,91.91,51,87.7,57.55c-1.5,2.32-1.28,4.77-.42,7.19q7.35,20.67,14.77,41.31c1,3,2.9,4.75,6.29,4.39,3-.33,3.76,1.65,3.82,4.06.08,2.65-.77,4.63-3.92,4.62-5.15,0-10.3-.08-15.45.07-2.08.07-3.58,0-4.14-2.5-.5-2.25-1.21-4.75,1.26-5.78,3.54-1.47,3.1-3.46,2.07-6.3C88.07,93.8,84.34,82.92,80.29,71.37Z"/><use width="40.83" height="50.32" transform="translate(49.56 148.31) scale(1.56)" xlink:href="#a"/></svg>