<svg xmlns="http://www.w3.org/2000/svg" xmlns:xlink="http://www.w3.org/1999/xlink" viewBox="0 0 162.82 251.15"><defs><style>.a{fill:#cb3329;}.b{fill:#fefefe;stroke:#c5c6c8;stroke-miterlimit:10;}.c{fill:#cf2101;}</style><symbol id="a" viewBox="0 0 41.85 45.12"><path class="a" d="M0,11.37c.12-3,.81-6,3.08-8.33,3.86-4,10-4.06,14.31-.1A12.51,12.51,0,0,1,19.83,6c.24.41.38,1,.91,1s.7-.59.93-1A11.11,11.11,0,0,1,29.16.37c6.11-1.19,11.17.93,12.41,8.14a18.54,18.54,0,0,1-1.22,10.43C37.86,25,34,30.05,30,35.12c-2.48,3.17-5.14,6.21-7.83,9.21-.92,1-1.24,1.05-2.11.1C14.33,38.2,8.78,31.81,4.31,24.58,2,20.85.1,17,0,12.44Z"/></symbol></defs><path class="b" d="M.78,127V29.6q0-7.37,0-14.74c0-1.31-.13-2.63-.23-3.93C.09,4.87,4.17,2.22,8.46,1A13,13,0,0,1,12.23.52c10,0,20-.08,29.94,0C75.54,1,108.91.63,142.28.75c3.12,0,6.23,0,9.34,0A11.29,11.29,0,0,1,161,5.84a7.12,7.12,0,0,1,1.25,4.29c0,7.95.16,15.9,0,23.85-.31,12-.12,24-.15,35.94q-.1,48.48,0,97,0,35.35,0,70.71c0,5.73-3,9.59-7.81,12.19a8.06,8.06,0,0,1-3.82.77l-127.32,0c-3.75,0-7.51-.15-11.26,0S5.39,249,3.17,246.21a11.69,11.69,0,0,1-2.42-7.7q0-55.72,0-111.47Z"/><use width="41.85" height="45.12" transform="translate(45.67 149.39) scale(1.71)" xlink:href="#a"/><path class="c" d="M81.35,69.55C74.86,77.32,69.6,84.74,68,94.17a28.18,28.18,0,0,0,0,9.3c.45,2.82,1.16,5,4.71,5.29,3.32.23,2.33,3,2.4,5,.08,2.28-.67,3.53-3.17,3.5-5.46-.07-10.93-.06-16.39,0-2.88,0-3.8-1.51-3.78-4.12,0-2.3-.1-4.58,3.19-4.49,3.51.09,4.62-2,4.62-5.08q0-33.49,0-67c0-3-1.32-4.45-4.31-5.07-3.35-.7-4.76-5.81-2.47-8.11.64-.64,1.45-.2,2.18-.21,5.6-.08,11.23.6,16.81-.4,2.92-.53,2.66,2,3.3,3.49.9,2.17.45,4.66-1.83,5-5.36.76-5,4.26-5,8.13.1,7.5,0,15-.07,22.48,0,2,.12,4.06,1.5,5.77,1.44.17,1.71-1.13,2.25-2q8.34-13.23,16.63-26.52c2.09-3.34,2.88-6.67,1.08-10.58-1.94-4.22-.9-5.49,3.62-5.38,5.44.14,10.86-.57,16.34,0,4.32.43,2.6,3.23,2.88,5.4.35,2.77-1.18,3.9-3.51,3.36-3.9-.9-5.76,1-7.87,3.93C96.58,42.28,93,49.18,88.75,55.72c-1.49,2.32-1.28,4.78-.42,7.2q7.35,20.65,14.77,41.31c1.06,3,2.91,4.74,6.29,4.38,3-.32,3.76,1.65,3.83,4.07.07,2.64-.78,4.62-3.93,4.62-5.15,0-10.3-.09-15.44.07-2.08.06-3.59,0-4.15-2.51-.5-2.25-1.2-4.75,1.26-5.77,3.54-1.47,3.1-3.47,2.08-6.31C89.13,92,85.39,81.09,81.35,69.55Z"/></svg>