<svg xmlns="http://www.w3.org/2000/svg" xmlns:xlink="http://www.w3.org/1999/xlink" viewBox="0 0 162.76 251.14"><defs><style>.a{fill:#010101;}.b{fill:#fefefe;stroke:#c5c6c8;stroke-miterlimit:10;}.c{fill:#050402;}</style><symbol id="a" viewBox="0 0 32.96 38.86"><path class="a" d="M17.94,27.45c-.62,2.7,0,5,.66,7.29.32,1.15.69,2.28,1.06,3.42.17.5.07.7-.51.69-1.8,0-3.59,0-5.39,0-.77,0-.82-.18-.6-.87a47.6,47.6,0,0,0,2.07-7.59,12,12,0,0,0,.07-2.94,3.58,3.58,0,0,0-1.51,1.65C11.48,32.76,9,34,5.56,33S.19,29.18,0,25.23a12.56,12.56,0,0,1,3.07-8.69C7.39,11.2,11.72,5.88,16,.52c.55-.7.85-.68,1.37,0,4.4,5.68,8.88,11.29,13.2,17a11.67,11.67,0,0,1,1.8,10.8,7,7,0,0,1-5.93,5.06c-2.74.49-4.79-.74-6.38-2.87C19.38,29.6,18.76,28.63,17.94,27.45Z"/></symbol></defs><path class="b" d="M80.39,250.6c-22.88,0-45.76,0-68.64,0-3.76,0-6.34-1.68-8.57-4.36A12.28,12.28,0,0,1,.56,238.4v-.84c.41-48.5.16-97,.22-145.5C.81,72.88.89,53.7.7,34.52.62,26.37.77,18.23.51,10.09.38,6.29,2.23,3.93,5.24,2.17A12.2,12.2,0,0,1,11.52.54C26.73.55,42,.41,57.16.59c31.49.36,63,0,94.48.17a10.63,10.63,0,0,1,9.76,6,9.5,9.5,0,0,1,.77,5.6c0,.55-.13,1.1-.13,1.66l0,86.43c0,4.39.13,8.79,0,13.18q-.21,5-.14,9.93c.44,29.44.05,58.88.19,88.32q.06,12.52,0,25.05a14.59,14.59,0,0,1-1.18,6.17c-1.76,3.76-6.11,7.52-11.06,7.51-23.12-.06-46.24,0-69.36,0Z"/><path class="c" d="M80.3,70.43C73.82,78.2,68.55,85.62,66.94,95.05a27.92,27.92,0,0,0,0,9.3c.45,2.82,1.17,5.05,4.71,5.29,3.33.23,2.33,3,2.41,5,.07,2.28-.68,3.53-3.18,3.5-5.46-.07-10.92-.06-16.38,0-2.89,0-3.8-1.52-3.79-4.13,0-2.3-.09-4.57,3.2-4.49,3.5.09,4.61-2,4.61-5.08q0-33.49,0-67c0-3-1.32-4.45-4.3-5.07-3.36-.7-4.77-5.81-2.48-8.11.64-.64,1.46-.2,2.18-.21,5.61-.08,11.23.6,16.81-.4,2.92-.53,2.66,2,3.3,3.49.9,2.17.46,4.66-1.83,5-5.35.76-5,4.26-5,8.14.1,7.49,0,15-.06,22.47,0,2,.11,4.07,1.49,5.77,1.44.17,1.71-1.13,2.25-2q8.36-13.23,16.63-26.52c2.09-3.34,2.88-6.66,1.08-10.58-1.94-4.22-.9-5.49,3.62-5.38,5.44.14,10.86-.57,16.34,0,4.32.43,2.6,3.23,2.88,5.4.35,2.77-1.17,3.9-3.51,3.36-3.9-.9-5.75.95-7.87,3.94-4.52,6.37-8.13,13.27-12.34,19.81-1.5,2.32-1.28,4.78-.42,7.2q7.33,20.67,14.77,41.31c1,3,2.9,4.74,6.28,4.38,3-.32,3.77,1.65,3.83,4.07.07,2.64-.77,4.62-3.93,4.62-5.15,0-10.3-.08-15.44.07-2.08.06-3.59,0-4.15-2.51-.5-2.25-1.2-4.75,1.27-5.77,3.54-1.47,3.1-3.46,2.07-6.31C88.08,92.85,84.35,82,80.3,70.43Z"/><use width="32.96" height="38.86" transform="translate(47.07 146.18) scale(2.08)" xlink:href="#a"/></svg>