<svg xmlns="http://www.w3.org/2000/svg" xmlns:xlink="http://www.w3.org/1999/xlink" viewBox="0 0 162.77 251.14"><defs><style>.a{fill:#1d1d14;}.b,.d{fill:#fefefe;}.b{stroke:#c5c6c8;stroke-miterlimit:10;}.c{fill:#040302;}</style><symbol id="a" viewBox="0 0 36.15 39.55"><path class="a" d="M16.43,26.84a17.37,17.37,0,0,1-3.45,5c-2.53,2.46-6.58,1.91-8.66.6A9.45,9.45,0,0,1,1.7,19.09c2.41-3.3,6.05-4.21,10.12-2.52l.54.26c.22.08.49.18.62-.08,0-.11-.09-.37-.21-.51-.66-.79-1.4-1.54-2-2.36A8.38,8.38,0,0,1,12.4,1.64,9.09,9.09,0,0,1,17.06.06,10.11,10.11,0,0,1,24.27,2a8.17,8.17,0,0,1,2.35,9.9,10.71,10.71,0,0,1-2.29,3.33,4.56,4.56,0,0,0-1.25,1.59c.57.31,1-.07,1.44-.26a8.28,8.28,0,0,1,9.58,2.16c4.61,5.88.73,13.54-4.74,14.6-2.58.5-4.94.11-6.83-2.05a10.62,10.62,0,0,1-2.05-3A1.86,1.86,0,0,0,19.24,27a17.87,17.87,0,0,0,1.49,7.4c.53,1.29,1.11,2.55,1.66,3.82.42,1,.16,1.4-.85,1.25a25.42,25.42,0,0,0-7.13,0c-1.08.14-1.2-.08-.8-1.13.94-2.44,2.32-4.71,2.78-7.33A10.62,10.62,0,0,0,16.43,26.84Z"/></symbol></defs><path class="b" d="M80.34,250.6c-22.87,0-45.75,0-68.63,0-3.67,0-6.22-1.63-8.42-4.21a12,12,0,0,1-2.72-8c0-4.16,0-8.31,0-12.47C1,181.3.69,136.59.78,91.89c0-19.1.12-38.2-.08-57.3C.62,26.45.77,18.3.51,10.16.38,6.38,2.16,4,5.18,2.21A12.07,12.07,0,0,1,11.45.55c15.13,0,30.27-.13,45.4,0,31.61.36,63.23,0,94.85.18a10.54,10.54,0,0,1,9.72,6,9.43,9.43,0,0,1,.74,5.6c0,.52-.11,1-.11,1.55q0,37.34,0,74.68c0,7.83,0,15.66,0,23.49,0,3.27-.23,6.54-.18,9.81.46,30,.08,59.92.21,89.88q.06,12.58,0,25.17a14.69,14.69,0,0,1-1.16,6.05c-1.72,3.77-6.14,7.6-11.13,7.58-23.12-.07-46.24,0-69.36,0Z"/><path class="c" d="M105.82,76.63c0,5.67.06,14.84,0,24,0,3-.15,6-2.56,8.35-1.52,1.5-1.07,3.3.13,4.9a28.33,28.33,0,0,0,4.76,4.78c2.19,1.81,2.7,5.43.75,7.4-2.38,2.41-4.63.7-6.1-1.15C97.29,118,90.16,117,82.09,118.34c-7,1.13-12.58-2.18-17.27-6.88-2.8-2.81-5.2-5.62-9.64-5.88-2.63-.16-3.54-4.21-1-5.91,6.49-4.28,5.88-10.55,5.89-16.88,0-12.31.16-24.63.26-36.95C60.45,34.93,68,28.17,77.61,26.33c9.17-1.77,17.65-.24,24.4,6.92a15.83,15.83,0,0,1,4.42,11.46C106.32,54.18,106.66,63.66,105.82,76.63Z"/><path class="d" d="M98,72.25c0,8.57,0,17.14,0,25.71,0,1.28.46,2.87-1.14,3.57s-2.36-.86-3.28-1.73C87.76,94.3,81,90.91,72.93,91.38c-3.67.22-4.37-1.5-4.36-4.4,0-6.31.09-12.62.1-18.93,0-6.61.06-13.22,0-19.83s2.47-10.76,8.22-13.06c6.35-2.55,14.31-1.2,18,3.09a11.59,11.59,0,0,1,2.8,7.87c0,8.71,0,17.42,0,26.13Z"/><path class="d" d="M89.15,108.55c-7.22,2.8-13,1.59-18.11-3.06-1.18-1.07-2.06-2.3-1.46-3.93S71.65,100.12,73,100C80.08,99.25,84.8,102.89,89.15,108.55Z"/><use width="36.15" height="39.55" transform="translate(46.07 148.08) scale(1.98)" xlink:href="#a"/></svg>