<svg xmlns="http://www.w3.org/2000/svg" xmlns:xlink="http://www.w3.org/1999/xlink" viewBox="0 0 162.74 251.13"><defs><style>.a{fill:#cf2101;}.b,.c{fill:#fefefe;}.b{stroke:#c5c6c8;stroke-miterlimit:10;}</style><symbol id="a" viewBox="0 0 40.83 50.32"><path class="a" d="M0,25.26A1.85,1.85,0,0,1,.57,24L19.32.8c.87-1.07,1.17-1.06,2,0L40,23.46c1.16,1.42,1.18,1.61,0,3.07Q30.91,37.91,21.84,49.29c-1.11,1.38-1.36,1.38-2.52,0Q10,38,.68,26.62A2.15,2.15,0,0,1,0,25.26Z"/></symbol></defs><path class="b" d="M80.18,250.59c-22.88,0-45.76,0-68.63,0a10.19,10.19,0,0,1-8-3.86,12.35,12.35,0,0,1-3-8.58c0-3.64,0-7.27,0-10.91C1,182.18.67,137.08.76,92,.8,72.84.88,53.7.68,34.56.6,26.26.7,18,.5,9.65.43,6.49,2,4.37,4.38,2.71A12.72,12.72,0,0,1,11.82.54C27,.56,42.17.41,57.34.59c31.41.36,62.83,0,94.24.18a10.65,10.65,0,0,1,9.83,6.05,9.64,9.64,0,0,1,.75,5.49c0,.6-.14,1.19-.14,1.78q0,43.27,0,86.55c0,4.31.11,8.63-.06,12.94-.11,3-.19,5.9-.15,8.85.45,29.71.07,59.43.2,89.15q.06,12.76,0,25.53a13.39,13.39,0,0,1-9.14,13,11.81,11.81,0,0,1-3.3.42H80.18Z"/><path class="a" d="M105.81,76.89c0,5.67,0,14.84,0,24,0,3-.16,6-2.56,8.35-1.52,1.5-1.07,3.31.13,4.91a28.27,28.27,0,0,0,4.75,4.78c2.2,1.8,2.7,5.43.76,7.4-2.38,2.41-4.64.7-6.1-1.15-5.48-6.91-12.62-7.88-20.68-6.58-7,1.12-12.58-2.19-17.27-6.89-2.8-2.81-5.2-5.62-9.64-5.88-2.63-.15-3.54-4.21-1-5.91,6.5-4.28,5.88-10.55,5.9-16.87,0-12.32.16-24.63.26-36.95C60.44,35.2,68,28.44,77.59,26.59c9.18-1.76,17.66-.24,24.41,6.92A15.86,15.86,0,0,1,106.41,45C106.31,54.45,106.64,63.92,105.81,76.89Z"/><path class="c" d="M98,72.52c0,8.57,0,17.14,0,25.7,0,1.29.46,2.88-1.15,3.57s-2.36-.85-3.27-1.72c-5.79-5.5-12.53-8.9-20.63-8.42-3.66.21-4.36-1.51-4.35-4.4,0-6.31.08-12.62.1-18.93,0-6.61.06-13.22,0-19.83s2.48-10.76,8.23-13.07c6.34-2.55,14.31-1.2,18,3.1a11.55,11.55,0,0,1,2.81,7.87c0,8.71,0,17.42,0,26.13Z"/><path class="c" d="M89.14,108.82c-7.23,2.8-13,1.59-18.12-3.06-1.18-1.07-2-2.31-1.46-3.93s2.07-1.45,3.41-1.59C80.06,99.51,84.79,103.15,89.14,108.82Z"/><use width="40.83" height="50.32" transform="translate(49.56 148.31) scale(1.56)" xlink:href="#a"/></svg>