<svg xmlns="http://www.w3.org/2000/svg" xmlns:xlink="http://www.w3.org/1999/xlink" viewBox="0 0 162.74 251.13"><defs><style>.a{fill:#cb3329;}.b,.d{fill:#fefefe;}.b{stroke:#c5c6c8;stroke-miterlimit:10;}.c{fill:#cf2101;}</style><symbol id="a" viewBox="0 0 41.85 45.12"><path class="a" d="M0,11.37c.12-3,.81-6,3.08-8.33,3.86-4,10-4.06,14.31-.1A12.51,12.51,0,0,1,19.83,6c.24.41.38,1,.91,1s.7-.59.93-1A11.11,11.11,0,0,1,29.16.37c6.11-1.19,11.17.93,12.41,8.14a18.54,18.54,0,0,1-1.22,10.43C37.86,25,34,30.05,30,35.12c-2.48,3.17-5.14,6.21-7.83,9.21-.92,1-1.24,1.05-2.11.1C14.33,38.2,8.78,31.81,4.31,24.58,2,20.85.1,17,0,12.44Z"/></symbol></defs><path class="b" d="M80.19,250.59c-22.88,0-45.76,0-68.64,0a10.14,10.14,0,0,1-8-3.86,12.28,12.28,0,0,1-3-8.57c0-3.6,0-7.2,0-10.79C1,182.35.67,137.28.76,92.22.8,73,.88,53.78.68,34.57.6,26.26.7,18,.5,9.66.43,6.5,2,4.37,4.37,2.71A12.74,12.74,0,0,1,11.81.54C27,.56,42.16.41,57.33.59c31.41.36,62.83,0,94.24.17a10.67,10.67,0,0,1,9.84,6.06,9.62,9.62,0,0,1,.75,5.49c0,.59-.14,1.18-.14,1.78q0,43.26,0,86.54c0,4.27.12,8.55-.06,12.82-.15,3.35-.19,6.7-.14,10,.44,29.56,0,59.12.19,88.68q.06,12.47,0,24.93a13.39,13.39,0,0,1-9.14,13,11.74,11.74,0,0,1-3.29.42H80.19Z"/><use width="41.85" height="45.12" transform="translate(45.63 149.38) scale(1.71)" xlink:href="#a"/><path class="c" d="M106.81,75.06c0,5.67.06,14.84,0,24,0,3-.15,6-2.56,8.35-1.51,1.5-1.07,3.31.14,4.9a27.55,27.55,0,0,0,4.75,4.78c2.2,1.81,2.7,5.43.76,7.4-2.39,2.41-4.64.7-6.11-1.15-5.48-6.9-12.61-7.87-20.68-6.58-7,1.13-12.58-2.18-17.26-6.88-2.81-2.81-5.2-5.62-9.64-5.88-2.64-.16-3.54-4.21-1-5.91,6.5-4.28,5.88-10.55,5.89-16.87,0-12.32.17-24.64.26-36.95C61.45,33.36,69,26.6,78.6,24.76c9.17-1.77,17.65-.24,24.4,6.92a15.79,15.79,0,0,1,4.42,11.46C107.31,52.61,107.65,62.09,106.81,75.06Z"/><path class="d" d="M99,70.69c0,8.56,0,17.13,0,25.7,0,1.28.47,2.87-1.14,3.57s-2.36-.85-3.28-1.73c-5.78-5.5-12.52-8.89-20.62-8.42-3.66.22-4.36-1.5-4.35-4.4,0-6.31.08-12.62.1-18.93,0-6.61.06-13.22,0-19.83s2.48-10.75,8.23-13.06c6.34-2.55,14.31-1.2,18,3.09a11.5,11.5,0,0,1,2.8,7.87c0,8.71,0,17.43,0,26.14Z"/><path class="d" d="M90.14,107c-7.22,2.8-13,1.59-18.11-3.07-1.18-1.07-2-2.3-1.46-3.93s2.07-1.44,3.41-1.58C81.07,97.68,85.79,101.32,90.14,107Z"/></svg>