<svg xmlns="http://www.w3.org/2000/svg" xmlns:xlink="http://www.w3.org/1999/xlink" viewBox="0 0 162.77 251.15"><defs><style>.a{fill:#010101;}.b,.d{fill:#fefefe;}.b{stroke:#c5c6c8;stroke-miterlimit:10;}.c{fill:#040302;}</style><symbol id="a" viewBox="0 0 32.96 38.86"><path class="a" d="M17.94,27.45c-.62,2.7,0,5,.66,7.29.32,1.15.69,2.28,1.06,3.42.17.5.07.7-.51.69-1.8,0-3.59,0-5.39,0-.77,0-.82-.18-.6-.87a47.6,47.6,0,0,0,2.07-7.59,12,12,0,0,0,.07-2.94,3.58,3.58,0,0,0-1.51,1.65C11.48,32.76,9,34,5.56,33S.19,29.18,0,25.23a12.56,12.56,0,0,1,3.07-8.69C7.39,11.2,11.72,5.88,16,.52c.55-.7.85-.68,1.37,0,4.4,5.68,8.88,11.29,13.2,17a11.67,11.67,0,0,1,1.8,10.8,7,7,0,0,1-5.93,5.06c-2.74.49-4.79-.74-6.38-2.87C19.38,29.6,18.76,28.63,17.94,27.45Z"/></symbol></defs><path class="b" d="M.76,138.81C.76,97.4.85,66,.7,34.59c0-8.14.07-16.29-.19-24.43C.38,6.38,2.17,4,5.18,2.2A12.18,12.18,0,0,1,11.45.55c15.13,0,30.27-.13,45.4,0,31.62.36,63.23,0,94.85.18a10.54,10.54,0,0,1,9.72,6,9.46,9.46,0,0,1,.74,5.61c0,.51-.11,1-.11,1.54q0,37.27,0,74.56c0,7.87,0,15.74,0,23.61,0,3.27-.23,6.54-.18,9.81.46,29.8.08,59.6.21,89.4q.06,12.82,0,25.65a14.69,14.69,0,0,1-1.16,6.05c-1.72,3.78-6.14,7.59-11.13,7.58q-55.75-.06-111.52,0c-8.83,0-17.65-.11-26.47,0C8,250.7,5.49,249,3.29,246.43a12,12,0,0,1-2.72-8c0-4.2-.06-8.39,0-12.59C1.06,193.52.59,161.17.76,138.81Z"/><path class="c" d="M105.82,76c0,5.67.06,14.84,0,24,0,3-.15,6-2.56,8.35-1.52,1.5-1.07,3.31.13,4.9a28.33,28.33,0,0,0,4.76,4.78c2.19,1.81,2.7,5.43.75,7.4-2.38,2.41-4.63.7-6.1-1.15-5.48-6.9-12.61-7.87-20.68-6.58-7,1.13-12.58-2.18-17.27-6.88-2.8-2.81-5.2-5.62-9.64-5.88-2.63-.16-3.54-4.21-1-5.91,6.49-4.28,5.88-10.55,5.89-16.87,0-12.32.16-24.64.26-37C60.45,34.25,68,27.49,77.61,25.65c9.17-1.77,17.65-.24,24.4,6.92A15.79,15.79,0,0,1,106.43,44C106.32,53.5,106.66,63,105.82,76Z"/><path class="d" d="M98,71.58q0,12.84,0,25.7c0,1.28.47,2.87-1.14,3.57s-2.36-.85-3.28-1.73C87.76,93.62,81,90.23,72.93,90.7c-3.67.22-4.37-1.5-4.35-4.4,0-6.31.08-12.62.09-18.93,0-6.61.07-13.22,0-19.83s2.47-10.75,8.22-13.06c6.35-2.55,14.31-1.2,18,3.09a11.54,11.54,0,0,1,2.8,7.87c0,8.71,0,17.42,0,26.14Z"/><path class="d" d="M89.15,107.87c-7.22,2.81-13,1.6-18.11-3.06-1.18-1.07-2.06-2.3-1.46-3.93S71.65,99.44,73,99.3C80.08,98.57,84.8,102.21,89.15,107.87Z"/><use width="32.96" height="38.86" transform="translate(47.07 146.18) scale(2.08)" xlink:href="#a"/></svg>